<svg id="Layer_1" data-name="Layer 1" xmlns="http://www.w3.org/2000/svg" viewBox="0 0 910.24 910.11"><defs><style>.cls-1{fill:#fff;}</style></defs><path class="cls-1" d="M84.16,207.15c1.22-20.63.34-41.61,4.12-61.73C94.61,111.65,128.61,85.47,162.9,85c14.92-.2,29.84,0,44.59,0,2.54,4.44.12,4.89-3.25,4.88-13,0-25.91-.25-38.85.07-36.06.9-65.72,25.22-73.35,60.4-1.46,6.73-1.61,13.81-1.79,20.75-.28,10.95-.13,21.91,0,32.87C90.23,207.05,89.72,209.09,84.16,207.15Z" transform="translate(-84.16 -84.89)"/><path class="cls-1" d="M870.43,88c1.21-1,2.44-3,3.62-2.95,19.84.61,40.06-.66,59.43,2.77,33.19,5.86,60,40.22,60.61,73.86.26,15.3,0,30.6,0,45.77-4.14,1.73-4.83-.12-4.81-3.36.08-11.55,0-23.11,0-34.66-.09-46.85-32.84-79.5-79.84-79.59q-18.79,0-37.59,0Z" transform="translate(-84.16 -84.89)"/><path class="cls-1" d="M207.43,995c-20.55-1.26-41.62-.17-61.61-4.3-35.38-7.31-60-40.25-60.44-76.39-.18-13.14,0-26.29-.09-39.44,0-3,.21-5.36,4.89-3.72,0,12.84,0,25.94,0,39,0,11.64,1.5,23.07,6.77,33.62,13.89,27.77,36.24,43.23,67.4,44.87,13.11.7,26.29.19,39.43.18C206.77,988.85,209.71,988.7,207.43,995Z" transform="translate(-84.16 -84.89)"/><path class="cls-1" d="M871.65,993.75c-1.82-5.07,1.14-4.9,4.11-4.9,13.14,0,26.3.28,39.43-.13a76.35,76.35,0,0,0,72.33-60.2,100.17,100.17,0,0,0,1.76-19c.26-12.71.08-25.44.08-40.48,2.43,2,4.72,3.07,4.68,4-.87,22.74,3.41,45.83-4.75,68.07-11.13,30.35-41.47,52.12-73.73,52.55C901,993.91,886.51,993.75,871.65,993.75Z" transform="translate(-84.16 -84.89)"/></svg>