<svg xmlns="http://www.w3.org/2000/svg" xmlns:xlink="http://www.w3.org/1999/xlink" width="55.28" height="72.105" viewBox="0 0 55.28 72.105">
  <defs>
    <clipPath id="clip-path">
      <rect id="Rectangle_1998" data-name="Rectangle 1998" width="55.28" height="72.106" fill="#00558d"/>
    </clipPath>
  </defs>
  <g id="Group_10736" data-name="Group 10736" transform="translate(3.8 56.957)">
    <g id="Group_10735" data-name="Group 10735" transform="translate(-3.8 -56.957)" clip-path="url(#clip-path)">
      <path id="Path_11500" data-name="Path 11500" d="M54.97,13.616,42.952.395A1.207,1.207,0,0,0,42.062,0H3.607A3.6,3.6,0,0,0,0,3.6V68.5a3.6,3.6,0,0,0,3.607,3.6h48.07a3.6,3.6,0,0,0,3.6-3.6V14.419a1.2,1.2,0,0,0-.311-.8M4.807,22.833a9.614,9.614,0,0,1,9.614-9.614,1.2,1.2,0,0,1,1.2,1.2v8.414h7.115a1.2,1.2,0,0,1,1.214,1.189,1.17,1.17,0,0,1-.014.179A9.614,9.614,0,0,1,4.807,22.833M16.825,60.088a1.2,1.2,0,0,1-1.2,1.2h-4.8a1.2,1.2,0,0,1-1.2-1.2V52.877a1.2,1.2,0,0,1,1.2-1.2h4.8a1.2,1.2,0,0,1,1.2,1.2Zm9.614,0a1.2,1.2,0,0,1-1.2,1.2H20.429a1.2,1.2,0,0,1-1.2-1.2V49.27a1.2,1.2,0,0,1,1.2-1.2h4.807a1.2,1.2,0,0,1,1.2,1.2Zm-.145-40.607a1.2,1.2,0,0,1-1.2.949H19.229a1.2,1.2,0,0,1-1.2-1.2V12.018a1.2,1.2,0,0,1,1.2-1.2,7.211,7.211,0,0,1,7.211,7.211,6.969,6.969,0,0,1-.145,1.455m9.76,40.607a1.2,1.2,0,0,1-1.2,1.2H30.044a1.2,1.2,0,0,1-1.2-1.2V44.463a1.2,1.2,0,0,1,1.2-1.2h4.807a1.2,1.2,0,0,1,1.2,1.2Zm9.612,0a1.2,1.2,0,0,1-1.2,1.2H39.658a1.2,1.2,0,0,1-1.2-1.2V39.658a1.2,1.2,0,0,1,1.2-1.2h4.807a1.2,1.2,0,0,1,1.2,1.2Zm2.4-28.843H31.247a1.2,1.2,0,1,1,0-2.4H48.07a1.2,1.2,0,1,1,0,2.4m0-4.807H31.247a1.2,1.2,0,1,1,0-2.4H48.07a1.2,1.2,0,1,1,0,2.4m0-4.807H31.247a1.2,1.2,0,1,1,0-2.4H48.07a1.2,1.2,0,1,1,0,2.4m-3.6-8.411a1.2,1.2,0,0,1-1.2-1.2v-7.7l8.1,8.9Z" transform="translate(0 0.001)" fill="#00558d"/>
    </g>
  </g>
</svg>
