<svg xmlns="http://www.w3.org/2000/svg" xmlns:xlink="http://www.w3.org/1999/xlink" width="103.434" height="67.512" viewBox="0 0 103.434 67.512">
  <defs>
    <clipPath id="clip-path">
      <rect id="Rectangle_1997" data-name="Rectangle 1997" width="103.434" height="67.512" fill="#00558d"/>
    </clipPath>
  </defs>
  <g id="Group_10734" data-name="Group 10734" transform="translate(0 0)">
    <g id="Group_10733" data-name="Group 10733" transform="translate(0 0)" clip-path="url(#clip-path)">
      <path id="Path_11493" data-name="Path 11493" d="M1.838,38.179H19.173V30.143a16.451,16.451,0,0,1,2.755-8.954l-7.691-6.313a1.56,1.56,0,0,0-1.723,0L4.593,19.7A9.486,9.486,0,0,0,0,27.848v8.609a1.792,1.792,0,0,0,1.838,1.723" transform="translate(0 23.594)" fill="#00558d"/>
      <path id="Path_11494" data-name="Path 11494" d="M14.9,30.656c7.346-.8,10.907-10.791,10.676-15.842C25.575,3.447,14.9,4.137,14.9,4.137S4.222,3.447,4.222,14.813c-.23,5.051,3.331,15.04,10.676,15.842" transform="translate(6.799 6.664)" fill="#00558d"/>
      <path id="Path_11495" data-name="Path 11495" d="M48.4,19.7l-7.806-4.821a1.56,1.56,0,0,0-1.723,0l-7.691,6.313a16.458,16.458,0,0,1,2.755,8.954v8.036H51.269A1.812,1.812,0,0,0,53.1,36.341V27.733A9.654,9.654,0,0,0,48.4,19.7" transform="translate(50.33 23.594)" fill="#00558d"/>
      <path id="Path_11496" data-name="Path 11496" d="M48.5,14.813C48.5,3.449,37.821,4.137,37.821,4.137S27.145,3.449,27.145,14.813c-.23,5.051,3.215,15.04,10.676,15.842,7.349-.8,10.907-10.791,10.676-15.842" transform="translate(43.8 6.664)" fill="#00558d"/>
      <path id="Path_11497" data-name="Path 11497" d="M40.842,20.444,30.4,14.016a2.548,2.548,0,0,0-2.41-.115l-6.658,3.673a.536.536,0,0,0,0,.918L25,20.559a2.856,2.856,0,0,1,1.493,2.525v22.27H44.4a2.426,2.426,0,0,0,2.413-2.41V31.351a12.869,12.869,0,0,0-5.971-10.906" transform="translate(34.008 22.041)" fill="#00558d"/>
      <path id="Path_11498" data-name="Path 11498" d="M11.061,45.115H43.206a.305.305,0,0,0,.345-.345V24.223a2.169,2.169,0,0,0-1.265-2.068L27.479,14.119a2.6,2.6,0,0,0-2.413.115L14.734,20.55A12.52,12.52,0,0,0,8.651,31.339V42.705a2.591,2.591,0,0,0,2.41,2.41" transform="translate(13.965 22.396)" fill="#00558d"/>
      <path id="Path_11499" data-name="Path 11499" d="M28.4.011S14.283-.907,14.283,14.13c-.345,6.658,4.245,19.86,14.119,21.01,9.759-1.15,14.464-14.352,14.119-21.01C42.522-.907,28.4.011,28.4.011" transform="translate(23.027 -0.001)" fill="#00558d"/>
    </g>
  </g>
</svg>
