<svg id="Group_10738" data-name="Group 10738" xmlns="http://www.w3.org/2000/svg" xmlns:xlink="http://www.w3.org/1999/xlink" width="72.477" height="72.477" viewBox="0 0 72.477 72.477">
  <defs>
    <clipPath id="clip-path">
      <rect id="Rectangle_1999" data-name="Rectangle 1999" width="72.477" height="72.477" fill="#00558d"/>
    </clipPath>
  </defs>
  <g id="Group_10737" data-name="Group 10737" transform="translate(0 0)" clip-path="url(#clip-path)">
    <path id="Path_11501" data-name="Path 11501" d="M31.38,0a5.038,5.038,0,0,0-5.024,5.024V13.18H18.193A18.179,18.179,0,0,0,.014,31.359V49.281c0,.041-.014.08-.014.123V67.453a5.038,5.038,0,0,0,5.024,5.024h16.34a5.007,5.007,0,0,0,4.992-4.992V44.528a5.007,5.007,0,0,0-4.992-4.992H9.9a9.736,9.736,0,0,0-3.3.61V31.359A11.592,11.592,0,0,1,18.193,19.768h8.163v16.46a3.294,3.294,0,0,0,4.767,2.966l12.5-6.253h8.712a16.087,16.087,0,0,1,.378,3.294v3.911a9.752,9.752,0,0,0-3.305-.61H37.968a5.04,5.04,0,0,0-5.026,5.024v22.9a5.033,5.033,0,0,0,5.019,5.017H54.28A5.038,5.038,0,0,0,59.3,67.453V49.4c0-.023-.007-.043-.007-.066v-13.1a22.407,22.407,0,0,0-.264-3.294h3.378a9.763,9.763,0,0,0,10.066-9.868V5.017A5.032,5.032,0,0,0,67.46,0Z" transform="translate(0 0)" fill="#00558d" fill-rule="evenodd"/>
  </g>
</svg>
