<svg xmlns="http://www.w3.org/2000/svg" xmlns:xlink="http://www.w3.org/1999/xlink" width="74.395" height="70.853" viewBox="0 0 74.395 70.853">
  <defs>
    <clipPath id="clip-path">
      <rect id="Rectangle_1986" data-name="Rectangle 1986" width="74.395" height="70.853" fill="#00558d"/>
    </clipPath>
  </defs>
  <g id="Group_10707" data-name="Group 10707" clip-path="url(#clip-path)">
    <path id="Path_11487" data-name="Path 11487" d="M37.2,0A21.257,21.257,0,0,0,15.942,21.256H0v49.6H29.227v-24.8H45.169v24.8H74.4v-49.6H58.453A21.256,21.256,0,0,0,37.2,0M35.426,5.314h3.543V12.4h7.085v3.543H38.969v7.085H35.426V15.942H28.341V12.4h7.085ZM7.085,28.341H23.027V38.969H7.085Zm22.141,0H45.169V38.969H29.227Zm22.141,0H67.31V38.969H51.368ZM7.085,46.054H23.027V56.682H7.085Zm44.283,0H67.31V56.682H51.368Z" transform="translate(0 0.001)" fill="#00558d"/>
  </g>
</svg>
