<svg xmlns="http://www.w3.org/2000/svg" xmlns:xlink="http://www.w3.org/1999/xlink" width="65.865" height="77.633" viewBox="0 0 65.865 77.633">
  <defs>
    <clipPath id="clip-path">
      <rect id="Rectangle_1984" data-name="Rectangle 1984" width="65.865" height="77.633" fill="#00558d"/>
    </clipPath>
  </defs>
  <g id="Group_10701" data-name="Group 10701" transform="translate(0 0)">
    <rect id="Rectangle_1977" data-name="Rectangle 1977" width="12.756" height="12.756" transform="translate(7.898 37.156)" fill="#00558d"/>
    <rect id="Rectangle_1978" data-name="Rectangle 1978" width="12.756" height="12.756" transform="translate(24.481 37.156)" fill="#00558d"/>
    <rect id="Rectangle_1979" data-name="Rectangle 1979" width="12.756" height="12.756" transform="translate(7.898 13.903)" fill="#00558d"/>
    <g id="Group_10700" data-name="Group 10700" transform="translate(0 0)">
      <g id="Group_10699" data-name="Group 10699" clip-path="url(#clip-path)">
        <path id="Path_11483" data-name="Path 11483" d="M26.585,10.139a5.643,5.643,0,1,0,5.646,5.642A5.648,5.648,0,0,0,26.585,10.139Z" transform="translate(28.809 13.946)" fill="#00558d"/>
        <path id="Path_11484" data-name="Path 11484" d="M23.5,56.255H35.254V36.52h4.4l-.007-15.929a5.041,5.041,0,0,0-5.036-5.048H24.106a5.043,5.043,0,0,0-5.038,5.048L19.054,36.52H23.5Z" transform="translate(26.207 21.379)" fill="#00558d"/>
        <path id="Path_11485" data-name="Path 11485" d="M4.741,44.548V26.462h32.5V21.72H4.741V5.853H0v63.73H4.741V49.289h28.1V69.582h4.741V44.548Z" transform="translate(0 8.051)" fill="#00558d"/>
        <rect id="Rectangle_1980" data-name="Rectangle 1980" width="12.757" height="12.757" transform="matrix(0.255, -0.967, 0.967, 0.255, 29.098, 24.87)" fill="#00558d"/>
        <rect id="Rectangle_1981" data-name="Rectangle 1981" width="2.195" height="7.568" transform="matrix(0.637, -0.771, 0.771, 0.637, 20.817, 8.851)" fill="#00558d"/>
        <rect id="Rectangle_1982" data-name="Rectangle 1982" width="2.196" height="8.018" transform="translate(26.859 0.771) rotate(-20.534)" fill="#00558d"/>
        <rect id="Rectangle_1983" data-name="Rectangle 1983" width="6.129" height="2.197" transform="matrix(0.274, -0.962, 0.962, 0.274, 34.931, 7.135)" fill="#00558d"/>
      </g>
    </g>
  </g>
</svg>
