<svg xmlns="http://www.w3.org/2000/svg" xmlns:xlink="http://www.w3.org/1999/xlink" width="71.444" height="72.6" viewBox="0 0 71.444 72.6">
  <defs>
    <clipPath id="clip-path">
      <rect id="Rectangle_1975" data-name="Rectangle 1975" width="71.444" height="72.6" fill="#00558d"/>
    </clipPath>
  </defs>
  <g id="Group_10696" data-name="Group 10696" transform="translate(0 0)">
    <g id="Group_10695" data-name="Group 10695" transform="translate(0 0)" clip-path="url(#clip-path)">
      <path id="Path_11479" data-name="Path 11479" d="M71.443,3.639V16.278a7.348,7.348,0,0,1-6.929,7.441,7.017,7.017,0,0,1-5.185-2,7.1,7.1,0,0,1-2.167-5.137,7.147,7.147,0,0,1-14.293,0,7.147,7.147,0,0,1-14.293.008v-.008a7.147,7.147,0,1,1-14.293,0A7.113,7.113,0,0,1,7.2,23.724c-.089,0-.177,0-.264-.005A7.349,7.349,0,0,1,0,16.278V3.639A3.64,3.64,0,0,1,3.643,0H67.8a3.64,3.64,0,0,1,3.639,3.639M64.218,28.268a11.515,11.515,0,0,1-7.066-2.438,11.677,11.677,0,0,1-14.283,0,11.7,11.7,0,0,1-14.293,0,11.673,11.673,0,0,1-14.281,0,11.637,11.637,0,0,1-7.114,2.428H6.649V69.4a3.209,3.209,0,0,0,3.208,3.2h9.767V38.942h32.2V72.6H61.6a3.211,3.211,0,0,0,3.211-3.2V28.245h-.59ZM45.1,45.7a.613.613,0,0,0-.613.6v5.107a.566.566,0,0,1-1.133,0V46.3a.613.613,0,0,0-.613-.6h-.182a.613.613,0,0,0-.613.6v5.107a.566.566,0,0,1-1.133,0V46.3a.6.6,0,0,0-.6-.6h-.193a.6.6,0,0,0-.6.6v5.107a.566.566,0,0,1-1.133,0V46.3a.613.613,0,0,0-1.227,0v7.532a4.369,4.369,0,0,0,3.2,4.187L39.681,70.8a1.747,1.747,0,0,0,3.495.005V70.8L42.6,58.035a4.249,4.249,0,0,0,3.1-4.05V46.3a.615.615,0,0,0-.59-.6m-15.054,0c-2.359,0-4.275,2.859-4.275,6.386,0,2.914,1.315,5.365,3.094,6.125L28.3,70.8a1.746,1.746,0,1,0,3.492,0l-.611-12.58c1.792-.76,3.1-3.211,3.1-6.125-.013-3.528-1.964-6.386-4.232-6.386" transform="translate(0.001 -0.001)" fill="#00558d"/>
    </g>
  </g>
</svg>
