<svg xmlns="http://www.w3.org/2000/svg" xmlns:xlink="http://www.w3.org/1999/xlink" width="93.651" height="56.461" viewBox="0 0 93.651 56.461">
  <defs>
    <clipPath id="clip-path">
      <rect id="Rectangle_1985" data-name="Rectangle 1985" width="93.651" height="56.461" fill="#00558d"/>
    </clipPath>
  </defs>
  <g id="Group_10706" data-name="Group 10706" transform="translate(0 0)">
    <g id="Group_10705" data-name="Group 10705" transform="translate(0 0)" clip-path="url(#clip-path)">
      <path id="Path_11486" data-name="Path 11486" d="M86.916,56.461H8.295V24.2H86.916ZM75.656,28.806H22.47V51.362H75.656ZM47.647,35.021a1.132,1.132,0,0,1,.123,1.52l-.1.109L39.8,44.567a1.2,1.2,0,0,1-1.669.026,1.133,1.133,0,0,1-.123-1.52l.1-.109,7.873-7.916a1.2,1.2,0,0,1,1.669-.026m7.764,0a1.132,1.132,0,0,1,.123,1.52l-.1.109-7.873,7.916a1.2,1.2,0,0,1-1.669.026,1.133,1.133,0,0,1-.123-1.52l.1-.109,7.873-7.916a1.2,1.2,0,0,1,1.669-.026M0,0,93.651,7.893v14.4H0Z" transform="translate(0 0.001)" fill="#00558d" fill-rule="evenodd"/>
    </g>
  </g>
</svg>
