<svg xmlns="http://www.w3.org/2000/svg" xmlns:xlink="http://www.w3.org/1999/xlink" width="62.157" height="75.21" viewBox="0 0 62.157 75.21">
  <defs>
    <clipPath id="clip-path">
      <rect id="Rectangle_1976" data-name="Rectangle 1976" width="62.157" height="75.21" fill="#00558d"/>
    </clipPath>
  </defs>
  <g id="Group_10698" data-name="Group 10698" transform="translate(0 0)">
    <g id="Group_10697" data-name="Group 10697" transform="translate(0 0)" clip-path="url(#clip-path)">
      <path id="Path_11480" data-name="Path 11480" d="M17.3,45.553a83.229,83.229,0,0,0,28.314-.164C51.78,44.3,60.1,42.721,61.875,35.57a9.971,9.971,0,0,0,.282-2.416c0-8.374-8.882-11.95-15.777-13.417A69.561,69.561,0,0,0,31.43,18.229,76.243,76.243,0,0,0,17.377,19.65C10.87,20.915,2.121,23.421.285,30.792A9.776,9.776,0,0,0,0,33.154c0,8.733,10.534,11.257,17.3,12.4" transform="translate(0 28.524)" fill="#00558d"/>
      <path id="Path_11481" data-name="Path 11481" d="M18.314,31.839a64.178,64.178,0,0,0,21.247-5.1C44,24.832,49.975,22.185,50.055,16.5a7.754,7.754,0,0,0-.213-1.867C48.37,8.34,41.065,7.214,35.625,7.324a53.8,53.8,0,0,0-11.5,1.5,58.729,58.729,0,0,0-10.308,3.54C9.15,14.457,3.017,17.879,2.93,23.74a7.541,7.541,0,0,0,.205,1.826c1.534,6.561,9.893,6.607,15.179,6.274" transform="translate(4.585 11.452)" fill="#00558d"/>
      <path id="Path_11482" data-name="Path 11482" d="M19.242,0C25.693,0,30.92,3.339,30.92,7.459s-5.227,7.459-11.678,7.459S7.564,11.578,7.564,7.459,12.791,0,19.242,0" transform="translate(11.837 0.001)" fill="#00558d"/>
    </g>
  </g>
</svg>
