<svg xmlns="http://www.w3.org/2000/svg" xmlns:xlink="http://www.w3.org/1999/xlink" width="76.063" height="72.189" viewBox="0 0 76.063 72.189">
  <defs>
    <clipPath id="clip-path">
      <rect id="Rectangle_1991" data-name="Rectangle 1991" width="76.063" height="72.189" fill="#00558d"/>
    </clipPath>
  </defs>
  <g id="Group_10708" data-name="Group 10708" transform="translate(0 0)">
    <rect id="Rectangle_1987" data-name="Rectangle 1987" width="8.276" height="7.571" transform="translate(55.992 50.356)" fill="#00558d"/>
    <rect id="Rectangle_1988" data-name="Rectangle 1988" width="8.276" height="7.571" transform="translate(11.622 50.356)" fill="#00558d"/>
    <rect id="Rectangle_1989" data-name="Rectangle 1989" width="16.902" height="22.539" transform="translate(29.579 49.651)" fill="#00558d"/>
    <rect id="Rectangle_1990" data-name="Rectangle 1990" width="37.678" height="18.662" transform="translate(19.193 0)" fill="#00558d"/>
    <g id="Group_10709" data-name="Group 10709" transform="translate(0 0)">
      <g id="Group_10708-2" data-name="Group 10708" clip-path="url(#clip-path)">
        <path id="Path_11488" data-name="Path 11488" d="M61.751,13.158a10.237,10.237,0,0,1-18.306,1.1,10.223,10.223,0,0,1-17.67.123,10.192,10.192,0,0,1-18.2-1.254A8.143,8.143,0,0,1,2.4,15.64v37.9H23.352V29.607a1.4,1.4,0,0,1,1.361-1.424H44.418a1.478,1.478,0,0,1,1.472,1.424V53.538H66.843V15.632a7.715,7.715,0,0,1-5.092-2.474M19.3,40.687a1.408,1.408,0,0,1-1.409,1.407H6.8a1.407,1.407,0,0,1-1.409-1.407V30.3A1.409,1.409,0,0,1,6.8,28.888H17.894A1.41,1.41,0,0,1,19.3,30.3ZM63.674,30.3V40.687a1.407,1.407,0,0,1-1.409,1.407H51.173a1.407,1.407,0,0,1-1.409-1.407V30.3a1.409,1.409,0,0,1,1.409-1.409H62.265A1.409,1.409,0,0,1,63.674,30.3" transform="translate(3.409 18.651)" fill="#00558d"/>
        <path id="Path_11489" data-name="Path 11489" d="M68.688,4.672A2.119,2.119,0,0,0,66.87,3.636H59.689V14.9a1.464,1.464,0,0,1-1.472,1.409H17.846A1.467,1.467,0,0,1,16.374,14.9V3.636H10.585a2.105,2.105,0,0,0-1.729.9L.375,16.688A2.1,2.1,0,0,0,0,17.9v3.293a5.137,5.137,0,0,0,10.222.731l.053-.826a1.41,1.41,0,0,1,1.407-1.315h.046a1.409,1.409,0,0,1,1.363,1.409,7.938,7.938,0,0,1-.065,1.017l-.034.494a7.392,7.392,0,0,0,14.784-.046,1.408,1.408,0,0,1,2.816,0,7.392,7.392,0,0,0,14.784.07v-.073a1.407,1.407,0,0,1,1.407-1.409h.145a1.41,1.41,0,0,1,1.409,1.409,7.391,7.391,0,0,0,14.781.07l0-.046a7.867,7.867,0,0,1-.14-1.487,1.409,1.409,0,0,1,2.811-.138L65.9,22.26a5.138,5.138,0,0,0,10.164-1.068V17.754a2.1,2.1,0,0,0-.288-1.075Z" transform="translate(0 5.167)" fill="#00558d"/>
      </g>
    </g>
  </g>
</svg>
