<svg id="Group_11582" data-name="Group 11582" xmlns="http://www.w3.org/2000/svg" xmlns:xlink="http://www.w3.org/1999/xlink" width="72.63" height="72.63" viewBox="0 0 72.63 72.63">
  <defs>
    <clipPath id="clip-path">
      <rect id="Rectangle_2347" data-name="Rectangle 2347" width="72.63" height="72.63" fill="#00558d"/>
    </clipPath>
  </defs>
  <g id="Group_11581" data-name="Group 11581" clip-path="url(#clip-path)">
    <path id="Path_11844" data-name="Path 11844" d="M60.631,0H12A12.034,12.034,0,0,0,0,12V60.631a12.034,12.034,0,0,0,12,12H60.631a12.034,12.034,0,0,0,12-12V12a12.034,12.034,0,0,0-12-12M36.766,59.8a24.339,24.339,0,0,1-11.752-3L11.553,61.077l4.388-12.942a23.871,23.871,0,0,1-3.487-12.457A24.312,24.312,0,1,1,36.766,59.8" transform="translate(0 0)" fill="#00558d" fill-rule="evenodd"/>
    <path id="Path_11845" data-name="Path 11845" d="M86.006,61.83A20.383,20.383,0,0,0,65.565,82.113,20.072,20.072,0,0,0,69.458,94l-2.552,7.531,7.854-2.5A20.336,20.336,0,1,0,86.006,61.83M97.933,90.479c-.5,1.381-2.931,2.714-4.022,2.81s-1.093.889-7.152-1.478-9.882-8.533-10.181-8.929-2.431-3.205-2.431-6.115a6.61,6.61,0,0,1,2.085-4.93,3.368,3.368,0,0,1,1.74-.739,8.587,8.587,0,0,1,.99-.1c.349,0,.847-.044,1.341,1.137s1.69,4.1,1.838,4.39a1.074,1.074,0,0,1,.051,1.035,4.046,4.046,0,0,1-.6.989c-.3.344-.626.768-.895,1.035-.3.3-.607.615-.261,1.206a17.987,17.987,0,0,0,3.316,4.1,16.306,16.306,0,0,0,4.793,2.933c.6.3.943.248,1.29-.148s1.491-1.727,1.889-2.319.8-.492,1.341-.3,3.477,1.628,4.073,1.923.991.443,1.142.69a4.915,4.915,0,0,1-.349,2.81" transform="translate(-49.239 -46.434)" fill="#00558d" fill-rule="evenodd"/>
  </g>
</svg>
