<svg width="116" height="101" viewBox="0 0 116 101" fill="none" xmlns="http://www.w3.org/2000/svg">
<path d="M0.929769 93.0899C2.79977 93.7099 4.46977 93.9499 6.42977 93.9699C8.38977 93.9899 10.4098 94.0099 12.4098 94.0099C16.0598 94.0099 19.7098 94.0299 23.3598 93.9999C30.8298 93.9399 38.2898 93.7999 45.7598 93.8199C60.6998 93.8399 75.6398 94.0699 90.5798 94.0799C94.7298 94.0799 98.8798 94.0699 103.03 94.0799C105.19 94.0899 107.35 94.1399 109.51 94.1699C111.67 94.1999 112.83 94.1 115 94C115.57 93.97 115.5 91.33 115.5 91.33C113.66 91.25 112.28 91.2099 110.44 91.2399L104.47 91.3299C100.82 91.3799 97.1698 91.3499 93.5198 91.3499C86.0498 91.3499 78.5798 91.3799 71.1098 91.3999C63.6398 91.4199 56.1798 91.5499 48.7098 91.5899C41.2398 91.6399 33.7698 91.4999 26.2998 91.4499C22.1498 91.4199 17.9998 91.4099 13.8498 91.4099C9.69977 91.4099 5.01977 90.9499 0.929769 92.3399C0.739769 92.4099 0.759769 93.0099 0.949769 93.0699L0.929769 93.0899Z" fill="black"/>
<path d="M71.8809 100.05C73.4409 100.75 75.6409 100.44 77.3209 100.44L82.9209 100.46C84.7909 100.46 86.6509 100.47 88.5209 100.48C90.3909 100.49 92.5209 100.76 94.3409 100.39C94.7709 100.3 94.7209 98.46 94.2909 98.38C92.4609 98.01 90.3309 98.29 88.4709 98.29C86.6109 98.29 84.7409 98.3 82.8709 98.31L77.2709 98.33C75.6009 98.33 73.3909 98.02 71.8409 98.72C71.5709 98.84 71.6109 99.94 71.8709 100.06L71.8809 100.05Z" fill="black"/>
<path d="M114.492 18.8401H1.51172V91.1501H114.492V18.8401Z" fill="white"/>
<path d="M108.099 30.3501H50.8594V84.9101H108.099V30.3501Z" fill="#D4D5D5"/>
<path d="M41.2502 60.22H7.91016V84.9H41.2502V60.22Z" fill="#D4D5D5"/>
<path d="M113.189 2.15007C112.789 3.39007 112.819 4.64007 112.789 5.93007C112.759 7.43007 112.739 8.93007 112.719 10.4301C112.689 13.3401 112.699 16.2601 112.709 19.1701C112.709 25.0801 112.729 30.9901 112.769 36.9001C112.849 48.7201 113.019 60.5301 113.179 72.3401C113.219 75.6701 113.269 79.0001 113.309 82.3201C113.349 85.6401 113.289 89.0401 113.819 92.2901C113.889 92.6901 114.089 93.6401 114.669 93.6201C115.249 93.6001 115.389 92.6501 115.449 92.2501C115.859 89.3301 115.749 86.2101 115.719 83.2601C115.689 80.3101 115.649 77.4401 115.619 74.5201C115.549 68.7001 115.489 62.8701 115.409 57.0501C115.249 45.3201 115.079 33.5901 114.799 21.8601C114.719 18.5301 114.659 15.2101 114.549 11.8801C114.499 10.3001 114.439 8.72007 114.379 7.14007C114.319 5.56007 114.399 3.87007 113.889 2.36007C113.769 2.00007 113.399 1.52007 113.189 2.16007V2.15007Z" fill="black"/>
<path d="M1.50058 3.35991C16.1306 3.75991 30.7906 3.5899 45.4206 3.5899C60.0506 3.5899 74.7006 3.5899 89.3406 3.5899C97.6606 3.5899 105.981 3.5899 114.291 3.5899C114.941 3.5899 114.921 0.589905 114.221 0.589905C84.9406 0.589905 55.6606 0.479905 26.3806 0.589905C18.0606 0.619905 9.75058 0.579904 1.43058 0.809904C0.79058 0.829904 0.820579 3.3299 1.49058 3.3499L1.50058 3.35991Z" fill="black"/>
<path d="M114.781 2.1001H1.80078V23.1601H114.781V2.1001Z" fill="black"/>
<path d="M15.0486 17.1199C17.5284 17.1199 19.5386 15.1097 19.5386 12.6299C19.5386 10.1501 17.5284 8.13989 15.0486 8.13989C12.5688 8.13989 10.5586 10.1501 10.5586 12.6299C10.5586 15.1097 12.5688 17.1199 15.0486 17.1199Z" fill="white"/>
<path d="M28.8884 17.1199C31.3682 17.1199 33.3784 15.1097 33.3784 12.6299C33.3784 10.1501 31.3682 8.13989 28.8884 8.13989C26.4087 8.13989 24.3984 10.1501 24.3984 12.6299C24.3984 15.1097 26.4087 17.1199 28.8884 17.1199Z" fill="white"/>
<path d="M42.7205 17.1199C45.2002 17.1199 47.2105 15.1097 47.2105 12.6299C47.2105 10.1501 45.2002 8.13989 42.7205 8.13989C40.2407 8.13989 38.2305 10.1501 38.2305 12.6299C38.2305 15.1097 40.2407 17.1199 42.7205 17.1199Z" fill="white"/>
<path d="M73.9803 37.6899C74.2503 37.6899 85.6003 37.4399 85.6003 37.4399C85.1003 38.8599 81.9403 48.1999 87.2303 57.5399C91.5003 65.0899 98.5303 67.7599 100.38 68.4099C98.0303 78.5299 95.6803 88.6499 93.3303 98.7599H72.7303L60.3203 68.6699C62.6803 67.2899 67.8503 63.8399 71.3403 57.2099C75.9403 48.4799 74.5103 40.1299 73.9903 37.6899H73.9803Z" fill="white"/>
<path d="M79.4013 37.8C78.9313 38.84 79.0513 40.17 79.0713 41.29C79.0913 42.87 79.1113 44.45 79.1313 46.02C79.1713 49.26 79.2313 52.5 79.2813 55.74C79.3813 61.99 79.2413 68.3 80.0713 74.51C80.1113 74.84 80.3713 74.83 80.4013 74.51C80.9913 68.27 80.5913 61.97 80.4413 55.72C80.3613 52.57 80.3013 49.41 80.2113 46.26C80.1713 44.68 80.1213 43.11 80.0813 41.53C80.0513 40.35 80.1413 38.9 79.6013 37.81C79.5413 37.69 79.4613 37.69 79.4013 37.81V37.8Z" fill="black"/>
<path d="M72.9713 37.8399C73.1913 40.3699 73.7413 42.8399 73.7013 45.3899C73.6413 49.5299 72.3813 53.6499 70.2113 57.1699C67.6113 61.3999 63.6913 64.8499 59.1913 66.9399C58.4513 67.2899 58.6713 68.9599 58.9413 69.5099C63.7613 79.1999 67.7913 89.3499 71.3913 99.5599C71.5613 100.05 71.8913 100.56 72.3813 100.1C72.8313 99.6699 72.7713 98.4799 72.5813 97.9599C68.9213 87.4999 64.5413 77.3799 59.8713 67.3299L59.6213 69.8999C69.8113 65.3199 75.6413 54.4799 74.7813 43.4499C74.6313 41.4599 74.4813 38.9699 73.2213 37.3199C73.0013 37.0299 72.9513 37.7599 72.9513 37.8399H72.9713Z" fill="black"/>
<path d="M73.5013 38.76C75.4013 39.27 77.6113 38.96 79.5713 38.92C81.5313 38.88 83.6113 38.83 85.6313 38.79L85.2013 36.49C81.8313 46.51 83.4913 58.78 92.5513 65.3C94.9913 67.06 97.7713 68.23 100.691 68.94L99.9613 66.22C97.7313 76.64 95.3313 87.03 93.0813 97.44C92.9113 98.2 92.8613 99.46 93.4613 100.07C94.0613 100.68 94.5213 99.94 94.6513 99.35C96.9213 88.92 99.0413 78.45 101.341 68.02C101.501 67.3 101.571 65.54 100.611 65.3C93.6213 63.6 87.6813 58.56 85.7613 51.5C84.9813 48.64 84.8913 45.65 85.2013 42.71C85.3113 41.7 85.4713 40.71 85.6913 39.72C85.7713 39.37 85.8513 39.03 85.9213 38.68C85.9413 38.56 85.9713 38.45 86.0013 38.33C85.9213 38.64 85.9713 38.45 86.0013 38.38C86.1313 37.99 86.3213 36.06 85.5713 36.08C83.5513 36.12 81.5313 36.17 79.5113 36.21C77.4913 36.25 75.3313 36.04 73.4613 36.63C72.8713 36.82 72.9213 38.6 73.5113 38.75L73.5013 38.76Z" fill="black"/>
<path d="M80.2311 81.0601C83.1913 81.0601 85.5911 78.6603 85.5911 75.7001C85.5911 72.7398 83.1913 70.3401 80.2311 70.3401C77.2708 70.3401 74.8711 72.7398 74.8711 75.7001C74.8711 78.6603 77.2708 81.0601 80.2311 81.0601Z" fill="black"/>
<path d="M1.3011 1.26997C0.6711 3.95997 0.7611 6.91997 0.6611 9.67997C0.5511 12.63 0.5811 15.6 0.5711 18.55C0.5611 24.37 0.5511 30.2 0.5411 36.02C0.5211 47.75 0.4911 59.48 0.4911 71.21C0.4911 77.84 0.2311 84.55 0.6011 91.17C0.6311 91.78 0.7511 93.21 1.5411 93.37C2.3311 93.53 2.5911 92.25 2.6311 91.72C2.9811 85.8 2.7911 79.82 2.8011 73.9C2.8111 67.98 2.8011 62.09 2.8111 56.18C2.8111 44.37 2.8111 32.56 2.8211 20.74C2.8211 17.41 2.8511 14.08 2.7811 10.76C2.7211 7.63997 2.7611 4.30997 2.0911 1.24997C1.9411 0.579972 1.4411 0.649973 1.2911 1.26997H1.3011Z" fill="black"/>
<path d="M7.88968 31.9501C8.91968 32.6801 10.4297 32.4701 11.6597 32.5101C13.0697 32.5501 14.4797 32.5501 15.8897 32.5601C18.7097 32.5801 21.5297 32.5601 24.3497 32.5601C29.9597 32.5601 35.6797 32.8701 41.2597 32.3201C41.5497 32.2901 41.5297 30.9501 41.2297 30.9201C35.6397 30.3701 29.9097 30.6801 24.2997 30.6801C21.5597 30.6801 18.8297 30.6601 16.0897 30.6801C14.6797 30.6901 13.2697 30.6801 11.8597 30.7301C10.5897 30.7601 8.91969 30.5201 7.86969 31.3001C7.74969 31.3901 7.76968 31.8601 7.88968 31.9501Z" fill="black"/>
<path d="M7.88968 42.2101C8.91968 42.9401 10.4297 42.7301 11.6597 42.7701C13.0697 42.8101 14.4797 42.8101 15.8897 42.8201C18.7097 42.8401 21.5297 42.8201 24.3497 42.8201C29.9597 42.8201 35.6797 43.1301 41.2597 42.5801C41.5497 42.5501 41.5297 41.2101 41.2297 41.1801C35.6397 40.6301 29.9097 40.9401 24.2997 40.9401C21.5597 40.9401 18.8297 40.9201 16.0897 40.9401C14.6797 40.9501 13.2697 40.9401 11.8597 40.9901C10.5897 41.0201 8.91969 40.7801 7.86969 41.5601C7.74969 41.6501 7.76968 42.1201 7.88968 42.2101Z" fill="black"/>
<path d="M7.88968 52.4701C8.91968 53.2001 10.4297 52.9901 11.6597 53.0301C13.0697 53.0701 14.4797 53.0701 15.8897 53.0801C18.7097 53.1001 21.5297 53.0801 24.3497 53.0801C29.9597 53.0801 35.6797 53.3901 41.2597 52.8401C41.5497 52.8101 41.5297 51.4701 41.2297 51.4401C35.6397 50.8901 29.9097 51.2001 24.2997 51.2001C21.5597 51.2001 18.8297 51.1801 16.0897 51.2001C14.6797 51.2101 13.2697 51.2001 11.8597 51.2501C10.5897 51.2801 8.91969 51.0401 7.86969 51.8201C7.74969 51.9101 7.76968 52.3801 7.88968 52.4701Z" fill="black"/>
</svg>
