<svg width="96" height="118" viewBox="0 0 96 118" fill="none" xmlns="http://www.w3.org/2000/svg">
<path d="M67.3592 6.41992H7.69922V110.97H67.3592V6.41992Z" fill="white"/>
<path d="M72.0619 107.63C71.9819 102.25 71.9719 63.05 71.7919 9.06004C71.6319 6.90004 71.0219 3.76004 68.6419 1.84004C66.3219 -0.0299585 63.3919 0.100042 62.2919 0.140042C55.9119 0.390042 36.3619 0.630041 9.75187 1.11004C9.22188 1.11004 4.69188 1.23004 1.94188 4.99004C0.231875 7.33004 0.171875 10.03 0.171875 11.12C0.191875 17.37 0.701874 53.6 1.64187 103.36C1.58187 104.13 1.23187 109.29 5.14187 113.21C7.99187 116.07 11.4219 116.59 12.5219 116.71C38.1119 117.13 57.0419 117.09 63.4119 116.89C64.7919 116.85 67.9419 116.7 70.0219 114.52C72.2519 112.17 72.0619 108.72 72.0419 107.64L72.0619 107.63ZM64.3319 106.03C64.2419 106.47 64.1019 107.01 63.9919 107.26C63.2019 109.09 58.2919 108.82 57.9219 108.79C44.4119 108.79 30.8919 108.79 17.3819 108.79C16.6619 108.86 15.5719 108.9 14.3019 108.62C13.1819 108.37 12.2219 108.17 11.4019 107.4C10.2819 106.35 10.0519 104.89 9.80187 103.29C9.58187 101.92 9.63188 100.87 9.63188 100.79C9.02188 72.79 8.40188 44.79 7.79188 16.79C7.65188 15.66 7.62187 13.87 8.42187 11.97C8.74187 11.21 9.22188 10.07 10.3319 9.23004C11.7019 8.19004 13.2919 8.15004 14.2319 8.14004C20.1219 8.09004 27.1719 8.41004 28.0319 8.45004C29.8019 11.28 32.9319 12.96 36.2119 12.81C40.8219 12.6 43.2719 8.89004 43.5019 8.54004C48.1519 8.37004 52.8019 8.21004 57.4419 8.04004C58.5919 7.90004 60.5919 7.83004 62.0119 9.06004C63.9019 10.69 63.7419 13.73 63.7019 14.7C63.5019 20.16 63.9219 55.03 64.5519 103.69C64.5519 103.85 64.5919 104.8 64.3419 106.05L64.3319 106.03Z" fill="black"/>
<path d="M15.7596 30.4101C15.8296 28.2301 16.0596 23.5001 19.3196 20.8001C21.5496 18.9501 24.2596 18.8201 25.3696 18.7801C54.8896 17.7901 76.8696 17.5401 83.7796 17.8801C85.2597 17.9501 88.6996 18.1101 91.0696 20.5601C93.2597 22.8201 93.5097 25.9701 93.5097 27.6301C93.8997 59.2201 94.0097 82.3501 94.1497 89.3201C94.1796 91.0501 94.2896 95.5001 91.4697 97.6901C90.1597 98.7101 88.6297 98.9201 87.6597 98.9601C67.3297 99.4001 47.0096 99.8301 26.6796 100.27C26.0696 100.23 21.2096 99.8101 18.3596 95.5701C16.2696 92.4601 16.5496 89.2101 16.6596 88.2901C15.6796 59.7301 15.4996 38.4301 15.7696 30.4001L15.7596 30.4101Z" fill="white"/>
<path d="M58.8984 100.28C59.5484 99.7601 94.5584 64.6201 94.5584 64.6201V81.9001L77.2484 99.2101L58.8984 100.29V100.28Z" fill="#D4D5D5"/>
<path d="M16.6616 40.45L39.3516 17.76H42.5716L16.3516 43.98L16.6616 40.45Z" fill="#D4D5D5"/>
<path d="M16.1719 61.27L59.7419 18.82C59.7419 18.82 82.9019 18.3 82.5119 18.82C82.1219 19.34 16.9619 78.09 16.9619 78.09L16.1719 61.27Z" fill="#D4D5D5"/>
<path d="M17.5187 83.3201C17.9087 83.3201 88.5187 19.8601 88.5187 19.8601C88.5187 19.8601 93.3587 20.6501 93.3587 26.6601L94.1387 57.8001L52.1687 99.4101H23.2687C23.2687 99.4101 17.1187 99.0201 17.5187 92.2101V83.3101V83.3201Z" fill="#D4D5D5"/>
<path d="M16.5085 30.6299C16.6385 28.7199 16.8385 26.6799 17.6885 24.9499C18.8685 22.5599 21.2385 21.0399 23.8185 20.5899C26.3985 20.1399 29.2285 20.2699 31.8885 20.1899C35.0485 20.0899 38.2185 19.9899 41.3785 19.8999C51.5185 19.6099 61.6585 19.3699 71.8085 19.2999C74.9785 19.2799 78.1385 19.2699 81.3085 19.3299C84.4785 19.3899 87.5985 19.2899 90.1885 21.0499C92.3385 22.5099 93.2685 24.8999 93.3185 27.4199C93.3885 30.6399 93.3685 33.8699 93.3785 37.0999C93.3985 43.1399 93.4185 49.1699 93.4685 55.2099C93.5485 63.9899 93.6085 72.7699 93.7085 81.5499C93.7385 83.9699 93.7585 86.3999 93.7985 88.8199C93.8285 90.1999 93.8685 91.5099 93.4985 92.8699C92.8185 95.3499 90.7885 96.8299 88.2585 96.9999C84.8585 97.2399 81.4185 97.2399 78.0085 97.3599C74.5985 97.4799 71.3485 97.5699 68.0185 97.6599C61.0185 97.8399 54.0285 97.9899 47.0285 98.1199C43.6085 98.1799 40.1985 98.2599 36.7785 98.3299C33.5385 98.3999 30.2085 98.6999 26.9785 98.5299C22.9685 98.3299 19.0485 95.4799 17.9785 91.5799C17.7585 90.7999 17.7085 90.0099 17.7385 89.2499C17.7985 87.8599 17.7385 86.4899 17.6985 85.0999C17.5985 81.8699 17.4985 78.6399 17.4085 75.4199C17.2385 69.5599 17.0885 63.6999 16.9785 57.8299C16.8285 49.8099 16.7285 41.7799 16.7185 33.7499C16.7185 33.1799 16.6985 32.6099 16.6885 32.0399C16.6885 31.7699 16.6885 31.4999 16.6785 31.2299C16.6785 31.0999 16.6785 30.9799 16.6785 30.8499C16.6385 29.5699 16.6485 31.4599 16.6685 30.7999C16.6785 30.4499 16.7385 29.1699 16.2685 29.0399C15.7985 28.9099 15.6685 29.7199 15.6585 30.0599C15.5685 32.8799 15.3785 36.3599 15.3285 39.3699C15.2585 43.8199 15.3585 48.2899 15.4285 52.7399C15.5085 58.3799 15.6185 64.0199 15.7585 69.6699C15.8385 72.9899 15.9285 76.2999 16.0285 79.6199C16.1185 82.6299 16.4285 85.6899 16.2785 88.6999C16.0185 94.0599 18.5485 99.3099 23.7685 101.27C25.1085 101.77 26.4685 102.07 27.8885 102.04C31.4685 101.96 35.0485 101.88 38.6385 101.8C53.2985 101.48 67.9585 101.01 82.6285 101C85.3985 101 88.7385 101.44 91.2885 100.11C93.4585 98.9799 94.4885 96.5899 94.9585 94.3099C95.5385 91.4499 95.2885 88.4599 95.2485 85.5599C95.1585 77.4899 95.0985 69.4099 95.0085 61.3399C94.9485 55.3199 94.8785 49.2899 94.7685 43.2699C94.7085 39.8499 94.6385 36.4399 94.5785 33.0199C94.5285 30.1599 94.7185 27.1699 94.1685 24.3399C93.6985 21.9299 92.4785 19.5499 90.4185 18.1199C88.6285 16.8899 86.4585 16.4799 84.3285 16.3599C81.7585 16.2199 79.1785 16.2099 76.6085 16.1999C67.0185 16.1599 57.4185 16.3499 47.8285 16.5699C41.1285 16.7299 34.4185 16.9199 27.7185 17.1399C25.2485 17.2199 22.7085 17.2299 20.5485 18.5999C18.3885 19.9699 17.1985 22.2499 16.4985 24.6499C15.9485 26.5399 15.8085 28.4799 15.8085 30.4399C15.8085 31.1499 16.4785 31.5899 16.5385 30.6399L16.5085 30.6299Z" fill="black"/>
<path d="M80.1484 70.78H29.6484V78.09H80.1484V70.78Z" fill="black"/>
<path d="M79.928 71.1401C80.988 55.5201 68.118 42.7201 53.818 43.3201C40.138 43.8901 28.648 56.5701 29.898 71.4701" fill="white"/>
<path d="M80.0793 71.34C81.6893 60.1199 74.2393 48.54 63.9993 44.26C53.2793 39.78 41.1593 43.67 34.5193 53.06C30.7193 58.43 28.9893 65.19 29.6493 71.73C29.7593 72.81 30.2093 72.26 30.1693 71.46C29.8693 65.78 31.2493 60.33 34.4393 55.59C37.3393 51.28 41.5793 47.82 46.4093 45.91C56.3993 41.97 67.6693 45.59 74.2193 53.92C78.1793 58.97 79.6793 64.81 79.7693 71.13C79.7693 71.35 80.0093 71.77 80.0793 71.33V71.34Z" fill="black"/>
<path d="M61.1114 35.26H48.6914V39.36H61.1114V35.26Z" fill="black"/>
<path d="M34.1719 7.92007C34.1619 9.06007 35.212 9.94007 36.302 9.89007C37.302 9.85007 38.2319 9.02007 38.2419 7.95007C38.2419 6.86007 37.292 5.99007 36.232 5.98007C35.162 5.97007 34.1819 6.82007 34.1719 7.91007V7.92007Z" fill="white"/>
</svg>
