<svg width="122" height="108" viewBox="0 0 122 108" fill="none" xmlns="http://www.w3.org/2000/svg">
<path d="M18.7494 95.46C19.1094 94.81 19.8894 94.53 20.5994 94.34C31.7094 91.39 43.3694 95.41 53.9994 99.78C58.0794 101.46 62.4794 103.23 66.7794 102.26C69.1994 101.71 71.3394 100.34 73.4094 98.99C86.2394 90.6 98.7994 81.79 111.049 72.57C115.059 69.55 119.249 66.21 120.839 61.45C121.189 60.4 121.389 59.16 120.779 58.23C120.089 57.17 118.679 56.92 117.419 56.81C112.999 56.42 108.539 56.57 104.159 57.24C103.299 57.37 102.439 57.53 101.579 57.47C100.859 57.42 100.149 57.23 99.4494 57.06C91.5694 55.19 82.9194 56.93 76.3794 61.71C72.3994 64.62 68.9294 68.7 64.0894 69.69C58.5994 70.81 53.2994 67.59 48.0794 65.56C40.8694 62.75 32.8194 62.2 25.2694 63.83C23.3994 64.23 21.5594 64.77 19.7694 65.45C18.5394 65.91 16.3194 66.36 16.0194 67.83C15.6994 69.4 16.4094 71.74 16.5694 73.33L17.2294 80.13C17.7294 85.24 18.2294 90.35 18.7294 95.46H18.7494Z" fill="white"/>
<path d="M88.91 29.68C90.56 26.69 92.2 23.71 93.85 20.72C94.82 23.8 95.79 26.88 96.76 29.95C99.6 29.61 102.44 29.27 105.28 28.93C103.35 31.44 101.42 33.96 99.48 36.47C99.87 39.45 100.27 42.43 100.66 45.41C98.21 43.63 95.76 41.86 93.31 40.08C90.75 41.54 88.19 43 85.63 44.46C86.32 41.52 87.02 38.57 87.71 35.63C85.39 33.2 83.07 30.76 80.75 28.33C83.47 28.78 86.19 29.23 88.9 29.68H88.91Z" fill="white"/>
<path d="M89.1596 30.51C90.1796 29.18 90.9896 27.76 91.7996 26.3C92.6096 24.84 93.4096 23.41 94.1896 21.95L93.4496 21.74C93.6796 22.39 94.0396 22.97 94.2396 23.63C94.4696 24.38 94.6996 25.13 94.9296 25.88C95.4096 27.42 95.8796 28.96 96.3596 30.49C96.4096 30.65 96.5496 31.03 96.7896 31C98.2096 30.83 99.6196 30.65 101.05 30.58C102.48 30.51 103.89 30.26 105.31 30.07L104.99 27.95C104.01 29.26 103.02 30.57 102.03 31.87C101.54 32.52 101.04 33.18 100.55 33.83C100.3 34.16 100.06 34.48 99.8096 34.81C99.5596 35.14 99.2296 35.47 99.0996 35.86C98.8496 36.58 99.1596 37.57 99.2496 38.31C99.3496 39.12 99.4496 39.93 99.5496 40.74C99.7596 42.39 99.9596 44.05 100.2 45.7L100.77 44.38C99.5396 43.52 98.2896 42.68 97.0896 41.77C95.8896 40.86 94.6796 39.96 93.4096 39.13C93.3296 39.09 93.2496 39.09 93.1696 39.13C90.7096 40.71 88.0296 42 85.4696 43.43L86.0596 44.98C86.4596 43.31 86.8596 41.65 87.2596 39.98C87.4596 39.15 87.6596 38.31 87.8596 37.48C88.0596 36.65 88.4796 35.62 88.0596 34.81C87.8896 34.47 87.5296 34.19 87.2696 33.92C86.9896 33.62 86.7096 33.31 86.4296 33.01C85.8396 32.38 85.2596 31.73 84.6596 31.11C83.4396 29.86 82.2096 28.61 80.9896 27.37L80.7896 29.42C83.5096 29.82 86.2196 30.22 88.9396 30.62C89.4796 30.7 89.5296 28.85 88.8896 28.73C86.1696 28.23 83.4496 27.73 80.7296 27.23C80.4096 27.17 80.2896 27.87 80.2696 28.05C80.2296 28.43 80.2496 28.99 80.5296 29.28C82.8196 31.75 85.1396 34.18 87.4796 36.61L87.2596 35.07C86.5696 38.02 85.8896 40.98 85.1996 43.93C85.1296 44.21 85.1496 45.85 85.7896 45.48C87.0696 44.74 88.3596 44 89.6196 43.23C90.2596 42.85 90.8896 42.46 91.5296 42.08C91.8496 41.89 92.1596 41.69 92.4896 41.51C92.7396 41.37 93.1396 41.07 93.4196 41.19C93.6996 41.31 93.9796 41.64 94.2096 41.82C94.4996 42.05 94.7996 42.26 95.0996 42.47C95.6996 42.88 96.2996 43.3 96.8896 43.71C98.1396 44.58 99.3396 45.51 100.56 46.43C101.1 46.83 101.15 45.28 101.13 45.11C100.76 42.13 100.29 39.16 99.9196 36.18L99.7396 37.32C101.69 34.85 103.62 32.37 105.57 29.9C105.84 29.56 106 27.7 105.25 27.78C103.83 27.93 102.39 28.02 100.99 28.29C99.5896 28.56 98.1596 28.73 96.7296 28.89L97.1596 29.4C96.6696 27.86 96.1796 26.32 95.6796 24.78C95.4396 24.03 95.1996 23.28 94.9496 22.53C94.6796 21.69 94.5796 20.82 94.3396 19.97C94.2596 19.67 93.8396 18.89 93.4996 19.48C91.7396 22.57 89.8896 25.69 88.5596 28.99C88.3996 29.38 88.3996 29.88 88.5596 30.27C88.6596 30.51 88.8996 30.82 89.1396 30.51H89.1596Z" fill="black"/>
<path d="M50.3187 14.52C52.1587 10.2 53.9888 5.88005 55.8288 1.55005C57.9188 5.63005 60.0087 9.71005 62.1087 13.8C66.4187 13.12 70.7187 12.43 75.0287 11.75C71.8687 15.14 68.6987 18.5401 65.5387 21.93C66.6488 26.01 67.7687 30.1 68.8787 34.18C65.2887 32.05 61.7087 29.91 58.1187 27.78C54.6087 30.31 51.0988 32.84 47.5788 35.37C48.2988 31.42 49.0087 27.46 49.7287 23.51C46.4787 20.01 43.2188 16.52 39.9688 13.02C43.4188 13.52 46.8687 14.02 50.3187 14.53V14.52Z" fill="white"/>
<path d="M50.6488 15.2001C52.8388 11.1501 54.4988 6.80007 56.2788 2.56007L55.4188 2.58007C55.6788 3.08007 55.9288 3.60007 56.2388 4.07007C56.5488 4.54007 56.8688 4.89007 57.1088 5.37007C57.6188 6.39007 58.1488 7.41007 58.6588 8.43007C59.6988 10.4701 60.7288 12.5101 61.7788 14.5501C61.8288 14.6501 61.9688 14.8701 62.1288 14.8501C64.2788 14.5101 66.4288 14.1601 68.5888 13.9301C70.7488 13.7001 72.8988 13.2401 75.0488 12.8701L74.7388 10.7701C73.1688 12.4901 71.5888 14.2001 70.0088 15.9201C69.2188 16.7801 68.4288 17.6301 67.6488 18.4901C67.2588 18.9201 66.8588 19.3501 66.4688 19.7801C66.0788 20.2101 65.5288 20.6501 65.2388 21.1501C64.9488 21.6501 65.1088 22.2701 65.2488 22.8001C65.3988 23.3601 65.5488 23.9301 65.6988 24.4901C65.9988 25.6201 66.2988 26.7401 66.6088 27.8701C67.2188 30.1501 67.8388 32.4401 68.4788 34.7101L68.9888 33.1601C65.3888 31.0801 61.8688 28.8601 58.2188 26.8701C58.1388 26.8301 58.0688 26.8301 57.9888 26.8701C56.2988 28.1801 54.4688 29.3501 52.7088 30.5701C50.9488 31.7901 49.1888 33.0701 47.4388 34.3301L48.0288 35.8901C48.4388 33.6401 48.8588 31.3801 49.2688 29.1301C49.4788 28.0001 49.6788 26.8801 49.8888 25.7501C50.0988 24.6201 50.6188 23.2201 49.7288 22.2401C46.5888 18.8101 43.4088 15.4401 40.2088 12.0701L40.0088 14.0901C43.4588 14.5501 46.9088 15.0001 50.3588 15.4601C50.9088 15.5301 50.9488 13.6701 50.3088 13.5701C46.8588 13.0201 43.4088 12.4701 39.9488 11.9301C39.2688 11.8201 39.4988 13.6801 39.7488 13.9501C42.9788 17.4901 46.2188 21.0001 49.4988 24.4901L49.2788 22.9401C48.5688 26.9001 47.8588 30.8701 47.1488 34.8301C47.1088 35.0701 47.1488 36.8301 47.7388 36.3901C49.4588 35.1401 51.1988 33.9101 52.8988 32.6301C53.7388 32.0001 54.5788 31.3701 55.4188 30.7501C55.8588 30.4201 56.2888 30.1001 56.7288 29.7701C56.9688 29.5901 57.1988 29.4201 57.4388 29.2401C57.5988 29.1201 57.8588 28.8201 58.0488 28.8001C58.4488 28.7501 58.9688 29.2801 59.2888 29.4801C59.7388 29.7701 60.1988 30.0701 60.6488 30.3601C61.4988 30.9101 62.4088 31.3901 63.2888 31.9001C65.1388 32.9601 66.9588 34.0601 68.7688 35.1701C69.3988 35.5601 69.3388 33.8501 69.2788 33.6201C68.1988 29.5401 67.0588 25.4701 65.9188 21.4001L65.7888 22.7701C68.9088 19.3701 72.1388 16.0601 75.3088 12.7101C75.6088 12.3901 75.6988 10.5001 74.9988 10.6101C72.8488 10.9301 70.6588 11.1601 68.5388 11.6101C66.4188 12.0601 64.2388 12.4101 62.0788 12.7501L62.4288 13.0501C61.3788 11.0001 60.3288 8.96007 59.2688 6.92007C58.7388 5.90007 58.2188 4.88007 57.6888 3.86007C57.1288 2.79007 56.7888 1.62007 56.2388 0.530067C55.9888 0.0400675 55.6088 0.0100679 55.3788 0.550068C53.4888 4.94007 51.4988 9.30007 49.9888 13.8401C49.8488 14.2601 49.7988 14.8101 50.0188 15.2201C50.2188 15.5801 50.4588 15.5501 50.6488 15.2001Z" fill="black"/>
<path d="M16.9786 27.8201C17.4786 26.3801 18.0586 24.8601 18.7486 23.2701C19.3986 21.7701 20.0686 20.3801 20.7286 19.1101C21.4686 20.6601 22.2986 22.2801 23.2186 23.9401C23.8886 25.1401 24.5586 26.2901 25.2286 27.3801C27.7886 27.1401 30.3486 26.9101 32.9086 26.6701C31.1486 28.9901 29.3986 31.3001 27.6386 33.6201C28.4286 36.5301 29.2286 39.4401 30.0186 42.3401C27.3186 40.3801 24.6186 38.4201 21.9186 36.4701C19.5686 38.7101 17.2086 40.9501 14.8586 43.1901C15.3686 40.3701 15.8786 37.5601 16.3886 34.7401C15.2386 33.6701 14.0386 32.4701 12.8186 31.1301C11.6986 29.9001 10.6986 28.6901 9.80859 27.5401C12.1986 27.6401 14.5886 27.7301 16.9786 27.8301V27.8201Z" fill="white"/>
<path d="M17.3103 28.5C18.7003 25.75 19.7803 22.86 21.1803 20.11L20.3203 20.13C20.4803 20.46 20.6503 20.8 20.8403 21.12C21.0103 21.42 21.2403 21.63 21.4403 21.91C21.8903 22.55 22.1903 23.35 22.5603 24.04C23.3003 25.42 24.0903 26.78 24.9003 28.12C24.9703 28.23 25.0803 28.44 25.2503 28.42C27.8103 28.18 30.3703 28.1 32.9303 27.82L32.6103 25.67C31.6403 26.98 30.6703 28.3 29.6903 29.61C29.2203 30.25 28.7403 30.89 28.2703 31.52C27.8003 32.15 27.1403 32.78 27.1603 33.63C27.1803 34.38 27.5303 35.18 27.7303 35.9C27.9303 36.62 28.1303 37.4 28.3303 38.15C28.7503 39.73 29.1703 41.31 29.6003 42.89L30.1203 41.3C28.7903 40.32 27.3903 39.42 26.0603 38.44C24.7303 37.46 23.4103 36.42 22.0103 35.51C21.8703 35.42 21.7503 35.53 21.6603 35.62C20.5503 36.79 19.3303 37.84 18.1403 38.93C16.9503 40.02 15.8403 41.08 14.6903 42.16L15.2803 43.72C15.5903 42.04 15.9003 40.35 16.2103 38.67C16.3603 37.87 16.5103 37.07 16.6503 36.26C16.7903 35.45 17.1503 34.38 16.5303 33.68C16.0403 33.12 15.4603 32.63 14.9403 32.1C14.3603 31.5 13.7803 30.9 13.2103 30.3C12.0903 29.11 11.0303 27.88 10.0203 26.61L9.82029 28.63C12.2103 28.68 14.6003 28.73 16.9903 28.78C17.5803 28.79 17.5703 26.93 16.9403 26.89C14.5503 26.75 12.1603 26.61 9.76029 26.47C9.44029 26.45 9.33029 27.07 9.31029 27.27C9.27029 27.67 9.31029 28.15 9.56029 28.48C11.5303 31.1 13.6903 33.53 16.1203 35.73L15.9003 34.18C15.4003 37.01 14.8903 39.83 14.3903 42.66C14.3203 43.05 14.3003 43.47 14.4603 43.85C14.5203 43.99 14.7603 44.44 14.9803 44.22C16.1403 43.11 17.3103 42.01 18.4403 40.88C19.0203 40.3 19.6103 39.72 20.1903 39.14C20.4803 38.85 20.7703 38.55 21.0603 38.27C21.2403 38.1 21.7103 37.53 21.9903 37.58C22.1003 37.6 22.2903 37.82 22.3803 37.9C22.5803 38.06 22.7703 38.22 22.9703 38.37C23.2903 38.61 23.6303 38.83 23.9603 39.06C24.5903 39.5 25.2203 39.92 25.8403 40.37C27.2103 41.35 28.5103 42.41 29.8803 43.39C30.5003 43.83 30.4603 42.01 30.4003 41.8C29.5903 38.9 28.7803 36.01 28.0003 33.1L27.8603 34.52C29.6203 32.24 31.3903 29.95 33.1603 27.68C33.4403 27.33 33.6003 25.47 32.8403 25.53C30.2703 25.72 27.7303 26.11 25.1603 26.34L25.5103 26.64C24.6803 25.29 23.8803 23.93 23.1203 22.55C22.7503 21.89 22.3603 21.22 22.0403 20.53C21.6703 19.75 21.4703 18.89 21.0903 18.1C20.9603 17.83 20.5703 17.46 20.3403 17.89C18.7603 20.91 17.3003 24.02 16.5403 27.36C16.4503 27.73 16.4403 28.29 16.6903 28.61C16.9003 28.89 17.1103 28.83 17.2703 28.52L17.3103 28.5Z" fill="black"/>
<path d="M25.8805 74.9799C25.6705 76.2899 25.6705 77.6599 26.0805 78.9199C27.2605 82.5599 31.4505 84.3499 35.2705 84.5699C44.5205 85.1199 53.1105 79.3099 62.3705 78.9999C68.6305 78.7899 74.6905 81.1199 80.9305 81.7099C81.5205 81.7699 83.2305 82.2199 84.5405 81.2899C85.8005 80.3899 86.0505 78.6899 86.1105 77.8599C87.0005 78.6899 87.8905 79.5199 88.7805 80.3599C94.7905 73.4899 102.881 68.4699 111.701 66.1399C113.371 65.6999 115.581 65.5699 116.401 67.0899C117.271 68.7199 115.691 70.5499 114.231 71.6999C101.571 81.6199 86.8305 88.5199 73.7105 97.8199C70.8305 99.8599 67.8405 102.1 64.3305 102.43C61.2605 102.72 58.2805 101.51 55.4305 100.32C52.6505 99.1599 49.8605 97.9899 47.0805 96.8299C43.8205 95.4699 40.5205 94.0899 37.0405 93.4699C31.7105 92.5099 26.2205 93.3599 20.9505 94.5999C20.3105 94.7499 19.5105 94.8599 19.0905 94.3499C18.8705 94.0799 18.8305 93.7099 18.8005 93.3599C18.0305 84.8499 17.2705 76.3299 16.5005 67.8199C16.4305 66.9999 23.5305 65.2699 24.3405 65.0899C25.7405 64.7899 27.1605 64.5699 28.5805 64.4499C29.3505 64.3799 31.9505 63.8699 32.5605 64.3799C33.6705 65.3199 29.6105 67.7499 28.8905 68.5899C27.3405 70.3999 26.2605 72.6299 25.8805 74.9799Z" fill="#D4D5D5"/>
<path d="M0.359375 63.9199C0.359375 64.6799 6.15937 107.59 6.15937 107.59C8.81938 107.73 11.7594 107.75 14.9294 107.59C17.8594 107.44 20.5594 107.15 23.0294 106.78C20.4594 83.0999 18.0694 61.1599 18.0394 61.1699C18.0394 61.5299 12.0994 61.6799 8.99937 61.9799C6.97937 62.1799 3.98938 62.6399 0.359375 63.9199Z" fill="black"/>
<path d="M90.8086 66.8399C94.3186 64.6999 97.8786 62.5899 101.739 61.1899C105.599 59.7899 109.819 59.1299 113.849 59.9599C103.069 62.1399 93.3386 68.0599 85.0186 75.2599C84.8586 75.3999 84.6686 75.5499 84.4586 75.5499C84.3186 75.5499 84.1986 75.4799 84.0786 75.4099C82.8886 74.7099 81.9986 73.7399 80.5586 73.6399C81.9086 72.3299 83.7886 71.2999 85.3586 70.2599C87.1486 69.0799 88.9786 67.9499 90.8086 66.8399Z" fill="#D4D5D5"/>
<path d="M72.5816 69.1201C75.2416 67.4601 77.9016 65.7901 80.5516 64.1301C82.7616 62.7501 84.9816 61.3601 87.4116 60.3901C89.8416 59.4201 92.4916 58.9001 95.0616 59.3301C88.3416 62.3701 82.1216 66.5101 76.7116 71.5301C76.4116 71.8101 76.1116 72.0901 75.7316 72.2601C75.3416 72.4401 74.8916 72.4701 74.4616 72.4701C73.8316 72.4701 73.2016 72.3801 72.5916 72.2101C71.2516 71.8501 69.9916 71.1101 68.6016 71.0601C69.7916 71.1001 71.5616 69.7501 72.5716 69.1201H72.5816Z" fill="#D4D5D5"/>
<path d="M42.5119 88.9899C45.2119 89.1399 48.2019 88.9399 50.8019 88.1599C52.8019 87.5599 54.6619 86.6799 56.6119 85.9499C58.9819 85.0599 61.4319 84.9899 63.9319 85.1399C68.1219 85.3999 72.2819 85.8299 76.4819 85.9599C79.5719 86.0499 82.7719 86.2799 85.8519 85.9299C87.7719 85.7199 89.4119 85.0299 89.6319 82.9199C89.9519 79.9299 87.7719 76.8699 85.4919 75.0899C82.9919 73.1499 79.6319 72.3899 76.6119 71.7499C71.8319 70.7299 66.9219 70.0099 62.0419 69.6999C58.4919 69.4799 55.3119 68.1699 52.1019 66.6499C49.0819 65.2199 46.0619 63.7299 42.7619 63.1099C39.7819 62.5499 36.7019 62.5999 33.6919 62.7599C27.5619 63.0799 20.9519 64.1899 15.3919 66.8599C14.8419 67.1199 14.9819 69.2399 15.5819 69.0699C18.6019 68.1899 21.5319 67.1299 24.6019 66.4699C26.9819 65.9599 29.4019 65.5999 31.8319 65.3899C37.0319 64.9499 42.3219 64.9699 47.2219 66.9399C51.4719 68.6499 55.4919 71.2499 60.0819 71.9899C62.7819 72.4299 65.5719 72.4399 68.2919 72.8199C72.9819 73.4599 77.9819 74.0599 82.4019 75.8699C84.5219 76.7399 86.2119 78.0399 87.5319 79.9199C87.8819 80.4199 88.7919 81.5899 88.7119 82.2399C88.6019 83.1299 87.0819 83.4599 86.4319 83.5799C83.5919 84.0799 80.5319 83.7999 77.6719 83.7399C73.4219 83.6399 69.1819 83.3499 64.9319 83.2999C62.2819 83.2699 59.6319 83.2099 57.0819 84.0299C55.1819 84.6399 53.4019 85.5699 51.5119 86.1899C48.5319 87.1699 45.5719 88.0099 42.5119 88.6399C42.4019 88.6599 42.4019 88.9799 42.5119 88.9899Z" fill="black"/>
<path d="M86.8196 73.9699C89.3996 72.5099 91.8196 70.8199 94.3696 69.3199C96.9196 67.8199 99.3496 66.5399 101.93 65.3299C104.65 64.0499 107.45 62.7699 110.38 62.0599C112.71 61.4999 116.03 60.8999 118.12 62.4499C118.46 62.6999 118.93 63.1299 118.92 63.5299C118.92 63.9099 118.41 64.4199 118.18 64.7099C117.55 65.5099 116.78 66.1999 116.02 66.8699C113.93 68.7199 111.78 70.5199 109.6 72.2599C105.41 75.6199 101.07 78.7899 96.6296 81.8199C89.5796 86.6199 82.2296 90.9399 75.0196 95.4999C72.8496 96.8699 70.8196 98.6499 68.5396 99.8399C63.4796 102.47 57.8596 100.07 52.8996 98.3399C47.6296 96.4999 42.4296 94.3199 36.9596 93.0899C31.4896 91.8599 25.7396 92.1599 20.1096 93.5499C19.3896 93.7299 19.4796 95.8999 20.1696 95.7999C25.5296 95.0299 31.1596 95.1299 36.4596 96.2699C41.7596 97.4099 46.5296 99.3899 51.4796 101.16C54.4596 102.22 57.4596 103.21 60.5396 103.95C63.0296 104.55 65.4196 104.52 67.8296 103.57C70.5496 102.51 72.8596 100.37 75.3196 98.8099C82.9896 93.9499 90.8196 89.3699 98.2896 84.2099C103.16 80.8499 107.91 77.3099 112.42 73.4699C114.29 71.8799 116.21 70.2499 117.86 68.4199C119.27 66.8599 120.55 64.8899 120.11 62.6899C119.59 60.0599 116.81 59.4799 114.51 59.5499C111.19 59.6499 107.97 60.8499 104.96 62.1799C101.78 63.5799 98.6896 65.1899 95.7096 66.9599C92.5496 68.8299 89.4196 70.8199 86.7296 73.3299C86.5996 73.4499 86.5996 74.1099 86.8296 73.9799L86.8196 73.9699Z" fill="black"/>
<path d="M77.9092 70.74C79.6492 69.87 81.2092 68.6 82.7792 67.47C84.4292 66.28 86.1392 65.17 87.8892 64.14C91.6092 61.97 95.5592 60.19 99.6892 58.96C103.819 57.73 107.989 57.07 112.229 57.04C114.179 57.03 116.239 57.06 118.159 57.45C118.989 57.62 119.859 57.91 120.479 58.52C121.549 59.57 120.479 60.6 119.639 61.34C119.179 61.73 119.219 63.97 119.969 63.56C122.219 62.31 122.589 58.41 120.719 56.7C119.659 55.73 118.099 55.51 116.729 55.39C114.689 55.21 112.639 55.22 110.599 55.36C102.699 55.91 95.0792 58.48 88.2492 62.44C84.5392 64.59 80.5392 67.08 77.8492 70.49C77.8092 70.54 77.8092 70.81 77.9092 70.76V70.74Z" fill="black"/>
<path d="M57.4786 70.75C58.9886 71.56 61.0186 71.02 62.5986 70.72C64.8786 70.29 67.0786 69.6 69.2086 68.67C72.7586 67.12 75.5986 64.75 78.6586 62.44C81.0886 60.6 83.7186 59.23 86.6386 58.36C88.4586 57.82 90.3286 57.54 92.1886 57.16C93.2686 56.94 94.3786 56.81 95.4786 56.74C96.6886 56.67 97.9586 56.8 99.1386 56.54C99.2286 56.52 99.2286 56.27 99.1486 56.24C97.1086 55.55 94.6686 55.83 92.5386 55.79C90.6186 55.75 88.7586 56.03 86.8986 56.48C84.1486 57.14 81.4586 58.21 78.9986 59.62C75.7686 61.46 72.9686 63.89 69.5986 65.51C67.3486 66.6 64.9486 67.44 62.5186 68.06C60.8886 68.48 58.8286 68.51 57.4286 69.53C57.1486 69.74 57.1286 70.57 57.4586 70.75H57.4786Z" fill="black"/>
</svg>
