<svg width="129" height="88" viewBox="0 0 129 88" fill="none" xmlns="http://www.w3.org/2000/svg">
<path d="M64.5109 85.2201C97.7209 84.2601 116.501 59.4701 118.701 56.4501C113.221 45.3501 102.981 36.9901 91.4609 32.4801C79.9409 27.9701 67.2109 27.0801 54.9209 28.4801C42.1409 29.9301 29.4009 34.0501 18.8109 41.4701C14.7009 44.3501 11.3909 47.6201 11.3909 47.6201C8.61094 50.3701 6.59094 52.9801 5.21094 54.9401C6.71094 57.1101 27.7009 86.2901 64.5109 85.2301V85.2201Z" fill="white"/>
<path d="M61.2014 43.5699C75.3314 43.7799 86.4014 46.0499 91.0514 47.1099C102.431 49.6999 111.871 53.3199 119.091 56.6499C115.591 51.7799 109.111 44.0599 98.7114 37.7099C95.2414 35.5899 82.8414 28.8699 65.1614 27.5399C53.4214 26.6599 41.3714 28.7199 30.9314 34.1499C25.3314 37.0599 20.2514 40.8799 15.2914 44.7799C12.4214 47.0299 8.50141 49.7099 6.94141 53.0999C20.5114 48.0799 39.2314 43.2499 61.2114 43.5699H61.2014Z" fill="#D4D5D5"/>
<path d="M69.6416 65.8999C67.7016 67.2599 65.3316 68.0699 62.7816 68.0699C56.1716 68.0699 50.8116 62.7099 50.8116 56.0999C50.8116 49.4899 56.1716 44.1299 62.7816 44.1299C69.3916 44.1299 74.7516 49.4899 74.7516 56.0999C74.7516 59.2399 73.5316 62.0899 71.5616 64.2199L83.7316 76.3899C88.8216 71.1399 91.9616 63.9799 91.9616 56.0899C91.9616 39.9699 78.9016 26.9099 62.7816 26.9099C46.6616 26.9099 33.6016 39.9699 33.6016 56.0899C33.6016 72.2099 46.6616 85.2699 62.7816 85.2699C70.0916 85.2699 76.7716 82.5799 81.8916 78.1399L69.6516 65.8999H69.6416Z" fill="black"/>
<path d="M62.7808 65.0801C67.7403 65.0801 71.7608 61.0596 71.7608 56.1001C71.7608 51.1406 67.7403 47.1201 62.7808 47.1201C57.8213 47.1201 53.8008 51.1406 53.8008 56.1001C53.8008 61.0596 57.8213 65.0801 62.7808 65.0801Z" fill="#D4D5D5"/>
<path d="M54.7291 60.0901C53.1991 56.9401 53.7491 53.0301 56.1091 50.0801C54.5891 53.4401 54.9691 57.3601 57.1291 60.3201C60.3391 64.7201 65.6491 64.5001 66.0091 64.4701C65.2791 64.7501 62.8891 65.5501 60.0591 64.6601C59.6291 64.5201 56.3491 63.4301 54.7291 60.0901Z" fill="black"/>
<path d="M62.1512 30.6101C95.7213 30.9201 115.991 53.1401 119.081 56.6501C109.151 34.0201 86.7712 19.2801 62.1213 19.1401C37.7513 18.9901 15.3912 33.1401 5.03125 55.2701C8.24125 51.8001 28.8313 30.3001 62.1413 30.6101H62.1512Z" fill="black"/>
<path d="M61.3687 1.0001C61.1087 2.8601 61.2887 4.8401 61.3887 6.7101C61.4387 7.6901 61.4987 8.6801 61.6387 9.6601C61.7587 10.4701 61.9987 11.2601 62.2687 12.0601C62.3587 12.3101 62.5387 12.3501 62.5987 12.0601C62.7887 11.1201 62.9387 10.2301 62.9587 9.3001C62.9787 8.3701 62.9487 7.4801 62.9087 6.5701C62.8187 4.6201 62.8287 2.5601 62.3687 0.660104C62.3087 0.410104 62.1287 -0.069895 61.7987 0.030105C61.4687 0.130105 61.3987 0.740105 61.3687 1.0101V1.0001Z" fill="black"/>
<path d="M100.589 12.26C99.969 12.68 99.629 13.62 99.279 14.25C98.829 15.04 98.399 15.84 97.979 16.65C97.559 17.46 97.1289 18.26 96.7489 19.09C96.3189 20.06 95.9789 21.05 95.6789 22.06C95.6589 22.12 95.649 22.71 95.809 22.58C97.009 21.58 97.749 20.22 98.509 18.86C98.929 18.1 99.359 17.34 99.769 16.57C100.219 15.71 100.739 14.87 100.989 13.93C101.099 13.54 101.109 13.11 101.019 12.71C100.979 12.55 100.849 12.09 100.609 12.26H100.589Z" fill="black"/>
<path d="M127.901 38.8999C127.761 38.9299 127.621 38.9099 127.491 38.9699C127.341 39.0399 127.201 39.1599 127.071 39.2599C126.761 39.4899 126.491 39.7599 126.211 40.0199C125.621 40.5499 125.051 41.0799 124.471 41.6199C123.891 42.1599 123.311 42.6799 122.751 43.2399C122.111 43.8799 121.541 44.5899 120.941 45.2599C120.871 45.3299 120.861 45.7999 121.001 45.7199C121.631 45.3799 122.291 45.0499 122.871 44.6299C123.501 44.1899 124.081 43.6599 124.661 43.1499C125.241 42.6399 125.801 42.1099 126.351 41.5699C126.631 41.2899 126.931 41.0099 127.181 40.7099C127.311 40.5499 127.441 40.3799 127.571 40.2199C127.751 39.9899 127.841 39.7199 127.971 39.4699C128.011 39.3999 128.071 38.8699 127.901 38.9099V38.8999Z" fill="black"/>
<path d="M26.9995 13.75C27.2795 14.74 27.7795 15.6 28.2595 16.5C28.6695 17.27 29.0895 18.03 29.5195 18.79C30.2795 20.16 31.0295 21.54 32.2195 22.58C32.3595 22.7 32.3595 22.17 32.3395 22.12C32.0295 21.11 31.6895 20.13 31.2595 19.17C30.8795 18.34 30.4595 17.53 30.0195 16.72C29.5795 15.91 29.1895 15.17 28.7595 14.4C28.5495 14.03 28.3395 13.65 28.1195 13.28C27.8995 12.91 27.7195 12.52 27.3595 12.26C26.8995 11.94 26.9495 13.58 26.9895 13.75H26.9995Z" fill="black"/>
<path d="M0.0424068 39.4601C0.162407 39.6901 0.252407 39.9501 0.412407 40.1601C0.542407 40.3301 0.682407 40.5001 0.822407 40.6701C1.07241 40.9701 1.37241 41.2401 1.64241 41.5201C2.20241 42.0801 2.78241 42.6201 3.38241 43.1501C3.94241 43.6501 4.51241 44.1501 5.12241 44.5901C5.73241 45.0301 6.38241 45.3601 7.02241 45.7101C7.15241 45.7801 7.14241 45.3301 7.08241 45.2701C6.51241 44.6401 5.95241 44.0001 5.37241 43.3801C4.79241 42.7601 4.16241 42.2201 3.55241 41.6601C2.97241 41.1301 2.39241 40.5901 1.81241 40.0601C1.53241 39.8101 1.25241 39.5301 0.952407 39.2901C0.822407 39.1901 0.672407 39.0501 0.522407 38.9801C0.392407 38.9101 0.242407 38.9301 0.092407 38.9001C-0.067593 38.8601 0.0224071 39.4001 0.0524071 39.4601H0.0424068Z" fill="black"/>
<path d="M6.71181 56.72C9.01181 60.85 12.3418 64.4 15.7318 67.65C22.6518 74.28 30.7618 79.68 39.7118 83.17C51.3418 87.71 64.2118 88.79 76.4218 86.16C86.9218 83.9 96.7118 78.97 104.982 72.14C109.802 68.16 114.172 63.61 117.542 58.32C117.682 58.1 117.812 57.86 117.962 57.65C118.012 57.58 117.962 57.25 117.882 57.35C116.932 58.7 115.642 59.9 114.492 61.09C112.132 63.53 109.682 65.89 107.102 68.1C99.4118 74.68 90.3918 79.81 80.6418 82.62C68.6718 86.07 55.6818 86.04 43.7618 82.41C34.3618 79.54 25.7218 74.49 18.2818 68.09C14.2218 64.6 10.7518 60.61 7.15181 56.68C7.04181 56.56 6.94181 56.44 6.83181 56.32C6.70181 56.16 6.67181 56.64 6.71181 56.72Z" fill="black"/>
</svg>
