<svg width="114" height="83" viewBox="0 0 114 83" fill="none" xmlns="http://www.w3.org/2000/svg">
<path d="M2.13922 80.1999C1.82922 54.9099 1.50922 29.6199 1.19922 4.33988C18.1192 3.20988 35.7892 2.40988 54.1592 2.04988C73.8192 1.65988 92.6992 1.78988 110.739 2.31988C111.539 19.2599 112.129 36.5599 112.469 54.1899C112.639 62.7699 112.739 71.2799 112.789 79.6999C96.0992 79.4699 79.1692 79.3699 61.9992 79.4299C41.7092 79.4899 21.7492 79.7599 2.12922 80.2099L2.13922 80.1999Z" fill="black"/>
<path d="M2.36976 80.7201C2.55976 60.7801 2.05976 40.8201 1.84976 20.8801C1.78976 15.2301 1.72976 9.58006 1.66976 3.92006L1.23976 5.02006C29.9198 3.15006 58.6698 2.37006 87.3998 2.67006C95.1998 2.75006 102.99 2.92006 110.78 3.16006L110.17 1.91006C111.11 22.2601 111.74 42.6301 112.03 63.0001C112.11 68.7501 112.17 74.5001 112.2 80.2501L112.76 78.9301C83.9698 78.5201 55.1798 78.5401 26.3998 78.9801C18.2998 79.1001 10.1998 79.2401 2.10976 79.4701C1.29976 79.4901 1.35976 82.0301 2.16976 82.0101C30.9798 81.5001 59.7798 81.1201 88.5898 81.2901C96.6698 81.3401 104.75 81.4201 112.83 81.5301C113.34 81.5301 113.39 80.5101 113.39 80.2101C113.27 59.7701 112.84 39.3301 112.05 18.9101C111.83 13.2301 111.59 7.56006 111.32 1.88006C111.3 1.53006 111.22 0.640057 110.71 0.630057C81.9698 -0.189943 53.2098 0.0900575 24.4898 1.48006C16.7098 1.86006 8.93976 2.32006 1.16976 2.85006C0.759762 2.88006 0.729761 3.69006 0.739761 3.95006C1.01976 23.9001 1.24976 43.8401 1.55976 63.7901C1.64976 69.4401 1.71976 75.0901 1.90976 80.7401C1.92976 81.4301 2.35976 81.4201 2.35976 80.7301L2.36976 80.7201Z" fill="black"/>
<path d="M9.13812 73.53C8.86812 52.61 8.59813 31.68 8.32812 10.76C23.0181 9.82997 38.3581 9.16997 54.2981 8.85997C71.3581 8.52997 87.7481 8.63997 103.408 9.08997C104.108 23.11 104.618 37.42 104.908 52.01C105.048 59.11 105.148 66.15 105.188 73.12C90.7081 72.93 76.0081 72.85 61.1081 72.89C43.4981 72.94 26.1681 73.16 9.13812 73.53Z" fill="white"/>
<path d="M88.3511 59.68C89.7011 39.72 73.2611 23.37 54.9811 24.13C37.5011 24.86 22.8211 41.07 24.4111 60.1" fill="white"/>
<path d="M88.5012 59.7901C90.3112 45.4201 80.8312 30.7901 67.6312 25.4501C61.0212 22.7801 53.6212 22.4001 46.8112 24.5901C40.0012 26.7801 34.3212 31.2001 30.2812 36.9501C25.5312 43.7001 23.3612 52.1601 24.1512 60.3701C24.2512 61.4501 24.7212 60.9001 24.6712 60.1001C24.2412 52.9201 25.9712 45.9401 29.9212 39.9001C33.6112 34.2701 39.0512 29.7401 45.3112 27.2301C58.1112 22.1001 72.6112 26.7501 81.0312 37.4201C83.3912 40.4101 85.2512 43.8101 86.4612 47.4201C87.8012 51.4001 88.1812 55.5101 88.1712 59.6801C88.1712 60.0401 88.4312 60.2601 88.4912 59.7801L88.5012 59.7901Z" fill="black"/>
<path d="M90.7189 59.22H21.9989C20.8281 59.22 19.8789 60.1691 19.8789 61.34V66.44C19.8789 67.6108 20.8281 68.56 21.9989 68.56H90.7189C91.8898 68.56 92.8389 67.6108 92.8389 66.44V61.34C92.8389 60.1691 91.8898 59.22 90.7189 59.22Z" fill="black"/>
<path d="M42.4296 31.2401C52.7096 23.8601 66.7696 26.2801 75.3296 33.5901C84.4996 41.4201 84.9896 52.8301 85.0396 54.8901C67.3296 54.8601 49.6096 54.8301 31.8996 54.8001C31.8396 53.7401 31.2196 39.2801 42.4296 31.2301V31.2401Z" fill="#D4D5D5"/>
<path d="M56.1312 19.46H53.0312V24.97H56.1312V19.46Z" fill="black"/>
<path d="M82.0184 44C90.6451 44 97.6384 37.0067 97.6384 28.38C97.6384 19.7533 90.6451 12.76 82.0184 12.76C73.3917 12.76 66.3984 19.7533 66.3984 28.38C66.3984 37.0067 73.3917 44 82.0184 44Z" fill="black"/>
<path d="M76.5202 24.7299C75.6502 24.0899 74.2902 24.2799 73.7102 24.9599C73.3302 25.3999 73.3902 25.9699 73.3902 26.5599C73.3902 29.2499 73.3902 31.9599 73.8802 34.6099C73.9102 34.7699 74.0002 35.1099 74.2802 35.3899C75.0802 36.1699 76.9202 35.9399 77.3702 35.1199C77.4302 35.0099 77.4902 34.8999 77.5102 34.6599C77.5402 34.1499 77.5702 33.6499 77.6002 33.1399C80.2802 33.9099 83.0602 34.3599 85.8502 34.4599C86.8502 34.4999 88.0202 34.3999 88.5602 33.5599C88.8802 33.0599 88.8702 32.4299 88.8602 31.8399C88.8202 30.2299 88.7802 28.6199 88.7502 27.0099C89.2402 27.3799 89.9902 27.0799 90.3402 26.5699C90.8402 25.8299 90.7102 24.7299 90.0502 24.1299C89.3902 23.5399 88.4202 23.4899 87.5402 23.4699L82.4502 23.3599C82.9202 21.5899 82.6202 19.6299 81.6502 18.0799C81.4002 17.6899 80.9402 17.2799 80.5302 17.4999C80.2502 17.6499 80.1702 18.0799 80.1402 18.3099C79.6602 21.8099 79.5502 24.4299 78.2802 25.3699C78.1002 25.4999 77.7802 25.6899 77.2502 25.7499C77.1702 25.5199 76.9802 25.0699 76.5302 24.7399L76.5202 24.7299Z" fill="white"/>
<path d="M61.2011 17.3201H47.9111C47.1986 17.3201 46.6211 17.8976 46.6211 18.6101V19.6001C46.6211 20.3125 47.1986 20.8901 47.9111 20.8901H61.2011C61.9135 20.8901 62.4911 20.3125 62.4911 19.6001V18.6101C62.4911 17.8976 61.9135 17.3201 61.2011 17.3201Z" fill="#D4D5D5"/>
<path d="M46.8404 15.0599C46.4404 16.6199 46.3204 18.4199 46.5904 20.0099C46.6804 20.5599 46.8604 21.0399 47.4004 21.2699C47.9804 21.5199 48.7604 21.4699 49.3704 21.4699C52.8404 21.4899 56.3204 21.3299 59.7904 21.2799C60.2004 21.2799 60.6104 21.2599 61.0204 21.2799C61.3704 21.2799 61.8104 21.3799 62.1504 21.2999C62.7104 21.1799 62.7104 20.3799 62.7804 19.9299C62.9004 19.1799 62.9804 18.4199 63.0004 17.6599C63.0204 16.8999 63.0704 16.0499 62.8804 15.2899C62.5204 13.8599 60.8404 14.0199 59.6404 13.9599C57.9504 13.8799 56.2604 13.9399 54.5704 13.9299C52.6104 13.9199 50.6304 13.8199 48.6704 13.9799C48.0704 14.0299 46.9704 13.8999 46.7604 14.6099C46.5204 15.4199 46.5804 16.4799 46.5704 17.3199C46.5704 17.5999 46.8404 18.1299 46.9104 17.5799C46.9804 17.0299 46.9604 16.4099 47.0704 15.8499C47.1604 15.4199 47.3004 15.4199 47.7304 15.3599C48.1304 15.2999 48.5404 15.2699 48.9504 15.2399C50.3004 15.1499 51.6504 15.1999 53.0004 15.2199C55.6704 15.2699 58.4404 15.1599 61.0904 15.5699C61.5804 15.6499 62.3804 15.6999 62.5404 16.2799C62.7204 16.9199 62.5404 17.8199 62.4904 18.4699C62.4604 18.8199 62.4204 19.1599 62.3704 19.4999C62.3204 19.8399 62.3304 20.0199 61.9804 20.1099C61.3504 20.2699 60.5404 20.1799 59.8904 20.1999C57.1404 20.2499 54.3804 20.2699 51.6304 20.2999C50.8704 20.2999 50.1104 20.3299 49.3404 20.2999C48.7504 20.2799 47.8504 20.3499 47.3604 19.9599C46.8704 19.5699 46.9904 18.4299 46.9804 17.8899C46.9604 17.0599 47.0004 16.2399 47.0604 15.4099C47.0604 15.3099 46.9304 14.7099 46.8404 15.0599Z" fill="black"/>
<path d="M13.6602 52.2799C13.9702 52.5599 14.5302 52.4399 14.9102 52.3899C15.3702 52.3299 15.8402 52.2799 16.3002 52.2399C16.7602 52.1999 17.2002 52.1499 17.6402 52.0599C18.0802 51.9699 18.5302 51.9099 18.9402 51.7499C18.9902 51.7299 18.9902 51.5299 18.9402 51.5199C18.5102 51.3799 18.0202 51.3599 17.5702 51.3299C17.1202 51.2999 16.6702 51.3299 16.2202 51.3899C15.7702 51.4499 15.3202 51.4999 14.8802 51.5699C14.4402 51.6399 13.9002 51.7099 13.6302 52.0699C13.5902 52.1199 13.6002 52.2399 13.6502 52.2899L13.6602 52.2799Z" fill="black"/>
<path d="M92.8985 47.3501C93.3085 47.5801 93.8384 47.4201 94.2684 47.3401C94.7484 47.2501 95.2284 47.1201 95.6984 46.9901C96.1684 46.8601 96.6284 46.7001 97.0584 46.5001C97.5384 46.2801 97.9685 45.9801 98.4285 45.7301C98.4785 45.7101 98.4685 45.4801 98.4085 45.4901C98.1685 45.5201 97.9384 45.5101 97.6984 45.5301C97.4584 45.5501 97.2284 45.5701 96.9885 45.5901C96.5285 45.6401 96.0585 45.7701 95.6185 45.8801C95.1785 45.9901 94.6985 46.1101 94.2385 46.2501C93.7785 46.3901 93.2184 46.4901 92.8784 46.8501C92.7884 46.9401 92.7585 47.2801 92.8885 47.3601L92.8985 47.3501Z" fill="black"/>
<path d="M95.5409 63.91C95.7209 63.96 95.8709 64.08 96.0609 64.13C96.2509 64.18 96.4009 64.24 96.5809 64.26C96.9009 64.3 97.2509 64.35 97.5709 64.33C97.8909 64.31 98.2309 64.24 98.5609 64.18C98.7209 64.15 98.8809 64.11 99.0309 64.08C99.2209 64.04 99.3909 63.95 99.5809 63.91C99.6409 63.9 99.6409 63.68 99.5809 63.67C99.4009 63.65 99.2409 63.58 99.0609 63.56C98.8809 63.54 98.7109 63.5 98.5409 63.48C98.2109 63.43 97.8809 63.36 97.5409 63.33C97.2009 63.3 96.8709 63.31 96.5509 63.3C96.3909 63.3 96.2309 63.32 96.0809 63.34C95.8909 63.37 95.7209 63.45 95.5309 63.46C95.4009 63.46 95.4309 63.87 95.5409 63.9V63.91Z" fill="black"/>
<path d="M37.4696 16.74C37.4196 17.66 37.7696 18.6 38.1296 19.45C38.2896 19.83 38.4496 20.23 38.6696 20.58C38.7696 20.73 38.8796 20.88 39.0096 21C39.0596 21.05 39.1196 21.11 39.1796 21.15C39.2496 21.19 39.2996 21.17 39.3796 21.1899C39.4596 21.2099 39.4496 21.07 39.4496 21.03C39.4096 20.8 39.3696 20.58 39.3096 20.36C39.2496 20.14 39.1596 19.89 39.0796 19.66C38.9396 19.28 38.7496 18.92 38.5996 18.54C38.4596 18.2 38.3196 17.8599 38.1996 17.5099C38.0796 17.1599 37.9796 16.75 37.7196 16.5C37.5696 16.35 37.4796 16.61 37.4696 16.73V16.74Z" fill="black"/>
<path d="M20.77 31.0299C20.84 30.9999 20.97 31.1199 21.02 31.1699C21.18 31.3199 21.37 31.4499 21.54 31.5899C21.89 31.8699 22.25 32.1299 22.62 32.3799C22.96 32.6099 23.31 32.8199 23.68 32.9899C23.85 33.0699 24.04 33.1299 24.22 33.1999C24.38 33.2599 24.57 33.3499 24.74 33.3699C24.83 33.3699 24.7899 33.1599 24.7599 33.1199C24.6799 32.9999 24.58 32.9199 24.49 32.8099C24.41 32.7099 24.34 32.6199 24.25 32.5299C24.07 32.3499 23.92 32.1499 23.73 31.9699C23.37 31.6299 23 31.3099 22.61 31.0099C22.25 30.7399 21.88 30.4799 21.5 30.2299C21.27 30.0799 20.89 29.7999 20.63 30.0599C20.47 30.2099 20.46 30.4699 20.49 30.6799C20.51 30.8099 20.59 31.1099 20.78 31.0199L20.77 31.0299Z" fill="black"/>
</svg>
