<svg xmlns="http://www.w3.org/2000/svg" width="117" height="114" viewBox="0 0 117 114" fill="none">
<path d="M19.6575 23.7235C22.6175 16.3935 30.7675 12.0735 38.6775 11.9035C43.2075 11.8035 48.1275 13.1035 50.8375 16.7335C55.9875 13.5235 61.4375 10.8235 66.8775 8.12351C70.4975 6.32351 74.1175 4.53351 77.7275 2.73351C78.9075 2.15351 80.1475 1.55351 81.4575 1.60351C84.1875 1.71351 85.9475 4.44351 87.2375 6.85351C90.3075 12.6135 93.3775 18.3735 96.4575 24.1335C96.6275 24.4535 96.5075 25.0735 96.2075 24.8735C96.3275 24.3535 96.7675 24.1335 97.2675 23.9335C99.3975 23.0635 101.847 23.0135 104.017 23.7835C104.577 23.9835 105.137 24.2435 105.527 24.6935C106.097 25.3535 106.207 26.2835 106.287 27.1535C106.557 30.3135 106.707 33.4735 106.727 36.6435C106.757 36.7235 106.897 36.7335 106.927 36.6435C106.957 36.5535 106.857 36.4635 106.777 36.5035C107.727 37.2135 108.567 38.1835 109.077 39.2635C109.427 40.0035 109.647 40.7835 109.837 41.5735C111.977 50.4235 110.327 59.6835 110.327 68.7935C110.327 70.7435 110.408 72.6935 110.427 74.6335C110.447 76.7535 110.408 78.8835 110.287 81.0035C109.877 88.5735 109.087 95.8835 109.027 103.464C109.027 104.354 109.007 105.243 108.807 106.114C108.227 108.684 106.018 110.734 103.467 111.424C102.107 111.794 100.688 111.814 99.2875 111.834C98.1175 111.854 96.9475 111.864 95.7775 111.884C84.6475 111.724 73.6075 111.934 62.4775 111.784C50.4875 111.614 38.4975 111.444 26.5075 111.274C19.5675 111.174 12.4675 111.044 5.9775 108.594C1.7075 106.984 1.9075 100.684 1.9075 96.1235C1.9075 91.5635 2.6575 86.9935 2.2175 82.4535C2.0975 81.2735 1.9075 80.0935 1.8675 78.9135C1.7475 75.4635 2.9175 72.0235 2.5175 68.5935C1.6975 61.5735 0.2175 54.9235 0.1875 47.8535C0.1875 45.8135 0.237499 43.7735 0.287499 41.7335C0.377499 38.4235 0.4575 35.1035 0.8075 31.8035C0.9375 30.5935 1.1075 29.3435 1.7375 28.3035C2.2675 27.4235 3.0775 26.7535 3.9475 26.2135C8.2675 23.5235 13.7275 23.8235 18.8075 24.0135C19.2075 24.0235 19.9475 24.0035 19.6675 23.7235H19.6575Z" fill="white"/>
<path d="M105.275 96.9535H9.28516V55.6235C41.5652 56.0035 73.8352 56.3835 106.115 56.7635C105.835 70.1635 105.565 83.5635 105.285 96.9535H105.275Z" fill="#D4D5D5"/>
<path d="M42.6651 17.1436C50.7151 19.2736 56.1451 27.1836 55.2051 35.6736C43.9951 35.8136 32.7851 35.9536 21.5751 36.1036C21.3051 34.1436 21.0551 30.1036 23.1651 26.0036C26.4251 19.6736 34.4051 14.9636 42.6651 17.1436Z" fill="#D4D5D5"/>
<path d="M65.5067 19.3836C67.9267 22.1736 69.7867 25.3936 71.6267 28.5936C79.5667 28.4636 87.4967 28.3336 95.4367 28.2136C95.8767 28.2136 96.3167 28.2036 96.7367 28.3236C98.0867 28.7236 98.6867 30.2536 99.1067 31.6036C99.3967 32.5336 99.6667 33.6136 99.1467 34.4336C98.5867 35.3036 97.4067 35.4736 96.3767 35.5536C84.7867 36.4536 73.1667 37.0336 61.5367 37.3036C60.7767 37.3236 59.9267 37.3036 59.3567 36.7936C58.5967 36.1036 58.7067 34.9136 58.8067 33.8936C59.4767 27.0836 56.5367 21.5036 52.1367 16.6336C54.0067 15.1736 56.5367 13.3736 58.9467 14.1736C61.3567 14.9736 63.8067 17.4236 65.4967 19.3736L65.5067 19.3836Z" fill="#D4D5D5"/>
<path d="M19.9363 21.4934C16.4663 21.0434 12.8163 21.3434 9.32633 21.6634C6.76633 21.9034 4.34633 23.0834 2.65633 25.0234C0.626332 27.3434 -0.123668 30.5734 0.0163318 33.5934C0.0363318 34.0934 0.0763322 34.5934 0.156332 35.0934C0.176332 35.2334 0.206332 35.3834 0.226332 35.5234C0.256332 35.6834 0.306331 35.8634 0.326331 36.0334C0.326331 36.0134 0.356332 35.3334 0.216332 35.8934C-0.00366835 36.8434 0.236331 38.1734 0.246331 39.1434C0.246331 40.2234 0.256332 41.3034 0.266332 42.3934C0.356332 59.7934 0.596332 77.1934 0.796332 94.5934C0.826332 97.3134 0.576332 100.023 1.19633 102.693C1.95633 105.983 3.87633 108.963 6.70633 110.833C8.44633 111.983 10.5763 112.743 12.6663 112.903C16.6763 113.213 20.7963 112.993 24.8263 113.033C42.1763 113.193 59.5163 113.363 76.8663 113.523C85.4663 113.603 94.0663 113.793 102.666 113.773C106.026 113.773 108.396 111.573 109.266 108.413C109.756 106.653 109.726 104.923 109.656 103.113C109.576 101.003 109.696 98.8734 109.716 96.7634C109.736 94.6534 109.726 92.4534 109.746 90.2934C109.746 89.9034 109.666 88.3434 109.036 88.3534C108.406 88.3634 108.436 90.0034 108.426 90.3234C108.356 94.6234 108.056 98.9734 108.216 103.263C108.266 104.653 108.356 105.723 107.676 106.993C106.876 108.493 105.466 109.533 103.776 109.793C102.086 110.053 100.176 109.833 98.4363 109.813C96.4463 109.793 94.4563 109.773 92.4563 109.753C88.3063 109.713 84.1563 109.673 80.0063 109.633C63.9063 109.483 47.8063 109.333 31.7063 109.173C27.7263 109.133 23.7363 109.093 19.7563 109.063C17.0363 109.033 14.1263 109.333 11.4363 108.823C8.93633 108.343 6.56633 107.033 4.90633 105.103C3.85633 103.883 3.06633 102.413 2.73633 100.833C2.63633 100.373 2.57633 99.9034 2.55633 99.4234C2.52633 98.7834 2.53633 98.8934 2.57633 98.3634C2.83633 94.7934 2.55633 91.1234 2.51633 87.5434C2.47633 83.5434 2.42633 79.5534 2.38633 75.5534C2.29633 67.3934 2.20633 59.2334 2.08633 51.0734C2.02633 46.5734 1.93633 42.0834 1.87633 37.5834C1.85633 36.4134 1.87633 35.2534 1.70633 34.1034C1.68633 33.9934 1.65633 33.7234 1.72633 34.2234C1.69633 34.0034 1.65633 33.7934 1.63633 33.5734C1.57633 32.9334 1.75633 31.4834 2.12633 30.5834C3.30633 27.7234 6.06633 25.7534 9.07633 25.2334C10.3963 25.0034 11.7463 24.9434 13.0763 24.8034C15.4563 24.5534 17.7163 24.3034 20.0063 23.6134C20.5963 23.4334 20.5963 21.5734 19.9563 21.4934H19.9363Z" fill="black"/>
<path d="M115.125 66.4835C113.555 64.4535 110.965 64.5435 110.715 64.5635C102.965 64.3135 95.2152 64.0635 87.4652 63.8135C78.9552 64.6435 73.4152 72.3335 74.6952 79.2335C75.7252 84.7435 81.0352 89.2635 87.5852 89.5935C95.1652 89.8635 102.755 90.1435 110.335 90.4135C110.525 90.4635 112.465 90.9735 114.045 89.7035C115.325 88.6635 115.845 86.8835 115.335 85.2035C115.595 79.9735 115.855 74.7535 116.115 69.5235C116.115 69.0335 116.045 67.7035 115.105 66.4935L115.125 66.4835Z" fill="black"/>
<path d="M7.20594 36.0036C9.33594 36.6236 11.5059 36.6436 13.7059 36.6936C15.9059 36.7436 18.0359 36.7836 20.1959 36.8236C24.6059 36.9036 29.0159 36.9736 33.4159 37.0136C42.0659 37.0936 50.7159 37.3336 59.3659 37.5336C68.0159 37.7336 76.8359 37.9036 85.5659 37.9736C89.8859 38.0136 94.2159 38.0136 98.5359 38.0936C101.496 38.1536 106.276 37.5636 108.246 40.3836C109.346 41.9536 109.146 44.4336 109.306 46.2636C109.506 48.6136 109.716 50.9736 109.776 53.3336C109.906 58.2336 109.736 63.1236 109.626 68.0136C109.616 68.6036 109.536 69.7236 109.986 70.2236C110.346 70.6236 110.656 70.4036 110.786 69.8936C111.116 68.6836 111.306 66.5136 110.066 65.7036C109.356 65.2336 108.976 68.8336 109.806 69.4336L110.016 69.6636L109.686 68.5036L109.726 68.7836L109.846 66.8736L109.766 67.1336L110.926 69.0136C111.296 64.5436 111.336 59.9836 111.166 55.4936C110.996 51.0036 110.876 46.5436 110.346 42.1136C109.926 38.6336 108.756 35.5036 104.996 34.7636C103.176 34.4036 101.276 34.5336 99.4359 34.5536C97.1959 34.5736 94.9459 34.5736 92.7059 34.5636C74.4959 34.5536 56.2959 34.8936 38.0959 35.0336C32.9459 35.0736 27.7859 35.0336 22.6359 35.0736C20.1459 35.0936 17.6459 35.1136 15.1559 35.1436C12.4959 35.1736 9.77594 35.0636 7.18594 35.8036C7.13594 35.8136 7.13594 35.9636 7.18594 35.9736L7.20594 36.0036Z" fill="black"/>
<path d="M1.39479 55.5234C4.87479 56.2134 8.61479 55.9434 12.1448 55.9834C15.6748 56.0234 19.3048 56.0734 22.8948 56.0934C29.8948 56.1434 36.8848 56.2134 43.8848 56.3034C58.0448 56.4934 72.2048 56.6534 86.3648 56.8134C94.3648 56.9034 102.355 56.9534 110.355 57.0234C110.675 57.0234 110.675 55.4934 110.315 55.4934C81.9948 55.0934 53.6648 54.8834 25.3448 54.4234C21.3448 54.3634 17.3448 54.3134 13.3448 54.2634C9.34479 54.2134 5.22479 53.7734 1.35479 54.4534C1.03479 54.5134 1.07479 55.4734 1.38479 55.5334L1.39479 55.5234Z" fill="black"/>
<path d="M1.39651 96.2334C4.78651 96.9134 8.42651 96.6534 11.8665 96.6834C15.3065 96.7134 18.8465 96.7634 22.3265 96.7934C29.3065 96.8534 36.2765 96.9034 43.2565 97.0034C57.2965 97.1934 71.3265 97.3534 85.3665 97.5034C93.2565 97.5934 101.147 97.6434 109.037 97.7134C109.357 97.7134 109.357 96.1834 108.997 96.1834C81.0065 95.7934 53.0165 95.5834 25.0265 95.1234C21.1265 95.0634 17.2165 95.0134 13.3165 94.9634C9.41651 94.9134 5.22651 94.4634 1.36651 95.1534C1.04651 95.2134 1.08651 96.1734 1.39651 96.2334Z" fill="black"/>
<path d="M80.6969 76.5634C80.3969 79.4634 82.8369 82.0634 85.4569 82.1434C87.8569 82.2134 90.357 80.1534 90.427 77.3134C90.497 74.4234 88.0169 72.2534 85.5969 72.2034C83.3369 72.1534 80.9669 73.9534 80.6969 76.5534V76.5634Z" fill="white"/>
<path d="M26.0985 35.5335C26.2485 34.9235 26.4785 34.4235 26.5385 33.7635C26.6085 33.0035 26.7285 32.2535 26.8985 31.5035C27.2385 30.0435 27.8085 28.6435 28.5985 27.3635C30.1385 24.8535 32.3085 23.0835 34.9485 21.8235C37.8985 20.4135 41.2485 20.3435 44.2885 21.4835C45.7285 22.0235 47.1985 22.6835 48.5785 23.3935C48.6385 23.4235 48.6285 23.2435 48.6085 23.2235C45.2685 19.4335 38.7585 18.0335 34.0985 19.8635C31.2185 20.9935 28.8485 23.5435 27.4385 26.2435C26.6685 27.7235 26.1085 29.3335 25.8285 30.9735C25.6785 31.8135 25.5885 32.6635 25.5785 33.5035C25.5685 34.3435 25.7685 34.8035 26.0585 35.5535C26.0785 35.5935 26.0985 35.5635 26.1085 35.5335H26.0985Z" fill="black"/>
<path d="M18.0274 36.4136C18.7474 34.7036 18.3674 32.4436 18.6374 30.6136C18.9274 28.6536 19.5674 26.7536 20.4074 24.9536C22.1874 21.1436 25.1974 17.9536 28.8874 15.9436C37.1374 11.4436 47.9574 13.2036 53.8574 20.6936C56.8074 24.4436 58.5174 29.3536 57.8074 34.1436C57.7074 34.8036 57.5374 36.4836 58.2474 36.9236C59.0174 37.4036 59.2074 36.1836 59.2774 35.6236C60.5574 25.1836 55.3674 14.2236 44.9574 10.7736C40.0174 9.13357 34.4974 9.32357 29.7174 11.4136C25.2674 13.3536 21.7774 16.8836 19.5274 21.1436C18.1874 23.6736 17.4174 26.4736 17.0774 29.3036C16.9074 30.6936 16.8574 32.1036 16.9574 33.4936C17.0274 34.3536 17.0674 35.9436 17.8574 36.4936C17.9374 36.5436 18.0074 36.4436 18.0274 36.3936V36.4136Z" fill="black"/>
<path d="M51.6067 17.1735C54.1167 16.7235 56.5367 14.9135 58.7467 13.7135C60.9567 12.5135 63.0167 11.4135 65.1467 10.2735C68.4167 8.5235 71.7067 6.8235 75.0367 5.2035C76.2867 4.5935 77.5567 3.9635 78.8667 3.4835C81.3067 2.5835 83.5567 2.6335 85.0567 5.0035C86.6467 7.5135 87.9267 10.2835 89.2967 12.9235C90.5867 15.4135 91.8267 17.9135 93.0567 20.4335C94.4567 23.3035 95.8267 26.1935 97.1867 29.0835C97.7667 30.3135 98.3467 31.5435 98.9167 32.7735C99.2167 33.4035 99.2967 33.6635 99.1167 34.4035C98.9367 35.1435 98.7867 35.7235 98.7367 36.4935C98.7167 36.7635 98.7067 37.4935 99.0367 37.6235C99.1267 37.6635 99.2167 37.6935 99.3067 37.7235C99.5367 37.8135 99.6867 37.7535 99.8267 37.5435C101.267 35.5135 100.867 32.3735 99.8667 30.2435C98.6467 27.6535 97.3967 25.0735 96.1567 22.4935C93.4667 16.9235 90.7367 11.3435 87.6267 5.9835C86.4767 3.9935 85.3367 0.973499 82.9567 0.213499C80.9967 -0.416501 78.8867 0.473499 77.0967 1.2535C73.8867 2.6535 70.7867 4.2935 67.7067 5.9435C65.2167 7.2735 62.7467 8.6435 60.2967 10.0435C58.8667 10.8635 57.4367 11.6935 56.0067 12.5235C54.4367 13.4435 52.7667 14.3535 51.4867 15.6535C51.2867 15.8635 51.0867 17.2635 51.6167 17.1735H51.6067Z" fill="black"/>
<path d="M95.276 23.9335C96.056 24.5535 97.106 24.5335 98.066 24.5835C99.026 24.6335 100.036 24.6935 101.016 24.7435C102.386 24.8135 104.296 24.7635 105.226 25.9835C106.086 27.1035 105.946 28.8935 105.986 30.2135C106.036 32.1635 106.036 34.1035 105.986 36.0535C105.986 36.4335 106.066 37.5435 106.556 37.6635C107.046 37.7835 107.176 36.7535 107.196 36.4635C107.326 34.1835 107.296 31.8035 107.036 29.5335C106.816 27.6435 106.796 25.4935 105.886 23.7835C105.506 23.0535 104.966 22.4335 104.196 22.1135C103.426 21.7935 102.576 21.6935 101.726 21.6535C100.616 21.6035 99.506 21.5835 98.396 21.6335C97.286 21.6835 96.096 21.6335 95.256 22.3835C94.956 22.6535 94.976 23.6835 95.296 23.9335H95.276Z" fill="black"/>
<path d="M90.0963 13.1834C79.7963 18.6734 69.5063 24.1634 59.2063 29.6534L56.6562 22.2734L86.5863 6.52344L90.0963 13.1834Z" fill="black"/>
</svg>