<svg xmlns="http://www.w3.org/2000/svg" width="120.293" height="108.016" viewBox="0 0 120.293 108.016">
  <g id="Group_10288" data-name="Group 10288" transform="translate(-0.977)">
    <path id="Path_12524" data-name="Path 12524" d="M112.068,18.555H2.48V96.637H112.068Z" transform="translate(-0.25 -3.086)" fill="#fff"/>
    <path id="Path_12525" data-name="Path 12525" d="M114.241,34.777H74.115v52.5h40.125Z" transform="translate(-12.166 -5.785)" fill="#d4d5d5"/>
    <path id="Path_12526" data-name="Path 12526" d="M52.772,33.9H13.893v22.62H52.772Z" transform="translate(-2.148 -5.639)" fill="#d4d5d5"/>
    <path id="Path_12527" data-name="Path 12527" d="M2.6,96.791a9.05,9.05,0,0,0,.527-3.251c.1-1.49.132-2.979.162-4.468.061-2.948.091-5.9.122-8.844q.076-8.844.081-17.687c.02-11.71-.03-23.411-.061-35.121-.02-6.655.061-13.311-.071-19.956-.01-.7-.213-2.522-1.216-2.533S1.055,6.937,1.045,7.515C.873,19.3,1.076,31.1,1.106,42.889S1.177,66.3,1.319,78c.041,3.282.081,6.565.162,9.847.041,1.681.051,3.373.172,5.044a12.352,12.352,0,0,0,.6,3.9c.081.193.253.173.334,0Z" transform="translate(0 -0.82)"/>
    <path id="Path_12528" data-name="Path 12528" d="M112.252.1H1.905a.628.628,0,0,0-.628.628V17.754a.628.628,0,0,0,.628.628H112.252a.628.628,0,0,0,.629-.628V.726A.628.628,0,0,0,112.252.1Z" transform="translate(-0.05 -0.016)"/>
    <path id="Path_12529" data-name="Path 12529" d="M14.158,49.348l18-14.739L43.6,34.254,18.717,56.5l-4.559.122Z" transform="translate(-2.193 -5.698)" fill="#fff"/>
    <path id="Path_12530" data-name="Path 12530" d="M28.582,56.488q10.773-11.153,21.537-22.3H52.55q-10.393,11.244-20.8,22.5c-1.064-.071-2.117-.142-3.181-.2Z" transform="translate(-4.59 -5.687)" fill="#fff"/>
    <path id="Path_12531" data-name="Path 12531" d="M74.975,62.738,100.958,34.8h12.855L74.975,76.555Z" transform="translate(-12.309 -5.789)" fill="#fff"/>
    <path id="Path_12532" data-name="Path 12532" d="M74.539,87.579Q94.232,65.03,113.915,42.49c.03,1.347.061,2.695.081,4.042Q97.281,67.547,80.577,88.572c-2.016-.324-4.032-.659-6.048-.983Z" transform="translate(-12.235 -7.068)" fill="#fff"/>
    <path id="Path_12533" data-name="Path 12533" d="M2.626,114.473a17.666,17.666,0,0,0,5.369.445c1.823-.02,3.576-.02,5.359-.04,3.576-.041,7.142-.092,10.718-.132q10.713-.138,21.435-.314,21.273-.349,42.556-.689,6.047-.091,12.1-.193c1.985-.031,3.981-.061,5.966-.1,1.013-.02,2.046.021,3.06-.071a14.911,14.911,0,0,0,3.049-.648c.354-.112.314-1.449-.041-1.551a12.881,12.881,0,0,0-2.614-.526c-.891-.061-1.833-.021-2.755,0l-5.359.091c-3.576.061-7.142.112-10.718.173q-10.713.166-21.435.344c-14.182.233-28.374.435-42.556.719l-12.1.243c-1.986.041-3.981.091-5.967.142a20.555,20.555,0,0,0-6.108.649c-.385.132-.355,1.357.041,1.469Z" transform="translate(-0.222 -18.401)"/>
    <path id="Path_12534" data-name="Path 12534" d="M134.21.293a36.415,36.415,0,0,0-.7,8.4c-.081,3.12-.193,6.23-.253,9.35-.122,6.058-.132,12.126-.163,18.194q-.091,18.31-.183,36.63c-.02,3.373,0,6.737.021,10.1.03,3.535.293,7.061.384,10.6,0,.364.122,1.4.669,1.377s.588-1.074.6-1.418c.1-3.039.416-6.067.466-9.107s.122-6.23.142-9.35q.046-9.087.092-18.184c.061-12.207.162-24.424.132-36.63,0-3.363-.092-6.737-.142-10.1s.1-6.686-.649-9.887c-.091-.375-.3-.324-.4,0Z" transform="translate(-21.945 0)"/>
    <path id="Path_12535" data-name="Path 12535" d="M73.676,97.521c.81.993,2.056.972,3.282,1.043,1.5.081,3.009.111,4.518.142,2.928.071,5.845.061,8.773.051s5.683.02,8.52-.081a56.425,56.425,0,0,0,9.005-.587c.3-.061.273-1.094-.03-1.155a54.135,54.135,0,0,0-8.783-.577c-2.867-.091-5.845-.081-8.773-.081s-5.683-.02-8.519.041c-1.5.03-3.009.051-4.508.132-1.276.071-2.654-.01-3.485,1.053Z" transform="translate(-12.093 -16.014)"/>
    <path id="Path_12536" data-name="Path 12536" d="M121.716,34.139c-.415,8.246-.233,16.553-.263,24.8s-.01,16.684.071,25.021c0,.334.112,1.286.608,1.266s.547-.993.547-1.3q.121-12.384.071-24.768c-.03-8.236.152-16.532-.253-24.768-.04-.851-.729-1.52-.789-.263Z" transform="translate(-20.038 -5.561)"/>
    <path id="Path_12537" data-name="Path 12537" d="M74.339,33.774a4.5,4.5,0,0,0-.344,1.935c-.071,1.1-.111,2.208-.142,3.313-.061,2.2-.061,4.386-.081,6.584q-.046,6.959-.071,13.929c-.01,4.65-.03,9.117-.03,13.665s-.132,9.31.2,13.919c.071.962.922,1.671,1.023.284.324-4.457.213-9.006.213-13.473s-.02-9.279-.03-13.919-.041-9.107-.071-13.665c-.01-2.279-.01-4.559-.071-6.838-.03-1.175-.081-2.36-.152-3.535A5.6,5.6,0,0,0,74.44,33.8C74.42,33.764,74.379,33.713,74.339,33.774Z" transform="translate(-12.088 -5.613)"/>
    <path id="Path_12538" data-name="Path 12538" d="M74.087,34.55c.324.709.284.881,1.033.983.9.122,1.854.081,2.765.111,1.763.061,3.515.091,5.268.1,3.424,0,6.858.02,10.282,0s6.858-.041,10.282-.071l5.014-.041a49.982,49.982,0,0,0,5.51-.1c.527-.061.486-1.935-.051-2.006a50.143,50.143,0,0,0-5.52-.1l-5.521-.041c-3.758-.03-7.527-.051-11.285-.071s-7.354-.03-11.032,0c-1.823.02-3.7.02-5.511.192-.324.03-1.611.223-1.236,1.033Z" transform="translate(-12.15 -5.538)"/>
    <path id="Path_12539" data-name="Path 12539" d="M12.274,14.237A3.971,3.971,0,1,0,8.3,10.266,3.971,3.971,0,0,0,12.274,14.237Z" transform="translate(-1.219 -1.047)" fill="#fff"/>
    <path id="Path_12540" data-name="Path 12540" d="M27.34,14.237a3.971,3.971,0,1,0-3.971-3.971A3.971,3.971,0,0,0,27.34,14.237Z" transform="translate(-3.725 -1.047)" fill="#fff"/>
    <path id="Path_12541" data-name="Path 12541" d="M42.407,14.237a3.971,3.971,0,1,0-3.971-3.971A3.971,3.971,0,0,0,42.407,14.237Z" transform="translate(-6.231 -1.047)" fill="#fff"/>
    <path id="Path_12542" data-name="Path 12542" d="M107.129,85s12.682,36.468,12.885,36.408c.112-.263,1.824-4.376,4.174-10.029q3.555,5.395,7.121,10.778l6.868-6.017L129.263,107q4.832-1.5,9.664-3L107.139,85Z" transform="translate(-17.658 -14.139)"/>
    <path id="Path_12543" data-name="Path 12543" d="M13.286,34.53c-.375,3.556-.172,7.223-.192,10.8-.01,1.813-.041,3.637-.03,5.45A34.007,34.007,0,0,0,13.3,56.1c.1.628.75,1.206.912.243a33.965,33.965,0,0,0,.263-5.177c.02-1.813-.02-3.637-.03-5.45C14.42,42,14.6,38.2,14.228,34.5c-.111-1.074-.821-.993-.922.02Z" transform="translate(-2.009 -5.61)"/>
    <path id="Path_12544" data-name="Path 12544" d="M13.644,34.623a20.621,20.621,0,0,0,2.1.375c.648.01,1.3.03,1.945.041,1.3.03,2.593.02,3.89.03,2.5.02,5,.02,7.506.02q7.567,0,15.144-.02c1.388,0,2.776,0,4.163-.01.74,0,1.479-.041,2.219-.071a9.514,9.514,0,0,0,2.218-.152c.415-.111.355-1.6-.041-1.712a7.227,7.227,0,0,0-1.813-.132c-.7-.02-1.388-.071-2.087-.081-1.246-.03-2.5,0-3.748-.01-2.543,0-5.1-.02-7.638-.02-5.1,0-10.191-.03-15.286,0-1.388.01-2.776.01-4.163.03-.74,0-1.479.03-2.219.051a5.229,5.229,0,0,0-.972.061c-.425.061-.81.263-1.246.324-.577.071-.537,1.216.03,1.3Z" transform="translate(-2.033 -5.467)"/>
    <path id="Path_12545" data-name="Path 12545" d="M60.455,33.536a7.1,7.1,0,0,0-.294,2.654c-.02.881-.02,1.834-.03,2.745-.02,1.935-.03,3.87-.041,5.8-.02,3.819.041,7.628.132,11.447,0,.223.071.861.405.851s.365-.669.365-.871a3.6,3.6,0,0,0-.111-.871c-.111-.456-.456-.405-.567.01a3.615,3.615,0,0,0-.091.881c0,.223.081.861.405.851s.365-.669.365-.871c.081-3.87.142-7.729.122-11.6,0-1.884-.02-3.768-.041-5.642,0-.962-.02-1.935-.041-2.9a7.357,7.357,0,0,0-.3-2.492c-.071-.192-.213-.162-.284,0Z" transform="translate(-9.832 -5.556)"/>
    <path id="Path_12546" data-name="Path 12546" d="M52.6,73.948c-1.226-1.074-3-.851-4.528-.9-1.671-.061-3.333-.061-5-.091-3.333-.041-6.676-.071-10.008-.081l-9.755-.03h-5a22.124,22.124,0,0,0-5.247.172c-.486.132-.436,1.793.051,1.915a21.715,21.715,0,0,0,5,.172c1.6.01,3.333.01,5,0l10.008-.03q4.878-.015,9.755-.081c1.671-.02,3.333-.02,5-.081,1.57-.051,3.495.223,4.731-.912.02-.01.01-.061,0-.081Z" transform="translate(-1.953 -12.105)"/>
    <path id="Path_12547" data-name="Path 12547" d="M13.133,85.8c1.226,1.074,3,.851,4.528.9,1.671.061,3.333.061,5,.091,3.333.041,6.676.071,10.009.081l9.755.03h5a22.124,22.124,0,0,0,5.247-.172c.486-.132.436-1.793-.051-1.915a21.715,21.715,0,0,0-5-.172c-1.6-.01-3.333-.01-5,0l-10.008.03q-4.878.015-9.755.081c-1.671.02-3.333.02-5,.081-1.57.051-3.495-.223-4.731.912-.02.01-.01.061,0,.081Z" transform="translate(-2.019 -14.071)"/>
    <path id="Path_12548" data-name="Path 12548" d="M52.6,97.476c-1.226-1.074-3-.851-4.528-.9-1.671-.061-3.333-.061-5-.091-3.333-.041-6.676-.071-10.008-.081l-9.755-.03h-5a22.123,22.123,0,0,0-5.247.172c-.486.132-.436,1.793.051,1.915a21.72,21.72,0,0,0,5,.172c1.6.01,3.333.01,5,0l10.008-.03q4.878-.015,9.755-.081c1.671-.02,3.333-.02,5-.081,1.57-.051,3.495.223,4.731-.912.02-.01.01-.061,0-.081Z" transform="translate(-1.953 -16.019)"/>
    <path id="Path_12549" data-name="Path 12549" d="M13.776,60.785a4.427,4.427,0,0,0,1.58.3c.689.051,1.388.111,2.077.122,1.246.02,2.492.03,3.738.041q3.814.046,7.618.1c5.085.071,10.16.051,15.246.051h4.153c1.489,0,2.948-.132,4.427-.223l-.041-1.671c-.132,0-.263.01-.4.02-.4.02-.375,1.621.041,1.641.132,0,.263.01.4.02.385.02.405-1.651-.041-1.671-1.3-.081-2.573-.213-3.88-.223s-2.492,0-3.738,0H37.339c-5.075,0-10.16.081-15.236.142-1.388.02-2.765.03-4.153.051-.739,0-1.479.041-2.218.1a5.4,5.4,0,0,0-1.975.334c-.2.091-.172.81.02.9Z" transform="translate(-2.103 -9.863)"/>
  </g>
</svg>
