<svg width="116" height="121" viewBox="0 0 116 121" fill="none" xmlns="http://www.w3.org/2000/svg">
<path d="M113.906 60.8501C115.676 73.5101 109.806 86.9301 99.3158 94.2301C89.2258 101.25 76.2858 102.45 63.9958 102.72C55.5058 102.91 47.0158 102.76 38.5458 102.28C40.1058 107.68 40.8358 113.4 40.7758 119.02C30.0058 109.52 19.7058 99.4801 9.92578 88.9501C22.4858 82.5601 35.3958 75.3701 43.1658 63.6101C42.0158 69.9401 40.8758 76.2701 39.7258 82.6001C41.9658 82.1501 44.2458 82.9401 46.4758 83.4601C51.1658 84.5601 56.0458 84.4401 60.8658 84.3101C68.4558 84.1201 76.0758 83.9201 83.5458 82.5701C91.0158 81.2201 98.3858 78.6701 104.496 74.1601C108.956 70.8701 112.796 66.3101 113.776 60.8501C113.716 61.1501 113.846 60.5401 113.896 60.8501H113.906Z" fill="white"/>
<path d="M92.6955 87.89C67.0155 105.14 37.6455 96.19 33.3155 94.79C33.7555 96.63 34.2455 98.53 34.7955 100.47C35.6755 103.58 36.6155 106.52 37.5955 109.28C36.7355 107.76 35.0455 106.95 33.4555 106.23C30.0055 104.67 26.5555 103.1 23.1055 101.54C28.3755 108.53 34.7755 114.66 41.9755 119.64C40.1455 113.97 38.8855 108.11 38.2255 102.18C41.8455 103.6 45.8455 103.65 49.7355 103.69C63.6655 103.81 77.8755 103.89 91.1555 99.67C94.3755 98.65 97.5555 97.35 100.225 95.28C102.525 93.49 104.375 91.18 106.065 88.8C108.875 84.86 111.905 80.77 113.265 74.65C113.785 72.31 114.295 68.63 113.655 64C110.495 70.16 104.205 80.14 92.7055 87.87L92.6955 87.89Z" fill="#D4D5D5"/>
<path d="M1.22257 60.68C-0.547431 48.02 5.32257 34.6 15.8126 27.3C25.9026 20.28 38.8426 19.08 51.1326 18.81C59.6226 18.62 68.1126 18.77 76.5826 19.25C75.0226 13.85 74.2926 8.13001 74.3526 2.51001C85.1226 12.01 95.4226 22.05 105.203 32.58C92.6426 38.97 79.7326 46.16 71.9626 57.92C73.1126 51.59 74.2526 45.26 75.4026 38.93C73.1626 39.38 70.8826 38.59 68.6526 38.07C63.9626 36.97 59.0826 37.09 54.2626 37.22C46.6726 37.41 39.0526 37.61 31.5826 38.96C24.1126 40.31 16.7426 42.86 10.6326 47.37C6.17257 50.66 2.33257 55.22 1.35257 60.68C1.41257 60.38 1.28257 60.99 1.23257 60.68H1.22257Z" fill="white"/>
<path d="M5.75359 43.2799C13.4736 33.6399 32.2236 29.9399 32.2236 29.9399C50.0136 26.4299 66.5236 28.1099 78.9636 30.7699C78.7936 31.8699 78.6136 32.9699 78.4236 34.0899C77.9636 36.8099 77.4636 39.4699 76.9436 42.0599C84.0536 38.8399 91.5536 36.4699 99.2236 35.0099C89.0736 41.1799 79.8736 48.9099 72.0536 57.8499C72.8536 51.5999 73.6536 45.3499 74.4536 39.0999C64.1736 37.1799 53.6136 37.5699 43.1936 38.3899C32.3336 39.2399 21.0936 40.6999 11.9036 46.5299C8.90359 48.4399 6.12359 50.8399 4.36359 53.9299C2.49359 57.2199 2.44359 60.4299 3.12359 63.9999C1.56359 63.0499 1.53359 59.3299 1.42359 57.6899C1.18359 53.9699 1.77359 51.1599 1.99359 50.3599C1.99359 50.3599 3.02359 46.6599 5.74359 43.2599L5.75359 43.2799Z" fill="#D4D5D5"/>
<path d="M10.2424 80.4799C9.92242 79.4099 9.69242 78.7099 9.05242 77.7999C8.41242 76.8899 7.80242 76.0699 7.21242 75.1899C6.09242 73.5299 5.14242 71.7599 4.33242 69.9199C2.71242 66.2599 1.70242 62.2899 1.43242 58.2899C0.902425 50.4799 3.29242 42.8299 7.88242 36.5199C12.6724 29.9499 19.4824 25.3499 27.2424 23.0199C33.7124 21.0799 40.7324 20.5099 47.4524 20.0899C57.1724 19.4799 66.9324 19.7399 76.6324 20.6499C77.1624 20.6999 77.2524 17.9299 76.5624 17.8599C67.4524 16.9899 58.2924 16.6799 49.1524 17.1299C42.0824 17.4799 34.6324 17.9199 27.7824 19.8399C19.9224 22.0399 13.0324 26.4099 7.96242 32.8399C2.89242 39.2699 0.212425 46.9599 0.0124247 55.0099C-0.217575 64.0299 2.74242 74.1599 9.16242 80.7199C9.30242 80.8599 9.40242 80.8999 9.58242 80.8299C9.78242 80.7699 9.99242 80.7299 10.1924 80.6999C10.2724 80.6899 10.2624 80.5399 10.2424 80.4899V80.4799Z" fill="black"/>
<path d="M73.2636 1.79999C73.2336 3.21999 73.5736 4.69999 73.8236 6.08999C74.0936 7.61999 74.3636 9.14999 74.6436 10.67C75.2036 13.65 75.8036 16.62 76.3036 19.6C76.3736 20 76.6536 20.95 77.2136 20.51C77.7436 20.1 77.6036 18.99 77.4836 18.45C76.7736 15.43 76.1636 12.39 75.4936 9.35999C75.1836 7.93999 74.8536 6.52999 74.5336 5.11999C74.2636 3.94999 74.0636 2.52999 73.4736 1.47999C73.3536 1.25999 73.2636 1.73999 73.2636 1.78999V1.79999Z" fill="black"/>
<path d="M2.52516 66.0599C2.61516 64.7999 2.37516 63.5999 2.30516 62.3399C2.21516 60.4899 2.51516 58.6299 3.17516 56.9099C4.08516 54.5399 5.65516 52.4899 7.47516 50.7499C10.5352 47.8299 14.1852 45.7699 18.1352 44.3099C23.4552 42.3499 29.1052 41.3399 34.7152 40.6599C40.3252 39.9799 46.3352 39.6099 52.1652 39.4799C59.8452 39.3099 67.5452 39.5699 75.1952 40.2099C75.7352 40.2499 75.8052 37.5999 75.1252 37.5399C61.5552 36.3499 47.7552 36.3799 34.2352 38.1099C24.3152 39.3799 13.3652 41.6499 6.21516 49.2199C4.05516 51.4999 2.45516 54.2199 1.71516 57.2899C1.25516 59.1799 1.16516 61.1699 1.35516 63.0999C1.44516 64.0499 1.50516 65.7299 2.39516 66.2499C2.47516 66.2999 2.51516 66.1199 2.51516 66.0799L2.52516 66.0599Z" fill="black"/>
<path d="M74.9837 38.65C74.2737 39.71 74.0037 41.09 73.7437 42.32C73.3937 44 73.2137 45.71 72.8837 47.4C72.2637 50.62 71.3837 53.83 70.9837 57.09C70.9137 57.62 70.9537 58.69 71.4437 59.05C71.9337 59.41 72.2037 58.77 72.3037 58.35C73.0837 55.18 73.3937 51.89 73.9837 48.68C74.5737 45.47 75.4637 42.4 75.2937 39.11C75.2937 39.01 75.1737 38.35 74.9737 38.66L74.9837 38.65Z" fill="black"/>
<path d="M71.4354 58.9401C71.7654 58.7401 71.8054 58.9501 72.0454 58.8601C72.3454 58.7501 72.6654 58.4301 72.8954 58.2201C73.3354 57.8201 73.7254 57.3601 74.1254 56.9201C75.1954 55.7701 76.3054 54.6501 77.4254 53.5501C79.6054 51.4301 81.8154 49.3701 84.1654 47.4401C88.7954 43.6201 93.7854 40.2501 99.0554 37.3801C100.325 36.6901 101.615 36.0301 102.915 35.3901C103.875 34.9201 105.855 34.3901 106.165 33.2901C106.245 33.0101 106.295 32.6201 106.205 32.3401C105.835 31.1101 105.105 31.6301 104.445 31.9101C103.045 32.5001 101.695 33.1601 100.345 33.8601C94.9554 36.6401 89.8354 39.9501 85.0754 43.7201C82.4854 45.7701 79.9854 47.9501 77.6354 50.2801C76.5054 51.4001 75.4154 52.5801 74.3454 53.7701C73.7854 54.3901 73.2154 55.0101 72.6954 55.6701C71.9954 56.5701 71.7754 57.4401 71.2754 58.4101C71.2354 58.4901 71.2354 59.0501 71.4154 58.9401H71.4354Z" fill="black"/>
<path d="M73.5039 2.85003C75.9939 5.61003 79.0739 7.94003 81.7939 10.46C84.5139 12.98 87.4239 15.64 90.1539 18.32C95.3439 23.42 100.414 28.63 105.264 34.05C106.184 35.08 106.624 31.89 105.964 31.16C101.074 25.7 95.9939 20.38 90.6539 15.35C87.9039 12.76 85.1339 10.16 82.2539 7.71003C80.9139 6.56003 79.5539 5.43003 78.1839 4.32003C76.8139 3.21003 75.3839 1.89003 73.8139 1.00003C73.1539 0.630027 73.2339 2.55003 73.5039 2.85003Z" fill="black"/>
<path d="M8.09453 49.4399C3.02453 54.6199 1.75453 60.5199 1.39453 62.7099C1.80453 64.8599 2.44453 67.3399 3.47453 69.9999C5.32453 74.7899 7.76453 78.4599 9.79453 81.0299L27.8045 69.9099C26.3745 68.5399 21.2645 63.2899 20.5545 54.8899C20.0345 48.8199 22.0745 44.1699 23.1045 42.1799C21.0445 42.4099 13.9845 43.4399 8.10453 49.4399H8.09453Z" fill="black"/>
<path d="M104.895 41.05C105.215 42.12 105.445 42.82 106.085 43.73C106.725 44.64 107.335 45.46 107.925 46.34C109.045 48 109.995 49.77 110.805 51.61C112.425 55.27 113.435 59.24 113.705 63.24C114.235 71.05 111.845 78.7 107.255 85.01C102.665 91.32 95.6546 96.18 87.8946 98.51C81.4246 100.45 74.4046 101.02 67.6846 101.44C57.9646 102.05 48.2046 101.79 38.5046 100.88C37.9746 100.83 37.8846 103.6 38.5746 103.67C47.6846 104.54 56.8446 104.85 65.9846 104.4C73.0546 104.05 80.5046 103.61 87.3546 101.69C95.2146 99.49 102.105 95.12 107.175 88.69C112.245 82.26 114.925 74.57 115.125 66.52C115.355 57.5 112.395 47.37 105.975 40.81C105.835 40.67 105.735 40.63 105.555 40.7C105.355 40.76 105.145 40.8 104.945 40.83C104.865 40.84 104.875 40.99 104.895 41.04V41.05Z" fill="black"/>
<path d="M41.896 119.84C42.056 118.39 41.726 116.77 41.526 115.33C41.306 113.75 41.096 112.18 40.826 110.61C40.286 107.51 39.606 104.48 38.866 101.43C38.736 100.89 38.256 100.28 37.756 100.83C37.256 101.38 37.326 102.58 37.526 103.23C38.406 106.08 39.116 109.03 39.726 111.95C40.036 113.41 40.326 114.87 40.616 116.34C40.756 117.07 40.926 117.79 41.116 118.52C41.256 119.06 41.336 119.64 41.636 120.11C41.776 120.32 41.876 119.93 41.886 119.85L41.896 119.84Z" fill="black"/>
<path d="M112.604 55.4699C112.514 56.7299 112.754 57.9299 112.824 59.1899C112.914 61.0399 112.614 62.8999 111.954 64.6199C111.044 66.9899 109.474 69.0399 107.654 70.7799C104.594 73.6999 100.944 75.7599 96.9942 77.2199C91.6742 79.1799 86.0242 80.1899 80.4142 80.8699C74.8042 81.5499 68.7942 81.9199 62.9642 82.0499C55.2842 82.2199 47.5842 81.9599 39.9342 81.3199C39.3942 81.2799 39.3242 83.9299 40.0042 83.9899C53.5742 85.1799 67.3742 85.1499 80.8942 83.4199C90.8142 82.1499 101.764 79.8799 108.914 72.3099C111.074 70.0299 112.674 67.3099 113.414 64.2399C113.874 62.3499 113.964 60.3599 113.774 58.4299C113.684 57.4799 113.624 55.7999 112.734 55.2799C112.654 55.2299 112.614 55.4099 112.614 55.4499L112.604 55.4699Z" fill="black"/>
<path d="M39.9722 82.8599C40.5922 82.9899 41.2522 79.5299 41.3322 79.1299C41.6822 77.4499 41.8722 75.7399 42.1922 74.0599C42.8122 70.8399 43.6622 67.6499 44.0822 64.3999C44.1422 63.9199 44.1122 62.9499 43.6722 62.6199C43.2322 62.2899 42.9822 62.8699 42.8922 63.2599C42.0122 66.9099 41.7422 70.6899 40.8922 74.3499C40.4722 76.1699 40.1122 78.0099 39.9322 79.8599C39.9022 80.1999 39.6022 82.7799 39.9722 82.8599Z" fill="black"/>
<path d="M43.693 62.5799C43.363 62.7799 43.323 62.5699 43.083 62.6599C42.783 62.7699 42.463 63.0899 42.233 63.2999C41.793 63.6999 41.403 64.1599 41.003 64.5999C39.933 65.7499 38.823 66.8699 37.703 67.9699C35.523 70.0899 33.313 72.1499 30.963 74.0799C26.333 77.8999 21.343 81.2699 16.073 84.1399C14.803 84.8299 13.513 85.4899 12.213 86.1299C11.253 86.5999 9.27299 87.1299 8.96299 88.2299C8.88299 88.5099 8.83299 88.8999 8.92299 89.1799C9.29299 90.4099 10.023 89.8899 10.683 89.6099C12.083 89.0199 13.433 88.3599 14.783 87.6599C20.173 84.8799 25.293 81.5699 30.053 77.7999C32.643 75.7499 35.143 73.5699 37.493 71.2399C38.623 70.1199 39.713 68.9399 40.783 67.7499C41.343 67.1299 41.913 66.5099 42.433 65.8499C43.133 64.9499 43.353 64.0799 43.853 63.1099C43.893 63.0299 43.893 62.4699 43.713 62.5799H43.693Z" fill="black"/>
<path d="M41.6257 118.68C39.1357 115.92 36.0457 113.59 33.3257 111.06C30.6057 108.53 27.8657 106.05 25.2257 103.45C19.9457 98.28 14.7957 92.99 9.87569 87.48C8.95569 86.45 8.51569 89.64 9.17569 90.37C14.1457 95.91 19.2957 101.31 24.7157 106.41C27.3357 108.87 29.9557 111.33 32.6957 113.67C34.0757 114.85 35.4657 116.02 36.8757 117.16C38.2857 118.3 39.7157 119.63 41.3257 120.54C41.9857 120.91 41.9057 118.99 41.6357 118.69L41.6257 118.68Z" fill="black"/>
<path d="M107.034 72.09C112.104 66.91 113.374 61.01 113.734 58.82C113.324 56.67 112.684 54.19 111.654 51.53C109.804 46.74 107.364 43.07 105.334 40.5L87.3242 51.62C88.7542 52.99 93.8642 58.24 94.5742 66.64C95.0942 72.71 93.0542 77.36 92.0242 79.35C94.0842 79.12 101.144 78.09 107.024 72.09H107.034Z" fill="black"/>
</svg>
