<svg width="118" height="99" viewBox="0 0 118 99" fill="none" xmlns="http://www.w3.org/2000/svg">
<path d="M8.18996 60.5898C6.53996 59.7198 5.57996 58.0098 5.73996 56.2798C5.92996 54.2998 7.50996 53.1898 7.72996 53.0398C24.36 37.1398 41.2 21.0398 58.27 4.72983C58.72 4.17983 60.34 2.30983 63.22 1.61983C66.09 0.939827 68.33 1.87983 68.97 2.17983C78.85 7.55983 88.81 12.9798 98.84 18.4398C100.3 18.8898 101.39 20.0698 101.68 21.5098C101.98 23.0298 101.37 24.6098 100.09 25.5998C82.21 42.4298 64.56 59.0298 47.14 75.4198C46.42 76.2798 45.07 77.6298 43.07 78.1198C40.28 78.8098 37.74 77.4698 36.43 76.7498C32.23 74.4498 21.85 68.6398 8.17996 60.5798L8.18996 60.5898Z" fill="white"/>
<path d="M8.26065 59.9199C6.36065 58.7699 5.35065 56.5499 6.92065 54.6599C7.83065 53.5699 9.10065 52.6499 10.1407 51.6899C13.4207 48.6699 16.6207 45.5599 19.8507 42.4799C26.3007 36.3099 32.7607 30.1399 39.2107 23.9699C42.4907 20.8299 45.7707 17.6999 49.0507 14.5599C52.1907 11.5499 55.5506 8.66991 58.5206 5.47991C60.6706 3.17991 63.6107 1.87991 66.8007 2.43991C68.3107 2.70991 69.5106 3.43991 70.8406 4.17991C72.8406 5.28991 74.8607 6.38991 76.8707 7.48991C80.8407 9.65991 84.8006 11.8399 88.7706 14.0199C90.7306 15.0999 92.6806 16.1699 94.6406 17.2399C95.5806 17.7599 96.5206 18.2799 97.4706 18.7899C98.2906 19.2399 99.2507 19.5599 100.011 20.1199C100.831 20.7199 101.581 21.7499 101.241 22.7999C100.901 23.8499 100.001 24.4899 99.2406 25.1899C97.6106 26.7199 95.9806 28.2499 94.3506 29.7799C91.0406 32.8999 87.6807 35.9899 84.4407 39.1799C78.0207 45.4999 71.3107 51.5399 64.7507 57.7199C58.5507 63.5599 52.4207 69.4599 46.2107 75.2799C41.5907 79.6099 35.8807 75.3099 31.5007 72.8599C25.5907 69.5699 19.7707 66.1299 13.8807 62.7999C12.0207 61.7499 10.1707 60.6999 8.31065 59.6599C7.77065 59.3599 7.64065 61.1699 8.13065 61.4699C14.9907 65.7399 22.0207 69.7299 29.0607 73.7099C31.1807 74.9099 33.3007 76.0999 35.4307 77.2799C38.1007 78.7499 40.9607 80.1399 44.0307 78.8999C45.6907 78.2299 46.7707 76.9399 48.0307 75.7399C49.7807 74.0599 51.5607 72.4099 53.3307 70.7499C56.8207 67.4599 60.3206 64.1799 63.8106 60.8999C70.9007 54.2299 77.8606 47.3899 85.1006 40.8899C88.7806 37.5899 92.3306 34.1499 95.9306 30.7599C97.5706 29.2199 99.4306 27.7399 100.921 26.0499C101.961 24.8699 102.331 23.2299 102.181 21.6799C102.031 20.1299 101.351 18.7099 100.051 17.8599C99.2507 17.3299 98.2907 16.9799 97.4407 16.5199C96.2807 15.8899 95.1106 15.2699 93.9506 14.6399C89.6806 12.3399 85.4107 10.0499 81.1507 7.73991C78.9906 6.56991 76.8306 5.39991 74.6706 4.22991C72.7506 3.18991 70.8307 1.97991 68.8207 1.11991C65.8507 -0.140091 62.3007 0.379908 59.7507 2.30991C58.5907 3.18991 57.6107 4.35991 56.5607 5.36991C54.7607 7.08991 52.9607 8.80991 51.1607 10.5299C47.6307 13.8999 44.1107 17.2699 40.5807 20.6299C33.4707 27.4199 26.3607 34.2199 19.2507 41.0099C15.8607 44.2499 12.4607 47.4799 9.13065 50.7799C8.17065 51.7399 6.86065 52.6499 6.14065 53.8399C5.42065 55.0299 5.24065 56.4699 5.53065 57.8199C5.86065 59.3199 6.80065 60.4999 8.14065 61.2299C8.54065 61.4499 8.64065 60.0999 8.27065 59.8699L8.26065 59.9199Z" fill="black"/>
<path d="M6.00871 54.32C4.12871 56.74 3.15871 59.87 3.35871 62.93C2.55871 62.39 1.39871 62.87 0.868708 63.68C0.338708 64.49 0.288708 65.51 0.258708 66.47C0.188708 68.74 0.178708 71.02 0.218708 73.29C0.238708 74.25 0.278708 75.27 0.808708 76.07C1.29871 76.82 2.11871 77.26 2.90871 77.68C15.0687 84.04 27.2387 90.41 39.3987 96.77C40.7887 97.5 42.2087 98.24 43.7387 98.6C47.7887 99.57 52.1987 97.69 54.8487 94.48C57.4987 91.27 58.5287 86.94 58.3187 82.78C66.9587 73.28 76.4487 64.55 86.6287 56.72C86.7587 56.9 88.8887 59.85 92.6087 59.66C96.1987 59.48 98.0287 56.54 98.1687 56.31C102.449 58.46 107.729 58.12 111.699 55.44C115.669 52.76 118.029 47.85 117.629 43.08C117.359 39.85 115.959 36.83 114.419 33.98C110.409 26.53 104.799 19.22 96.7187 16.72C99.4987 17.03 101.749 19.84 101.429 22.62C101.149 25.1 99.2087 27.03 97.3887 28.73C80.5887 44.49 63.7887 60.24 46.9887 76C45.4487 77.45 43.6187 78.99 41.5187 78.77C40.5087 78.66 39.5987 78.15 38.7187 77.65C29.2287 72.25 19.7387 66.85 10.2387 61.44C8.89871 60.68 7.52871 59.89 6.61871 58.65C5.70871 57.41 5.11871 55.55 6.00871 54.3V54.32Z" fill="black"/>
<path d="M8.07825 68.4C9.80825 69.5 11.5183 70.63 13.2783 71.69C15.0383 72.75 16.7783 73.76 18.5383 74.78C22.0583 76.82 25.6083 78.81 29.2183 80.71C30.2083 81.23 31.1983 81.74 32.1883 82.24C33.2483 82.77 34.3183 83.19 35.4083 83.65C35.4583 83.67 35.4683 83.49 35.4283 83.47C34.5083 82.94 33.6283 82.36 32.6683 81.87C31.7783 81.41 30.8983 80.95 30.0183 80.49C28.2183 79.55 26.4283 78.6 24.6383 77.63C21.0783 75.7 17.5283 73.76 14.0383 71.71C12.0683 70.55 10.0583 69.44 8.09825 68.25C8.05825 68.23 8.03825 68.39 8.08825 68.42L8.07825 68.4Z" fill="white"/>
<path d="M52.5781 20.44L60.8981 51.82L63.6581 49.28L55.0081 18.25L52.5781 20.44Z" fill="#D4D5D5"/>
<path d="M41.2383 31.32L48.6083 63.09L57.5983 54.1L49.4183 24.05L41.2383 31.32Z" fill="#D4D5D5"/>
<path d="M45.5693 66.2199C47.2493 65.0899 48.7093 63.5799 50.1993 62.2199C51.6893 60.8599 53.1493 59.5299 54.6193 58.1799C57.5693 55.4799 60.5093 52.7799 63.4593 50.0799C69.3493 44.6699 75.2493 39.2599 81.1193 33.8299C84.4793 30.7099 87.8493 27.5999 91.2293 24.5099C91.4393 24.3199 91.2693 23.4499 91.1093 23.5899C79.2293 34.5199 67.2593 45.3299 55.3793 56.2499C53.7193 57.7699 52.0593 59.2899 50.4093 60.8199C48.7593 62.3499 46.9193 63.8799 45.4393 65.6399C45.3493 65.7399 45.3793 66.3499 45.5693 66.2199Z" fill="black"/>
<path d="M18.3296 50.89C19.3596 51.8 20.5896 52.45 21.7796 53.14C22.9696 53.83 24.0896 54.46 25.2596 55.11C27.4996 56.37 29.7496 57.63 31.9996 58.89L38.7396 62.66L42.2196 64.61L43.9596 65.58C44.4396 65.85 44.9796 66.3 45.5396 66.3C45.7996 66.3 45.7096 65.67 45.6096 65.56C45.1996 65.07 44.6096 64.83 44.0596 64.52L42.3196 63.54L38.8396 61.59L31.9896 57.75C29.7096 56.47 27.4296 55.19 25.1396 53.92C23.9796 53.27 22.8196 52.63 21.6596 52C20.5996 51.42 19.5296 50.76 18.3396 50.46C18.1996 50.42 18.2596 50.83 18.3196 50.89H18.3296Z" fill="black"/>
<path d="M61.9988 9.39005C63.5688 10.79 65.6488 11.7 67.5088 12.66C69.3688 13.62 71.3288 14.64 73.2488 15.63C77.0388 17.58 80.8288 19.53 84.6188 21.48C85.6888 22.03 86.7488 22.58 87.8188 23.13C88.3388 23.4 88.8488 23.66 89.3688 23.93C89.8488 24.18 90.4388 24.64 90.9888 24.56C91.3188 24.51 91.2188 23.8 91.0788 23.63C90.4588 22.85 89.2688 22.48 88.3888 22.03C87.4288 21.54 86.4788 21.04 85.5188 20.55C83.6088 19.56 81.6888 18.58 79.7788 17.59C75.9888 15.64 72.1988 13.68 68.4088 11.74C67.3488 11.2 66.2788 10.66 65.2088 10.13C64.1988 9.63005 63.1688 9.07005 62.0488 8.89005C61.8888 8.86005 61.9288 9.33005 61.9988 9.40005V9.39005Z" fill="black"/>
<path d="M18.3299 50.9499C24.2299 45.7099 29.8699 40.1599 35.5999 34.7399C41.3299 29.3199 46.9699 23.9999 52.6799 18.6599C54.2599 17.1799 55.8299 15.6999 57.3999 14.2199C58.1899 13.4799 58.9799 12.7299 59.7599 11.9899C60.5899 11.1999 61.4899 10.4599 62.1299 9.49991C62.1999 9.38991 62.2299 8.69991 62.0099 8.79991C61.1499 9.18991 60.4899 9.99991 59.7999 10.6399C59.0699 11.3199 58.3399 12.0099 57.6199 12.6999C56.1899 14.0499 54.7699 15.3999 53.3499 16.7499C50.4799 19.4899 47.5899 22.2099 44.7199 24.9399C39.0499 30.3499 33.3399 35.7299 27.6399 41.1099C24.4599 44.1099 21.2499 47.0899 18.1599 50.1799C17.9999 50.3399 18.1399 51.0999 18.3199 50.9399L18.3299 50.9499Z" fill="black"/>
<path d="M64.1216 10.5299C49.5916 24.2899 35.0616 38.0499 20.5216 51.8099L18.3516 50.3899C32.9216 36.6399 47.4816 22.8999 62.0516 9.1499C62.7416 9.6099 63.4316 10.0699 64.1116 10.5299H64.1216Z" fill="black"/>
<path d="M88.8298 26.4101C79.8298 21.7701 70.8398 17.1201 61.8398 12.4801L63.0698 10.1001C72.3098 14.8701 81.5498 19.6401 90.7798 24.4101C90.1298 25.0801 89.4798 25.7401 88.8298 26.4101Z" fill="black"/>
</svg>
