<svg width="106" height="123" viewBox="0 0 106 123" fill="none" xmlns="http://www.w3.org/2000/svg">
<path d="M16.0605 35.3601C13.4905 36.4701 10.9305 37.5801 8.36047 38.7001C7.52047 39.0601 6.64047 39.4501 6.06047 40.1601C5.42047 40.9301 5.22047 41.9501 5.05047 42.9301C4.46047 46.4101 4.11047 49.9301 3.77047 53.4401C3.17047 59.5001 2.58047 65.5601 1.98047 71.6101C6.63047 73.6001 11.2805 75.5901 15.9305 77.5801C18.1505 89.9801 20.3605 102.38 22.5805 114.78C26.9505 114.77 31.3205 114.75 35.6805 114.74C36.1605 109.37 36.5305 103.76 36.7805 97.9301C37.0605 91.1701 37.1405 84.6801 37.0605 78.4901C41.6905 75.6201 46.3205 72.7601 50.9505 69.8901C48.1505 60.5301 45.3505 51.1601 42.5405 41.8001C42.2505 40.8401 41.9505 39.8601 41.3105 39.1001C40.4505 38.0901 39.3805 37.6901 38.7205 37.4401C35.4205 36.2201 32.0405 35.2801 30.5505 34.8801" fill="white"/>
<path d="M5.99049 72.9002C6.83049 72.6402 7.42049 71.8902 7.89049 71.1402C10.0405 67.6802 10.8005 63.5302 11.0305 59.4602C11.2605 55.3902 11.0005 51.3002 11.3205 47.2402C12.2505 59.2102 15.4305 70.9902 20.5305 81.8502C21.7005 84.3502 22.9905 86.8302 24.7805 88.9402C26.5705 91.0502 28.8905 92.7802 31.5805 93.4402C33.1305 93.8202 34.8905 93.7902 36.1905 92.8602C36.2105 99.9802 36.1005 107 35.5005 114.09C33.7105 114.25 31.9205 114.42 30.1305 114.32C27.8505 114.2 25.5305 113.67 23.3305 114.27C22.3205 111.76 21.4605 109.2 20.7605 106.59C18.1605 96.8702 17.7905 86.6602 15.2505 76.9202C12.2105 75.5702 9.17049 74.2202 6.12049 72.8702C6.01049 72.8202 5.88049 72.7402 5.90049 72.6202C5.92049 72.5002 6.09049 72.8402 5.98049 72.8902L5.99049 72.9002Z" fill="#D4D5D5"/>
<path d="M35.1211 46.8701C35.8711 48.6001 36.1411 50.5001 36.5711 52.3301C37.9211 58.1201 40.8911 63.4501 44.5611 68.1301C45.2811 69.0501 46.1011 69.9901 47.2311 70.2701C46.6611 70.1201 44.3411 72.1101 43.8211 72.4701C42.7111 73.2401 41.6111 74.0301 40.5511 74.8601C39.6211 75.5801 38.3511 77.1901 37.2711 77.5801C36.0511 78.0201 36.4911 75.6401 36.4711 74.7601C36.3811 68.8001 36.1611 62.8301 35.8211 56.8801C35.6311 53.5401 35.4011 50.2001 35.1211 46.8701Z" fill="#D4D5D5"/>
<path d="M15.5997 34.5701C14.7997 34.7001 13.9897 34.7301 13.2497 35.0701C12.3397 35.4801 11.4497 35.9101 10.5397 36.3301C9.54974 36.7901 8.56974 37.3001 7.52974 37.6501C6.90974 37.8601 6.28974 38.0401 5.75974 38.4501C4.75974 39.2301 4.40974 40.5501 4.15974 41.7301C3.76974 43.5401 3.55974 45.4001 3.32974 47.2401C2.34974 55.0001 1.59974 62.8001 0.73974 70.5801C0.67974 71.1401 0.709741 72.4601 1.35974 72.7501C5.95974 74.8101 10.6197 76.8301 15.3197 78.6601L14.7497 77.4801C17.1797 89.8401 18.9497 102.34 21.3597 114.71C21.4297 115.09 21.6197 116.05 22.1797 116.03C26.5497 115.87 30.9097 115.71 35.2797 115.71C35.7397 115.71 35.8897 114.87 35.9197 114.56C37.0097 102.37 37.6397 90.1401 37.4097 77.9001L36.8797 79.7801C39.2097 78.3201 41.4997 76.8101 43.7897 75.3001C44.9097 74.5601 46.0197 73.8301 47.1397 73.0901C48.2597 72.3501 49.5397 71.7901 50.7597 71.1601C51.4897 70.7801 51.2797 68.9001 51.1297 68.3401C50.0697 64.2801 48.7497 60.2601 47.4997 56.2601C46.2497 52.2601 45.0797 48.1801 43.8397 44.1501C42.8997 41.0801 42.4597 36.8601 39.1997 35.3401C36.3897 34.0301 33.0997 33.4301 30.0897 32.7501C29.4297 32.6001 29.2897 35.6001 30.1697 35.8701C33.1397 36.8001 36.2997 37.7101 39.0997 39.1001C40.6297 39.8601 41.2097 41.0401 41.6997 42.5901C42.2997 44.5201 42.8397 46.4601 43.4197 48.4001C45.6197 55.8201 47.5597 63.3601 50.0497 70.6801L50.2997 67.4801C48.3097 68.9201 46.3497 70.2201 44.2197 71.4501C42.0897 72.6801 40.1097 73.7901 38.0797 75.0201C37.2197 75.5401 36.1897 75.8901 35.9397 76.9501C35.6897 78.0101 35.8597 79.1601 35.8597 80.2001C35.8397 82.3701 35.8197 84.5401 35.7897 86.7201C35.6597 95.7601 35.3797 104.74 34.5997 113.76L35.2397 112.61C30.8697 112.64 26.4997 112.51 22.1297 112.38L22.9497 113.7C21.4697 104.63 19.7897 95.5801 18.0997 86.5401C17.6897 84.3501 17.2797 82.1601 16.8697 79.9601C16.6597 78.8201 16.4997 77.6601 16.2697 76.5301C16.0197 75.3301 15.4097 75.2101 14.3497 74.7501C10.1597 72.9201 5.97974 71.0501 1.74974 69.3201L2.36974 71.4901C2.98974 64.3601 3.56974 57.2301 4.23974 50.1101C4.39974 48.4301 4.56974 46.7501 4.78974 45.0701C5.00974 43.3901 4.97974 41.1301 6.32974 39.8501C7.55974 38.6901 9.22974 38.1701 10.7597 37.5601C11.5197 37.2601 12.2797 36.9501 13.0297 36.6501C14.0297 36.2501 14.8097 35.6301 15.6797 35.0001C15.7497 34.9501 15.7697 34.5501 15.6497 34.5701H15.5997Z" fill="black"/>
<path d="M23.928 44.8C28.998 44.6 33.268 40.68 33.898 35.56L30.488 33.29C28.198 36.44 24.588 38.13 21.098 37.6C18.258 37.17 16.428 35.4 15.758 34.68C14.898 35.1 14.028 35.52 13.168 35.94C14.018 41.2 18.688 45.02 23.928 44.81V44.8Z" fill="black"/>
<path d="M33.1194 27.8302C33.6794 21.5502 28.2794 15.7402 21.8794 16.0202C16.3194 16.2702 11.5894 21.0402 11.6094 26.8302C11.6294 32.8402 16.7294 37.7302 22.6294 37.6002C28.1094 37.4802 32.6494 33.0802 33.1194 27.8202V27.8302Z" fill="white"/>
<path d="M19.1382 20.1401C18.1082 23.5101 18.2982 27.3301 20.0982 30.3701C21.8982 33.4101 25.4082 35.4701 28.9182 35.1101C27.1982 35.9401 25.3882 36.6101 23.5382 37.0801C20.8982 37.7601 17.8482 37.9801 15.6982 36.3101C14.2082 35.1601 13.4382 33.3101 12.8382 31.5201C12.2482 29.7301 11.7582 27.8701 11.8082 25.9901C11.8682 23.4901 12.9182 21.0301 14.6682 19.2501C15.8382 18.0601 17.4982 16.9701 19.1582 16.6401C21.4282 16.1901 19.4582 19.0901 19.1482 20.1401H19.1382Z" fill="#D4D5D5"/>
<path d="M33.3614 28.4101C34.1214 26.1301 33.4114 23.2401 32.4014 21.1401C31.3314 18.9101 29.6514 16.9701 27.4914 15.7301C23.1414 13.2301 17.7014 14.2501 14.3714 17.9301C11.0414 21.6101 10.0314 27.6301 12.0314 32.4001C14.0314 37.1701 18.6114 40.3001 23.6814 39.6601C29.4314 38.9401 33.5014 33.4601 33.4314 27.8101C33.4314 27.3601 32.9914 26.5501 32.8314 27.4101C32.0614 31.4501 29.1414 34.8601 25.1014 35.9801C21.0614 37.1001 16.7014 35.5101 14.1614 32.2001C11.6214 28.8901 11.7014 24.9101 14.2514 21.6801C16.8014 18.4501 21.2114 16.9101 25.2214 18.1301C27.3614 18.7801 29.2714 20.1701 30.6114 21.9501C32.0214 23.8301 32.4214 25.7801 32.8114 28.0401C32.8614 28.3101 33.1614 28.9901 33.3614 28.3901V28.4101Z" fill="black"/>
<path d="M38.5303 29.9099C35.6703 31.1499 32.8103 32.3899 29.9503 33.6299C29.0103 34.0399 28.0403 34.4699 27.3803 35.2599C26.6703 36.1099 26.4403 37.2599 26.2503 38.3499C25.5903 42.2299 25.2103 46.1499 24.8203 50.0699C24.1503 56.8199 23.4903 63.5799 22.8203 70.3299C28.0103 72.5499 33.1903 74.7699 38.3803 76.9899C40.8503 90.8099 43.3203 104.64 45.7903 118.46C50.6603 118.44 55.5303 118.43 60.4003 118.41C60.9303 112.42 61.3503 106.17 61.6203 99.6699C61.9303 92.1299 62.0203 84.8999 61.9403 77.9999C67.1003 74.7999 72.2603 71.6099 77.4203 68.4099C74.3003 57.9699 71.1703 47.5299 68.0503 37.0899C67.7303 36.0199 67.3903 34.9299 66.6803 34.0799C65.7203 32.9499 64.5303 32.4999 63.7903 32.2299C60.1103 30.8699 56.3403 29.8199 54.6803 29.3699" fill="white"/>
<path d="M27.2992 71.7599C28.2392 71.4699 28.8892 70.6299 29.4092 69.7899C31.8092 65.9299 32.6592 61.2999 32.9192 56.7699C33.1792 52.2299 32.8892 47.6799 33.2392 43.1499C34.2692 56.4899 37.8292 69.6299 43.5092 81.7399C44.8192 84.5299 46.2592 87.2899 48.2492 89.6399C50.2392 91.9899 52.8392 93.9299 55.8292 94.6599C57.5592 95.0799 59.5192 95.0499 60.9692 94.0199C60.9892 101.96 60.8692 109.78 60.1992 117.69C58.2092 117.87 56.2092 118.05 54.2092 117.95C51.6692 117.82 49.0792 117.23 46.6292 117.9C45.4992 115.11 44.5392 112.24 43.7692 109.33C40.8692 98.4899 40.4492 87.0999 37.6192 76.2399C34.2292 74.7399 30.8392 73.2299 27.4392 71.7299C27.3192 71.6799 27.1692 71.5799 27.1992 71.4499C27.2292 71.3199 27.4092 71.6899 27.2892 71.7599H27.2992Z" fill="#D4D5D5"/>
<path d="M59.7778 42.74C60.6178 44.67 60.9178 46.78 61.3878 48.83C62.8878 55.29 66.2078 61.22 70.2978 66.44C71.0978 67.46 72.0178 68.51 73.2678 68.83C72.6278 68.67 70.0478 70.88 69.4678 71.28C68.2278 72.13 67.0078 73.02 65.8178 73.95C64.7778 74.76 63.3578 76.55 62.1578 76.98C60.7978 77.47 61.2878 74.82 61.2678 73.83C61.1678 67.18 60.9178 60.53 60.5378 53.89C60.3278 50.17 60.0678 46.44 59.7578 42.73L59.7778 42.74Z" fill="#D4D5D5"/>
<path d="M38.0188 29.0499C37.0588 29.2299 36.1188 29.3399 35.2188 29.7499C34.2388 30.1999 33.2688 30.6499 32.2888 31.1099C31.2288 31.5999 30.1688 32.1399 29.0688 32.5299C28.3488 32.7799 27.6088 32.9899 27.0188 33.4999C25.9588 34.3999 25.5888 35.7899 25.3088 37.0999C24.8888 39.1099 24.6488 41.1699 24.3888 43.2099C23.2988 51.8699 22.4788 60.5699 21.5288 69.2399C21.4688 69.7999 21.4988 71.1199 22.1488 71.4099C27.2888 73.6999 32.4788 75.9499 37.7088 78.0099L37.1388 76.8299C39.8188 90.6199 41.8488 104.54 44.5188 118.33C44.5888 118.71 44.7788 119.67 45.3388 119.65C50.2088 119.49 55.0688 119.33 59.9388 119.33C60.3988 119.33 60.5488 118.49 60.5788 118.18C61.7888 104.61 62.4688 90.9799 62.2288 77.3499L61.6988 79.2299C64.2888 77.6099 66.8488 75.9299 69.4088 74.2499C71.9688 72.5699 74.4788 71.0399 77.1688 69.6199C77.8988 69.2399 77.6888 67.3699 77.5388 66.7999C76.3588 62.3599 74.9388 57.9499 73.5588 53.5699C72.1788 49.1899 70.8088 44.4099 69.4088 39.8399C68.3088 36.2499 67.8188 31.5499 63.9088 29.9399C60.7788 28.6499 57.3988 28.0599 54.1388 27.1699C53.5488 27.0099 53.2688 30.0399 54.2188 30.2899C57.4788 31.1699 60.8488 32.3399 63.9288 33.7299C65.7788 34.5699 66.5388 35.9299 67.1188 37.8099C67.7888 39.9699 68.3988 42.1399 69.0388 44.3099C71.4988 52.5699 73.6888 60.9599 76.4288 69.1299L76.6788 65.9299C74.4988 67.4899 72.3288 68.9199 70.0088 70.2699C67.6888 71.6199 65.4988 72.8599 63.2788 74.2099C62.3288 74.7899 61.0188 75.2299 60.7288 76.3899C60.4388 77.5499 60.6588 78.9099 60.6488 80.0799C60.6288 82.4699 60.6088 84.8599 60.5788 87.2499C60.4288 97.3199 60.1088 107.32 59.2288 117.36L59.8688 116.21C54.9888 116.24 50.1288 116.11 45.2488 115.98L46.0688 117.3C44.4188 107.28 42.5688 97.2799 40.7088 87.2999C40.2388 84.7899 39.7788 82.2799 39.3088 79.7699C39.0988 78.6299 38.8988 77.4899 38.6988 76.3499C38.4388 74.8699 38.0288 74.6599 36.6688 74.0699C31.9488 72.0099 27.2488 69.9199 22.4888 67.9599L23.1088 70.1299C23.8088 62.1199 24.4788 54.0999 25.2488 46.0999C25.4388 44.1399 25.6488 42.1699 25.9088 40.2199C26.1688 38.2699 26.1588 36.1399 27.6788 34.7699C29.0288 33.5499 30.8088 32.9899 32.4588 32.3199C33.3688 31.9499 34.2688 31.5899 35.1788 31.2199C36.2388 30.7899 37.1188 30.1199 38.0488 29.4699C38.1288 29.4199 38.1288 29.0199 38.0188 29.0399V29.0499Z" fill="black"/>
<path d="M47.2969 40.4298C52.9469 40.2098 57.7069 35.8298 58.4169 30.1198L54.6169 27.5898C52.0669 31.0998 48.0369 32.9798 44.1469 32.3898C40.9769 31.9098 38.9369 29.9398 38.1869 29.1398C37.2269 29.6098 36.2569 30.0698 35.2969 30.5398C36.2469 36.4098 41.4569 40.6598 47.2869 40.4298H47.2969Z" fill="black"/>
<path d="M57.5504 21.51C58.1804 14.51 52.1604 8.03004 45.0204 8.34004C38.8204 8.62004 33.5504 13.94 33.5704 20.4C33.5904 27.1 39.2804 32.55 45.8604 32.41C51.9704 32.28 57.0304 27.37 57.5604 21.51H57.5504Z" fill="white"/>
<path d="M41.9584 12.9401C40.8184 16.7001 41.0284 20.9601 43.0284 24.3401C45.0284 27.7201 48.9484 30.0301 52.8584 29.6201C50.9384 30.5501 48.9284 31.2901 46.8584 31.8201C43.9184 32.5801 40.5184 32.8201 38.1184 30.9701C36.4484 29.6801 35.5984 27.6201 34.9384 25.6201C34.2784 23.6201 33.7384 21.5501 33.7884 19.4501C33.8584 16.6701 35.0284 13.9201 36.9784 11.9401C38.2784 10.6201 40.1384 9.39005 41.9884 9.03005C44.5184 8.53005 42.3284 11.7701 41.9684 12.9301L41.9584 12.9401Z" fill="#D4D5D5"/>
<path d="M57.7892 22.0899C58.5192 19.5499 57.8192 16.5099 56.6992 14.1799C55.5092 11.7199 53.6492 9.57995 51.2592 8.20995C46.3192 5.36995 40.1292 6.62995 36.4492 10.9099C32.8092 15.1299 31.9392 21.3599 34.0892 26.4799C36.2392 31.5999 41.6392 35.3599 47.3692 34.4699C53.5492 33.5099 57.8892 27.6199 57.8692 21.5099C57.8692 21.0599 57.4192 20.2499 57.2692 21.1099C56.4592 25.6699 53.1692 29.5499 48.6192 30.8199C44.0692 32.0899 39.2192 30.2799 36.3892 26.5799C33.5592 22.8799 33.5892 18.1899 36.4892 14.5099C39.3892 10.8299 44.2592 9.15995 48.7492 10.5299C51.1492 11.2599 53.2892 12.8099 54.7892 14.8199C56.3792 16.9499 56.8692 19.1799 57.2392 21.7499C57.2792 22.0099 57.6192 22.6999 57.7892 22.0999V22.0899Z" fill="black"/>
<path d="M62.6911 25.33C59.5811 26.68 56.4611 28.03 53.3511 29.38C52.3311 29.82 51.2711 30.29 50.5611 31.15C49.7911 32.08 49.5411 33.32 49.3411 34.51C48.6311 38.73 48.2111 43 47.7911 47.26C47.0711 54.61 46.3411 61.96 45.6211 69.31C51.2611 71.72 56.9011 74.14 62.5511 76.55C65.2411 91.59 67.9311 106.63 70.6111 121.67C75.9111 121.65 81.2111 121.63 86.5011 121.62C87.0811 115.1 87.5311 108.3 87.8311 101.23C88.1711 93.03 88.2711 85.16 88.1711 77.65C93.7811 74.17 99.4011 70.7 105.011 67.22L94.8111 33.14C94.4611 31.98 94.1011 30.79 93.3111 29.86C92.2711 28.63 90.9711 28.14 90.1711 27.85C86.1611 26.37 82.0611 25.23 80.2611 24.74" fill="white"/>
<path d="M50.4787 70.86C51.4987 70.55 52.2087 69.63 52.7787 68.72C55.3887 64.52 56.3087 59.49 56.5887 54.55C56.8687 49.61 56.5587 44.66 56.9387 39.73C58.0587 54.25 61.9287 68.53 68.1187 81.72C69.5387 84.75 71.1087 87.76 73.2687 90.32C75.4287 92.88 78.2587 94.98 81.5187 95.78C83.3987 96.24 85.5387 96.21 87.1187 95.08C87.1387 103.72 87.0087 112.23 86.2887 120.84C84.1187 121.04 81.9487 121.24 79.7687 121.12C77.0087 120.98 74.1887 120.33 71.5187 121.07C70.2887 118.03 69.2487 114.92 68.3987 111.75C65.2387 99.95 64.7887 87.57 61.7087 75.75C58.0187 74.11 54.3287 72.48 50.6387 70.84C50.5087 70.78 50.3487 70.68 50.3787 70.54C50.4087 70.4 50.6087 70.81 50.4787 70.87V70.86Z" fill="#D4D5D5"/>
<path d="M85.8086 39.29C86.7186 41.39 87.0486 43.69 87.5686 45.92C89.1986 52.95 92.8086 59.4 97.2686 65.08C98.1386 66.19 99.1386 67.34 100.509 67.68C99.8086 67.5 97.0086 69.91 96.3786 70.35C95.0286 71.28 93.7086 72.25 92.4086 73.25C91.2786 74.13 89.7386 76.07 88.4286 76.55C86.9486 77.09 87.4786 74.19 87.4586 73.13C87.3486 65.9 87.0786 58.66 86.6686 51.44C86.4386 47.39 86.1486 43.34 85.8186 39.29H85.8086Z" fill="#D4D5D5"/>
<path d="M62.141 24.42C61.121 24.63 60.111 24.76 59.161 25.2C58.051 25.71 56.941 26.22 55.841 26.73C54.741 27.24 53.611 27.81 52.451 28.22C51.751 28.47 51.041 28.68 50.431 29.12C49.111 30.06 48.671 31.7 48.351 33.21C47.881 35.47 47.611 37.79 47.331 40.08C46.181 49.42 45.281 58.81 44.271 68.17C44.211 68.73 44.241 70.05 44.891 70.34C50.481 72.83 56.131 75.27 61.821 77.52L61.251 76.34C64.151 91.35 66.391 106.48 69.281 121.49C69.351 121.87 69.541 122.82 70.101 122.81C75.401 122.65 80.691 122.48 85.991 122.48C86.451 122.48 86.601 121.64 86.631 121.33C87.951 106.58 88.671 91.76 88.421 76.95L87.891 78.83C90.711 77.07 93.491 75.25 96.281 73.43C97.611 72.56 98.931 71.7 100.261 70.83C101.681 69.9 103.221 69.18 104.721 68.38C105.441 67.99 105.241 66.13 105.091 65.56C103.771 60.65 102.211 55.79 100.701 50.94C99.191 46.09 97.821 41.33 96.351 36.53C95.641 34.22 95.101 31.79 94.211 29.55C93.491 27.76 92.321 26.4 90.531 25.62C87.101 24.12 83.301 23.47 79.701 22.5C79.111 22.34 78.831 25.37 79.781 25.62C81.591 26.11 83.391 26.76 85.161 27.38C86.931 28 88.841 28.6 90.571 29.43C92.481 30.35 93.271 31.87 93.871 33.81C94.581 36.12 95.241 38.45 95.931 40.77C98.611 49.8 101.041 58.96 104.011 67.89L104.261 64.69C102.391 66.01 100.581 67.3 98.611 68.46C96.781 69.53 94.941 70.61 93.111 71.68C92.191 72.22 91.271 72.75 90.361 73.29C89.451 73.83 88.151 74.36 87.411 75.1C86.761 75.74 86.871 76.81 86.881 77.65C86.881 78.71 86.881 79.77 86.881 80.83C86.821 89.29 86.811 97.77 86.341 106.22C86.081 110.99 85.741 115.76 85.321 120.52L85.961 119.37C80.661 119.4 75.361 119.27 70.061 119.15L70.881 120.47C69.471 111.95 67.881 103.45 66.361 94.95C65.621 90.79 64.831 86.64 64.061 82.49C63.671 80.37 63.251 78.25 62.901 76.13C62.741 75.17 62.701 74.43 61.751 74C60.801 73.57 59.771 73.14 58.781 72.71C54.291 70.76 49.811 68.77 45.291 66.91L45.911 69.08C46.681 60.39 47.411 51.69 48.251 43C48.461 40.86 48.681 38.73 48.971 36.6C49.261 34.47 49.261 32.02 50.991 30.52C52.431 29.26 54.321 28.66 56.061 27.96C57.101 27.54 58.141 27.12 59.181 26.69C60.301 26.24 61.231 25.53 62.231 24.86C62.311 24.81 62.311 24.41 62.201 24.43L62.141 24.42Z" fill="black"/>
<path d="M72.2314 36.7801C78.3814 36.5401 83.5514 31.7801 84.3314 25.5701L80.2014 22.8101C77.4214 26.6301 73.0414 28.6801 68.8114 28.0301C65.3614 27.5101 63.1414 25.3701 62.3314 24.4901C61.2814 25.0001 60.2314 25.5101 59.1914 26.0101C60.2214 32.3901 65.8914 37.0201 72.2414 36.7701L72.2314 36.7801Z" fill="black"/>
<path d="M83.3813 16.1999C84.0613 8.57994 77.5113 1.52994 69.7413 1.87994C62.9913 2.17994 57.2613 7.96994 57.2813 14.9999C57.3013 22.2799 63.5013 28.2199 70.6513 28.0699C77.2913 27.9299 82.8013 22.5799 83.3813 16.2099V16.1999Z" fill="white"/>
<path d="M66.4198 6.86997C65.1798 10.96 65.3998 15.6 67.5798 19.28C69.7598 22.96 74.0198 25.47 78.2698 25.03C76.1798 26.04 73.9898 26.85 71.7398 27.42C68.5398 28.24 64.8398 28.51 62.2298 26.49C60.4198 25.09 59.4898 22.85 58.7698 20.67C58.0498 18.5 57.4598 16.25 57.5198 13.96C57.5998 10.93 58.8598 7.94997 60.9898 5.78997C62.4098 4.34997 64.4198 3.01997 66.4398 2.61997C69.1898 2.06997 66.8098 5.59997 66.4198 6.86997Z" fill="#D4D5D5"/>
<path d="M83.6695 16.5999C84.3895 13.8499 83.5395 10.5599 82.2995 8.07994C80.9795 5.43993 78.9095 3.15993 76.2995 1.73993C70.8995 -1.22007 64.2795 0.259935 60.3395 4.89993C56.3995 9.53993 55.5195 16.4499 58.0895 21.9499C60.5895 27.2999 66.1695 31.0399 72.1795 30.1599C78.8995 29.1699 83.6595 22.8299 83.6795 16.1899C83.6795 15.7399 83.2195 14.9299 83.0795 15.7899C82.2395 20.7499 78.6995 24.9999 73.7795 26.4199C68.8595 27.8399 63.6295 25.9799 60.4795 22.0399C57.3295 18.0999 57.1395 12.7099 60.3195 8.55994C63.4995 4.40994 68.9095 2.55993 73.8695 4.10993C76.4195 4.90993 78.7095 6.55993 80.3195 8.68993C82.1095 11.0399 82.6895 13.5499 83.0495 16.4199C83.1095 16.9299 83.4695 17.2499 83.6495 16.5999H83.6695Z" fill="black"/>
</svg>
