<svg width="97" height="117" viewBox="0 0 97 117" fill="none" xmlns="http://www.w3.org/2000/svg">
<path d="M68.1014 6.32007H8.44141V110.87H68.1014V6.32007Z" fill="#D4D5D5"/>
<path d="M72.8002 107.52C72.7202 102.14 72.7102 62.9399 72.5302 8.94993C72.3701 6.78994 71.7602 3.64993 69.3802 1.72993C67.0602 -0.140066 64.1302 -0.0100657 63.0302 0.0299343C56.6502 0.279934 37.1002 0.519935 10.4902 0.999935C9.96016 0.999935 5.43016 1.11993 2.68016 4.87993C0.970157 7.21993 0.910156 9.91993 0.910156 11.0099C0.930156 17.2599 1.44016 53.4899 2.38016 103.25C2.32016 104.02 1.97016 109.18 5.88016 113.1C8.73016 115.96 12.1602 116.48 13.2602 116.6C38.8502 117.02 57.7802 116.98 64.1502 116.78C65.5302 116.74 68.6802 116.59 70.7602 114.41C72.9902 112.06 72.8001 108.61 72.7802 107.53L72.8002 107.52ZM65.0702 105.92C64.9802 106.36 64.8402 106.9 64.7302 107.15C63.9402 108.98 59.0302 108.71 58.6602 108.68C45.1502 108.68 31.6302 108.68 18.1202 108.68C17.4002 108.75 16.3102 108.79 15.0402 108.51C13.9202 108.26 12.9602 108.06 12.1402 107.29C11.0202 106.24 10.7902 104.78 10.5402 103.18C10.3202 101.81 10.3702 100.76 10.3702 100.68C9.76016 72.6799 9.14015 44.6799 8.53016 16.6799C8.39016 15.5499 8.36016 13.7599 9.16016 11.8599C9.48016 11.0999 9.96016 9.95994 11.0702 9.11994C12.4402 8.07994 14.0302 8.03994 14.9702 8.02993C20.8602 7.97993 27.9102 8.29993 28.7702 8.33993C30.5402 11.1699 33.6702 12.8499 36.9502 12.6999C41.5602 12.4899 44.0102 8.77993 44.2402 8.42993C48.8902 8.25993 53.5402 8.09993 58.1802 7.92993C59.3302 7.78994 61.3302 7.71993 62.7502 8.94993C64.6402 10.5799 64.4802 13.6199 64.4402 14.5899C64.2402 20.0499 64.6602 54.9199 65.2902 103.58C65.2902 103.74 65.3302 104.69 65.0802 105.94L65.0702 105.92Z" fill="black"/>
<path d="M16.5018 30.3C16.5718 28.12 16.8018 23.39 20.0618 20.69C22.2918 18.84 25.0018 18.71 26.1118 18.67C55.6318 17.68 77.6118 17.43 84.5218 17.77C86.0018 17.84 89.4418 18 91.8118 20.45C94.0018 22.71 94.2518 25.86 94.2518 27.52C94.6418 59.11 94.7518 82.24 94.8918 89.21C94.9218 90.94 95.0318 95.39 92.2118 97.58C90.9018 98.6 89.3718 98.81 88.4018 98.85C68.0718 99.29 47.7518 99.72 27.4218 100.16C26.8118 100.12 21.9518 99.7 19.1018 95.46C17.0118 92.35 17.2918 89.1 17.4018 88.18C16.4218 59.62 16.2418 38.32 16.5118 30.29L16.5018 30.3Z" fill="white"/>
<path d="M17.2507 30.5201C17.3807 28.6101 17.5807 26.5701 18.4307 24.8401C19.6107 22.4501 21.9807 20.9301 24.5607 20.4801C27.1407 20.0301 29.9707 20.1601 32.6307 20.0801C35.7907 19.9801 38.9607 19.8801 42.1207 19.7901C52.2607 19.5001 62.4007 19.2601 72.5507 19.1901C75.7207 19.1701 78.8807 19.1601 82.0507 19.2201C85.2207 19.2801 88.3407 19.1801 90.9307 20.9401C93.0807 22.4001 94.0107 24.7901 94.0607 27.3101C94.1307 30.5301 94.1107 33.7601 94.1207 36.9901C94.1407 43.0301 94.1607 49.0601 94.2107 55.1001C94.2907 63.8801 94.3507 72.6601 94.4507 81.4401C94.4807 83.8601 94.5007 86.2901 94.5407 88.7101C94.5707 90.0901 94.6107 91.4001 94.2407 92.7601C93.5607 95.2401 91.5307 96.7201 89.0007 96.8901C85.6007 97.1301 82.1607 97.1301 78.7507 97.2501C75.3407 97.3701 72.0907 97.4601 68.7607 97.5501C61.7607 97.7301 54.7707 97.8801 47.7707 98.0101C44.3507 98.0701 40.9407 98.1501 37.5207 98.2201C34.2807 98.2901 30.9507 98.5901 27.7207 98.4201C23.7107 98.2201 19.7907 95.3701 18.7207 91.4701C18.5007 90.6901 18.4507 89.9001 18.4807 89.1401C18.5407 87.7501 18.4807 86.3801 18.4407 84.9901C18.3407 81.7601 18.2407 78.5301 18.1507 75.3101C17.9807 69.4501 17.8307 63.5901 17.7207 57.7201C17.5707 49.7001 17.4707 41.6701 17.4607 33.6401C17.4607 33.0701 17.4407 32.5001 17.4307 31.9301C17.4307 31.6601 17.4307 31.3901 17.4207 31.1201C17.4207 30.9901 17.4207 30.8701 17.4207 30.7401C17.3807 29.4601 17.3907 31.3501 17.4107 30.6901C17.4207 30.3401 17.4807 29.0601 17.0107 28.9301C16.5407 28.8001 16.4107 29.6101 16.4007 29.9501C16.3107 32.7701 16.1207 36.2501 16.0707 39.2601C16.0007 43.7101 16.1007 48.1801 16.1707 52.6301C16.2507 58.2701 16.3607 63.9101 16.5007 69.5601C16.5807 72.8801 16.6707 76.1901 16.7707 79.5101C16.8607 82.5201 17.1707 85.5801 17.0207 88.5901C16.7607 93.9501 19.2907 99.2001 24.5107 101.16C25.8507 101.66 27.2107 101.96 28.6307 101.93C32.2107 101.85 35.7907 101.77 39.3807 101.69C54.0407 101.37 68.7007 100.9 83.3707 100.89C86.1407 100.89 89.4807 101.33 92.0307 100C94.2007 98.8701 95.2307 96.4801 95.7007 94.2001C96.2807 91.3401 96.0307 88.3501 95.9907 85.4501C95.9007 77.3801 95.8407 69.3001 95.7507 61.2301C95.6907 55.2101 95.6207 49.1801 95.5107 43.1601C95.4507 39.7401 95.3807 36.3301 95.3207 32.9101C95.2707 30.0501 95.4607 27.0601 94.9107 24.2301C94.4407 21.8201 93.2207 19.4401 91.1607 18.0101C89.3707 16.7801 87.2007 16.3701 85.0707 16.2501C82.5007 16.1101 79.9207 16.1001 77.3507 16.0901C67.7607 16.0501 58.1607 16.2401 48.5707 16.4601C41.8707 16.6201 35.1607 16.8101 28.4607 17.0301C25.9907 17.1101 23.4507 17.1201 21.2907 18.4901C19.1307 19.8601 17.9407 22.1401 17.2407 24.5401C16.6907 26.4301 16.5507 28.3701 16.5507 30.3301C16.5507 31.0401 17.2207 31.4801 17.2807 30.5301L17.2507 30.5201Z" fill="black"/>
<path d="M34.9102 7.81997C34.9002 8.95997 35.9502 9.83997 37.0402 9.78997C38.0402 9.74997 38.9702 8.91997 38.9802 7.84997C38.9802 6.75997 38.0302 5.88997 36.9702 5.87997C35.9002 5.86997 34.9202 6.71997 34.9102 7.80997V7.81997Z" fill="white"/>
<path d="M28.8011 57.34C28.9911 57.72 29.0811 58.03 29.4211 58.24C29.9211 58.56 30.7911 58.62 31.3711 58.69C32.5611 58.83 33.7411 58.91 34.9311 58.97C37.5911 59.1 40.2611 59.19 42.9211 59.19C47.9911 59.18 53.1711 59.01 58.2011 58.39L57.5211 56.6C57.6411 55.94 57.6311 55.91 57.5011 56.52C57.4511 56.83 57.4111 57.15 57.3811 57.47C57.3411 58 57.3511 58.54 57.3411 59.08C57.3211 60.23 57.3011 61.38 57.2911 62.53C57.2611 64.81 56.9711 67.29 57.3311 69.55C57.3911 69.95 57.5111 71.06 58.0311 71.17C58.5511 71.28 58.7211 70.41 58.7911 70.06C59.2211 67.8 58.9511 65.28 58.9511 62.99C58.9511 61.84 58.9511 60.69 58.9511 59.54C58.9511 59.05 58.9511 58.55 58.9311 58.06C58.9211 57.83 58.8511 55.57 58.7811 57.07C58.8011 56.75 58.8311 54.75 58.1111 54.8C52.5211 55.12 46.9711 55.45 41.3711 55.52C38.5911 55.55 35.8111 55.49 33.0411 55.42C32.0311 55.4 30.1911 55.12 29.2811 55.65C28.8311 55.91 28.5511 56.87 28.7911 57.37L28.8011 57.34Z" fill="black"/>
<path d="M63.6501 58.47C65.2801 59.21 67.0301 59.22 68.8001 59.25C70.5701 59.28 72.43 59.25 74.24 59.24C76.05 59.23 77.8701 59.21 79.6801 59.17C80.5201 59.15 81.3501 59.13 82.1901 59.12C83.1301 59.1 84.2401 59.23 85.1201 58.91C86.0001 58.59 85.8801 55.34 85.0301 55.06C84.18 54.78 83.0301 54.94 82.1 54.95C81.26 54.95 80.43 54.97 79.59 54.98C77.78 55 75.9601 55.03 74.1501 55.09C72.3401 55.15 70.5201 55.17 68.7101 55.26C66.9001 55.35 65.2101 55.41 63.6101 56.21C63.1801 56.43 63.23 58.28 63.67 58.48L63.6501 58.47Z" fill="black"/>
<path d="M63.6489 65.9799C63.7689 66.7399 63.9289 67.2999 64.7089 67.5799C65.3089 67.7899 66.0689 67.7599 66.6989 67.7699C67.9289 67.7999 69.1589 67.8199 70.3789 67.8399C71.5989 67.8599 72.8289 67.8199 74.0589 67.8099C75.3489 67.7899 76.7489 67.9199 78.0189 67.7099C78.7089 67.5999 78.6489 65.8999 78.6289 65.4299C78.6089 64.9599 78.6089 63.2699 77.8989 63.1799C76.5289 62.9899 75.0289 63.1799 73.6489 63.1999C72.2689 63.2199 71.0089 63.2399 69.6889 63.2999C68.3689 63.3599 67.0389 63.3799 65.7289 63.5099C65.0989 63.5699 64.3389 63.6099 63.9289 64.1799C63.5889 64.6499 63.5589 65.4099 63.6489 65.9699V65.9799Z" fill="black"/>
<path d="M29.7717 63.88C29.2717 64.28 29.2617 65.05 29.2017 65.63C29.1117 66.48 29.1017 67.32 29.1117 68.18C29.1517 69.84 29.1917 71.5 29.2217 73.16C29.2817 76.41 29.3017 79.67 29.5217 82.91C29.5617 83.54 29.7117 85.57 30.7317 85.53C33.8617 85.41 36.9917 85.42 40.1217 85.23C43.2517 85.04 46.3917 84.83 49.5217 84.99C50.4517 85.04 50.4717 82.88 50.4917 82.42C50.6217 77.04 50.7217 71.67 50.8317 66.29C50.8417 65.77 50.7017 63.67 49.8517 63.68C43.1617 63.73 36.4717 63.95 29.7917 63.92C28.4417 63.92 28.5117 69.12 29.9217 69.09C36.6117 68.93 43.3017 69.03 49.9917 68.95L49.0217 65.64C48.7317 71.24 48.5317 76.87 48.4417 82.48L49.4117 79.91C46.2717 79.8 43.1517 79.95 40.0117 80.13C36.8717 80.31 33.7017 80.65 30.6117 80.24L31.8217 82.86C31.9117 79.48 31.7117 76.08 31.4917 72.71C31.3817 70.96 31.2517 69.22 31.1117 67.48C31.0817 67.14 30.6317 63.22 29.7917 63.89L29.7717 63.88Z" fill="black"/>
<path d="M29.7717 28.7401C29.2717 29.1401 29.2617 29.9101 29.2017 30.4901C29.1117 31.3401 29.1017 32.1801 29.1117 33.0401C29.1517 34.7001 29.1917 36.3601 29.2217 38.0201C29.2817 41.2701 29.3017 44.5301 29.5217 47.7701C29.5617 48.4001 29.7117 50.4301 30.7317 50.3901C33.8617 50.2701 36.9917 50.2801 40.1217 50.0901C43.2517 49.9001 46.3917 49.6901 49.5217 49.8501C50.4517 49.9001 50.4717 47.7401 50.4917 47.2801C50.6217 41.9001 50.7217 36.5301 50.8317 31.1501C50.8417 30.6301 50.7017 28.5301 49.8517 28.5401C43.1617 28.5901 36.4717 28.8101 29.7917 28.7801C28.4417 28.7801 28.5117 33.9801 29.9217 33.9501C36.6117 33.7901 43.3017 33.8901 49.9917 33.8101L49.0217 30.5001C48.7317 36.1001 48.5317 41.7301 48.4417 47.3401L49.4117 44.7701C46.2717 44.6601 43.1517 44.8101 40.0117 44.9901C36.8717 45.1701 33.7017 45.5101 30.6117 45.1001L31.8217 47.7201C31.9117 44.3401 31.7117 40.9401 31.4917 37.5701C31.3817 35.8201 31.2517 34.0801 31.1117 32.3401C31.0817 32.0001 30.6317 28.0801 29.7917 28.7501L29.7717 28.7401Z" fill="black"/>
<path d="M63.7287 28.7401C63.2287 29.1401 63.2187 29.9101 63.1587 30.4901C63.0687 31.3401 63.0587 32.1801 63.0687 33.0401C63.1087 34.7001 63.1487 36.3601 63.1787 38.0201C63.2387 41.2701 63.2587 44.5301 63.4787 47.7701C63.5187 48.4001 63.6687 50.4301 64.6887 50.3901C67.8187 50.2701 70.9487 50.2801 74.0787 50.0901C77.2087 49.9001 80.3487 49.6901 83.4787 49.8501C84.4087 49.9001 84.4287 47.7401 84.4487 47.2801C84.5787 41.9001 84.6787 36.5301 84.7887 31.1501C84.7987 30.6301 84.6587 28.5301 83.8087 28.5401C77.1187 28.5901 70.4287 28.8101 63.7487 28.7801C62.3987 28.7801 62.4687 33.9801 63.8787 33.9501C70.5687 33.7901 77.2587 33.8901 83.9487 33.8101L82.9787 30.5001C82.6887 36.1001 82.4887 41.7301 82.3987 47.3401L83.3687 44.7701C80.2287 44.6601 77.1087 44.8101 73.9687 44.9901C70.8287 45.1701 67.6587 45.5101 64.5687 45.1001L65.7787 47.7201C65.8687 44.3401 65.6687 40.9401 65.4487 37.5701C65.3387 35.8201 65.2087 34.0801 65.0687 32.3401C65.0387 32.0001 64.5887 28.0801 63.7487 28.7501L63.7287 28.7401Z" fill="black"/>
<path d="M56.569 28.8499C56.049 30.0999 56.019 31.6299 55.939 32.9699C55.849 34.4699 55.819 35.9699 55.769 37.4599C55.719 38.9499 55.669 40.3499 55.629 41.7899C55.589 42.9999 55.539 44.2199 55.499 45.4299C55.489 45.7899 55.479 46.1499 55.469 46.5099C55.469 46.6599 55.389 47.8799 55.459 47.1399C55.369 48.0999 55.409 49.7799 56.269 50.4399C57.129 51.0999 57.659 49.9799 57.809 49.2499C58.169 47.4899 58.009 45.5399 58.029 43.7399C58.039 42.1799 58.049 40.6099 58.069 39.0499C58.089 37.4899 58.109 35.9199 58.099 34.3599C58.079 32.6699 58.149 30.7999 57.649 29.1699C57.449 28.5099 56.969 27.9399 56.589 28.8499H56.569Z" fill="black"/>
<path d="M57.8683 73.48C57.3083 74.15 57.3183 75.21 57.2883 76.05C57.2583 76.89 57.2583 77.74 57.2483 78.59C57.2483 79.93 57.1983 81.28 57.2283 82.62C57.2383 83.25 57.3383 83.98 57.5983 84.56C57.7283 84.85 57.9983 85.36 58.3983 85.35C58.7983 85.34 59.0483 84.83 59.1583 84.52C59.3783 83.9 59.4683 83.22 59.4383 82.56C59.4283 82.26 59.4083 81.97 59.3783 81.67C59.3583 81.45 59.3583 81.47 59.3783 81.73C59.4183 82.27 59.3683 81.59 59.3583 81.49C59.3383 81.19 59.3083 80.88 59.2883 80.58C59.2383 79.92 59.1983 79.26 59.1483 78.61C59.0883 77.79 59.0383 76.96 58.9583 76.15C58.9083 75.68 58.8583 75.22 58.7583 74.75C58.6583 74.28 58.5683 73.78 58.2083 73.46C58.0883 73.37 57.9683 73.38 57.8583 73.46L57.8683 73.48Z" fill="black"/>
<path d="M65.0005 71.81C64.7805 73.61 64.7505 75.44 64.7705 77.25C64.7705 78.08 64.7805 78.9 64.7805 79.73C64.7805 80.11 64.7805 80.48 64.7805 80.86C64.7905 81.62 64.8005 80.29 64.7805 81.03C64.7705 81.42 64.7505 81.82 64.7605 82.21C64.7705 82.82 64.8605 83.59 65.1105 84.15C65.2505 84.45 65.4605 84.96 65.8705 84.94C69.5405 84.78 73.2105 84.54 76.8805 84.29C77.7505 84.23 77.7505 82.22 77.7205 81.65C77.7005 81.03 77.6405 80.39 77.4105 79.81C77.3005 79.54 77.1105 79.05 76.7505 79.06C73.0805 79.15 69.4005 79.24 65.7305 79.42L66.8405 82.15C66.8205 81.76 66.7905 81.36 66.7605 80.97C66.7105 80.44 66.7605 81.25 66.7605 80.91C66.7505 80.5 66.7205 80.08 66.6905 79.67C66.6505 78.84 66.6105 78.02 66.5605 77.19C66.4705 75.38 66.3605 73.56 66.0305 71.77C65.9905 71.54 65.8405 70.87 65.4905 70.88C65.1405 70.89 65.0205 71.57 64.9905 71.8L65.0005 71.81Z" fill="black"/>
<path d="M83.8495 62.9799C83.3695 64.2999 83.3695 65.8699 83.3195 67.2599C83.2595 68.9699 83.2295 70.6699 83.1995 72.3799C83.1695 73.9199 83.1295 75.4599 83.0995 76.9999C83.0595 78.7299 82.7795 80.4799 83.1195 82.1499C83.2395 82.7399 83.4295 83.8699 84.1595 84.0299C84.8895 84.1899 85.1995 83.2599 85.3095 82.7299C85.6995 80.9199 85.4495 78.9599 85.4095 77.1199C85.3795 75.5799 85.3395 74.0399 85.3095 72.5099C85.2795 70.9799 85.2495 69.4299 85.1995 67.8999C85.1495 66.2599 85.1095 64.5399 84.5995 62.9699C84.4195 62.4299 84.0395 62.4899 83.8495 62.9899V62.9799Z" fill="black"/>
</svg>
