<svg xmlns="http://www.w3.org/2000/svg" width="90.808" height="108.919" viewBox="0 0 90.808 108.919">
  <g id="Group_10292" data-name="Group 10292" transform="translate(-9.486 -1.523)">
    <path id="Path_12556" data-name="Path 12556" d="M12.426,31.157C11,27.993,9.638,24.7,9.535,21.231s1.3-7.182,4.3-8.94a9.666,9.666,0,0,1,8.219-.331,22.606,22.606,0,0,1,7.005,4.731,70.832,70.832,0,0,1,9.279,10.3q-1.269-5.486-2.546-10.979a19.844,19.844,0,0,1-.751-7.528c.4-2.509,2-5,4.452-5.659a8.636,8.636,0,0,1,4.658.375A34.526,34.526,0,0,1,63.839,18.427c.78,1.3,1.56,2.737,2.943,3.37a6.823,6.823,0,0,0,2.583.449q10.254.43,20.508.868c.169,2.09.331,4.172.5,6.262,2.561-.272,4.938,1.67,6.012,4.01s1.133,5,1.177,7.572q.154,9.547.316,19.095c-4.017.353-7.726,2.178-11.486,3.635-12.259,4.768-25.614,5.857-38.756,6.468a100.413,100.413,0,0,1-16.365-.191,15.786,15.786,0,0,1-6.063-1.67,11.742,11.742,0,0,1-5.342-8.219,22.113,22.113,0,0,1,.287-8.168c.434-2.222,1.163-4-.051-6.071a153.011,153.011,0,0,1-7.682-14.695Z" transform="translate(-0.008 -0.197)" fill="#fff"/>
    <path id="Path_12557" data-name="Path 12557" d="M20.719,25.067C23.243,23.139,31.5,28.01,40.27,37.179a22.785,22.785,0,0,0-13.377,9.478C20.682,36.067,18.21,26.98,20.719,25.067Z" transform="translate(-1.81 -4.077)" fill="#d4d5d5"/>
    <path id="Path_12558" data-name="Path 12558" d="M50.324,82.721A16.865,16.865,0,1,0,33.459,65.856,16.865,16.865,0,0,0,50.324,82.721Z" transform="translate(-4.227 -8.369)" fill="#d4d5d5"/>
    <path id="Path_12559" data-name="Path 12559" d="M82.494,49.641q4.029-.342,8.072-.449c4.452-.125,8.918-.044,13.355-.434a23.721,23.721,0,0,0,.169,6q.4,3.6.8,7.2a29.8,29.8,0,0,0-6.5,4.26,32.541,32.541,0,0,1-3.694,3.5,3.2,3.2,0,0,1-1.045.508,3.377,3.377,0,0,1-1.185.037,15.26,15.26,0,0,1-4.783-1.707,25.834,25.834,0,0,1-3.282-1.81,9.992,9.992,0,0,1-1.862-1.17c-.316-.4-.118-.728-.074-1.214a34.289,34.289,0,0,0-.088-4.915c-.037-.861-.53-9.742.125-9.794Z" transform="translate(-12.814 -8.328)" fill="#d4d5d5"/>
    <path id="Path_12560" data-name="Path 12560" d="M48.627,12.821c2.252-2,8.241,1.383,10.559,2.693a37.283,37.283,0,0,1,12.8,12.244l4.533-1.347q-.143,2.77-.287,5.548c-2.369-.14-4.393,1.935-5.085,4.209s-.4,4.7-.258,7.071a58.2,58.2,0,0,1-.088,8.477,27.886,27.886,0,0,0-16.137-17.5,40.8,40.8,0,0,1-5.033-10.162c-1.347-4.076-3.09-9.382-1.008-11.229Z" transform="translate(-6.731 -1.883)" fill="#d4d5d5"/>
    <path id="Path_12561" data-name="Path 12561" d="M82.824,35.668a30.934,30.934,0,0,1,20.353-.574l-.309-5.033q-9.7.386-19.4.78c-.213,1.6-.427,3.216-.64,4.82Z" transform="translate(-12.93 -5.031)" fill="#d4d5d5"/>
    <path id="Path_12562" data-name="Path 12562" d="M75.6,27.076c.015.979.059,1.913.125,2.8a.455.455,0,0,0,.471.419l29.683-.809a.461.461,0,0,0,.449-.493c-.133-1.957-.257-3.915-.39-5.872a.458.458,0,0,0-.479-.427L76.074,23.75a.451.451,0,0,0-.441.434c-.037.912-.052,1.876-.037,2.884Z" transform="translate(-11.655 -3.732)"/>
    <path id="Path_12563" data-name="Path 12563" d="M82.6,30.181c-.243.1-.28.559-.309.787a6.071,6.071,0,0,0-.044.736c-.007.361,0,.714,0,1.074,0,.714.007,1.435.029,2.149l1.111-.375a3.293,3.293,0,0,0-.228-.839c-.11-.25-.361-.5-.611-.25a1.722,1.722,0,0,0-.309,1.17,3.7,3.7,0,0,0,.059.64c.051.272.213,1.074.648.927s.478-.957.464-1.3c-.029-.743-.066-1.486-.11-2.222C83.282,32.33,83.252,29.9,82.6,30.181Z" transform="translate(-12.828 -5.049)"/>
    <path id="Path_12564" data-name="Path 12564" d="M106.69,29.345a4.786,4.786,0,0,0-.021,1.376c.021.339.044.684.058,1.03s.037.684.044,1.03a9.08,9.08,0,0,0,.124,1.611c.044.213.214.647.5.64s.434-.449.471-.662a7.227,7.227,0,0,0,.021-1.692c-.029-.427-.058-.861-.1-1.288-.036-.339-.081-.67-.132-1a3.222,3.222,0,0,0-.39-1.413c-.279-.39-.522.147-.574.375Z" transform="translate(-17.127 -4.816)"/>
    <path id="Path_12565" data-name="Path 12565" d="M81.521,34.993a4.158,4.158,0,0,0-2.693.537,6.7,6.7,0,0,0-2.811,2.561c-1.192,1.994-1.177,4.15-1.1,6.387.118,3.525.287,7.057.441,10.581.074,1.766.155,3.525.235,5.291a26.106,26.106,0,0,0,.4,5.467c.081.3.3.758.677.67s.478-.743.522-1.045a24,24,0,0,0-.132-4.761c-.081-1.538-.162-3.164-.243-4.739q-.254-4.834-.515-9.661c-.118-2.1-.574-4,.235-5.85a5.61,5.61,0,0,1,2.723-2.774c.78-.383,1.626-.456,2.414-.795.486-.206.338-1.722-.147-1.862Z" transform="translate(-11.531 -5.888)"/>
    <path id="Path_12566" data-name="Path 12566" d="M107.431,35.99a6.058,6.058,0,0,1,4.952,1.611,4.525,4.525,0,0,1,1.148,2.8c-.044,1.369.036,2.737.088,4.113.14,3.451.279,6.9.441,10.353s.228,7.035.493,10.537c.03.375.1,1.435.677,1.42s.611-1.111.6-1.45c-.081-3.87-.376-7.756-.574-11.626s-.4-7.748-.633-11.626c-.147-2.509-.03-4.96-1.994-6.887a5.589,5.589,0,0,0-5.262-1.45c-.581.184-.566,2.244.052,2.2Z" transform="translate(-17.183 -5.656)"/>
    <path id="Path_12567" data-name="Path 12567" d="M86.046,36.722c.64-.022,1.28.14,1.921.177s1.28.029,1.913.029c1.229,0,2.458,0,3.687-.022s2.458-.037,3.687-.081a30.206,30.206,0,0,0,3.819-.508c.03,0,.022-.1,0-.1a25.093,25.093,0,0,0-3.841-.464c-1.28-.015-2.458.022-3.686.074s-2.45.14-3.679.25c-.589.052-1.177.1-1.766.191-.692.1-1.361.346-2.053.4C86.031,36.67,86.031,36.722,86.046,36.722Z" transform="translate(-13.496 -6.034)"/>
    <path id="Path_12568" data-name="Path 12568" d="M82.42,64.507a11.8,11.8,0,0,0,.25-3.414c0-1.288-.029-2.568-.044-3.856-.044-2.627-.14-5.261-.184-7.888L82.1,50.387c3.679-.029,7.351-.1,11.03-.258s7.248-.5,10.876-.832l-.309-.861c.051,2.34.161,4.68.161,7.02,0,1.141.059,2.281.067,3.422a20.866,20.866,0,0,0,.147,3.451c.118.677.471.677.559-.015a20.812,20.812,0,0,0-.029-3.451c-.052-1.148-.059-2.281-.118-3.422-.118-2.34-.14-4.68-.213-7.02,0-.147-.037-.876-.31-.861-7.277.508-14.621.765-21.913.765-.346,0-.353.861-.346,1.038.052,2.627.044,5.261.1,7.9.022,1.288.044,2.568.088,3.856a11.965,11.965,0,0,0,.375,3.4c.044.125.118.118.162,0Z" transform="translate(-12.732 -8.117)"/>
    <path id="Path_12569" data-name="Path 12569" d="M21.362,65.864c1.03-2.421.427-5.511.979-8.109a24.826,24.826,0,0,1,4.4-9.661c3.731-4.974,9.455-8.565,15.769-8.756,13.7-.412,22.987,12.259,23.48,24.9.059,1.486,1.435,2.539,1.516.434.53-13.87-10.213-28.543-25.07-28.1-7.255.213-13.708,4.775-17.527,10.773A28.1,28.1,0,0,0,20.979,57.41c-.4,2.215-1.339,6.6.331,8.469.015.015.029,0,.037-.015Z" transform="translate(-1.916 -6.178)"/>
    <path id="Path_12570" data-name="Path 12570" d="M101.5,69.734Q97.658,66.4,93.81,63.067a1.391,1.391,0,0,0-1.928.1q-3.135,3.333-6.269,6.674a1.4,1.4,0,0,1-1.95.081l-6.284-5.666a1.4,1.4,0,0,0-1.766-.081q-3.278,2.439-6.564,4.879a1.393,1.393,0,0,1-1.722-.044q-3.179-2.638-6.358-5.269a1.385,1.385,0,0,0-1.81.029q-2.77,2.45-5.548,4.893a1.4,1.4,0,0,1-1.862-.015q-2.958-2.693-5.916-5.394a1.4,1.4,0,0,0-1.825-.044l-6.667,5.475a1.4,1.4,0,0,1-1.832-.051q-2.859-2.638-5.717-5.269a1.4,1.4,0,0,0-1.8-.081l-8.234,6.284c.007,5.129.029,9.89.066,14.246.177,24.371.6,30.441,4.967,34.01,1.663,1.353,4.834,3.113,10.9,2.7h.1l53.458.684c2.384.118,7.329,0,10.346-3.319,2.8-3.076,2.553-7.468,2.45-9.5-.419-8.675-.353-21.133-.058-37.579a1.439,1.439,0,0,0-.479-1.082Z" transform="translate(-1.812 -10.79)"/>
    <path id="Path_12571" data-name="Path 12571" d="M50.261,115.309c.7-.382,1.472-.618,2.178-.986a24.73,24.73,0,0,0,2.127-1.265c1.361-.9,2.723-1.8,4.054-2.731a82.816,82.816,0,0,0,8.05-6.284c.051-.044.044-.309-.037-.257-2.833,1.633-5.511,3.443-8.2,5.305-1.354.934-2.693,1.883-4.047,2.825-.714.493-1.413,1.016-2.082,1.56-.706.582-1.332,1.25-2.053,1.817v.015Z" transform="translate(-7.188 -18.029)" fill="#fff"/>
    <path id="Path_12572" data-name="Path 12572" d="M70.058,104.559a5.223,5.223,0,0,0,2.178,1.648c.824.449,1.67.9,2.509,1.339,1.619.853,3.223,1.729,4.82,2.612,3.186,1.766,6.446,3.356,9.7,5,.066.03.066-.176.022-.206a107.791,107.791,0,0,0-9.735-6.314q-2.472-1.38-4.982-2.715c-.832-.441-1.663-.876-2.509-1.281-.611-.294-1.317-.78-1.979-.478-.11.051-.059.309-.015.382Z" transform="translate(-10.672 -18.081)" fill="#fff"/>
    <path id="Path_12573" data-name="Path 12573" d="M70.99,101.1a2.4,2.4,0,0,0,.25-1.42c0-.773-.081-1.553-.125-2.325-.1-1.552-.235-3.1-.361-4.65-.243-3.039-.662-6.019-1.06-9.043-.044-.316-.243-.169-.236.081.074,3.12.11,6.2.339,9.316.11,1.538.213,3.076.346,4.613.066.766.11,1.539.228,2.3.059.39.088.949.449,1.184A.131.131,0,0,0,70.99,101.1Z" transform="translate(-10.574 -14.45)" fill="#fff"/>
    <path id="Path_12574" data-name="Path 12574" d="M38.623,39.714c-.464.353-.545,1.258-.655,1.788-.206.949-.353,1.906-.471,2.87a35.652,35.652,0,0,0-.169,6.512,28.782,28.782,0,0,0,2.34,9.823c.081.184.147-.155.125-.228a51.332,51.332,0,0,1-1.648-9.786,36.753,36.753,0,0,1,.1-5.9c.088-.92.213-1.832.353-2.745a7.8,7.8,0,0,0,.191-2.141C38.785,39.854,38.719,39.641,38.623,39.714Z" transform="translate(-4.895 -6.731)"/>
    <path id="Path_12575" data-name="Path 12575" d="M39.057,39.689a90.133,90.133,0,0,1,6.7,8.087,61.972,61.972,0,0,1,4.967,9.036c.074.155.125-.132.1-.191A32.237,32.237,0,0,0,46.187,47a25.546,25.546,0,0,0-7.13-7.358c-.015-.007-.015.037-.007.044Z" transform="translate(-5.212 -6.72)"/>
    <path id="Path_12576" data-name="Path 12576" d="M36.006,40.334c-1.2.125-2.31,1.6-3.032,2.465a15.9,15.9,0,0,0-2.862,5.21,17.828,17.828,0,0,0-.611,8.506c.022.147.132.088.118-.037A19.2,19.2,0,0,1,33.342,43.7a39.322,39.322,0,0,0,2.671-3.319C36.013,40.378,36.028,40.334,36.006,40.334Z" transform="translate(-3.485 -6.843)"/>
    <path id="Path_12577" data-name="Path 12577" d="M37.771,40.482c.449-.191,1.28.1,1.737.155.846.1,1.678.2,2.517.353a33.629,33.629,0,0,1,6.873,1.9c5.3,2.222,9.11,6.549,11.582,11.648.066.132.1-.118.088-.162a19.488,19.488,0,0,0-7.756-10.692A19.851,19.851,0,0,0,41.45,40.048a14.807,14.807,0,0,0-2.281.155,4.2,4.2,0,0,1-1.4.235c-.015,0-.015.059,0,.051Z" transform="translate(-4.985 -6.792)"/>
    <path id="Path_12578" data-name="Path 12578" d="M47.317,31.887a16.4,16.4,0,0,0-1.84-4.489,65.529,65.529,0,0,1-2.84-6.512A32.567,32.567,0,0,1,40.8,13.469a11.315,11.315,0,0,1,.78-6.358c2.333-4.43,8.97-2.84,12.546-1.082,4.209,2.068,7.756,5.416,10.839,8.889a78.9,78.9,0,0,1,6.549,8.521c.4.589.846-.221.942-.567a2.682,2.682,0,0,0-.3-2.082,71.486,71.486,0,0,0-6.122-7.9c-3.311-3.7-7.027-7.358-11.523-9.573C50.628,1.4,44.035.114,41.165,4.33c-1.405,2.068-1.715,4.8-1.722,7.241a28.832,28.832,0,0,0,1.435,8.388,48.625,48.625,0,0,0,3.326,8.1c.522,1.008,1.067,2.023,1.678,2.98.346.544.655,1.118,1.31,1.221.14.022.132-.324.118-.375Z" transform="translate(-5.282 0)"/>
    <path id="Path_12579" data-name="Path 12579" d="M21.013,49.215a14.582,14.582,0,0,0-1.6-3.841c-1.067-2.031-2.127-4.069-3.135-6.129-2.266-4.6-4.467-9.529-5.313-14.621a10.645,10.645,0,0,1,.4-6.026c1.354-3.142,4.783-3.473,7.77-3.032,5.416.8,9.86,4.29,13.628,8.079a72.893,72.893,0,0,1,8.742,10.846c.4.589.846-.221.942-.567a2.681,2.681,0,0,0-.3-2.082,73.8,73.8,0,0,0-7.689-9.617c-3.767-3.981-8.4-8.116-13.922-9.264-2.62-.545-5.784-.728-8.028.993s-2.87,4.555-3,7.16c-.28,5.342,1.8,10.633,3.878,15.445a75.018,75.018,0,0,0,6.976,12.848.223.223,0,0,0,.294.074c-.118.066.051.044.213.088s.177-.272.155-.368Z" transform="translate(0 -1.949)"/>
    <path id="Path_12580" data-name="Path 12580" d="M51.4,26.216a26.145,26.145,0,0,1,1.987-6.88q.651-1.578,1.42-3.105a5.466,5.466,0,0,1,.824-1.383c.67-.692,1.155-.044,1.258.677.331,2.406-.25,5-.567,7.38-.331,2.524-.537,5.048-.758,7.579,0,.074.074.25.11.1.361-1.494.728-2.98.993-4.5q.375-2.163.655-4.334a32.124,32.124,0,0,0,.339-4.577,6.867,6.867,0,0,0-.626-3.488c-1.516-2.259-3.48,3.267-3.789,4.1A33.443,33.443,0,0,0,52.041,21.9c-.324,1.4-.449,2.862-.662,4.3C51.379,26.224,51.4,26.246,51.4,26.216Z" transform="translate(-7.386 -2.048)"/>
    <path id="Path_12581" data-name="Path 12581" d="M22.735,37.839a26.145,26.145,0,0,1,1.987-6.88q.651-1.578,1.42-3.105a5.466,5.466,0,0,1,.824-1.383c.67-.692,1.155-.044,1.258.677.331,2.406-.25,5-.567,7.38-.331,2.524-.537,5.048-.758,7.579,0,.074.074.25.11.1.361-1.494.728-2.98.993-4.5q.375-2.163.655-4.334A32.124,32.124,0,0,0,29,28.788a6.867,6.867,0,0,0-.626-3.488c-1.516-2.259-3.48,3.267-3.789,4.1a33.443,33.443,0,0,0-1.207,4.121c-.324,1.4-.449,2.862-.662,4.3C22.713,37.846,22.735,37.868,22.735,37.839Z" transform="translate(-2.332 -4.097)"/>
    <path id="Path_12582" data-name="Path 12582" d="M65.385,37.8c.1-1.155.368-2.355.508-3.517.162-1.383.383-2.767.655-4.128a25.707,25.707,0,0,1,.883-3.731c.456-1.251,1.3.2,1.516.787a6.413,6.413,0,0,1,.339,1.759c.449,5.327-.044,10.714-.162,16.041,0,.044.059.177.088.081a19.467,19.467,0,0,0,.912-4.444c.147-1.56.2-3.26.206-4.886.007-1.788-.052-3.576-.162-5.357a13.526,13.526,0,0,0-.67-4.054c-.257-.67-1.074-2.436-2.053-1.751a2.044,2.044,0,0,0-.6,1.111c-.25.839-.441,1.7-.625,2.553-.339,1.6-.6,3.223-.78,4.849-.088.824-.155,1.641-.184,2.465-.029.758.1,1.486.1,2.222,0,.022.022.037.022,0Z" transform="translate(-9.831 -4.041)"/>
  </g>
</svg>
