<svg width="115" height="93" viewBox="0 0 115 93" fill="none" xmlns="http://www.w3.org/2000/svg">
<path d="M2.97038 3.52991C18.2604 2.33991 34.9704 1.68991 52.9104 1.94991C69.8304 2.18991 85.6204 3.19991 100.13 4.67991C99.9604 27.9899 99.7904 51.2999 99.6104 74.6099C82.1004 74.0499 64.0604 73.7599 45.5004 73.8199C30.7904 73.8599 16.4104 74.1199 2.37038 74.5599C1.66038 62.5999 1.31038 49.8099 1.50038 36.2899C1.66038 24.7999 2.18038 13.8699 2.96038 3.53991L2.97038 3.52991Z" fill="white"/>
<path d="M31.0689 41.5899C35.4089 46.4599 39.7688 51.3399 44.6688 55.6199C47.0489 57.6999 49.9989 59.7399 53.0689 59.0899C54.6989 58.7399 56.0789 57.6599 57.3689 56.5899C74.1889 42.6099 87.0688 24.4299 99.6288 6.3999C85.8788 16.2399 73.1289 27.5299 61.6589 40.0399C58.9789 42.9599 55.7189 46.2199 51.8189 45.7399C50.5089 45.5799 49.2889 44.9899 48.1289 44.3399C41.2289 40.4799 35.8989 34.3299 30.4289 28.5699C26.9189 24.8699 23.2889 21.2799 19.5489 17.8099C17.6189 16.0199 15.6689 14.2699 13.6889 12.5399C12.0489 11.1099 9.67885 8.1999 7.64885 7.4599C2.35885 5.5099 9.12885 14.9399 10.0589 16.2399C13.0689 20.4499 16.2889 24.5099 19.6089 28.4699C23.3389 32.9199 27.2089 37.2599 31.0689 41.5899Z" fill="#D4D5D5"/>
<path d="M2.75018 2.22993C2.24018 2.66993 2.16018 3.44993 2.09018 4.06993C1.95018 5.14993 1.87018 6.24993 1.76018 7.32993C1.54018 9.61993 1.35018 11.9199 1.17018 14.2199C0.800181 19.0199 0.600181 23.8199 0.470181 28.6299C0.210181 38.4299 0.250181 48.2299 0.540181 58.0299C0.620181 60.6899 0.710181 63.3399 0.830181 65.9999C0.950181 68.6599 0.790181 71.6199 1.48018 74.2399C1.61018 74.7199 1.96018 75.4399 2.55018 75.2999C3.14018 75.1599 3.31018 74.1199 3.38018 73.6499C3.69018 71.3799 3.31018 68.9299 3.21018 66.6399C3.11018 64.3499 3.02018 61.9699 2.95018 59.6299C2.80018 54.8899 2.71018 50.1399 2.69018 45.3999C2.63018 35.8799 2.86018 26.3699 3.11018 16.8599C3.18018 14.2799 3.23018 11.7099 3.30018 9.12993C3.33018 7.93993 3.36018 6.74993 3.40018 5.55993C3.43018 4.50993 3.53018 3.37993 3.07018 2.39993C3.03018 2.30993 2.89018 2.10993 2.76018 2.21993L2.75018 2.22993Z" fill="black"/>
<path d="M2.9985 4.62009C9.0785 5.20009 15.2985 4.46009 21.3885 4.20009C27.8585 3.93009 34.3285 3.75009 40.8085 3.68009C53.9785 3.54009 67.1685 3.79009 80.3285 4.44009C87.1785 4.78009 94.0185 5.24009 100.839 5.84009C101.258 5.88009 101.379 2.68009 100.759 2.63009C75.0885 0.440089 49.3685 -0.33991 23.6185 0.65009C16.7785 0.91009 9.6185 0.82009 2.9385 2.43009C2.3885 2.56009 2.4185 4.55009 2.9885 4.61009L2.9985 4.62009Z" fill="black"/>
<path d="M100.778 3.14C99.1984 2.79 98.3484 19.31 98.2884 20.92C98.0084 27.52 97.9884 34.11 98.3484 40.71C98.3884 41.49 98.5684 43.47 99.6984 43.48C100.828 43.49 100.948 41.3 100.908 40.65C100.538 34.08 100.378 27.49 100.628 20.91C100.748 17.7 100.928 14.5 101.168 11.3C101.298 9.64 101.438 7.98 101.458 6.3C101.458 5.7 101.668 3.34 100.788 3.14H100.778Z" fill="black"/>
<path d="M2.41047 75.7401C6.42047 75.8201 10.5205 75.2301 14.5305 75.0101C18.5405 74.7901 22.9205 74.6301 27.1105 74.5401C36.0805 74.3601 45.0605 74.5101 54.0305 74.9801C56.4105 75.1101 58.7905 75.2301 61.1605 75.3701C62.2805 75.4401 63.4105 75.5101 64.5305 75.5801C65.6505 75.6501 66.8805 75.9601 67.9005 75.3601C68.2005 75.1801 68.1105 74.0401 67.8605 73.8501C67.0105 73.2101 66.1605 73.2301 65.1405 73.1301C64.1205 73.0301 63.0505 72.9301 62.0005 72.8401C59.8705 72.6501 57.7305 72.5101 55.5905 72.3701C51.2305 72.0901 46.8505 71.9601 42.4805 71.8701C33.6605 71.6901 24.8305 71.8301 16.0205 72.2801C13.7405 72.4001 11.4605 72.5301 9.18047 72.6901C6.90047 72.8501 4.58047 72.9201 2.35047 73.3601C1.75047 73.4801 1.80047 75.7101 2.41047 75.7301V75.7401Z" fill="black"/>
<path d="M60.8615 58.8099C60.5815 60.5799 58.9315 71.9899 66.8915 79.9199C70.1515 83.1599 73.7915 84.6099 76.0015 85.2699C74.7115 86.0299 72.8915 86.9099 70.6015 87.5199C67.9515 88.2199 65.6515 88.2999 64.0315 88.2299C67.1515 89.7599 72.6615 91.9599 79.7415 92.1699C82.7415 92.2599 97.2315 92.6699 106.871 81.5299C108.751 79.3599 114.561 72.4199 114.061 62.1999C113.531 51.1899 106.081 44.5899 104.771 43.4699C96.8215 36.6599 84.4815 34.4299 74.3515 39.8699C63.1515 45.8799 61.0115 57.8499 60.8515 58.8199L60.8615 58.8099Z" fill="black"/>
<path d="M73.5308 65.95C75.7289 65.95 77.5108 64.1681 77.5108 61.97C77.5108 59.7719 75.7289 57.99 73.5308 57.99C71.3327 57.99 69.5508 59.7719 69.5508 61.97C69.5508 64.1681 71.3327 65.95 73.5308 65.95Z" fill="white"/>
<path d="M86.5308 65.95C88.7289 65.95 90.5108 64.1681 90.5108 61.97C90.5108 59.7719 88.7289 57.99 86.5308 57.99C84.3327 57.99 82.5508 59.7719 82.5508 61.97C82.5508 64.1681 84.3327 65.95 86.5308 65.95Z" fill="white"/>
<path d="M99.5386 65.95C101.737 65.95 103.519 64.1681 103.519 61.97C103.519 59.7719 101.737 57.99 99.5386 57.99C97.3405 57.99 95.5586 59.7719 95.5586 61.97C95.5586 64.1681 97.3405 65.95 99.5386 65.95Z" fill="white"/>
<path d="M64.7585 36.87C65.0485 37.31 65.2084 37.77 65.5384 38.18C65.8284 38.54 66.1884 38.84 66.5284 39.15C67.1584 39.72 67.7884 40.28 68.4284 40.85C69.6684 41.96 70.9784 43.06 72.3384 44.02C73.3284 44.71 74.4685 45.3 75.3285 46.16C75.9985 46.83 76.6884 48.21 77.7084 48.41C77.7584 48.42 77.7384 48.25 77.7084 48.23C77.2084 47.74 76.6884 47.35 76.2885 46.76C75.8885 46.17 75.5785 45.52 75.2985 44.88C74.6585 43.4 73.7284 42.34 72.5284 41.29C71.3284 40.24 70.0184 39.25 68.6984 38.35C68.0184 37.89 67.3484 37.43 66.6684 36.97C66.3784 36.77 66.0884 36.54 65.7484 36.4C65.6084 36.34 65.5185 36.31 65.3685 36.3C65.1685 36.28 64.9684 36.38 64.7784 36.36C64.6484 36.34 64.7084 36.83 64.7484 36.89L64.7585 36.87Z" fill="black"/>
<path d="M3.12032 75.2299C3.92032 74.9299 4.44032 73.7099 4.90032 73.0299C5.52032 72.0999 6.13032 71.1599 6.76032 70.2399C8.04032 68.3699 9.32032 66.5099 10.6603 64.6799C13.2503 61.1299 16.0203 57.7199 18.9203 54.4199C21.8203 51.1199 24.9903 47.7599 28.2103 44.6099C31.4303 41.4599 35.2803 38.4299 38.4403 34.9599C38.5003 34.8899 38.5303 34.4599 38.3803 34.5299C34.4503 36.3199 31.1103 39.4999 27.8903 42.3199C24.4803 45.3099 21.2403 48.5299 18.2103 51.9099C15.1803 55.2899 12.3503 58.8199 9.68032 62.4799C8.34032 64.3199 7.04032 66.1899 5.81032 68.1099C4.68032 69.8799 3.09032 71.8899 2.65032 73.9699C2.59032 74.2599 2.57032 75.4399 3.13032 75.2299H3.12032Z" fill="black"/>
<path d="M3.27996 4.46999C4.58996 6.35999 6.40996 7.66999 7.94996 9.36999C9.48996 11.07 11.06 12.58 12.71 14.12C16.02 17.2 19.34 20.26 22.71 23.27C29.63 29.47 36.44 35.81 43.47 41.88C45.42 43.57 47.26 45.36 49.78 46.16C52.83 47.14 56.1 46.72 58.79 44.97C60.44 43.91 61.83 42.28 63.26 40.94C64.92 39.38 66.54 37.77 68.21 36.22C71.58 33.1 74.98 30 78.33 26.85C82.04 23.36 85.61 19.72 89.32 16.24C91.21 14.46 93.09 12.66 95.02 10.92C96.95 9.17999 99.08 7.52999 100.71 5.48999C100.76 5.42999 100.77 4.99999 100.66 5.05999C98.78 6.12999 97.24 7.81999 95.64 9.24999C94.04 10.68 92.31 12.16 90.64 13.6C87.33 16.44 83.91 19.14 80.58 21.96C73.92 27.62 67.31 33.35 60.71 39.07C59.5 40.12 58.42 41.19 56.94 41.87C55.31 42.62 53.47 42.88 51.69 42.66C49.11 42.33 47.19 40.93 45.27 39.33C38.72 33.85 31.99 28.57 25.54 22.97C21.78 19.71 18.04 16.42 14.3 13.15C12.52 11.6 10.8 9.86999 8.87996 8.49999C6.95996 7.12999 5.41996 5.15999 3.31996 4.16999C3.20996 4.11999 3.23996 4.42999 3.26996 4.46999H3.27996Z" fill="black"/>
</svg>
