<svg width="114" height="94" viewBox="0 0 114 94" fill="none" xmlns="http://www.w3.org/2000/svg">
<path d="M107.292 8.76001H5.17188V75.95H107.292V8.76001Z" fill="white"/>
<path d="M112.282 54.2699C111.942 36.6399 111.352 19.3499 110.552 2.39991C92.5117 1.86991 73.6317 1.72991 53.9717 2.12991C35.6017 2.49991 17.9317 3.29991 1.01172 4.41991C1.32172 29.7099 1.64172 54.9999 1.95172 80.2799C21.5717 79.8299 41.5317 79.5599 61.8217 79.4999C78.9917 79.4499 95.9217 79.5399 112.612 79.7699C112.562 71.3499 112.462 62.8399 112.292 54.2599L112.282 54.2699ZM61.1817 72.9799C43.5717 73.0299 26.2417 73.2499 9.21172 73.6199C8.94172 52.6999 8.67172 31.7699 8.40172 10.8499C23.0917 9.91991 38.4317 9.25992 54.3717 8.94992C71.4317 8.61992 87.8217 8.72991 103.482 9.17991C104.182 23.1999 104.692 37.5099 104.982 52.0999C105.122 59.1999 105.222 66.2399 105.262 73.2099C90.7817 73.0199 76.0817 72.9399 61.1817 72.9799Z" fill="black"/>
<path d="M2.17054 80.8099C2.36054 60.8699 1.86054 40.9099 1.65054 20.9699C1.59054 15.3199 1.53054 9.6699 1.47054 4.0099L1.04054 5.1099C29.7205 3.2399 58.4705 2.4599 87.2005 2.7599C95.0005 2.8399 102.791 3.0099 110.581 3.2499L109.971 1.9999C110.911 22.3499 111.541 42.7199 111.831 63.0899C111.911 68.8399 111.971 74.5899 112.001 80.3399L112.561 79.0199C83.7705 78.6099 54.9805 78.6299 26.2005 79.0699C18.1005 79.1899 10.0005 79.3299 1.91054 79.5599C1.10054 79.5799 1.16054 82.1199 1.97054 82.0999C30.7805 81.5899 59.5805 81.2099 88.3905 81.3799C96.4705 81.4299 104.551 81.5099 112.631 81.6199C113.141 81.6199 113.191 80.5999 113.191 80.2999C113.071 59.8599 112.641 39.4199 111.851 18.9999C111.631 13.3199 111.391 7.6499 111.121 1.9699C111.101 1.6199 111.021 0.729901 110.511 0.719901C81.7705 -0.100099 53.0105 0.179901 24.2905 1.5699C16.5105 1.9499 8.74054 2.4099 0.970543 2.9399C0.560543 2.9699 0.530543 3.7799 0.540543 4.0399C0.820543 23.9899 1.05054 43.9299 1.36054 63.8799C1.45054 69.5299 1.52054 75.1799 1.71054 80.8299C1.73054 81.5199 2.16054 81.5099 2.16054 80.8199L2.17054 80.8099Z" fill="black"/>
<path d="M88.9805 18.47H24.6305C21.2339 18.47 18.4805 21.2234 18.4805 24.62C18.4805 28.0165 21.2339 30.77 24.6305 30.77H88.9805C92.377 30.77 95.1305 28.0165 95.1305 24.62C95.1305 21.2234 92.377 18.47 88.9805 18.47Z" fill="black"/>
<path d="M25.5584 23.8701C24.9384 23.8701 24.3084 23.8701 23.6884 23.8701C23.1084 23.9601 22.6684 24.4301 22.6184 24.9701C22.5584 25.6001 23.0284 26.2101 23.7184 26.3101H25.6284C25.6084 25.4901 25.5884 24.6801 25.5684 23.8601L25.5584 23.8701Z" fill="white"/>
<path d="M89.5114 23.8701C90.1314 23.8701 90.7614 23.8701 91.3814 23.8701C91.9614 23.9601 92.4014 24.4301 92.4514 24.9701C92.5114 25.6001 92.0414 26.2101 91.3514 26.3101H89.4414C89.4614 25.4901 89.4814 24.6801 89.5014 23.8601L89.5114 23.8701Z" fill="white"/>
<path d="M20.3711 87.3501C24.6111 84.8701 28.8911 82.6201 33.1911 80.5801L44.2811 91.3301C47.3911 87.3601 50.7911 83.7501 54.4211 80.5501C58.8511 83.7501 63.1211 87.3601 67.1611 91.3801C70.4811 87.7101 73.7911 84.1801 77.1011 80.7701C82.5711 83.6801 88.1411 86.6401 93.8011 89.6501C93.4711 81.9801 92.8511 74.6101 92.2611 67.5501C91.6111 59.8601 91.2611 54.4901 90.6511 48.4101C90.0311 42.2001 89.0811 34.1501 87.6211 25.0001C67.7411 24.8701 47.8711 24.7401 28.0311 24.6101C27.5511 26.5801 26.8611 29.5601 26.1911 33.2601C24.4711 42.8301 24.4011 49.9801 23.7111 56.4001C22.6711 66.1101 21.5611 76.4001 20.3911 87.3501H20.3711Z" fill="white"/>
<path d="M65.8613 92.5501C69.8713 88.6301 73.8813 84.7101 77.9013 80.7901C83.5113 83.0301 88.8213 85.9801 93.6813 89.5701C92.0813 81.8401 93.3513 73.8201 92.6513 65.9501C92.2513 61.4101 91.6413 58.6601 91.0713 54.8801C90.0113 47.8401 88.7313 37.6201 88.0513 24.5901C80.5413 24.6801 73.0413 24.7701 65.5312 24.8501C69.0812 28.7501 75.6212 37.0801 77.9212 49.3901C82.2112 72.3701 68.0712 89.8801 65.8512 92.5501H65.8613Z" fill="#D4D5D5"/>
<path d="M57.5386 69.55C72.1631 69.55 84.0186 60.8688 84.0186 50.16C84.0186 39.4512 72.1631 30.77 57.5386 30.77C42.9141 30.77 31.0586 39.4512 31.0586 50.16C31.0586 60.8688 42.9141 69.55 57.5386 69.55Z" fill="black"/>
<path d="M57.4384 42.52C54.2484 43.05 53.6484 47.28 53.6684 49.91C53.6884 51.68 54.0084 53.48 54.6484 55.13C55.1484 56.43 56.0984 57.81 57.6284 57.85C61.1584 57.94 62.1984 52.64 62.3784 50.04C62.5884 46.93 62.2584 42.92 59.9584 40.55C58.8784 39.43 57.1185 40.89 56.4085 41.81C55.4185 43.09 55.1084 44.66 55.2384 46.24C55.2384 46.34 55.3484 46.55 55.4184 46.36C55.9484 44.88 57.1384 42.26 59.0984 42.45C60.1184 42.55 60.7684 44.54 60.9884 45.37C61.2784 46.43 61.3684 47.55 61.3384 48.65C61.2884 50.74 60.7484 54.11 58.5084 55C55.8884 56.04 54.9984 52.6 54.7484 50.73C54.3784 47.94 55.3484 44.71 57.4484 42.78C57.4784 42.75 57.5084 42.52 57.4284 42.53L57.4384 42.52Z" fill="white"/>
<path d="M67.7884 40.1199C67.3084 40.6899 67.1384 41.6999 66.9384 42.3999C66.7084 43.2199 66.4884 44.0399 66.2684 44.8599C65.8484 46.4899 65.4184 48.1099 65.0284 49.7499C64.9184 50.2299 64.9384 50.7899 65.0684 51.2599C65.1384 51.5099 65.2784 51.9799 65.6084 51.9899C66.9284 52.0299 68.2384 51.9899 69.5584 51.9599C70.8784 51.9299 72.1984 51.9099 73.4984 51.7399C74.0384 51.6699 74.0584 50.6099 74.0484 50.2199C74.0384 49.8799 73.9684 48.7199 73.4284 48.7299C72.1184 48.7399 70.7984 48.8799 69.4884 48.9199C68.1784 48.9599 66.8584 48.9699 65.5384 48.9999L66.1184 51.2399C66.5084 49.5399 66.8784 47.8299 67.2684 46.1299C67.6584 44.4299 68.2384 42.5799 68.2584 40.7899C68.2584 40.5899 68.1084 39.7399 67.7784 40.1299L67.7884 40.1199Z" fill="white"/>
<path d="M70.9996 45.4499C70.6896 46.2699 70.5796 47.1599 70.4496 48.0299C70.3196 48.9599 70.2196 49.8999 70.1496 50.8399C70.0096 52.7599 69.9196 54.7199 70.0296 56.6499C70.0496 57.0499 70.1296 58.1699 70.7096 58.1799C71.2896 58.1899 71.3196 56.9399 71.3196 56.6199C71.2896 54.9099 71.2296 53.1999 71.3096 51.4899C71.3896 49.6799 71.6296 47.8499 71.5896 46.0399C71.5896 45.7499 71.2596 44.7499 70.9896 45.4599L70.9996 45.4499Z" fill="white"/>
<path d="M42.2419 42.5501C42.0019 43.4701 41.7219 44.3501 41.5519 45.2801C41.3819 46.2101 41.2519 47.1101 41.1219 48.0301C40.8519 49.9401 40.4719 51.9501 40.6819 53.8801C40.7019 54.1001 40.9819 54.6001 41.1219 54.1501C41.3819 53.3201 41.4519 52.4401 41.5319 51.5801C41.6219 50.6001 41.7219 49.6201 41.8319 48.6401C41.9419 47.6601 42.0619 46.7501 42.1719 45.8001C42.2919 44.7901 42.3319 43.7701 42.4419 42.7601C42.4619 42.6101 42.3319 42.2201 42.2419 42.5501Z" fill="white"/>
<path d="M46.8305 42.1299C46.1005 44.1799 45.8405 46.3499 45.6605 48.5199C45.5605 49.6899 45.5005 50.8499 45.4805 52.0199C45.4805 52.5699 45.4605 53.1099 45.5105 53.6499C45.5305 53.9199 45.5105 54.3299 45.7305 54.5299C45.7405 54.5299 45.7605 54.5299 45.7705 54.5299C45.9705 54.4199 45.9705 54 45.9905 53.8C46.0505 53.27 46.0805 52.7399 46.1105 52.2099C46.1805 51.1299 46.2605 50.06 46.3605 48.98C46.5705 46.76 46.8405 44.5499 46.9705 42.3199C46.9705 42.2599 46.9105 41.92 46.8405 42.12L46.8305 42.1299Z" fill="white"/>
<path d="M38.3194 47.1501C38.2894 47.0801 38.2794 47.0501 38.2194 47.0001C38.1294 46.9301 38.1094 47.2201 38.1094 47.2401C38.1094 48.0401 39.3794 47.4801 39.8494 47.3801C40.9594 47.1401 42.0794 46.9001 43.1994 46.7101C44.3194 46.5201 45.4594 46.3501 46.5894 46.1801C47.7194 46.0101 48.8494 45.7501 49.9894 45.5501C50.0294 45.5501 50.0294 45.3901 49.9894 45.3801C47.9494 45.2701 45.9994 45.3401 43.9694 45.6601C42.9894 45.8201 42.0194 46.0001 41.0594 46.2101C40.5794 46.3101 40.0894 46.4301 39.6094 46.5601C39.5194 46.5801 38.2194 46.9801 38.2394 47.0201V47.4501C38.2394 47.4501 38.2794 47.4001 38.2994 47.3801C38.3494 47.3301 38.3394 47.2101 38.3194 47.1401V47.1501Z" fill="white"/>
<path d="M38.8501 51.1301C39.6601 51.3701 40.6801 51.0501 41.4901 50.9101C42.4101 50.7501 43.3301 50.6101 44.2501 50.4801C46.0101 50.2201 47.8201 50.1301 49.4901 49.4801C49.5401 49.4601 49.5301 49.2601 49.4701 49.2501C47.6701 48.8601 45.8101 49.2201 44.0101 49.5001C43.1201 49.6401 42.2401 49.8001 41.3601 49.9801C40.4801 50.1601 39.5101 50.2801 38.8201 50.8101C38.7601 50.8601 38.7601 51.1001 38.8401 51.1301H38.8501Z" fill="white"/>
<path d="M26.8583 23.34C26.2083 24.88 26.0983 26.78 25.8583 28.43C25.5883 30.27 25.3783 32.12 25.1583 33.96C24.6783 37.88 24.2183 41.79 23.7483 45.71C22.7283 54.26 21.7483 62.81 20.8183 71.37C20.5383 73.91 20.2683 76.46 19.9883 79C19.7083 81.54 19.2683 84.38 19.2383 87.07C19.2383 88.01 20.1883 89.42 20.5683 87.82C21.0983 85.58 21.2583 83.2 21.5283 80.92C21.7983 78.64 22.0583 76.47 22.3283 74.25C22.8583 69.88 23.3683 65.52 23.8783 61.15C24.8283 52.97 25.7483 44.79 26.6283 36.6C26.8583 34.47 27.1183 32.33 27.3083 30.2C27.4983 28.07 27.7683 25.9 27.5683 23.79C27.5283 23.38 27.1583 22.65 26.8583 23.35V23.34Z" fill="black"/>
<path d="M19.8413 89.09C22.0013 87.98 24.1513 86.88 26.3113 85.77C27.4513 85.19 28.5913 84.6 29.7313 84.02C30.7013 83.52 31.8613 82.65 32.9213 82.39C33.8913 82.15 34.9813 83.68 35.6613 84.33C36.5213 85.14 37.3913 85.96 38.2513 86.77C40.0513 88.47 41.8713 90.16 43.6813 91.85C43.7813 91.91 43.8813 91.91 43.9813 91.85C45.8613 90.1 47.7513 88.35 49.6313 86.6C50.5613 85.74 51.4913 84.88 52.4213 84.01C52.8613 83.61 53.3013 83.05 53.8013 82.73C54.4513 82.31 54.5013 82.35 55.1013 82.89C58.9013 86.3 62.7013 89.71 66.5013 93.11C66.6013 93.17 66.7113 93.17 66.8113 93.11C68.7413 91.09 70.6813 89.07 72.6113 87.05C73.5313 86.08 74.4613 85.12 75.3813 84.16C75.8713 83.65 76.3513 83.15 76.8413 82.64C77.5213 81.93 77.7813 82.03 78.6313 82.47C83.6313 85.09 88.6113 87.75 93.5913 90.42C94.3413 90.82 94.6213 87.94 93.8413 87.54C88.4113 84.77 82.9913 81.98 77.5913 79.16C77.4913 79.1 77.4013 79.1 77.3113 79.16C75.5213 81.03 73.7413 82.9 71.9413 84.77C71.0613 85.69 70.1813 86.61 69.3013 87.53C68.7613 88.1 67.1813 90.31 66.3913 90.15C65.9713 90.07 65.2413 89.13 64.9113 88.84C64.4213 88.4 63.9313 87.97 63.4413 87.53C62.4713 86.66 61.5013 85.8 60.5313 84.93C58.5113 83.12 56.4613 81.34 54.4413 79.53C54.3413 79.47 54.2513 79.47 54.1613 79.53C52.4213 81.13 50.6813 82.73 48.9413 84.33C48.1213 85.09 47.2913 85.84 46.4713 86.6C46.0013 87.04 45.5213 87.47 45.0513 87.91C44.7213 88.21 44.2313 88.89 43.7713 88.89C43.3113 88.89 42.8313 88.19 42.5013 87.89C42.0313 87.45 41.5613 87.01 41.0913 86.57C40.2813 85.8 39.4613 85.04 38.6513 84.27C36.9313 82.66 35.2113 81.06 33.4913 79.46C33.3913 79.4 33.3013 79.4 33.2013 79.46C28.6413 81.88 24.0913 84.33 19.5413 86.77C18.9513 87.08 19.2113 89.42 19.8513 89.09H19.8413Z" fill="black"/>
<path d="M87.7495 24.38C87.5095 26.1 87.7295 27.92 87.8095 29.65C87.8995 31.58 88.0495 33.51 88.1995 35.43C88.5195 39.55 88.8795 43.67 89.2395 47.79C89.9895 56.22 90.7395 64.64 91.4995 73.06C91.7295 75.6 91.9695 78.14 92.2095 80.67C92.4495 83.2 92.5895 86.03 93.1295 88.64C93.2095 89.05 93.3895 89.89 93.9595 89.78C94.5295 89.67 94.5495 88.57 94.5595 88.18C94.6395 83.49 93.8995 78.7 93.4895 74.03C93.0995 69.64 92.6895 65.25 92.2895 60.86C91.5395 52.66 90.7795 44.46 89.9795 36.26C89.7695 34.08 89.5595 31.89 89.2695 29.72C89.0095 27.85 88.9495 25.77 88.2695 24C88.0495 23.42 87.7795 24.11 87.7495 24.37V24.38Z" fill="black"/>
</svg>
