<svg width="85" height="124" viewBox="0 0 85 124" fill="none" xmlns="http://www.w3.org/2000/svg">
<path d="M0.75 89.84C1.67 99.04 2.59 108.24 3.51 117.44L55.87 123.07C65.54 115.1 75.2 107.12 84.86 99.15L82.09 12.03C79.21 9.62005 76.33 7.21005 73.44 4.80005" fill="black"/>
<path d="M18.3705 3.47998C18.4705 3.00998 18.5905 2.49998 18.9505 2.16998C19.3505 1.80998 19.9305 1.77998 20.4705 1.76998C38.0405 1.36998 55.7805 0.96998 73.0105 4.42998C67.1405 33.88 60.0905 63.1 51.8805 91.98L39.0105 91.62C36.6905 91.56 34.3805 91.49 32.0605 91.56C28.8405 91.65 25.6205 92 22.4005 91.89C19.0005 91.77 15.6405 91.15 12.2805 90.66C10.5505 90.41 8.81052 90.18 7.07052 90.07C6.03052 90.01 3.12052 90.57 2.31052 90.01C0.78052 88.96 2.73052 83.43 3.00052 81.94C3.67052 78.32 4.34052 74.69 5.02052 71.07C7.73052 56.64 10.5205 42.23 13.4005 27.84C15.0305 19.71 16.6805 11.59 18.3705 3.46998V3.47998Z" fill="white"/>
<path d="M18.0284 1.89C16.9984 4.44 16.6484 7.37 16.0584 10.05C15.4084 13.03 14.8084 16.02 14.2084 19.01C13.0284 24.96 11.8584 30.9 10.6984 36.85C8.40838 48.61 6.18838 60.38 3.90838 72.14L2.14838 81.19L1.33838 85.35C1.06838 86.77 0.498375 88.42 0.628375 89.87C0.668375 90.33 0.808377 91.72 1.61838 91.24C2.05838 90.98 2.11837 90.16 2.20837 89.74C2.39837 88.85 2.55838 87.95 2.73838 87.06L4.45837 78.27C6.74837 66.56 9.09838 54.87 11.3884 43.16C12.6984 36.49 13.9884 29.81 15.2684 23.13C15.8984 19.85 16.5084 16.57 17.1084 13.29C17.7084 10.01 18.5784 6.35 18.7384 2.88C18.7484 2.57 18.4184 0.909999 18.0184 1.89H18.0284Z" fill="black"/>
<path d="M18.2306 2.47C20.3406 2.42 22.4006 2.58 24.5106 2.5C26.7606 2.41 29.0206 2.32 31.2706 2.29C36.0706 2.23 40.8606 2.36 45.6506 2.69C50.4406 3.02 55.4006 3.55 60.2406 4.27C62.5206 4.61 64.8006 5 67.0606 5.43C68.1406 5.63 69.2106 5.85 70.2806 6.06C71.2806 6.26 72.3406 6.62 73.3706 6.54C73.6706 6.52 73.5806 5.07 73.3306 4.94C71.5206 3.98 69.0206 3.8 67.0106 3.42C64.7406 2.99 62.4706 2.6 60.1906 2.26C55.3506 1.53 50.4806 1 45.6006 0.670001C40.7206 0.340001 36.0206 0.220001 31.2206 0.280001C28.9706 0.310001 26.7106 0.36 24.4606 0.5C22.3306 0.64 20.3106 1.08 18.2006 1.39C17.9406 1.43 17.9806 2.47 18.2306 2.46V2.47Z" fill="black"/>
<path d="M0.778823 90.97C2.95882 91.46 5.23882 91.47 7.46882 91.62C9.69882 91.77 11.9288 91.9 14.1588 92.03C18.4488 92.29 22.7388 92.54 27.0388 92.8C31.3388 93.06 35.6188 93.3 39.9188 93.55C42.0688 93.67 44.2088 93.8 46.3588 93.92C47.5188 93.98 48.6688 94.05 49.8288 94.11C50.8588 94.17 52.0088 94.54 52.8488 93.87C53.0988 93.67 53.0488 92.69 52.8188 92.49C52.0088 91.77 50.8388 91.98 49.7788 91.91C48.7188 91.84 47.6288 91.78 46.5588 91.71C44.3288 91.57 42.0988 91.45 39.8688 91.32C35.5788 91.07 31.2888 90.82 26.9888 90.58C22.6988 90.34 18.4088 90.1 14.1088 89.86C11.9588 89.74 9.81882 89.62 7.66882 89.51C5.37882 89.39 3.01882 89.12 0.738822 89.37C0.358822 89.41 0.408823 90.88 0.778823 90.97Z" fill="black"/>
<path d="M72.7581 5.15988C71.8081 7.76988 71.1981 10.5399 70.5181 13.2299C69.8381 15.9199 69.1581 18.6699 68.4881 21.3899C67.0881 27.0199 65.7381 32.6699 64.3781 38.3099C61.6381 49.6199 58.9681 60.9399 56.2781 72.2499C54.7381 78.7199 53.1681 85.1799 51.6681 91.6599C51.5381 92.2399 51.4681 93.4099 51.9781 93.8499C52.4881 94.2899 52.7981 93.7699 52.9281 93.2499C58.4381 70.7599 63.7081 48.1999 68.9981 25.6499C70.5081 19.1899 72.3181 12.6599 73.2481 6.07988C73.2781 5.83988 73.0481 4.39988 72.7681 5.16988L72.7581 5.15988Z" fill="black"/>
<path d="M25.7414 75.2201C21.0914 75.1001 16.4514 74.9801 11.8014 74.8701C11.5714 74.8701 11.4114 74.6301 11.4814 74.4101C11.8914 73.2201 12.3114 72.0201 12.7214 70.8301C12.7714 70.6901 12.9114 70.5901 13.0614 70.6001C17.7314 70.7801 22.4014 70.9601 27.0714 71.1401C27.3114 71.1401 27.4614 71.3901 27.3814 71.6101C26.9414 72.7401 26.5114 73.8801 26.0714 75.0101C26.0214 75.1501 25.8914 75.2301 25.7414 75.2301V75.2201Z" fill="black"/>
<path d="M52.3215 97.06C52.1315 97.83 52.2915 98.73 52.3315 99.52C52.3915 100.47 52.4515 101.43 52.5215 102.38C52.6515 104.29 52.8015 106.19 52.9515 108.09C53.1015 109.99 53.2515 111.9 53.4015 113.8C53.4715 114.69 53.5415 115.57 53.6315 116.46C53.7115 117.22 53.7415 118.14 54.0715 118.84C54.1015 118.9 54.1415 118.86 54.1515 118.81C54.3315 118.05 54.2515 117.16 54.2115 116.39C54.1615 115.44 54.0815 114.48 54.0115 113.53C53.8615 111.63 53.7115 109.72 53.5515 107.82C53.3915 105.92 53.2515 104.06 53.0815 102.18C53.0015 101.28 52.9215 100.37 52.8315 99.47C52.7515 98.7 52.7915 97.72 52.4515 97.01C52.4015 96.91 52.3415 96.98 52.3215 97.05V97.06Z" fill="white"/>
<path d="M24.3881 15.49L21.5781 30.06L39.4381 63.29L50.4081 63.79V62.3L24.3881 15.49Z" fill="#D4D5D5"/>
<path d="M26.1719 12.9499C34.8719 27.9799 43.5719 43.0199 52.2619 58.0499C52.6619 55.2599 53.0619 52.4599 53.4619 49.6699C45.1819 37.4399 36.8919 25.1999 28.6119 12.9699C27.8019 12.9699 26.9819 12.9499 26.1719 12.9399V12.9499Z" fill="#D4D5D5"/>
<path d="M24.5405 11.3901C23.7105 13.0701 23.3805 15.2101 22.9405 17.0301C22.4405 19.1201 21.9805 21.2201 21.5005 23.3201C20.5705 27.4501 19.6305 31.5901 18.7205 35.7201C17.8105 39.8501 16.9005 44.0001 15.9905 48.1501C15.0805 52.3001 13.9805 56.5401 13.3205 60.7801C13.1705 61.7501 14.1205 63.8001 14.6505 61.9601C15.8205 57.9201 16.5305 53.7101 17.4205 49.6001C18.3105 45.4901 19.2305 41.3201 20.1305 37.1701C21.0305 33.0201 21.8706 29.0301 22.7406 24.9601C23.1905 22.8301 23.6406 20.7101 24.0806 18.5801C24.5205 16.4501 25.0105 14.2901 25.1105 12.1701C25.1205 11.9001 24.9105 10.6601 24.5405 11.4001V11.3901Z" fill="black"/>
<path d="M24.7601 12.77C27.1501 13.03 29.5601 13.05 31.9601 13.16C34.3601 13.27 36.8401 13.38 39.2801 13.5C44.1101 13.74 48.9501 13.94 53.7801 14.19C56.5001 14.33 59.2301 14.48 61.9501 14.59C62.2401 14.6 62.2601 13.05 61.9101 13.02C52.2801 12.16 42.5801 11.79 32.9101 11.51C30.1901 11.43 27.4501 11.27 24.7301 11.4C24.4401 11.41 24.4601 12.73 24.7601 12.76V12.77Z" fill="black"/>
<path d="M13.7912 62.5C14.7412 63.06 16.1212 62.97 17.1912 63.06C18.3912 63.16 19.5912 63.22 20.8012 63.29C23.2512 63.43 25.6912 63.57 28.1412 63.7C32.9912 63.97 37.8412 64.26 42.6912 64.52C45.4312 64.67 48.1612 64.82 50.9012 64.96C51.2312 64.98 51.2612 63.33 50.8612 63.31C41.1612 62.77 31.4612 62.25 21.7612 61.73C20.4312 61.66 19.1112 61.57 17.7812 61.53C17.0812 61.51 16.3712 61.48 15.6712 61.47C15.0212 61.47 14.3712 61.4 13.7712 61.7C13.6012 61.78 13.6412 62.41 13.7912 62.5Z" fill="black"/>
<path d="M51.1583 64.3199C51.7283 62.7899 52.0283 61.1399 52.3883 59.5499C52.7483 57.9599 53.1183 56.3199 53.4783 54.7099C54.2083 51.3899 54.9383 48.0599 55.6683 44.7399C57.1083 38.1799 58.5483 31.6099 59.9783 25.0499C60.3883 23.1899 60.7883 21.3299 61.1983 19.4599C61.3983 18.5699 61.5883 17.6799 61.7883 16.7899C62.0083 15.7799 62.3183 14.8199 62.1183 13.7799C62.0783 13.5999 61.9583 13.0799 61.6683 13.2399C61.0583 13.5699 61.0583 14.4899 60.9283 15.1099C60.7383 16.0099 60.5483 16.8999 60.3583 17.7999C60.0083 19.4299 59.6683 21.0599 59.3183 22.6899C58.6083 26.0199 57.8883 29.3599 57.1783 32.6899C55.7783 39.2799 54.3783 45.8599 52.9883 52.4499C52.5883 54.3299 52.2083 56.1999 51.8183 58.0799C51.4283 59.9599 50.9783 61.8699 50.7983 63.7899C50.7783 63.9599 50.9783 64.8399 51.1683 64.3199H51.1583Z" fill="black"/>
</svg>
