<svg width="112" height="111" viewBox="0 0 112 111" fill="none" xmlns="http://www.w3.org/2000/svg">
<path d="M27.731 94.84C30.951 95.47 34.281 95.12 37.521 94.63C41.351 94.05 45.161 93.29 48.841 92.08C56.221 89.66 62.951 85.48 68.931 80.53C79.701 71.61 88.251 60.03 93.601 47.11C95.051 43.61 96.281 39.96 96.501 36.19C96.721 32.42 95.851 28.46 93.471 25.51C87.401 38.31 80.271 50.72 70.911 61.35C61.551 71.98 49.851 80.81 36.431 85.33C31.711 86.92 26.451 87.92 21.511 86.83C20.301 86.56 19.111 86.17 17.991 85.62C17.001 85.13 15.751 84.22 16.231 85.98C16.791 88.04 19.051 90.19 20.651 91.48C22.701 93.14 25.141 94.33 27.741 94.84H27.731Z" fill="white"/>
<path d="M3.27096 72.04C-0.329045 64.42 1.26095 55.31 4.51095 47.54C10.801 32.5 22.781 20.39 36.371 11.37C41.191 8.16996 46.281 5.28996 51.751 3.39996C55.731 2.01996 59.8909 1.16996 64.091 0.879962C68.241 0.589962 72.591 0.889962 76.231 2.89996C78.851 4.34996 80.9409 6.58996 82.921 8.82996C85.281 11.51 87.571 14.25 89.781 17.06C91.091 18.72 92.381 20.43 93.161 22.4C94.821 26.57 93.961 31.29 92.721 35.61C87.791 52.76 76.971 68.17 62.511 78.63C51.971 86.25 39.251 91.33 26.241 91.05C23.851 91 21.411 90.75 19.271 89.7C16.851 88.51 15.031 86.4 13.281 84.34C11.641 82.41 9.99096 80.47 8.35096 78.54C4.33096 73.81 0.040955 68.18 1.10095 62.06" fill="black"/>
<path d="M16.2706 87.3999C18.7206 91.3199 22.7206 94.4899 27.2106 95.6399C32.6806 97.0399 38.8306 95.6299 44.1506 94.1499C52.1406 91.9399 59.6706 88.1099 66.4006 83.2899C73.5706 78.1499 79.7906 71.8199 84.9906 64.7099C89.5606 58.4699 93.1806 51.8699 95.2706 44.4199C96.8806 38.6999 97.2106 32.7099 95.1706 27.0399C94.2806 24.5699 93.1006 22.2399 91.5506 20.1199C90.4406 18.5999 89.2406 17.4299 87.7406 16.3099C87.5906 16.1999 87.5606 16.9999 87.6906 17.1399C90.3506 20.0999 92.9106 23.4699 94.3506 27.2099C96.3806 32.4799 95.9406 37.9199 94.5106 43.2499C92.5806 50.4499 88.9806 56.7599 84.6506 62.7899C75.4106 75.6299 62.4606 85.8999 47.4606 91.1299C41.9706 93.0399 35.8806 94.7399 30.0006 94.3599C26.9806 94.1599 24.0906 93.2299 21.5006 91.6699C20.4306 91.0199 19.3506 90.3899 18.4706 89.4899C17.7306 88.7299 17.0206 87.9199 16.3206 87.1199C16.2306 87.0199 16.2206 87.3399 16.2606 87.3999H16.2706Z" fill="black"/>
<path d="M72.9989 14.7C72.0589 17.12 71.2289 19.5699 70.2389 21.9599C69.2489 24.3499 68.0589 26.87 66.7989 29.25C64.3189 33.92 61.3889 38.35 58.0689 42.47C51.3889 50.74 43.1289 57.6699 33.9089 62.9499C31.2789 64.4499 28.5689 65.8099 25.7889 67.0299C23.0089 68.25 20.1089 69.27 17.3389 70.55C17.2989 70.57 17.3089 70.7399 17.3389 70.7399C19.9889 70.3399 22.5589 69.38 25.0389 68.3899C27.5189 67.3999 29.8589 66.29 32.1889 65.07C36.9889 62.56 41.5189 59.57 45.7189 56.16C54.0789 49.39 61.0189 40.94 66.1989 31.52C67.6289 28.91 68.9289 26.23 70.0689 23.49C71.2089 20.75 72.3289 17.74 73.0189 14.76C73.0189 14.75 73.0089 14.6799 72.9989 14.7199V14.7Z" fill="white"/>
<path d="M29.8635 30.8707C33.0112 27.7231 34.6542 24.2629 33.5334 23.1421C32.4126 22.0213 28.9524 23.6643 25.8048 26.8119C22.6571 29.9596 21.0141 33.4198 22.1349 34.5406C23.2557 35.6614 26.7159 34.0184 29.8635 30.8707Z" fill="white"/>
<path d="M21.2542 56.9191C24.4018 53.7715 26.0449 50.3112 24.9241 49.1904C23.8032 48.0696 20.343 49.7127 17.1954 52.8603C14.0477 56.0079 12.4047 59.4682 13.5255 60.589C14.6463 61.7098 18.1065 60.0667 21.2542 56.9191Z" fill="white"/>
<path d="M59.719 19.0797C62.8666 15.9321 64.5097 12.4719 63.3889 11.3511C62.2681 10.2302 58.8078 11.8733 55.6602 15.0209C52.5126 18.1686 50.8695 21.6288 51.9903 22.7496C53.1111 23.8704 56.5714 22.2274 59.719 19.0797Z" fill="white"/>
<path d="M77.7688 82.8899C78.0888 83.8699 79.0488 84.5499 79.7888 85.2199C80.5288 85.8899 81.2788 86.5499 82.0488 87.1899C82.8188 87.8299 83.4888 88.4799 84.2788 89.0199C84.6688 89.2899 85.0888 89.5099 85.4788 89.7699C85.8688 90.0299 86.2788 90.1499 86.6988 90.3699C86.7688 90.4099 86.7488 90.2099 86.7288 90.1799C86.3788 89.7299 86.0988 89.2499 85.7088 88.8299C85.3188 88.4099 84.9688 87.9899 84.5988 87.5599C83.9288 86.7899 83.0988 86.1299 82.3488 85.4399C81.5988 84.7499 80.8988 84.1399 80.1588 83.5099C79.7688 83.1799 79.3888 82.8499 78.9788 82.5299C78.6588 82.2899 78.3288 81.8999 77.8988 82.0799C77.6688 82.1799 77.7188 82.7099 77.7688 82.8799V82.8899Z" fill="black"/>
<path d="M53.3719 97.5201C53.4419 98.4401 53.8319 99.3201 54.1619 100.17C54.4919 101.02 54.8119 101.9 55.1619 102.75C55.4819 103.53 55.8219 104.29 56.1719 105.06C56.5219 105.83 56.9719 106.46 57.2819 107.21C57.3319 107.33 57.3719 107.11 57.3619 107.07C57.1019 106.14 56.9719 105.17 56.7119 104.24C56.4519 103.31 56.1819 102.41 55.8619 101.51C55.5619 100.67 55.2219 99.8401 54.8819 99.0101C54.7219 98.6101 54.5419 98.2201 54.3619 97.8301C54.2019 97.5001 54.0719 97.0801 53.7419 96.8901C53.4419 96.7201 53.3619 97.4101 53.3719 97.5401V97.5201Z" fill="black"/>
<path d="M28.0688 101.07C27.9588 101.83 27.9988 102.61 27.9688 103.38C27.9488 104.07 27.8988 104.76 27.8688 105.45C27.8288 106.21 27.7488 106.98 27.7688 107.74C27.7888 108.5 27.8188 109.34 27.7688 110.13C27.7688 110.2 27.8288 110.36 27.8688 110.22C28.0688 109.53 28.3188 108.85 28.5188 108.16C28.7188 107.47 28.7788 106.66 28.8388 105.92C28.8988 105.13 28.9188 104.33 28.9188 103.54C28.9188 102.75 28.9288 101.86 28.7588 101.06C28.7188 100.89 28.6488 100.49 28.4088 100.5C28.1688 100.51 28.1088 100.91 28.0788 101.08L28.0688 101.07Z" fill="black"/>
<path d="M96.7416 62.18C97.1716 62.83 98.0716 62.94 98.7716 63.15C99.5216 63.38 100.282 63.61 101.022 63.89C101.762 64.17 102.462 64.4399 103.182 64.6999C103.542 64.8299 103.902 64.96 104.262 65.08C104.622 65.2 104.952 65.39 105.312 65.53C105.322 65.53 105.322 65.45 105.312 65.44C104.072 64.4 102.702 63.49 101.212 62.87C100.502 62.58 99.7816 62.3 99.0416 62.1C98.6516 61.99 98.2616 61.9 97.8716 61.82C97.5416 61.75 97.1116 61.56 96.7816 61.65C96.6516 61.69 96.6916 62.1 96.7516 62.18H96.7416Z" fill="black"/>
<path d="M103.121 37.81L103.181 37.92C103.211 37.98 103.261 38.02 103.331 38.03C104.761 37.78 106.161 37.46 107.571 37.12C108.981 36.78 110.381 36.11 111.801 35.64C111.861 35.62 111.851 35.39 111.801 35.4C110.911 35.46 110.011 35.44 109.131 35.46C108.301 35.48 107.451 35.6 106.631 35.73C105.811 35.86 104.961 36.02 104.131 36.2C103.771 36.28 103.261 36.26 103.101 36.63C102.941 37 102.951 37.46 103.131 37.8L103.121 37.81Z" fill="black"/>
</svg>
