<svg id="Group_9066" data-name="Group 9066" xmlns="http://www.w3.org/2000/svg" xmlns:xlink="http://www.w3.org/1999/xlink" width="42.023" height="49.405" viewBox="0 0 42.023 49.405">
                                  <defs>
                                    <clipPath id="clip-path1">
                                      <rect id="Rectangle_380" data-name="Rectangle 380" width="42.023" height="49.405" transform="translate(0 0)" fill="#e05564"/>
                                    </clipPath>
                                  </defs>
                                  <g id="Group_9065" data-name="Group 9065" transform="translate(0 0)" clip-path="url(#clip-path1)">
                                    <path id="Path_11073" data-name="Path 11073" d="M36.213,13.427c-1.291-2.072-4.277-2.007-6.317-1.416a20.428,20.428,0,0,0-7.232,4.138,54.144,54.144,0,0,0-6.613,6.62,52.067,52.067,0,0,0,1.784-11.631c.149-4.758-1.66-10.9-7.391-11.131-4.9-.2-8.71,4.113-9.7,8.533-1.334,5.95-.7,12.432.547,18.338,1.484,7.039,4.066,13.786,6.7,20.465-.172.1-.343.2-.516.3-.31.18-1.906,1.084-1.6,1.61s1.965-.451,2.2-.584c.31-.18.618-.365.926-.549a5.878,5.878,0,0,0,3.037-1.877c7.664-4.932,14.744-11.056,19.6-18.794a41.635,41.635,0,0,0,3.47-6.814c.775-1.96,2.379-5.184,1.115-7.212M31.9,20.8a37.72,37.72,0,0,1-1.422,3.561C26.525,32.974,19.549,39.769,11.724,45,7.787,35,3.8,24.556,3.884,13.67a32.505,32.505,0,0,1,.733-7.2A11.4,11.4,0,0,1,5.692,3.517C6.3,2.431,6.626,2.27,7.882,2.5c5.24.96,6.361,6.884,6.091,11.324a60.486,60.486,0,0,1-4,17.768c-.235.616,1.383,0,1.45-.03a4.894,4.894,0,0,0,2.251-1.579A49.223,49.223,0,0,1,25.5,15.585a5.462,5.462,0,0,1,4.262-1.495,3.4,3.4,0,0,1,3.005,2.4c.286,1.371-.439,3.031-.874,4.306" transform="translate(0 -0.001)" fill="#e05564"/>
                                  </g>
                                </svg>