<svg width="34" height="28" fill="none" xmlns="http://www.w3.org/2000/svg"><path d="M4.945 7.186c.651-.654 1.542-1 2.41-1.32 2.408-.885 4.96-1.705 7.5-1.328 2.622.39 4.928 2.05 6.577 4.115.472.592.908 1.24 1.066 1.977.055.256.072.53-.042.764-.089.181-.245.316-.402.442-.61.487-1.287.896-1.84 1.447-.551.55-.977 1.296-.911 2.072.03.341.152.668.256.995.16.502.284 1.014.404 1.526.356 1.49.709 2.981 1.064 4.474.104.438.21.891.134 1.336-.1.59-.5 1.077-.887 1.537-.47.559-.954 1.128-1.59 1.488-.68.388-1.483.504-2.265.536a11.844 11.844 0 0 1-2.35-.142c-.998-.16-1.974-.448-2.975-.607-2.217-.352-4.585-.078-6.623-1.014-.595-.274-1.154-.653-1.554-1.172-.675-.877-.827-2.036-.901-3.139a33.15 33.15 0 0 1 .364-7.549c-.525.055-1.086.05-1.545-.21-.46-.262-.758-.859-.535-1.337.125-.266.376-.443.624-.599.895-.563 1.87-.995 2.89-1.28.856-.238.341-.75.363-1.366.02-.615.328-1.218.76-1.65l.008.004Z" fill="#fff"/><path d="M6.3 15.602c.342 0 .62-.5.62-1.116 0-.616-.278-1.116-.62-1.116-.343 0-.62.5-.62 1.116 0 .616.277 1.116.62 1.116ZM9.787 17.867c.645.795.7 1.923.511 2.928a7.28 7.28 0 0 1-3.627 4.968c1.56.38 3.143.65 4.74.81.937.093 1.886.15 2.793.402.682.19 1.343.488 2.048.526.706.038 1.503-.273 1.742-.935.104-.287.091-.602.064-.91-.275-3.14-1.874-5.934-3.008-8.817-.166-.422-.364-1.593-.914-1.718-.59-.135-.76.694-1.07 1.083a4.53 4.53 0 0 1-1.52 1.231c-.24.12-1.557.686-1.764.43l.005.003Z" fill="#ECD9D6"/><path d="M12.13 7.505a2.057 2.057 0 0 1-.994 1.702c1.65.312 3.245.902 4.702 1.737.57.327 1.188.818 1.15 1.474-.023.403-.295.746-.59 1.023a4.886 4.886 0 0 1-1.991 1.127c.556 4.256 2.996 8.03 4.04 12.192.68-.721 1.778-.963 2.39-1.746.402-.516.53-1.189.62-1.838.23-1.7.267-3.477-.347-5.08-.303-.795-.76-1.522-1.26-2.212-.322-.445-.678-.909-.72-1.457-.053-.706.438-1.34.992-1.78.554-.438 1.204-.765 1.688-1.28.278-.294.502-.674.483-1.079-.01-.234-.1-.457-.198-.67A8.141 8.141 0 0 0 17.5 5.403a8.121 8.121 0 0 0-4.156-.333c-.41.073-1.589.206-1.753.657-.09.25.156.528.26.73.17.331.284.668.277 1.046l.002.002Z" fill="#ECD9D6"/><path d="M31.965 9.095c-.227.884.116 2.124.806 4.605.186.67.715 2.169.889 4.053.061.658.078 1.342-.167 1.954-.212.522-.601.951-1.018 1.327-1.304 1.177-2.563 1.774-2.563 1.774-4.46 2.045-10.541 4.269-10.594 4.288-.796.29-1.435.526-1.787.656 2.005-1.506 2.496-2.908 2.625-3.776.133-.89-.21-2.063-.887-4.41-.413-1.429-.792-2.465-.952-4.145-.142-1.474.031-1.901.203-2.173.622-.99 1.858-.926 2.1-1.78.048-.172.113-.588-.399-1.376-1.28-1.97-3.858-2.713-5.62-3.199-1.455-.401-3.046-.824-5.222-.712-2.042.107-3.66.64-4.691 1.067a48.157 48.157 0 0 1 3.098-1.91c1.403-.794 4.1-2.302 7.73-3.508C18.235.927 20.059.322 22.7.23c0 0 3.436-.119 7.927 1.638.635.248 1.49.626 2.119 1.501.122.172.783 1.122.728 2.411-.066 1.567-1.107 1.757-1.507 3.313l-.002.002Z" fill="#000"/><path d="M20.813 14.362c.333-.195.708-.326 1.052-.506.343-.18.665-.335 1-.496.721-.343 1.459-.648 2.2-.944.742-.296 1.48-.562 2.199-.886.366-.165.733-.333 1.093-.51.36-.179.785-.357 1.124-.584.006-.005.002-.041 0-.041-.208.05-.405.152-.604.225-.172.062-.35.107-.524.165l-1.098.37c-.756.253-1.505.555-2.245.858-.74.302-1.45.616-2.153.965-.367.183-.73.38-1.081.592-.352.213-.638.477-.965.71-.014.011.005.084.005.082h-.003Z" fill="#fff"/><path d="M11.378 3.95c-.187.058-.373.134-.564.174-.191.041-.406-.019-.592.048-.376.131-.739.323-1.101.486-.611.276-1.214.567-1.812.868-.467.235-.932.472-1.394.717-.463.245-.906.5-1.222.93-.471.642-.573 1.546-.456 2.32.008.057.012.175.078.156.055-.017.043-.29.04-.33-.038-.84.33-1.556 1.032-2.01.458-.297.967-.526 1.453-.773.66-.334 1.326-.655 1.984-.995.398-.204.797-.405 1.196-.61.263-.135.399-.266.62-.466.22-.2.488-.347.742-.502.002 0 0-.015 0-.015l-.004.002Z" fill="#000"/><path d="M.408 12.758c-.071-.259.131-.507.33-.687C2.51 10.465 5.026 10.013 7.41 9.89c2.713-.14 5.527.08 7.951 1.313.396.202.793.441 1.048.806.255.365.335.889.084 1.256-.17.252-.462.39-.746.5a7.277 7.277 0 0 1-1.743.442c-.038 3.67 1.671 7.088 3.022 10.497.224.566.443 1.186.28 1.773-.208.747-.956 1.19-1.669 1.487.061-.116.125-.233.186-.35-.06.125-.211.244-.27.37a5.835 5.835 0 0 0 2.405-.325c.392-.14.799-.35.984-.726.12-.241.131-.524.127-.795-.038-1.748-.704-3.414-1.36-5.032l-2.615-6.46a4.483 4.483 0 0 0 1.778-.458c.41-.204.808-.492.98-.919.237-.585-.02-1.262-.392-1.771-.661-.914-1.663-1.53-2.704-1.956-1.888-.772-3.97-.997-6.003-.832-2.032.166-4.02.709-5.931 1.42-.563.21-1.128.437-1.608.797-.481.36-.877.874-.98 1.468-.032.176.02.27.174.36v.003Z" fill="#000"/><path d="M.318 12.137c-.2.476-.067 1.085.288 1.447.533.54 1.33.464 2.014.332l-.048-.467c-.287 2.025-.564 4.047-.583 6.095a23.607 23.607 0 0 0 .165 3.048c.104.845.242 1.67.923 2.247.629.532 1.451.87 2.218 1.137.846.297 1.725.49 2.608.641 1.763.301 3.555.433 5.3.841.999.234 2.06.7 3.102.488a2.176 2.176 0 0 0 1.021-.52c.286-.26.456-.708.504-1.092.002-.02-.021-.19-.038-.14-.196.621-.909.978-1.504 1.098-.866.177-1.748-.134-2.575-.357-1.604-.433-3.26-.59-4.9-.828-1.624-.234-3.268-.55-4.746-1.297-.729-.368-1.427-.835-1.644-1.674-.234-.904-.257-1.904-.277-2.834-.05-2.159.162-4.336.507-6.466.008-.048.03-.475-.048-.467-.49.057-.996.14-1.483.005-.357-.1-.93-.494-.775-.936a.466.466 0 0 0 .007-.208c0-.01-.025-.124-.038-.095l.002.002ZM8.23 16.635s-.008-.006-.01-.01c-.006-.005-.007 0-.012 0s-.009-.005-.013-.007c-.002 0-.007-.005-.01-.005-.004 0-.005 0-.007.005-.006.006-.006.017-.008.026-.003.022-.007.041-.008.063a1.075 1.075 0 0 0 0 .145c.005.085.018.192.084.229.01.006.02.01.032.008.009 0 .015-.004.022-.013a.094.094 0 0 0 .016-.022l-.005.005a.25.25 0 0 0 .073-.118.45.45 0 0 0 .023-.156c-.002-.024-.004-.05-.01-.074-.008-.024-.017-.05-.028-.07-.01-.017-.025-.04-.043-.045a.045.045 0 0 0-.041.006c-.007.007-.015.014-.02.022-.011.018-.011.042-.013.063v.065c0 .003 0 .02.003.022.004.002 0 0 .004 0 .001-.01.005-.006.008.013l.01-.015h-.004l.027-.015c.01-.007.02-.011.03-.011.01 0 .017-.009.029-.009.008 0 .016.005.025.009.008.006.011.022.014.033 0 .006.002.017 0 .021-.006.013-.023.011-.032.011-.022 0-.042-.004-.061-.009l.005.005s-.013-.011-.018-.018l.005.005s-.009-.009-.014-.011c-.003 0-.006 0-.01-.002a45.48 45.48 0 0 0-.02-.007.092.092 0 0 1-.035-.022l.006.005a.119.119 0 0 1-.033-.055l.005.016-.003-.011c-.005-.022 0-.005 0 0 0 .004.005.021 0 0v-.005l.003.024v.011l.002.046V16.835v-.007.022-.065s-.002.037 0 .017c0-.015 0-.004 0 0-.002.022 0-.01 0-.008v-.02.011-.004l.001-.009a.22.22 0 0 0 .004-.033v.007l.026-.074c.003-.006.005-.035 0-.04l.002.003ZM14.43 8.452l-.012-.01c-.004-.005-.006 0-.011 0-.005 0-.008-.005-.013-.007-.002 0-.007-.004-.01-.004s-.005 0-.007.004c-.006.007-.006.017-.008.026l-.008.063a1.071 1.071 0 0 0 0 .146c.005.084.018.19.084.228.01.006.021.01.033.009.008 0 .014-.005.021-.013a.096.096 0 0 0 .016-.022l-.005.004a.251.251 0 0 0 .073-.117.454.454 0 0 0 .023-.157c-.002-.024-.003-.05-.01-.073-.008-.024-.016-.05-.028-.07-.01-.017-.025-.041-.043-.046a.046.046 0 0 0-.04.007c-.007.006-.016.013-.02.022-.012.017-.012.04-.014.063v.065c0 .002 0 .02.004.022.003.002 0 0 .003 0 .002-.011.005-.007.008.013l.01-.016h-.003s.016-.008.026-.015c.01-.006.02-.01.03-.01.01 0 .018-.01.03-.01.007 0 .016.005.024.01.008.006.011.021.015.032v.022c-.007.013-.023.01-.033.01a.277.277 0 0 1-.061-.008l.005.004s-.013-.01-.018-.017l.005.004s-.008-.009-.013-.01c-.004 0-.007 0-.01-.003a4.568 4.568 0 0 1-.02-.006.093.093 0 0 1-.036-.022l.006.004a.118.118 0 0 1-.033-.054l.005.015-.003-.01c-.005-.023 0-.005 0 0 0 .004.005.02 0 0V8.52l.003.024v.01c0 .005.004.068.002.046V8.652v-.006.022-.066s-.002.037 0 .018c0-.015 0-.005 0 0-.002.021 0-.011 0-.009v-.02.011-.004c0-.002 0-.006.002-.009.001-.01.003-.021.003-.032v.006l.026-.074c.004-.006.005-.034 0-.039l.002.002ZM11.228 15.403c-.01-.036-.005-.04-.018-.036-.01.002-.005.004-.017-.013h-.003c-.012 0-.028.013-.035.028a.159.159 0 0 0-.014.06 1.026 1.026 0 0 0-.005.136.633.633 0 0 0 .03.21c.01.025.027.045.047.06.006.004.009.002.015 0 .006-.003.01-.007.017-.009l.018-.015.01-.01c.002-.005.004-.011.009-.016h-.004a.1.1 0 0 0 .031-.027c.01-.013.017-.028.026-.039.008-.008.015-.017.021-.03.008-.015.013-.032.017-.049l-.003.006c.011-.004.011-.027.013-.04a.592.592 0 0 0-.007-.128l.005.062c0-.064-.006-.14-.047-.178-.005-.004-.008-.002-.014 0a.028.028 0 0 0-.015.018.478.478 0 0 0-.017.093c-.003.028-.006.056-.003.086 0 0 0 .01.003.01l.001-.004.017.062s.008.013.015.013c.005 0 .01.004.014.004.005 0 .008-.004.012-.004h.016c.006 0 .003.002.01 0l-.007-.021v-.007c.003.03.003.02 0-.03 0-.002.003-.01 0-.004-.003.009-.005.015-.01.024a.121.121 0 0 1-.02.03c-.008.006-.02.002-.028 0a.103.103 0 0 1-.033-.013h.003s-.009-.01-.013-.017c-.005-.007-.01-.011-.016-.017l.005.004a.269.269 0 0 1-.029-.034c-.01-.013-.02-.02-.029-.028l.005.004a.166.166 0 0 1-.034-.055l.005.015-.004-.011c-.001-.009-.003-.024 0 .008l.002.015c-.002-.023.003.041 0 .022a.934.934 0 0 1 0 .092c0-.015-.003.032 0 .017 0-.011.002-.022.003-.032-.002.023-.003.027 0 .017 0-.007 0-.01.002-.017-.004.027 0 .006 0 0 0-.007.001-.013.003-.017 0-.005.001-.009.003-.013 0-.005 0-.005 0 0a.02.02 0 0 1 .003-.009l.01-.03c.01-.021.01-.044.011-.07l-.005.03c.008-.013.019-.026.022-.04a.183.183 0 0 0 .006-.041v-.022ZM5.903 12.696l-.01.007.01-.016.006-.002a.174.174 0 0 1-.076 0l.01.003.01.008s0-.003-.003-.005l-.01-.01-.01-.002s-.007 0-.01-.002a.096.096 0 0 1-.02-.006l.01.003-.01-.005.01.01s0-.004-.003-.005l-.01-.012s-.007-.003-.013-.003l-.01-.003.01.003-.02-.008-.027-.01.01.004-.02-.01.01.207.01-.01s.004-.003.007-.003c.007-.005.01-.011.016-.016l-.01.01.02-.01-.01.003.014-.005a.033.033 0 0 0 .013-.013c.003-.006.007-.013.007-.019l-.007.013.01-.02-.013.02.016-.008.007-.003c.01-.004.006-.004.013-.012h-.003l.016-.001h.007c.01-.004.01-.007.016-.004.007.004.007-.008.007-.008v-.022a.072.072 0 0 0-.017-.023l.007.011v.004-.01c0-.005 0-.01-.007-.015 0-.003-.006-.006-.01-.01l-.02-.014v.005s.007.003.007.001c0-.003 0-.006-.006-.01 0-.002-.004-.004-.007-.006l-.01-.006-.02-.011.007.008s0-.005-.003-.008l.006.012-.01-.019a.039.039 0 0 0-.02-.015h-.03l.01.004s-.01-.007-.016-.005h-.007a.098.098 0 0 0-.02.008.026.026 0 0 0-.013.013.18.18 0 0 0-.013.039c0 .018-.003.035 0 .055.003.02.003.035.01.053 0 .013.007.028.017.039 0 .002 0 .003.003.005.01.011.02.024.043.03.01.004.023.005.036.005l.01-.003.013-.014-.01.01-.01.001a.115.115 0 0 0 .024-.003c.003 0 .006 0 .01-.002.003 0 .01-.003.013-.005l.007-.01v-.004l-.007.008-.01.001a.2.2 0 0 0 .06-.027c.01-.008.016-.016.023-.024.016-.025.016-.052.013-.078v.044V12.732c0-.011 0-.023-.003-.034 0-.002-.004-.016-.014-.015a.027.027 0 0 1-.016 0v-.008.015l.01.006Z" fill="#000"/><path d="M5.25 20.876c-.006-.019-.013-.025-.022-.019 0 0-.003 0-.003.002-.003 0-.007.004-.009.007-.003.004-.008.008-.01.012-.015.021-.017.055-.02.082a.752.752 0 0 0 .005.165.333.333 0 0 0 .029.103c.019.038.05.07.085.076.036.006.07-.013.092-.044l-.006.004a.081.081 0 0 0 .029-.044c.012-.04.012-.087.012-.127a.907.907 0 0 0-.012-.151c-.009-.051-.03-.106-.07-.127-.012-.006-.028-.008-.04-.002l-.017.008c-.005.002-.012 0-.017.002-.04.013-.054.06-.063.106a.8.8 0 0 0-.01.202c.002.023.003.049.008.072.004.015.005.031.017.04.007.004.014-.038.014-.036.003-.017.02-.036.014-.053 0-.004-.004-.006-.005-.01a.07.07 0 0 1-.007-.017l.003.078v-.009l-.017.047c.004 0 .01-.009.014-.013l-.009.006.007-.004c.007-.004.01-.01.015-.017.007-.008.012-.017.02-.023l-.008.006s.012-.008.02-.01h.008c.007 0 .012-.006.018-.01l-.008.006c.026-.02.053-.009.078.008l-.008-.006s.014.012.019.02l-.007-.016.003.008a.453.453 0 0 1-.013-.117v-.034c0-.017.001-.032.003-.047v.005c.003-.026 0-.007-.002 0l-.001.008v-.004c-.002 0-.005.006-.007.01-.005.007-.01.013-.017.017l.005-.004a.08.08 0 0 1-.1 0l.006.004a.156.156 0 0 1-.04-.046l-.003-.006c.002.004.002.006 0 0l-.005-.015s.004.017 0 .006v-.008l.002.012a.545.545 0 0 1 .003.053v.015-.019c0 .002 0 .017 0 0v.002c0-.004 0-.009.002-.01v-.005l.003-.012.014-.047c.003-.014.003-.03.003-.044 0-.008 0-.008 0 0v.004c.002-.004.004-.01.007-.012 0-.005.004-.034 0-.032l-.001.004ZM4.323 17.832h.02l.028-.004c.021-.007.028-.014.035-.022l.02-.021a.093.093 0 0 0 .014-.04c0-.022 0-.042-.007-.063 0-.013-.013-.027-.027-.04a.154.154 0 0 0-.035-.03l-.02-.01c0-.008-.028-.012-.062-.016-.035.003-.055.008-.055.017l-.021.02a.09.09 0 0 0-.02.054v.05c0 .015.006.03.02.045.007.014.028.03.048.045 0 .008.028.012.062.017v-.002Z" fill="#000"/></svg>