<svg width="28" height="37" fill="none" xmlns="http://www.w3.org/2000/svg"><path d="M21.015 13.818v2.483l3.881-.098.24 8.926-3.805.139v2.393l6.048-.12-.129-8.05-.258-5.783" fill="#fff"/><path d="M21.392 31.493c-.667.783-3.131 3.488-7.273 4.118-5.766.877-9.845-3.015-10.309-3.475l-.842-17.869C1.108 13.105.274 10.869.906 8.904c.541-1.68 2.075-2.91 3.906-3.13.477-2.368 2.136-4.293 4.348-5 2.661-.85 4.893.457 5.182.634 2.184 1.344 2.777 3.565 2.893 4.044.28-.077 2.492-.648 3.967.601 1.637 1.385 1.858 4.586-.232 7.092l.425 18.348h-.003Z" fill="#fff"/><path d="M4.4 6.029c.127-.111.173-.306.233-.462.169-.439.355-.871.59-1.281.702-1.22 1.747-2.226 3.03-2.818 1.521-.703 3.31-.852 4.912-.344 1.602.508 2.689 1.574 3.494 2.936.868 1.465 1.383 3.022 1.49 4.72.001.042.021.304.104.275.082-.029.068-.33.068-.384a10.603 10.603 0 0 0-1.262-4.74c-.71-1.328-1.591-2.516-2.956-3.228C11.081-.876 7.19.319 5.38 3.14c-.52.809-.988 1.782-1.01 2.762 0 .011.007.146.033.122L4.4 6.03Z" fill="#000"/><path d="M9.754 7.002s.034.004.077.016c.275.077 1.194.452 1.769 1.794 0 0-.241-1.735.357-2.937 0 0-.873 1.292-2.194 1.127M17.343 4.956l1.13-.06c.072.11.325 2.159-.499 3.182a19.04 19.04 0 0 0-.631-3.122ZM5.602 25.956c-.019.678-.006 1.348.016 2.028.013.392.026.787.042 1.18.014.37.004.76.082 1.118.034.15.067.03.077-.059.041-.418.003-.848-.016-1.267-.016-.361-.035-.723-.053-1.085-.017-.362-.035-.722-.055-1.082-.016-.286-.058-.558-.091-.837 0-.009-.003-.002-.003.002l.001.002ZM16.23 19.108a.712.712 0 0 0-.7.256c-.165.22-.178.522-.101.768a.718.718 0 0 0 .203.327c.109.093.258.108.403.102.3-.011.596-.13.736-.372a.644.644 0 0 0 .07-.438.576.576 0 0 0-.078-.219c-.038-.057-.084-.088-.142-.128-.008-.007-.008.044-.005.05.06.114.132.235.17.357.03.093-.03.195-.091.27-.143.175-.378.263-.62.28-.119.01-.26.012-.367-.044a.5.5 0 0 1-.216-.243c-.096-.199-.06-.4.091-.573a.914.914 0 0 1 .647-.285c.02 0 .02-.108-.002-.115l.002.007ZM2.985 13.605c-.063.236-.06.496-.073.738-.014.33-.014.671-.007 1.02.01.562.017 1.126.039 1.688.044 1.143.097 2.285.148 3.428.1 2.266.197 4.535.296 6.8.059 1.343.068 2.695.19 4.035.012.122.07.826.328.747.257-.079.216-.892.216-1.04 0-1.14-.095-2.288-.146-3.429-.05-1.14-.104-2.285-.155-3.426-.102-2.266-.192-4.535-.306-6.8a82.704 82.704 0 0 0-.127-2.048c-.024-.31-.046-.632-.085-.933a5.053 5.053 0 0 0-.024-.19c-.005-.024-.056-.348-.034-.202-.024-.161-.044-.314-.107-.47-.06-.146-.13.012-.15.08l-.003.002ZM21.066 13.332c-.115 2.338-.007 4.707.039 7.047.045 2.34.102 4.645.153 6.97.015.653.028 1.308.044 1.96.018.758.002 1.534.093 2.284.01.079.05.479.174.474.125-.004.147-.406.154-.485.051-.668.013-1.344 0-2.015l-.038-1.742c-.028-1.178-.053-2.36-.08-3.538-.054-2.323-.096-4.648-.173-6.969-.044-1.33-.068-2.668-.194-3.99-.005-.061-.01-.343-.093-.354-.073-.009-.077.32-.079.358ZM19.231 24.018c-.183.493-.134 1.04-.153 1.542a53.422 53.422 0 0 0-.022 1.731c0 .576.015 1.157.04 1.736.027.578-.052 1.177.172 1.717.09.214.206.032.232-.079.116-.533-.023-1.107-.052-1.643a53.81 53.81 0 0 1-.071-1.735 86.098 86.098 0 0 1-.026-1.68c0-.52.033-1.048-.06-1.566-.008-.036-.038-.083-.06-.023Z" fill="#000"/><path d="M19.237 30.362c-.447.422-1.06.739-1.595 1.025-.583.313-1.178.605-1.8.827-1.239.446-2.584.51-3.88.635-.005 0-.005.022 0 .024 1.41.364 2.857.102 4.236-.295a8.376 8.376 0 0 0 2.79-1.386c.256-.2.333-.366.31-.692 0-.016-.02-.18-.063-.14l.002.002Z" fill="#000"/><path d="M21.687 31.58c-.382.232-.713.55-1.062.827-.482.379-.978.74-1.5 1.065a13.755 13.755 0 0 1-4.467 1.799c-1.294.268-2.637.375-3.948.192-1.49-.207-2.917-.75-4.2-1.523-1.018-.614-1.937-1.366-2.794-2.183-.064-.059-.077.2-.077.223-.004.095-.02.307.057.385 1.7 1.756 3.943 3.074 6.338 3.612 2.93.658 6.073-.018 8.644-1.505a13.184 13.184 0 0 0 1.791-1.225c.457-.372.91-.769 1.255-1.248.042-.059.033-.462-.037-.418ZM21.033 16.327c.137.075.314.077.471.072.167-.004.333-.01.497-.016a74.132 74.132 0 0 1 2.9-.066c.055 0 .025-.412-.01-.406-.068.013-.097.052-.142.095-.016.015-.007.087.002.104.043.072.079.14.142.198v-.397a66.628 66.628 0 0 0-2.874.106c-.166.01-.33.023-.496.037-.167.015-.355.037-.494.132-.02.015-.018.129.004.141ZM4.614 5.915s.317-1.4.68-1.754a3.254 3.254 0 0 1 1.753.738C8.39 6.033 8.294 7.878 8.28 8.078a3.753 3.753 0 0 0-1.546-1.73 3.476 3.476 0 0 0-2.119-.433Z" fill="#000"/><path d="M12.575 32.205c3.434-.144 6.175-1.262 6.124-2.497-.052-1.236-2.877-2.122-6.311-1.978-3.434.143-6.175 1.26-6.124 2.497.052 1.235 2.877 2.12 6.31 1.978Z" fill="#ECD9D6"/><path d="M10.37 32.557s-3.576-3.703 5.26-4.652a16.25 16.25 0 0 0-3.12-.24c-2.135.04-3.898.497-5.15.94-1.455.718-1.52 1.347-1.522 1.52-.009.95 1.774 1.95 4.532 2.432ZM8.696 20.993c-.03-.056-.067-.127-.13-.16a.419.419 0 0 0-.225-.02.751.751 0 0 0-.376.152c-.266.214-.16.585-.06.845a.77.77 0 0 0 .232.343c.116.09.26.127.409.122.28-.008.618-.152.694-.405.054-.18.015-.375-.047-.55-.027-.072-.054-.162-.128-.212-.034-.023-.047-.015-.086-.012a.23.23 0 0 0-.113.034c-.005.002-.003.026 0 .026.14.038.231.17.275.285a.912.912 0 0 1 .055.176c.01.047-.005.088-.035.13-.118.177-.381.273-.608.282-.251.01-.463-.09-.574-.288a1.318 1.318 0 0 1-.125-.324c-.025-.1.042-.195.123-.264a.758.758 0 0 1 .551-.16.273.273 0 0 0 .084 0c.03-.005.047-.005.076.013v-.018l.008.005ZM9.249 22.377c.06-.023.121.01.18.03a.42.42 0 0 1 .15.095.541.541 0 0 1 .145.294v.02a.516.516 0 0 1-.17.355.324.324 0 0 1-.31.074.317.317 0 0 1-.163-.117c-.014-.02-.033-.035-.04-.062-.011-.04-.013-.085-.017-.128 0-.01-.003-.002-.003.003 0 .18.005.422.14.514.117.08.28.045.388-.045.122-.1.184-.27.2-.457.017-.187-.005-.377-.095-.519a.362.362 0 0 0-.162-.147c-.09-.038-.166.027-.245.075-.002 0 0 .017 0 .017l.002-.002Z" fill="#000"/><path d="M13.044 17.97a5.691 5.691 0 0 0 3.078.297 5.607 5.607 0 0 0 2.934-1.539l-.469-2.504c-2.047-.334-4.092-.67-6.14-1.005M10.649 13.39c-.723-.303-1.446-.603-2.17-.906-1.207.716-2.414 1.435-3.62 2.151l.25 4.703a6.213 6.213 0 0 1 1.929-1.497c1.583-.787 3.073-.674 3.695-.59" fill="#ECD9D6"/><path d="M10.606 13.732c-.103.356-.076.758-.09 1.123-.013.419-.022.836-.027 1.255a53.35 53.35 0 0 0 .05 2.468c.029.765.038 1.539.116 2.3.054.521.152 1.125.504 1.548.401.484 1.13.406 1.59.043.435-.34.585-.932.641-1.441.068-.591.025-1.184-.015-1.775-.054-.8-.121-1.596-.197-2.393-.141-1.48-.294-2.963-.518-4.435-.013-.09-.024-.234-.119-.17-.087.06-.049.428-.04.501.26 2.391.63 4.791.69 7.197.011.409-.02.849-.244 1.208-.271.434-.925.743-1.434.5-.387-.184-.54-.633-.591-1.016-.074-.554-.079-1.315-.108-1.963-.038-.815-.06-1.629-.08-2.445-.01-.39-.016-.78-.014-1.17 0-.41.038-.822-.011-1.23-.007-.067-.054-.269-.103-.103v-.002Z" fill="#000"/><path d="M12.724 13.57c1.171 1.035 2.81 1.577 4.353 1.606 1.739.033 3.35-.77 4.45-2.13a5.432 5.432 0 0 0 1.198-3.603c-.039-1.1-.286-2.236-.886-3.162a4.052 4.052 0 0 0-2.032-1.61c-.72-.255-1.655-.37-2.4-.142-.12.038-.063.726.017.717.62-.064 1.204-.149 1.829-.03.799.15 1.555.536 2.114 1.138.736.793 1.129 1.874 1.21 2.953.008.125.006.058.008.169v.091c0 .087.003-.064 0 .009-.008.21-.032.417-.074.624-.155.78-.526 1.5-1.02 2.114-1.009 1.254-2.52 2.05-4.119 2.096-1.599.046-3.197-.55-4.646-1.235-.028-.013-.058.344-.002.395Z" fill="#000"/><path d="M12.556 12.098s1.059-.477 1.588-1.572c0 0 3.323 5.346 7.605 1.235 0 0-2.243 5.296-9.082 1.638l-.22-1.02.11-.281ZM8.33 7.391c-.372-.7-1.151-1.209-1.88-1.484a4.237 4.237 0 0 0-2.291-.203c-1.426.278-2.603 1.337-3.133 2.674-.53 1.336-.413 3.032.303 4.318.755 1.357 2.09 2.207 3.653 2.235a4.8 4.8 0 0 0 1.559-.237c.907-.296 1.62-.86 2.185-1.615.071-.094.047-.293.038-.403-.002-.028-.038-.286-.088-.226-1.647 1.894-4.901 2.274-6.712.407A4.18 4.18 0 0 1 .93 11.023c-.188-.72-.113-1.44.146-2.134.479-1.284 1.552-2.317 2.892-2.66.78-.2 1.611-.163 2.375.094.369.126.715.302 1.042.511.327.21.594.557.94.738.014.006.012-.159 0-.179l.005-.002Z" fill="#000"/><path d="M.7 10.764s2.253 5.56 6.604-.238c0 0 .559 1.651 1.226 2.382 0 0-4.59 3.894-7.393-.724l-.44-1.418.002-.002Z" fill="#000"/><path d="M7.31 10.596c.094.378.199.735.384 1.084a4.761 4.761 0 0 0 2.575 2.214c.08.027.154.048.237.056.142.013.166-.019.205-.147.04-.13.025-.195-.028-.326-.057-.146-.243-.207-.385-.26a5.298 5.298 0 0 1-1.744-1.05 5.119 5.119 0 0 1-.726-.817 7.545 7.545 0 0 1-.27-.414c-.078-.13-.178-.27-.242-.408-.009-.017-.01.057-.009.068h.003ZM18.843 14.422c-.067.718-.009 1.46.012 2.18.02.72.046 1.41.079 2.114.06 1.335.11 2.681.29 4.005.013.086.04.029.041-.026.071-1.344.023-2.696-.022-4.04-.022-.668-.048-1.337-.08-2.005-.037-.73-.021-1.508-.155-2.23-.006-.038-.024-.222-.087-.222-.062 0-.074.188-.076.226l-.002-.002ZM4.889 14.514c-.052.383-.025.783-.013 1.168l.037 1.242c.029.846.062 1.69.094 2.536.032.846.069 1.68.118 2.52.05.84.138 1.638.198 2.458.005.074.027.035.025-.017-.01-.829.002-1.655-.01-2.484-.013-.829-.055-1.692-.093-2.536-.037-.843-.074-1.683-.116-2.524-.021-.407-.042-.816-.065-1.223-.02-.368-.01-.787-.103-1.14-.021-.082-.06-.108-.074.002l.002-.002ZM24.743 16.019c-.053.315-.041.644-.045.965-.006.38-.012.759-.012 1.14 0 .73.01 1.46.024 2.191.027 1.456.058 2.925.145 4.368.006.084.04.582.186.526.151-.06.12-.623.122-.732-.021.349.002-.37 0 0 .006-.099.01-.196.011-.296.004-.216 0-.435-.005-.651-.006-.35-.016-.703-.025-1.054-.022-.722-.04-1.447-.06-2.17-.022-.722-.047-1.423-.08-2.137-.017-.38-.039-.76-.062-1.14-.021-.338-.021-.684-.09-1.013-.028-.134-.084-.147-.107.003h-.002Z" fill="#000"/><path d="M21.522 25.38c.132.073.303.065.45.071.147.007.298.007.447.007a38.873 38.873 0 0 0 1.816-.06l.448-.027c.149-.009.324 0 .473-.035.034-.009.02-.361-.008-.363-.143-.016-.303.015-.448.026-.145.01-.299.017-.448.026-.307.017-.613.03-.92.043-.307.013-.597.02-.896.033-.149.007-.298.01-.447.022-.15.01-.337.002-.471.082-.021.014-.017.164.004.175ZM21.053 13.908c.234.054.477.045.718.043.24-.002.477-.002.716-.006.486-.007.972-.018 1.458-.026l1.432-.026.716-.013c.238-.004.503.013.742-.03.01-.004.015-.012.017-.025.051-.156.051-.165-.008-.319 0-.01-.01-.02-.018-.026-.232-.034-.482-.006-.716-.004-.234.002-.477.009-.716.015-.486.008-.972.02-1.458.028s-.954.017-1.431.028c-.24.006-.478.012-.716.021-.239.009-.502.006-.743.07-.046.014-.04.255.007.266v.004ZM21.529 27.75c.2.159.492.14.722.145.256.008.512.01.768.01.512 0 1.025-.002 1.537-.013a70.385 70.385 0 0 0 2.305-.086c.119-.005.238-.01.355-.02.097-.008.133-.032.15-.154a1.215 1.215 0 0 0-.006-.39c-.018-.088-.044-.1-.06 0l-.698.028a61.146 61.146 0 0 1-2.166.075c-.474.008-.95.013-1.426.013h-.713c-.238 0-.56-.044-.766.113-.035.028-.037.25 0 .28h-.002Z" fill="#000"/><path d="M26.654 13.767c-.047 1.055.092 2.129.151 3.183.06 1.055.11 2.199.147 3.3a122.236 122.236 0 0 1 .067 4.846c-.002.58.032 1.168-.007 1.746-.005.077-.018.81.153.819.192.01.162-.559.16-.65-.016-.544.039-1.095.046-1.64a119.452 119.452 0 0 0-.05-5.13 98.612 98.612 0 0 0-.168-3.478c-.07-1.05-.067-2.157-.32-3.188-.075-.3-.174.09-.179.19v.002ZM24.353 14.794c.6-.896 1.62-1.06 1.802-1.086-.545.01-1.09.024-1.635.037-1.171.028-2.34.056-3.505.088l.066 2.323 2.88-.21c.018-.252.09-.7.392-1.152ZM23.572 26.299c.371-.896 1.003-1.06 1.114-1.086-.337.01-.674.024-1.012.037-.725.028-1.449.056-2.17.088.013.775.028 1.55.04 2.323l1.785-.21c.01-.252.055-.7.243-1.152Z" fill="#000"/></svg>