<svg width="29" height="36" fill="none" xmlns="http://www.w3.org/2000/svg"><path d="M.513 25.784c.005 1.79.038 3.808 1.381 5.036.86.788 2.09 1.063 3.27 1.147 2.932.212 5.933-.605 8.326-2.262.277-.192.549-.396.752-.662.185-.244.307-.529.49-.775.406-.554 1.066-.867 1.698-1.16 1.833-.851 3.77-1.848 4.681-3.61.556-1.076.658-2.314.668-3.517a26.556 26.556 0 0 0-.325-4.327c3.62.017 7.007-2.863 7.486-6.34.48-3.478-1.997-7.109-5.48-8.061-3.483-.953-7.54.869-9.058 4.056l-7.273-.14c-1.196-.022-2.39-.047-3.585-.07-.754-.014-2.313-.354-2.945.134C.008 5.69.147 6.978.107 7.61A56.411 56.411 0 0 0 0 11.076c-.005 2.304.107 4.605.226 6.904.135 2.599.284 5.2.292 7.804H.513Z" fill="#fff"/><path d="M9.903 27.906c4.908-1.345 8.475-6.204 8.398-11.906l3.232 1.58c.676 4.831.474 7.825.281 9.345-.061.489-.146 1.02-.443 1.638-.558 1.17-1.648 1.96-5.233 3.703-2.309 1.122-3.516 1.582-4.828 1.92-2.703.7-5.281 1.37-7.542.094-1.358-.766-2.034-1.91-2.5-2.696C-.087 29.294-.05 27.04.033 26.025c.62.425 4.887 3.25 9.864 1.883l.005-.002ZM15 11.495c.41-.724.855-1.46 1.343-2.204A40.866 40.866 0 0 1 23.56 1c1.23.537 2.388 1.23 3.441 2.051-3.59 3.4-7.21 6.839-9.926 10.949a3.898 3.898 0 0 1-1.18-.869 3.815 3.815 0 0 1-.891-1.636H15ZM27.246 4 28 5.183c-2.69 3.272-5.378 6.545-8.069 9.817L18 14.918l9.246-10.916V4Z" fill="#ECD9D6"/><path d="M16.357 2.678c-1.134 1.04-1.933 2.307-2.224 3.85-.388 2.051.09 4.172 1.205 5.911 1.115 1.74 2.716 2.916 4.624 3.374 1.968.474 4.081.03 5.729-1.153 3.376-2.429 4.286-7.304 2.187-10.884C26.864 2.05 25.264.756 23.35.226c-1.913-.528-4.113-.112-5.82 1.036a7.744 7.744 0 0 0-3.319 5.116 8.32 8.32 0 0 0 .176 3.505c.207.78.508 1.589.988 2.238.114.15.254.278.395.404.02.01.037.01.057 0-.047.017-.064-.026-.032.022.098.135.16-.273.086-.373-.064-.088.052.14 0 0-.017-.045-.037-.086-.057-.128-.047-.108-.098-.213-.143-.321-.123-.28-.259-.561-.394-.837a7.761 7.761 0 0 1-.76-2.427c-.266-2.008.57-4.023 1.973-5.424a6.93 6.93 0 0 1 5.164-2.05c1.827.047 3.553.862 4.87 2.138 1.317 1.276 2.13 3.128 2.084 5.003-.047 1.875-.876 3.514-2.121 4.765-1.297 1.301-3.058 2.078-4.883 2.113-1.881.038-3.694-.737-5.025-2.083-1.186-1.2-2.045-2.827-2.19-4.537-.153-1.805.616-3.632 1.578-5.113.121-.186.254-.361.39-.534.007-.01 0-.068-.01-.056v-.005Z" fill="#000"/><path d="M20.382 5.52c-.016.367-.029.732-.044 1.1l-2.3.3c.037.327.024.661-.038.982l2.151-.223a3.874 3.874 0 0 1-1.625 1.64c.298.38.7.815 1.226 1.231A7.562 7.562 0 0 0 22.904 12c.36-.36.725-.715 1.096-1.064a7.056 7.056 0 0 1-2.649-.75 6.86 6.86 0 0 1-1.177-.77 6.186 6.186 0 0 0 1.032-1.845l1.88-.224c.017-.357.061-.715.131-1.067-.617.088-1.233.175-1.85.265.026-.383.049-.769.075-1.152.73-.097 1.462-.198 2.193-.295.067-.365.137-.73.204-1.098a150.505 150.505 0 0 0-5.73.915l-.075.946c.782-.113 1.565-.226 2.348-.342Z" fill="#000"/><path d="M26.924 8.208c-.406.738-.62 1.55-1.101 2.257a6.25 6.25 0 0 1-1.888 1.79c-1.472.897-3.297 1.06-4.881.356-1.483-.658-2.667-1.934-3.295-3.405-.274-.644-.436-1.351-.366-2.053.079-.779.385-1.55.798-2.215.998-1.62 2.638-2.786 4.622-2.767.034 0 .034-.109-.002-.114-1.044-.147-2.12-.02-3.041.506-.683.389-1.234.944-1.673 1.583-.973 1.413-1.347 3.11-.926 4.777a7.176 7.176 0 0 0 3.015 4.183 5.526 5.526 0 0 0 5.318.39c.964-.444 1.785-1.166 2.397-2.023.654-.918 1.172-2.068 1.09-3.21 0-.034-.028-.12-.065-.057l-.002.002Z" fill="#ECD9D6"/><path d="M21.316 15.182c-.173.515-.157 1.065-.182 1.599-.026.534-.042 1.1-.061 1.65-.035 1.08-.026 2.164-.039 3.245-.012 1.08-.022 2.12-.032 3.18a37.55 37.55 0 0 0 .013 1.587c.016.407-.051 1.275.42 1.538a.184.184 0 0 0 .166-.002c.265-.11.294-.537.326-.744.048-.31.058-.63.064-.943.013-.595.01-1.193.003-1.787-.012-1.148-.025-2.295-.035-3.443-.01-1.147-.022-2.295-.06-3.442-.02-.584-.033-1.171-.093-1.756-.023-.225-.013-.565-.17-.767-.131-.173-.26-.096-.317.085h-.003Z" fill="#000"/><path d="M14.364 4.39C9.677 4.178 4.984 4.087.292 4c-.234-.005-.244.54-.244.668C.033 9.593-.018 14.515.006 19.44l.037 7.353c.005.903-.007 1.788.164 2.675.156.818.379 1.617.718 2.373.8 1.788 2.243 3.203 4.076 3.806.808.267 1.617.36 2.463.353 1.197-.013 2.397-.028 3.594-.036l7.127-.045c1.197-.008 2.397-.013 3.594-.018.543 0 1.09.03 1.625-.075.425-.084.843-.21 1.251-.364a6.685 6.685 0 0 0 3.687-3.379c.843-1.77.836-3.89.208-5.731a6.913 6.913 0 0 0-.279-.701c-.032-.068-.09-.182-.18-.18l-7.02.117c-2.341.038-4.682.012-7.02.05-1.344.02-2.685.043-4.03.063-.18.003-.226.373-.236.494-.022.255.01.527.137.75.857 1.49 1.153 3.25.452 4.866-.702 1.617-2.214 2.426-3.873 2.512a14.94 14.94 0 0 1-1.06.007c-.184-.005-.394 0-.572-.043-.232-.06-.291.868.022.949.532.136 1.053.322 1.64.322.925 0 1.876-.275 2.636-.827 1.6-1.157 2.204-3.313 2.079-5.247a8.382 8.382 0 0 0-1.092-3.692l-.1 1.243c4.679-.063 9.358-.189 14.037-.25l4.029-.05-.181-.179c.618 1.352.733 2.817.122 4.199-.61 1.381-1.916 2.501-3.286 3.096a6.79 6.79 0 0 1-1.185.386c-.496.113-.975.116-1.483.116-1.117 0-2.234.008-3.35.005h-6.763c-1.139 0-2.275-.002-3.414-.008-.877-.002-1.766.046-2.634-.123-1.742-.338-3.352-1.45-4.232-3.054-.371-.676-.581-1.28-.755-2.032-.014-.06-.044-.207-.014-.06L.9 28.852a14.113 14.113 0 0 1-.093-.607c-.005-.036-.01-.187-.01-.119 0 .108.007-.098.005-.096V27.34l-.037-6.977C.742 15.713.718 11.06.603 6.413.588 5.826.576 5.241.568 4.653l-.244.668c4.686-.032 9.373-.068 14.057-.23.185-.007.176-.693-.017-.7Z" fill="#000"/><path d="M4.016 12.777c.505-.4 1.044-.798 1.595-1.148.178-.113.83-.587.854-.135.007.14-.067.309-.094.447-.038.191-.072.384-.1.578-.013.078-.025.563.165.47.749-.368 1.514-.715 2.219-1.148l-.106-.503c-.284.396-.063.956.43 1.079.342.084.691-.003.999.178.233.137.433.146.688.046.282-.111.54-.313.852-.347.373-.04.777.165 1.138.238.74.154 1.64.238 2.334-.102.014-.007.014-.064-.005-.067-.635-.062-1.268.04-1.906-.04a5.406 5.406 0 0 1-.993-.218c-.255-.082-.494-.17-.763-.095-.409.115-.808.547-1.251.309-.22-.118-.385-.265-.647-.305-.12-.018-.246-.013-.366-.035a.561.561 0 0 1-.238-.094c-.063-.044-.087-.129-.137-.071.072-.082.081-.576-.106-.503-.773.294-1.5.692-2.23 1.061l.165.47c.041-.268.436-1.962-.317-1.835-.183.03-.39.198-.54.291-.201.127-.399.262-.589.405-.413.309-.736.634-1.063 1.018-.01.011 0 .074.012.063v-.007ZM4.014 18c.215-.161.448-.275.663-.435.233-.171.458-.35.7-.505a8.01 8.01 0 0 1 1.102-.598c.068-.028.157-.088.232-.088.14 0 .197.156.24.277.112.324.03 1.227.508 1.219.27-.005.556-.176.8-.29.324-.15.638-.323.957-.484l-.136-.574c-.235.59.16 1.364.79 1.185.352-.098.638-.362.995-.442.403-.091.772.075 1.175.051.403-.023.725-.346 1.126-.403.4-.057.886.132 1.3.186.884.116 1.728.054 2.52-.42.02-.01.02-.1-.006-.1-.711.034-1.426.142-2.137.114-.71-.029-1.389-.166-2.1-.04-.309.055-.595.146-.912.104-.316-.041-.621-.17-.933-.194-.312-.023-.566.176-.823.324-.132.075-.273.15-.423.145a.509.509 0 0 1-.22-.057c-.117-.062-.092-.15-.164.033.037-.095.058-.672-.136-.574-.3.153-.606.295-.903.455-.16.086-.32.176-.477.27-.117.067-.351.318-.494.173-.092-.093-.11-.417-.141-.556-.033-.158-.054-.321-.096-.477-.05-.189-.127-.326-.324-.295-.228.037-.47.192-.673.298-.254.132-.5.277-.74.435a5.61 5.61 0 0 0-.693.525c-.23.212-.394.46-.59.709-.004.005 0 .034.006.028h.007ZM4.003 23.68c.483-.331 1.092-.523 1.636-.722a8.927 8.927 0 0 1 1.846-.453l-.07-.073c.018.05-.082.307-.092.383a1.819 1.819 0 0 0-.008.558c.06.378.29.61.672.626.478.019.988-.181 1.44-.324.212-.067 1.085-.48 1.219-.34.047.049.057.192.102.26a.357.357 0 0 0 .162.145c.172.078.37.027.543-.022a17.387 17.387 0 0 0 1.538-.507c.222-.086.439-.218.677-.167.162.035.327.075.491.102.418.07.847.017 1.266-.016a23.421 23.421 0 0 1 3.56-.024c.021 0 .019-.073 0-.078-1.194-.343-2.452-.507-3.694-.426-.46.03-1.098.14-1.495-.16-.079-.059-.146-.175-.24-.202-.116-.032-.382.076-.5.1-.314.062-.625.146-.936.227-.285.072-.578.186-.87.223-.069.009-.257.027-.296-.01-.055-.052-.06-.227-.118-.303-.14-.188-.342-.188-.554-.124-.316.098-.62.235-.933.343-.288.097-.58.183-.87.278-.29.094-.547.183-.848.078-.039-.038-.052-.019-.036.054.005-.049.01-.097.018-.146.016-.113.029-.224.026-.34a1.77 1.77 0 0 0-.094-.547c-.008-.022-.037-.076-.07-.073a7.062 7.062 0 0 0-1.87.515c-.601.262-1.103.696-1.605 1.157v.008h.003ZM9.374 26.216c.249.232 1.843 1.77 1.747 4.137-.079 1.962-1.285 3.746-3.121 4.642 5.23 0 10.462.005 15.692.005 2.588-.565 4.606-2.403 5.156-4.734.482-2.026-.31-3.717-.596-4.266-6.293.072-12.588.141-18.88.213l.002.003Z" fill="#000"/><path d="M15.893 17.333c2.385 1.913 5.215 1.7 5.985 1.614L22 15.016c-.416-.002-3.77-.085-5.98-2.953-2.401-3.12-1.31-6.75-1.21-7.063-.556.78-1.49 2.317-1.745 4.435-.08.677-.54 5.195 2.828 7.898Z" fill="#000"/></svg>