<svg width="23" height="34" fill="none" xmlns="http://www.w3.org/2000/svg"><path d="M4.074 33.647c2.432.084 4.868.018 7.302.004 1.216-.007 2.435-.007 3.65-.023.609-.006 1.217-.01 1.825-.027.304-.007.608-.023.912-.018.304.004.61.039.912.007.064-.007.05-.723-.019-.73-.301-.025-.61.012-.912.021-.301.01-.608 0-.912-.005-.608-.006-1.218 0-1.826 0-1.216 0-2.434.021-3.65.032-2.432.023-4.871-.006-7.3.115-.076.004-.07.62.015.621l.003.003Z" fill="#000"/><path d="M4.228 33.343 1.942 9.457l17.6-1.257L17.6 33.343H4.23Z" fill="#fff"/><path d="M10.254 31.935a8.078 8.078 0 0 1-2.005 1.355l10.359-.413.507-5.153c-2.15.053-4.304.106-6.454.156-.23.862-.821 2.592-2.405 4.055h-.002ZM15.043 12.342c.144 1.051-.069 2.178-.716 3.02a41.316 41.316 0 0 1 5.653.134c.08.007.169.014.233-.037.069-.052.082-.15.091-.237.183-1.913.366-3.829.547-5.742-1.703.117-3.41.167-5.116.153-.402-.002-.86-.078-1.257-.023-.484.067-.39.183-.176.588.359.672.638 1.38.74 2.14v.004ZM2.56 15.79h17.746l-1.257 11.704-15.37-.302-1.12-11.401Z" fill="#ECD9D6"/><path d="m.814 10.054-.035-3.81c.46-.023.92-.049 1.376-.071.27-.85.537-1.701.807-2.554a1.141 1.141 0 0 1 1.202-.635c4.997-.039 8.556-.06 8.828-.032.032.002.171.02.29-.06a.454.454 0 0 0 .167-.27c.375-.747.686-1.3.843-1.544a.667.667 0 0 1 .277-.26.641.641 0 0 1 .343-.053l4.052-.019c.16.016.336.064.467.2.073.075.11.155.123.193.103.256.745 2.144 1.61 4.732l.838.37c.05 1.196.1 2.389.153 3.584l-21.34.226-.001.003Z" fill="#000"/><path d="M1.63 9.411c-.069.883.027 1.708.119 2.631.073.757.148 1.513.217 2.272.14 1.534.3 3.065.452 4.6l.91 9.14c.082.832.165 1.666.25 2.498L3.7 31.8c.052.519.077 1.047.212 1.552.025.096.094.375.245.256.15-.119.15-.553.153-.715.016-.876-.105-1.747-.192-2.615-.076-.757-.151-1.513-.229-2.27a3139.01 3139.01 0 0 0-.461-4.599c-.307-3.047-.6-6.096-.917-9.14-.087-.832-.178-1.664-.263-2.499-.043-.413-.084-.83-.132-1.243-.05-.439-.071-1.001-.259-1.406-.137-.295-.22.192-.226.288l-.002.002ZM20.838 9.046c-.15.267-.166.592-.214.893-.067.407-.1.821-.142 1.232-.078.757-.153 1.516-.235 2.273-.165 1.53-.311 3.065-.465 4.598l-.916 9.14c-.085.833-.167 1.667-.252 2.5-.098.978-.25 1.97-.235 2.955.005.276.018.619.142.875.07.146.19.185.247-.007.22-.752.228-1.577.306-2.354l.226-2.272.457-4.599c.304-3.047.617-6.091.91-9.14.08-.833.155-1.667.238-2.499.098-1.012.221-2.034.157-3.049 0-.027-.125-.72-.224-.546Z" fill="#000"/><path d="M2.256 15.83c.276.091.569.07.857.07.288 0 .571.003.855.005h12.15c1.31 0 2.629.044 3.936-.032.042-.002.037-.526-.013-.528-1.157-.066-2.323-.03-3.482-.032H4.239c-.323 0-.648 0-.97.005-.322.004-.702-.035-1.024.073-.062.02-.05.416.012.436v.003ZM19.044 27.405c-.235-.092-.489-.078-.74-.085-.265-.007-.53-.011-.795-.016-.51-.01-1.022-.018-1.532-.025-1.022-.018-2.043-.034-3.065-.053l-6.073-.1c-1.152-.019-2.311-.08-3.46-.025-.04 0-.04.523.013.528 1.017.082 2.046.064 3.065.082 1.02.018 2.043.034 3.065.05 2.025.034 4.048.064 6.073.098l1.703.028c.284.004.567.009.85.011.298.003.622.046.908-.057.062-.023.05-.411-.012-.436Z" fill="#000"/><path d="M3.814 6.27c.25.02.492.079.743.092.268.016.533.02.8.02.515 0 1.027-.006 1.54-.01 1.027-.012 2.053-.023 3.082-.03 2.053-.014 4.107-.005 6.16.027.59.01 1.177.007 1.767-.014.59-.02 1.186.03 1.765-.05a.205.205 0 0 0 0-.064c-.503-.1-1.031-.091-1.541-.135a31.291 31.291 0 0 0-1.54-.105c-1.027-.034-2.053-.043-3.082-.057a162.787 162.787 0 0 0-6.16.03c-.59.016-1.18.027-1.767.057-.285.014-.571.025-.855.057-.308.034-.603.114-.91.155a.11.11 0 0 0 0 .028h-.002ZM5.676 18.742c-1.008 2.345-.508 5.044 1.095 6.873.256.292 2.166 2.395 5.179 2.192 3.376-.229 5.006-3.143 5.104-3.328 1.51-2.819.215-5.573.027-5.957-.128-.258-1.807-3.533-5.33-3.714-2.706-.14-5.081 1.62-6.075 3.934Z" fill="#fff"/><path d="M5.673 18.7c-.834 1.422-.72 3.377-.244 4.901a6.494 6.494 0 0 0 1.99 3.029c1.084.914 2.44 1.517 3.863 1.588 1.543.076 3.008-.462 4.185-1.447.63-.525 1.198-1.172 1.598-1.892.823-1.486.921-3.34.567-4.976a7.122 7.122 0 0 0-2.985-4.398c-1.33-.889-2.924-1.22-4.494-.87-1.57.349-3.026 1.389-3.917 2.76-.247.382-.405.81-.567 1.232-.02.055.023.213.016.227.15-.297.356-.549.544-.823.22-.32.457-.627.724-.91a6.717 6.717 0 0 1 1.868-1.38 5.904 5.904 0 0 1 4.468-.346c1.164.382 2.144 1.134 2.917 2.074.363.44.704.907.944 1.428.592 1.298.77 2.752.34 4.126-.262.843-.699 1.563-1.289 2.215-.834.923-1.89 1.627-3.095 1.96a6.066 6.066 0 0 1-4.413-.482c-2.34-1.222-3.815-3.791-3.374-6.447.085-.506.203-1.002.361-1.488.005-.016-.007-.078-.007-.078V18.7Z" fill="#000"/><path d="M11.646 25.864a4.681 4.681 0 1 0 0-9.362 4.681 4.681 0 0 0 0 9.362Z" fill="#000"/><path d="M7.484 23.427c.132-.272.233-.55.402-.804.192-.286.439-.542.72-.743.613-.439 1.323-.56 2.062-.498.832.068 1.677.317 2.512.144.653-.135 1.234-.535 1.639-1.06.475-.62.674-1.39.598-2.163-.002-.03-.002-.096-.032-.09-.022.005-.013.172-.013.188.025 1.287-1.07 2.496-2.323 2.693-.818.128-1.63-.108-2.443-.17-.722-.054-1.415.076-2.011.503-.597.428-1.047 1.09-1.132 1.84a.952.952 0 0 0 .02.158v.002Z" fill="#fff"/></svg>