<svg width="34" height="34" fill="none" xmlns="http://www.w3.org/2000/svg"><path d="M8.838 4.786c1.279-1.509 2.998-2.576 4.831-3.222 1.228-.433 2.538-.683 3.824-.507.97.132 1.9.504 2.78.951 1.656.841 3.203 1.98 4.327 3.497 1.666 2.252 2.283 5.179 2.324 8.017.73-.666 1.802-.784 2.754-.587 2.845.587 4.804 3.893 4.218 6.84-.588 2.948-3.458 5.14-6.359 5.063l-.375 7.099c-.01.19-.03.401-.16.531s-.332.142-.513.147l-18.317.384c-.157.003-.322.005-.46-.072-.223-.125-.305-.406-.363-.66a19.246 19.246 0 0 1-.354-6.364c.027-.231.051-.48-.07-.676-.14-.223-.419-.286-.67-.34-1.115-.244-2.2-.669-3.141-1.335C.789 21.906-.436 18.746.142 15.89c.393-1.94 1.599-3.658 3.194-4.73.816-.548 1.661-.817 2.591-1.064.99-.267.862-1.065 1.117-1.964a8.944 8.944 0 0 1 1.794-3.35v.005Z" fill="#fff"/><path d="M3.866 20.715c2.764 3.252 8.524 3.71 13.134.079-.397.578-3.787 5.336-9.131 5.203-.977-.024-4.564-.113-6.615-3.119C-.631 20.113.144 16.876.23 16.54A7.871 7.871 0 0 1 2.22 13c-.117.651-.812 4.822 1.646 7.71v.005ZM28.761 13A7.211 7.211 0 0 1 32 14.186c-.246.733-.99 2.64-2.818 3.883A6.104 6.104 0 0 1 27 19c.396-.843.812-1.878 1.157-3.1.302-1.067.488-2.05.604-2.9ZM10.66 3c.797.816 1.865 2.122 2.578 3.947 1.426 3.644.488 6.893.087 8.053-.044-.697-.315-3.627-2.88-5.76C9.178 8.182 7.836 7.726 7 7.517A7.755 7.755 0 0 1 8.331 5.01 8.34 8.34 0 0 1 10.66 3Z" fill="#ECD9D6"/><path d="M6.145 10.935c.4-1.964 1.065-3.915 2.3-5.534a10.275 10.275 0 0 1 4.007-3.162c2.449-1.104 5.234-1.157 7.67.023 1.927.934 3.475 2.571 4.593 4.454.448.754.836 1.556 1.15 2.381.33.876.572 1.788.71 2.719.094.638.119 1.288.198 1.929.005.042.03.255.105.255s.09-.216.092-.258c.122-1.467-.142-3.025-.52-4.432a15.763 15.763 0 0 0-1.25-3.178c-.958-1.84-2.277-3.499-3.972-4.624a8.874 8.874 0 0 0-7.933-.991c-1.592.565-3.126 1.52-4.293 2.807-1.74 1.922-2.86 4.68-3.002 7.27-.005.073.08.664.145.346v-.005Z" fill="#000"/><path d="M26.327 14.234c.372-.02.715-.12 1.083-.182a6.31 6.31 0 0 1 1.672-.043 4.91 4.91 0 0 1 2.834 1.304 5.984 5.984 0 0 1 1.475 2.253c.146.382.256.78.32 1.181.025.16.046.323.056.486.003.052 0 .107.005.16.008.09.008-.148 0-.046-.005.077-.005.153-.008.23-.005.108.006-.045-.005.074a7.002 7.002 0 0 1-.192 1.12 5.775 5.775 0 0 1-1.147 2.272c-1.131 1.344-2.951 1.992-4.751 2.004-1.101.007-2.245-.189-3.293-.498-.558-.165-1.1-.373-1.625-.617-.29-.133-.597-.25-.876-.404-.3-.165-.57-.368-.87-.533-.005-.003-.008.03 0 .038.456.471 1.021.9 1.567 1.28.468.325.985.605 1.508.844 1.01.462 2.058.768 3.184.83 1.908.105 3.876-.416 5.139-1.823 1.095-1.22 1.553-2.884 1.595-4.453.04-1.569-.423-3.35-1.447-4.68-.686-.89-1.654-1.584-2.796-1.871-1.141-.287-2.534-.215-3.458.44-.077.055-.064.639.035.632l-.005.002ZM11.338 24.497c-.201.01-.356.018-.551.08-.409.13-.825.231-1.245.31-1.211.223-2.45.322-3.666.077-1.538-.309-2.893-1.159-3.896-2.364a7.813 7.813 0 0 1-1.257-2.113c-.044-.107-.126-.338-.14-.377-.643-1.938-.375-4.028.64-5.787.52-.903 1.201-1.737 2.037-2.36a6.051 6.051 0 0 1 4.126-1.172c1.465.127 2.74.707 3.819 1.652.705.617 1.411 1.346 1.788 2.22.005.01.01-.04.005-.053-.38-.882-.812-1.77-1.46-2.49a6.556 6.556 0 0 0-3.27-1.943c-2.757-.688-5.438.7-6.948 3.007-1.322 2.019-1.598 4.58-1.064 6.912.513 2.247 1.994 4.312 4.104 5.28 1.315.606 2.813.754 4.232.516a8.787 8.787 0 0 0 1.607-.435c.329-.121.71-.243.974-.48.06-.054.121-.11.18-.166.033-.032.04-.316-.018-.314h.003Z" fill="#000"/><path d="M6.122 26.105c-.187.573-.108 1.198-.091 1.776.016.577.041 1.145.066 1.718.05 1.182.05 2.367.154 3.549.012.128.017.857.411.852.395-.005.337-.774.333-.861-.034-1.192-.17-2.353-.258-3.55-.041-.572-.083-1.145-.133-1.715-.05-.57-.02-1.212-.287-1.771-.062-.126-.145-.149-.195.002ZM8.358 31.325c.274.08.552.065.834.078.312.014.623.02.937.023.554.004 1.108.006 1.662.008l3.428.006c2.303.004 4.607-.002 6.91-.004 1.3 0 2.596-.04 3.894-.113.055-.002.05-.347-.008-.349-2.287-.128-4.571-.113-6.86-.115-2.304 0-4.607 0-6.91.004-.642 0-1.282.002-1.924.009-.311.002-.623 0-.934.014-.343.017-.707-.012-1.037.086-.06.019-.052.334.008.353Z" fill="#000"/><path d="M28 29.06 7 29v4c6.988-.019 13.98-.038 20.968-.059l.032-3.88Z" fill="#000"/><path d="M11.242 28.166c-.177.381-.142.79-.165 1.176-.018.341-.036.684-.047 1.025-.041.797-.083 1.599.194 2.392l.57-.403c-.017-.08-.029-.16-.064-.24-.012-.022-.13-.243-.082-.13-.036-.09-.23-.237-.312-.06-.036.064-.024.055.047-.022-.047.026-.083.053-.094.084-.071.08-.077.166-.095.248-.053.21-.123.512.165.702.289.19.4-.11.436-.188.13-.326.147-.664.182-1.01.053-.478 0-.688-.023-1.204-.036-.744.064-1.52-.218-2.257-.065-.174-.33-.462-.489-.117l-.005.005ZM15.242 28.166c-.177.381-.142.79-.165 1.176-.018.341-.036.684-.047 1.025-.041.797-.083 1.599.194 2.392l.57-.403c-.017-.08-.029-.16-.064-.24-.012-.022-.13-.243-.082-.13-.036-.09-.23-.237-.312-.06-.036.064-.024.055.047-.022-.047.026-.083.053-.094.084-.071.08-.077.166-.095.248-.053.21-.123.512.165.702.289.19.4-.11.436-.188.13-.326.147-.664.182-1.01.053-.478 0-.688-.023-1.204-.036-.744.064-1.52-.218-2.257-.065-.174-.33-.462-.489-.117l-.005.005ZM19.241 28.166c-.176.381-.14.79-.164 1.176-.018.341-.036.684-.047 1.025-.042.797-.083 1.599.194 2.392l.57-.403c-.017-.08-.029-.16-.064-.24-.012-.022-.13-.243-.082-.13-.036-.09-.23-.237-.312-.06-.036.064-.024.055.047-.022-.047.026-.083.053-.094.084-.071.08-.077.166-.095.248-.052.21-.123.512.165.702.289.19.4-.11.436-.188.13-.326.147-.664.182-1.01.053-.478 0-.688-.023-1.204-.036-.744.064-1.52-.218-2.257-.065-.174-.33-.462-.489-.117l-.006.005ZM23.241 28.166c-.176.381-.14.79-.164 1.176-.018.341-.036.684-.047 1.025-.042.797-.083 1.599.194 2.392l.57-.403c-.017-.08-.029-.16-.064-.24-.012-.022-.13-.243-.082-.13-.036-.09-.23-.237-.312-.06-.036.064-.024.055.047-.022-.047.026-.083.053-.094.084-.071.08-.077.166-.095.248-.052.21-.123.512.165.702.289.19.4-.11.436-.188.13-.326.147-.664.182-1.01.053-.478 0-.688-.023-1.204-.036-.744.064-1.52-.218-2.257-.065-.174-.33-.462-.489-.117l-.006.005Z" fill="#fff"/><path d="M6.003 10.207s.875-2.805 1.153-3.17C7.433 6.673 12.563 8.938 13 15c0 0-1.153-4.092-7-4.793h.003ZM7.113 28s1.843-.341 5.887-5c0 0-4.238 2.277-6 1.652L7.11 28h.003ZM27.226 13A26.274 26.274 0 0 1 27 19c.395-.48 1.02-1.366 1.472-2.717.383-1.145.496-2.178.528-2.85-.591-.144-1.183-.29-1.774-.433ZM15.005 21.986c.185.064.4-.108.538-.2.189-.126.364-.264.53-.411.34-.301.625-.63.897-.975l-.064-.196c.01.405.21.718.605.954.202.12.421.23.644.323.249.104.555.22.834.228.019 0 .01-.08 0-.087-.353-.346-.808-.605-1.266-.843-.246-.128-.708-.353-.729-.63 0-.009-.034-.183-.06-.143a5.843 5.843 0 0 1-.874.985c-.16.148-.328.292-.5.431-.208.168-.429.317-.557.537-.002.005-.006.024 0 .027h.002Z" fill="#000"/></svg>