<svg width="34" height="30" fill="none" xmlns="http://www.w3.org/2000/svg"><path d="M2.037 11.492c-.133-1.943.078-3.95.92-5.697.841-1.748 2.37-3.207 4.223-3.645 1.31-.31 2.691-.103 3.979.295a13.953 13.953 0 0 1 5.627 3.375c.439.433.862.905 1.406 1.185.788.408 1.717.364 2.6.33 2.74-.109 5.685.023 7.897 1.685.14.106.288.235.308.412.016.131-.042.258-.103.375-.4.787-.893 1.527-1.47 2.192-.308.357-.65.713-.767 1.174-.2.796.333 1.568.786 2.25.486.727.918 1.519 1.064 2.386.146.868-.03 1.833-.628 2.466-.598.633-1.66.824-2.347.29.444.834.34 1.936-.247 2.668-.588.732-1.627 1.05-2.511.767.04.962-.192 1.968-.806 2.7-.614.73-1.654 1.12-2.54.795.28.83-.102 1.841-.855 2.263-1.137.633-2.525-.088-3.574-.864-1.885-1.397-3.593-3.025-5.294-4.65-1.474-1.407-2.959-2.845-4.107-4.554a11.642 11.642 0 0 1-1.359-2.707c-.285-.824-1.008-1.335-1.4-2.127-.512-1.038-.728-2.213-.807-3.366l.005.002Z" fill="#fff"/><path d="M23.47 21.303a7.737 7.737 0 0 0 2.53-.478c-.05 1.465-.705 1.876-.898 1.98-1.206.646-3.784-.325-6.102-2.805a7.906 7.906 0 0 0 4.47 1.303ZM25.56 17.925a8.2 8.2 0 0 0 2.44-.297c-.009.388-.054 1.689-.847 2.172-1.067.648-3.313-.28-5.153-2.8a8.333 8.333 0 0 0 3.563.925h-.002ZM20.528 24.58a6.93 6.93 0 0 0 2.47-.497c.04 1.157-.524 2.219-1.42 2.68-1.126.581-2.196-.082-2.296-.148C18.19 25.41 17.096 24.205 16 23c.677.517 2.308 1.606 4.528 1.58Z" fill="#ECD9D6"/><path d="M16.647 29.404c.87.856 2.154.763 2.854-.104.6-.742.675-1.932.137-2.845-.018.148-.183 1.39-.91 1.738-.803.383-2.184-.375-2.754-2.193L15 27.547c.55.618 1.097 1.238 1.645 1.857h.002ZM3.618 8.631c.097 3.397 2.622 5.498 3.036 5.83L16 22.873 12.776 26l-8.928-8.296C.151 14.267.205 12.24.08 11.32c-.417-3.045.785-6.944 3.98-8.98C5.995 1.108 7.979.988 8.959 1c-3.31 1.351-5.43 4.417-5.337 7.631h-.003Z" fill="#ECD9D6"/><path d="M3.992 17.502a3.902 3.902 0 0 0-.413-.49 16.252 16.252 0 0 1-.669-.7 10.343 10.343 0 0 1-1.492-2.16 8.205 8.205 0 0 1-.48-6.434c.718-2.081 2.179-3.865 4.165-4.811 1.761-.84 3.835-.992 5.715-.509 1.11.286 2.19.75 3.16 1.367.516.329 1.01.703 1.463 1.118.224.207.44.423.646.647.222.24.4.477.682.645.305.181.238-.692.186-.801-.271-.597-.733-1.053-1.205-1.498a11.46 11.46 0 0 0-1.326-1.078c-.909-.629-1.92-1.133-2.984-1.423C9.445.832 7.288.846 5.359 1.63.71 3.53-1.1 9.47.664 13.986a9.24 9.24 0 0 0 1.773 2.844c.274.302.565.588.884.842.204.163.343.256.579.322.224.064.162-.397.09-.492h.002ZM23 11.024c.34.428.715.836 1.044 1.273.348.46.65.946 1.015 1.395a99.681 99.681 0 0 0 2.103 2.484c.35.403.726.792 1.058 1.21.194.246.263.598.248.905-.032.671-.54 1.296-1.146 1.527-.792.305-1.766.032-2.344-.572-.113-.12-.194.032-.223.14-.04.153-.03.38.072.51.54.698 1.396 1.234 2.3 1.076.83-.146 1.43-.803 1.695-1.593.295-.89.26-2.19-.381-2.929-.806-.927-1.688-1.8-2.534-2.69-.424-.446-.861-.938-1.355-1.305-.566-.419-1.035-.964-1.543-1.454-.007-.006-.009.014-.005.019l-.004.004Z" fill="#000"/><path d="M12.778 11.168c-1.285.185-3.46.087-3.747-.783-.2-.603.52-1.552 3.804-4.018C18.21 2.327 20.9.31 23.97.062c1.347-.108 5.136-.382 7.768 2.417 2.476 2.634 2.279 6.243 2.244 6.9-.296 5.418-4.897 8.347-5.345 8.621a71.274 71.274 0 0 0-3.75-4.414 70.22 70.22 0 0 0-4.075-4.073 6.51 6.51 0 0 0 3.812-.104c1.737-.586 2.751-1.744 3.135-2.227a12.795 12.795 0 0 1-3.718 1.502c-2.52.579-4.642.247-5.859-.048a17.427 17.427 0 0 1-2.733 1.598c-.952.447-1.684.79-2.666.93l-.005.004ZM19.007 26.113c.14.384.38.57.757.717.299.116.622.174.944.17.69-.01 1.32-.333 1.736-.885.891-1.184.599-3.03-.517-3.951-.144-.12-.223.249-.23.319-.019.183.005.416.148.546.523.468 1.23.692 1.922.738.627.042 1.281-.282 1.68-.756.471-.561.608-1.376.534-2.085a3.455 3.455 0 0 0-.295-1.12c-.12-.254-.392-.87-.74-.8-.248.048-.163.623-.102.78.183.474.622.89.652 1.395.028.459-.207.87-.585 1.155-.406.307-.9.44-1.4.486-.589.056-1.153-.27-1.584-.654l-.082.866c.395.324.724.817.745 1.343.021.526-.257 1.022-.645 1.345a2.442 2.442 0 0 1-1.443.55 2.24 2.24 0 0 1-.822-.126c-.234-.084-.41-.252-.657-.133-.03.014-.025.086-.016.11v-.01Z" fill="#000"/><path d="m25.886 20.533.046-.05a.377.377 0 0 0-.025-.533l-3.504-3.187a.377.377 0 0 0-.532.025l-.047.051a.377.377 0 0 0 .026.533l3.503 3.186c.154.14.392.13.532-.025ZM22.888 23.6l.047-.051a.377.377 0 0 0-.025-.533l-3.504-3.186a.377.377 0 0 0-.532.025l-.047.05a.377.377 0 0 0 .025.533l3.504 3.187c.154.14.392.129.532-.025ZM19.742 26.839l.046-.051a.377.377 0 0 0-.025-.533L16.26 23.07a.377.377 0 0 0-.533.025l-.046.05a.377.377 0 0 0 .025.533l3.503 3.187c.154.14.393.129.533-.025Z" fill="#000"/><path d="M14.014 27.032c.182.477.652.845.996 1.187.345.342.68.66 1.029.979.56.512 1.275.85 2.02.796 1.535-.109 2.222-1.915 1.835-3.388a2.8 2.8 0 0 0-.556-1.106c-.207-.241-.605-.65-.928-.444-.126.081-.08.388-.014.495.212.35.6.535.851.85.224.28.39.628.396 1.006a1.728 1.728 0 0 1-1.264 1.667c-.728.185-1.48-.071-2.07-.54-.377-.3-.729-.642-1.101-.952-.2-.167-.405-.327-.612-.487-.154-.119-.354-.334-.55-.271-.064.02-.048.155-.03.205l-.002.003Z" fill="#000"/><path d="M17.7 22.77c-.491-.623-1.513-.75-2.264-.15-.034.032-1.316 1.301-1.348 1.333l-.268.265-.016-.009-1.702 1.634 2.267-2.782c.289-.384.58-.767.867-1.15.724-.859.534-2.125-.238-2.662-.651-.456-1.643-.335-2.256.367-.502.467-1.001.934-1.503 1.404l-2.27 2.297 2.043-2.513.03-.033c.018-.023.038-.046.057-.072h.004l1.326-1.483c.72-.934.463-2.26-.384-2.796-.73-.465-1.798-.277-2.404.523-.422.441-.844.883-1.264 1.325l-.004-.007-2.136 2.097c.63-.788 1.262-1.576 1.89-2.364 0-.003-.004-.005-.006-.008l1.114-1.364c.509-.572.583-1.395.213-1.976-.465-.73-1.4-.709-1.888-.57a1.888 1.888 0 0 0-.858.547L3.54 17.747c-.13.137-.535.605-.54 1.279-.005.867.66 1.58 1.396 1.815.604.195 1.153-.007 1.37-.102-.533.843-.428 1.95.235 2.654.62.656 1.604.828 2.424.416a2.702 2.702 0 0 0-.105 1.428c.048.223.277 1.327 1.224 1.664.706.251 1.548-.019 2.104-.679-.413.73-.347 1.62.134 2.188.608.715 1.797.818 2.628.1 1.124-1.314 2.245-2.627 3.369-3.938.324-.602.288-1.32-.082-1.792l.002-.01Z" fill="#000"/><path d="M4.032 18.99c.386-.72.846-1.401 1.327-2.028.515-.67 1.056-1.33 1.636-1.918.008-.008.006-.05-.004-.043a8.041 8.041 0 0 0-1.66 1.621c-.52.686-.946 1.44-1.326 2.25-.014.03.002.164.027.119ZM7.007 21c.255-.252.45-.593.661-.897.236-.34.476-.677.724-1.002.531-.692 1.064-1.38 1.604-2.06.006-.006.006-.049-.005-.04a9.481 9.481 0 0 0-1.634 1.721c-.483.652-1.045 1.412-1.357 2.248 0 .004 0 .036.007.03ZM10.01 23.995c.224-.314.467-.614.699-.92.255-.342.506-.686.767-1.02.512-.664.99-1.365 1.52-2.004.008-.01.004-.06-.007-.05-.56.53-1.12 1.053-1.595 1.7-.245.333-.49.673-.712 1.032-.247.399-.46.81-.68 1.23-.005.007 0 .047.008.035v-.003ZM11.011 9c2.207-1.435 4.367-2.937 6.55-4.412 2.02-1.364 4.133-2.684 6.573-3.042a9.353 9.353 0 0 1 1.917-.064c.643.038 1.298.097 1.935.312.016.005.021-.083 0-.093-.517-.262-1.081-.49-1.65-.609-.568-.119-1.146-.105-1.713-.057-1.172.1-2.305.444-3.376.931-2.329 1.058-4.367 2.715-6.438 4.205-1.28.921-2.548 1.86-3.807 2.81-.005.002 0 .021.002.019h.007ZM32.492 7.046c.349 1.452.312 2.915-.25 4.315-.249.621-.582 1.207-.95 1.772-.4.613-.809 1.216-1.286 1.78-.014.017-.002.103.02.084.561-.471 1.097-.961 1.522-1.547a7.66 7.66 0 0 0 1.043-2.033c.467-1.386.648-3.073-.079-4.408-.017-.03-.022.028-.02.037ZM12.013 25.996c.153-.155.317-.302.47-.455.153-.153.325-.312.485-.47.343-.347.658-.72 1.029-1.045.006-.006.002-.03-.004-.026-.36.278-.74.529-1.063.843-.167.164-.32.34-.472.518-.166.194-.309.398-.456.604-.006.007 0 .045.01.032v-.001Z" fill="#fff"/></svg>