<svg xmlns="http://www.w3.org/2000/svg" width="35" height="25" fill="none"><path d="M11.536 6.072c1.655-1.99 3.805-2.448 4.392-2.554a6.54 6.54 0 0 0-.04-1.757c-.317-.187-.714-.11-1.08-.108-.368 0-.81-.158-.86-.522-.037-.26.165-.506.404-.61.24-.103.512-.101.774-.094 1.08.022 2.157.045 3.236.07.086 0 .3-.034.481.09.228.156.334.5.267.707-.12.37-.883.55-1.902.406a7.45 7.45 0 0 0-.009 1.863c.497.027 2.924.215 4.828 2.263 1.935 2.082 1.913 4.566 1.899 5.051 1.98-.038 3.963-.077 5.943-.117.669-.052 1.766-.027 2.532.68.09.083.167.166.234.264.797 1.13.716 2.838.69 3.296-.1 1.617.232.517.442 5.21.05 1.129.097 2.64.085 4.439l-8.126-2.041c-.319.144-.644.28-.976.408-5.87 2.267-11.959 1.159-16.712-.562a71.794 71.794 0 0 1-7.472 2.043c.093-2.215.107-4.086.098-5.505-.03-4.592-.323-6.713.995-7.697.675-.504 1.529-.526 2.17-.459l5.998-.169c.013-.614.133-2.694 1.714-4.593l-.005-.002Z" fill="#fff"/><path d="M3.441 17.31c.066.788.323 3.934 1.694 4.175.933.165 2.154-1.054 2.958-2.906.707.617 4.55 3.843 10.087 3.347 4.073-.366 6.77-2.538 7.693-3.36a3.72 3.72 0 0 0 .802 1.95c.765.938 2.188 1.69 3.181 1.3 1.804-.712 1.369-4.87 1.235-6.138-.149-1.425-.37-3.304-1.727-4.182-.85-.551-1.795-.472-2.123-.465-2.497.06-9.955.015-20.123-.032-.466-.068-1.078-.075-1.676.2-2.323 1.074-2.064 5.335-2 6.111Z" fill="#ECD9D6"/><path d="M5.3 9.007c.518.54 1.035 1.08 1.552 1.617l-2.926.095L5.3 9.005v.002ZM27.928 9.007c.517.54 1.034 1.08 1.551 1.617l-2.926.095 1.375-1.714v.002Z" fill="#fff"/><path d="M.568 24.735c1.278-.298 2.552-.619 3.825-.933l1.913-.474.928-.23.438-.109c.163-.04.4-.146.567-.12.135.023.302.143.431.195.167.067.334.137.506.2.368.139.74.263 1.115.38.879.273 1.77.497 2.676.657 4.21.754 8.592.346 12.56-1.26.113-.045.187-.079.311-.056.183.031.364.088.542.133.361.09.723.18 1.084.273l2.114.53L33.858 25c.127.032.19-.655-.017-.707-2.53-.634-5.058-1.262-7.585-1.903-.142-.037-.29-.086-.434-.111-.133-.025-.162-.005-.286.043a23.903 23.903 0 0 1-1.818.634 24.23 24.23 0 0 1-3.046.712 22.773 22.773 0 0 1-7.016.09c-1.725-.25-3.405-.7-5.047-1.283-.174-.06-.334-.137-.512-.103-.366.065-.732.18-1.093.27l-2.132.529c-1.44.357-2.881.709-4.315 1.084-.145.038-.1.506.011.48ZM7.975 11.09l9.061 9.542 9.344-9.543H8.148" fill="#000"/><path d="M5.877 21.856c1.247-1.22 1.868-2.656 2.204-3.773l.122 4.32-5.814 1.64c-.127.037 1.874-.609 3.488-2.187ZM27.903 21.454a10.154 10.154 0 0 1-2.295-4.117l.09 4.989c1.938.546 3.875 1.095 5.815 1.641a10.148 10.148 0 0 1-3.61-2.513ZM27.756 6.53c-.005.104-.027.206-.03.31 0 .088 0 .176.003.264 0 .192.007.381.011.573.01.391.014.784.05 1.175.007.065.05.212.14.187.09-.025.1-.194.1-.266.006-.375-.019-.752-.037-1.125-.009-.183-.018-.368-.03-.55-.004-.089-.008-.177-.015-.265-.007-.104-.036-.203-.05-.307-.004-.036-.025-.12-.074-.118-.05.003-.068.086-.07.122h.002Z" fill="#000"/><path d="M27.976 3.782c.36-.031.714-.09 1.064-.171a.666.666 0 0 0 .253-.1c.12-.088.171-.241.194-.39.03-.2.016-.4.002-.599a54.939 54.939 0 0 0-.14-1.614l-.526-.02c-.305-.01-.605-.019-.903-.025.097.25.19.555.241.91a4.362 4.362 0 0 1-.187 2.01h.002Z" fill="#ECD9D6"/><path d="M25.445.836c-.118.273-.082.634-.084.928-.002.325 0 .648.016.973a11.5 11.5 0 0 0 .2 1.759c.11.54.263 1.025.628 1.443.65.738 1.635 1.117 2.491.46.501-.383.808-.919.897-1.537.074-.533.06-1.087.045-1.624A53.834 53.834 0 0 0 29.509.98c-.005-.074-.02-.287-.136-.284-.115.002-.126.223-.12.29.08 1.096.148 2.218.089 3.316-.027.51-.133.85-.476 1.235-.667.747-1.699.736-2.405.05a1.923 1.923 0 0 1-.59-1.066c-.122-.56-.162-1.14-.203-1.712a19.33 19.33 0 0 1-.05-.955c-.006-.318.037-.675-.054-.987-.018-.063-.079-.113-.115-.03l-.005-.001Z" fill="#000"/><path d="M25.47 1.016c.302.097.67.057.984.052.339-.004.675-.011 1.014-.016a134.41 134.41 0 0 0 1.477-.025c.156-.004.33.016.474-.04.061-.025.052-.267-.007-.29-.14-.049-.298-.026-.445-.026-.164 0-.327 0-.492.004L27.461.69l-.984.013c-.33.005-.707-.03-1.014.082-.063.022-.059.21.007.23v.002ZM25.748 3.71c.422-.488 1.154-.664 1.766-.456.142.047.28.115.422.158a1.43 1.43 0 0 0 1.474-.438c.023.63-.018 1.26-.117 1.88-.052.315-.126.644-.341.88-.165.18-.397.286-.632.363a3.73 3.73 0 0 1-1.09.183 1.17 1.17 0 0 1-.416-.055c-.296-.11-.47-.41-.624-.686-.09-.167-.183-.334-.262-.506a4.29 4.29 0 0 1-.257-.702c-.072-.257-.11-.404.075-.616l.002-.005Z" fill="#000"/><path d="M5.495 3.782c.359-.031.713-.09 1.063-.171a.667.667 0 0 0 .253-.1c.12-.088.172-.241.195-.39.029-.2.015-.4.002-.599a54.939 54.939 0 0 0-.14-1.614l-.526-.02c-.305-.01-.605-.019-.904-.025.098.25.19.555.242.91a4.363 4.363 0 0 1-.187 2.01h.002Z" fill="#ECD9D6"/><path d="M2.965.836c-.117.273-.081.634-.084.928-.002.325 0 .648.016.973.027.59.084 1.18.201 1.759.109.54.262 1.025.628 1.443.65.738 1.635 1.117 2.49.46.502-.383.809-.919.897-1.537.075-.533.061-1.087.045-1.624A53.817 53.817 0 0 0 7.03.98C7.025.906 7.01.693 6.894.696c-.115.002-.126.223-.12.29.08 1.096.147 2.218.088 3.316-.027.51-.133.85-.476 1.235-.666.747-1.698.736-2.405.05a1.923 1.923 0 0 1-.59-1.066c-.121-.56-.162-1.14-.202-1.712a19.317 19.317 0 0 1-.05-.955c-.007-.318.036-.675-.054-.987-.018-.063-.08-.113-.115-.03L2.965.837Z" fill="#000"/><path d="M2.99 1.016c.302.097.67.057.984.052.338-.004.675-.011 1.014-.016a134.385 134.385 0 0 0 1.476-.025c.156-.004.33.016.475-.04.06-.025.052-.267-.007-.29-.14-.049-.298-.026-.445-.026-.165 0-.327 0-.492.004L4.98.69l-.985.013c-.33.005-.706-.03-1.014.082-.063.022-.058.21.007.23v.002ZM3.266 3.71c.423-.488 1.154-.664 1.766-.456.142.047.28.115.422.158a1.431 1.431 0 0 0 1.475-.438c.023.63-.018 1.26-.117 1.88-.052.315-.127.644-.341.88-.165.18-.398.286-.633.363a3.73 3.73 0 0 1-1.09.183 1.17 1.17 0 0 1-.416-.055c-.296-.11-.47-.41-.623-.686-.09-.167-.183-.334-.262-.506a4.285 4.285 0 0 1-.257-.702c-.073-.257-.111-.404.074-.616l.002-.005Z" fill="#000"/><path d="M27.725 10.613c.106-.052.232-.045.35-.036l1.246.081c.068.005.142.007.201-.032-.167-.216-.34-.433-.558-.6-.135-.106-.287-.19-.42-.3a2.675 2.675 0 0 1-.296-.303c-.063-.072-.126-.172-.203-.23-.056-.046-.052-.073-.088-.007-.054.097.036.34.04.45.012.342-.08.688-.272.975v.002Z" fill="#ECD9D6"/><path d="M26.358 10.766c.16-.006.289-.167.395-.27.138-.134.267-.274.395-.414.278-.302.553-.605.831-.91h-.088c.551.549 1.104 1.093 1.658 1.64a.061.061 0 0 0 .045.024l.043-.013c.072-.023.065-.145.047-.201.032.104-.034-.104-.023-.072a.252.252 0 0 0-.054-.088c-.074-.084-.158-.163-.24-.242l-.457-.452-.938-.923c-.031-.032-.058-.032-.088 0l-.806.9c-.268.301-.594.61-.725.994 0 .005-.004.027.007.027h-.002ZM5.127 6.53c-.005.104-.027.206-.03.31 0 .088 0 .176.003.264 0 .192.007.381.011.573.01.391.014.784.05 1.175.007.065.05.212.14.187.09-.025.1-.194.1-.266.006-.375-.019-.752-.037-1.125-.009-.183-.018-.368-.03-.55a10.347 10.347 0 0 0-.015-.265c-.007-.104-.036-.203-.05-.307-.004-.036-.025-.12-.074-.118-.05.003-.068.086-.07.122h.002Z" fill="#000"/><path d="M5.096 10.613c.106-.052.232-.045.35-.036l1.246.081c.068.005.142.007.201-.032-.167-.216-.34-.433-.558-.6-.135-.106-.286-.19-.42-.3a2.674 2.674 0 0 1-.295-.303c-.064-.072-.127-.172-.204-.23-.056-.046-.052-.073-.088-.007-.054.097.036.34.04.45.012.342-.08.688-.272.975v.002Z" fill="#ECD9D6"/><path d="M3.73 10.766c.16-.006.29-.167.395-.27a9.77 9.77 0 0 0 .395-.414c.278-.302.554-.605.831-.91h-.088c.551.549 1.104 1.093 1.658 1.64a.061.061 0 0 0 .045.024l.043-.013c.072-.023.065-.145.047-.201.032.104-.034-.104-.022-.072a.251.251 0 0 0-.055-.088c-.074-.084-.158-.163-.239-.242l-.458-.452-.937-.923c-.032-.032-.06-.032-.089 0l-.806.9c-.268.301-.594.61-.725.994 0 .005-.004.027.007.027H3.73Z" fill="#000"/><path d="M19.04 8.795c-.263.89-.832 1.51-1.288 1.895l6.14-.125c-.02-.636-.167-2.712-1.757-4.55-2.052-2.373-4.904-2.5-5.383-2.513 1.901 1.414 2.805 3.53 2.287 5.293Z" fill="#ECD9D6"/><path d="M.724 24.511c.09-2.127.167-4.252.201-6.381.018-1.07.036-2.14.05-3.211.011-.883-.05-1.867.431-2.649.203-.33.477-.607.827-.777.42-.203.914-.212 1.372-.23a84.645 84.645 0 0 1 3.216-.07c2.145-.007 4.29-.011 6.435-.004l12.871.04c1.073.005 2.146.007 3.218.012.513 0 1.03-.02 1.542.009.427.022.874.108 1.213.383.497.402.707 1.064.81 1.67.114.658.159 1.331.213 1.995.14 1.728.232 3.457.316 5.19.034.72.063 1.442.09 2.163.018.53-.011 1.09.082 1.614.031.18.038.425.153.57l-.1-.342v.052c.003.106.037.395.193.393.156-.002.176-.303.174-.402v-.052l-.082.346c.113-.158.109-.42.129-.612.027-.262.009-.529 0-.79-.023-.674-.05-1.347-.08-2.02a118.84 118.84 0 0 0-.344-5.3 68.614 68.614 0 0 0-.256-2.444c-.083-.676-.203-1.371-.497-1.99-.318-.668-.828-1.1-1.582-1.17-.506-.047-1.028-.013-1.536-.015H28.09c-4.46-.005-8.92-.012-13.377-.016-2.22-.002-4.442-.01-6.661-.025-1.111-.009-2.22-.02-3.331-.034-.948-.011-2.06-.298-2.904.285-.725.5-1.059 1.375-1.197 2.21-.171 1.048-.117 2.145-.128 3.207-.025 2.215-.07 4.43-.036 6.645.009.562.027 1.125.036 1.69.002.225.223.37.237.062l-.005-.002ZM15.89 1.646c-.056.314-.038.644-.04.962l-.002.474c0 .176-.014.357.027.53.011.046.047.125.104.125.056 0 .088-.084.097-.129.038-.171.016-.356.011-.53a28.924 28.924 0 0 0-.011-.456c-.01-.312.005-.633-.054-.94-.007-.034-.018-.11-.061-.12-.043-.009-.063.048-.068.082l-.002.002Z" fill="#000"/><path d="M16.27 1.716c.738-.011 1.478-.022 2.217-.036.422 0 .727-.361.686-.702-.034-.276-.289-.517-.619-.542-.763.02-1.526.038-2.29.059.053.05.236.239.26.542a.883.883 0 0 1-.255.68ZM16.555 3.387l.685-.018-.016-.815c-.007-.273-.011-.544-.018-.815-.235.004-.472.009-.707.011a2.29 2.29 0 0 1 .056 1.637Z" fill="#ECD9D6"/><path d="M17.192 1.59c-.047.126-.043.284-.052.42l-.018.422a17.74 17.74 0 0 0-.013.917c0 .076.025.268.133.268.108 0 .117-.212.12-.275.004-.287 0-.576-.012-.863a12.684 12.684 0 0 0-.018-.413c-.009-.138 0-.314-.047-.45-.018-.049-.063-.105-.095-.026h.002Z" fill="#000"/><path d="M13.884 1.21a.75.75 0 0 0 .677.689c.224.016.454 0 .678-.004l.801-.007c.493-.005.985 0 1.48-.005l.738-.007c.208 0 .413.019.603-.08.623-.326.48-1.441-.217-1.58-.194-.038-.406-.008-.603-.006-.264.005-.53.007-.795.011-.49.007-.977.016-1.467.027-.285.007-.572.014-.856.018-.208.003-.409-.006-.603.082-.341.156-.513.521-.459.887.005.034.018.131.068.12.048-.01.05-.138.048-.167-.018-.262.311-.465.53-.513.167-.034.348-.018.517-.018.215 0 .43.005.642.005.794.006 1.59.009 2.384.01.312 0 .691-.067.937.175.086.086.14.171.084.287a.603.603 0 0 1-.366.302c-.154.045-.355.023-.522.025-.214 0-.43.004-.645.007-.4.004-.8.013-1.202.02-.451.007-.903.01-1.355.016-.223.002-.467.043-.68-.04-.144-.057-.309-.161-.358-.321-.034-.111-.066.024-.061.072l.002-.005ZM9.91 10.782c.098-.32.107-.655.156-.982.054-.352.138-.7.242-1.04.2-.667.515-1.302.91-1.87a7.167 7.167 0 0 1 3.222-2.557c2.708-1.072 5.842-.237 7.718 1.972a6.865 6.865 0 0 1 1.195 2.005c.144.375.252.767.32 1.165.068.397.061.793.165 1.174.025.093.084.086.108-.002.093-.36.041-.739-.009-1.1a7.462 7.462 0 0 0-1.192-3.134 7.198 7.198 0 0 0-3.434-2.723c-2.9-1.082-6.196-.11-8.066 2.35a7.439 7.439 0 0 0-1.163 2.252 6.72 6.72 0 0 0-.266 1.248c-.05.425-.093.854.042 1.25.014.038.039.035.05 0l.002-.008Z" fill="#000"/></svg>