<svg xmlns="http://www.w3.org/2000/svg" width="33" height="36" fill="none"><path d="M4.849 3.404H3.316v5.933H4.85V3.404ZM30.07 3.404h-1.532v5.933h1.533V3.404Z" fill="#fff"/><path d="m1.53 9.695 6.591-.158c.244-.296.602-.699 1.077-1.129 2.948-2.669 8.205-4.385 12.571-2.272.898.434 2.59 1.432 4.042 3.645 1.852-.76 3.982-.15 5.944-.547.076-.014.167-.045.184-.124.017-.076-.136-.12-.13-.04.464 6.424.318 13.034.338 19.475 0 .183-.003.38-.11.53-.12.164-.332.227-.53.272-.972.22-1.972.313-2.965.27-.993-.041-2.201-.12-2.755.709-1.71 2.563-4.978 3.573-8.036 3.931-1.33.156-2.704.218-3.977-.19-1.65-.528-2.948-1.782-4.185-2.994-.563-.554-1.126-1.108-1.69-1.66-.224-.219-.57-.236-.883-.24L1.172 29.1a174.507 174.507 0 0 1 .363-19.408l-.005.002Z" fill="#fff"/><path d="m12.546 33.701 19.573-18.828.014 1.86L14.44 34.119l-1.893-.416v-.002ZM8.182 29.81 28.934 9.537h2.908l.162 3.023-20.743 20.06" fill="#ECD9D6"/><path d="M25.81 20.122c.133 4.56-3.242 8.702-7.604 9.334-5.314.774-10.485-3.893-10.35-9.36.114-4.698 4.117-9.029 9.173-8.919 4.87.105 8.645 4.283 8.78 8.945Z" fill="#fff"/><path d="m21.15 15.751 1.939-1.929.327.359-2.041 1.916-.225-.346ZM10.715 26.67l1.936-1.928.327.358-2.041 1.917-.222-.346ZM21.888 16.534l2.06-1.876 1.2 1.876-2.403 1.934-.857-1.934ZM9.04 24.28l2.183-1.837.877 1.838c-.686.585-1.37 1.17-2.058 1.755L9.039 24.28Z" fill="#ECD9D6"/><path d="M10.932 21.572c.41.556 1.28 1.56 2.712 2.134 2.447.979 5.624.33 7.384-1.87 1.294-1.616 1.344-3.473 1.325-4.177.257.604.83 2.182.42 4.127-.127.602-.435 1.967-1.621 3.137-1.597 1.573-3.629 1.655-4.264 1.647-.406-.002-2.779-.064-4.512-1.998a6.122 6.122 0 0 1-1.446-3.003l.002.003Z" fill="#000"/><path d="M10.744 19.614c.337-1.733 1.273-3.342 2.786-4.3 2.266-1.437 5.37-1.172 7.365.619a6.165 6.165 0 0 1 1.852 3.108c.294 1.194.11 2.442-.427 3.552-1.122 2.313-3.564 3.703-6.13 3.376a6.409 6.409 0 0 1-3.596-1.72c-.897-.856-1.456-2.019-1.728-3.222-.01-.043-.02.038-.02.05.125 1.184.54 2.285 1.278 3.23.797 1.024 1.943 1.755 3.178 2.137 1.293.4 2.683.406 3.96-.07 1.277-.474 2.308-1.43 2.943-2.609 1.194-2.213 1.103-5.182-.286-7.288-1.595-2.416-4.724-3.342-7.391-2.24-2.1.87-3.645 2.923-3.848 5.198-.003.04.038.315.064.181v-.002Z" fill="#000"/><path d="M19.302 11.526c.94.384 1.84.793 2.667 1.392a9.106 9.106 0 0 1 1.97 1.967c1.083 1.466 1.804 3.273 1.87 5.104.137 3.703-2.162 7.44-5.72 8.656-3.274 1.117-7.075-.074-9.417-2.53-1.313-1.378-2.29-3.101-2.573-5-.268-1.78.281-3.606 1.222-5.113.94-1.506 2.263-2.676 3.798-3.48.764-.402 1.576-.729 2.42-.912.846-.184 1.684-.215 2.54-.184.194.007.383-.034.574-.043.21-.01.432.005.644.019.02 0 .02-.12-.002-.129-.213-.09-.432-.167-.645-.25-.212-.084-.425-.18-.663-.204a7.55 7.55 0 0 0-1.313-.024c-.9.063-1.798.263-2.645.573a9.804 9.804 0 0 0-4.324 3.183c-2.502 3.23-2.454 7.892-.193 11.239 2.017 2.986 5.722 4.643 9.298 4.018a8.278 8.278 0 0 0 5.288-3.323c1.105-1.533 1.714-3.412 1.836-5.288.248-3.839-1.578-8.002-5.228-9.64a4.658 4.658 0 0 0-1.413-.408c-.06-.007-.065.348.01.38v-.003Z" fill="#000"/><path d="M21.344 27.742c.138 1.03-.191 1.877-.76 2.106-.035.014-.412.16-.746-.026-.437-.244-.628-.955-.366-1.745l.036-6.685c-.513-.25-1.024-.503-1.537-.754.012-3.419.033-6.185-.003-8.339-.012-.704-.04-2 .824-2.764.513-.454 1.158-.556 1.573-.578.18 2.533.2 4.25.184 5.379-.007.448-.043 2.38.157 4.696v.009c.137 1.587.344 4.206.638 8.7v.002ZM13.952 17.998a7.067 7.067 0 0 1-1.258-1.74 2.473 2.473 0 0 1-.236-.612c-.05-.248-.039-.503-.027-.754.08-1.733.094-3.471.039-5.207 0-.055 0-.119.045-.152.026-.02.057-.022.088-.022a25.539 25.539 0 0 1 3.775.029c.133 2.024.224 4.053.27 6.082.011.53.016 1.084-.225 1.557-.18.349-.475.62-.776.874-.014.157-.012.308.005.465.27 2.566.196 5.164.525 7.723.045.36.055.707.095 1.067.041.39.084.783.039 1.172-.046.39-.184.78-.459 1.06a.789.789 0 0 1-.358.225c-.195.05-.408-.008-.587-.106a1.176 1.176 0 0 1-.506-.51c-.084-.175-.115-.37-.143-.564a8.608 8.608 0 0 1-.074-.642c-.041-.719-.024-1.65-.02-1.838-.107-5.381-.128-7.436-.104-7.599.019-.134-.005-.272-.008-.406 0-.038-.002-.08-.028-.11-.02-.02-.04.003-.07.005l-.002.003Z" fill="#fff"/><path d="M14.215 20.433c-.02-.043 1.423-1.103 1.423-1.103l.126 1.654-1.549 1.089v-1.64ZM14.213 23.19c.01-.06 1.664-1.177 1.664-1.177v.587l-1.664 1.16v-.57ZM17.895 14.959c.847-.671 1.695-1.342 2.542-2.015v1.879c-.807.637-1.614 1.272-2.42 1.91l-.122-1.774ZM17.93 17.69c.869-.647 1.738-1.292 2.604-1.939l.017.604-2.67 2.14.049-.808v.003Z" fill="#ECD9D6"/><path d="M20.373 8.616c-.196-.084-.398-.003-.599.067a2.648 2.648 0 0 0-.847.508c-.557.487-.843 1.167-.915 1.888-.203 2.015-.253 4.059-.255 6.08 0 .578.007 1.154.019 1.731.012.578 0 1.12.067 1.67.005.05.021.295.112.293.09-.003.096-.25.098-.301.017-.573-.034-1.15-.048-1.724a79.263 79.263 0 0 1 .048-5.481c.026-.59.062-1.177.098-1.766.03-.495.16-.97.434-1.387.275-.418.66-.74 1.108-.967.234-.12.494-.174.695-.34.035-.028.03-.255-.015-.274v.003Z" fill="#000"/><path d="M20.302 8.845c-.033 1.16.024 2.325.058 3.485.033 1.16.069 2.316.112 3.474.083 2.344.179 4.686.356 7.025.121 1.619.303 3.233.403 4.854.024.384.098.933-.167 1.255-.248.303-.747.39-1.1.246-.602-.243-.47-1.1-.476-1.623-.021-2.046.031-4.099.074-6.142 0-.055.015-.375-.052-.392-.074-.017-.07.177-.072.224-.062 2-.112 4-.112 6 0 .718-.105 1.527.162 2.213.153.391.468.656.896.69.386.03.737-.141.907-.495.22-.456.186-.998.167-1.487-.022-.527-.012-1.053-.043-1.58a40.184 40.184 0 0 0-.148-1.858c-.253-2.478-.375-4.97-.475-7.46-.058-1.413-.105-2.826-.165-4.24-.06-1.413-.081-2.797-.222-4.187-.024-.226-.1-.226-.105.003l.002-.005Z" fill="#000"/><path d="M17.96 20.896c-.015-.046-.017-.05-.008-.014.007.021.02.04.036.057.02.019.046.036.07.048.064.033.14.052.21.074.128.038.26.076.39.11.132.033.261.066.392.097.139.036.28.08.42.103l.01-.007a.532.532 0 0 0 .036-.287c-.005-.045-.017-.131-.055-.152-.033-.02-.083-.027-.12-.036-.155-.043-.31-.086-.465-.127l-.465-.12c-.08-.018-.16-.04-.241-.054-.082-.014-.153-.038-.215.026-.024.024-.017.115-.015.143 0 .041 0 .105.022.141l-.003-.002ZM13.386 9.633c-.036.81 0 1.626.007 2.435.007.81.036 1.575.072 2.363 0 .036.007.272.076.263.074-.012.064-.225.064-.265.008-.805.003-1.607-.021-2.411-.024-.805-.02-1.593-.086-2.385 0-.02-.014-.203-.062-.196-.053.01-.05.165-.053.198l.003-.002ZM14.389 9.633c-.036.81 0 1.626.007 2.435.007.81.036 1.575.071 2.363 0 .036.008.272.077.263.074-.012.064-.225.064-.265.008-.805.003-1.607-.021-2.411-.024-.805-.02-1.593-.086-2.385 0-.02-.014-.203-.062-.196-.053.01-.05.165-.053.198l.003-.002ZM15.347 9.633c-.036.81 0 1.626.007 2.435.007.81.036 1.575.072 2.363 0 .036.007.272.076.263.074-.012.064-.225.064-.265.007-.805.003-1.607-.021-2.411-.024-.805-.02-1.593-.086-2.385 0-.02-.014-.203-.062-.196-.053.01-.05.165-.053.198l.003-.002Z" fill="#000"/><path d="M12.393 9.566c.298.136.704.108 1.028.117.342.01.686.017 1.027.024.341.007.685.021 1.027.029.157.002.315.007.472.01.079 0 .158.011.237.013.162.008.148.024.238-.121.024-.038.02-.182-.005-.218-.085-.13-.062-.133-.205-.13-.093 0-.184.006-.277.006-.157 0-.315-.004-.472-.007-.342-.005-.685-.005-1.027-.01-.341-.004-.685-.011-1.026-.014-.318-.002-.726-.05-1.024.077-.03.012-.024.21.004.224h.003Z" fill="#000"/><path d="M12.366 9.463c-.095.748-.079 1.509-.084 2.261-.004.833-.021 1.664-.011 2.497.011.94.004 2.058.51 2.891.124.208.282.399.451.573.139.143.287.272.457.375.083.05.169.09.262.124.148.052.162.072.275-.05.033-.036.019-.131 0-.172-.199-.475-.707-.79-1.022-1.196a3.272 3.272 0 0 1-.385-.661c-.2-.442-.236-.834-.255-1.247-.086-1.795.134-3.609-.088-5.395-.022-.164-.089-.152-.108.003l-.002-.003ZM16.343 9.473c-.031 1.587.083 3.182.138 4.772.02.525.064 1.06.043 1.585-.017.38-.105.776-.289 1.113-.203.37-.549.615-.74.978-.014.029-.021.139.014.153.287.112.669-.387.8-.594a2.61 2.61 0 0 0 .382-1.046c.084-.611.024-1.241.003-1.857-.06-1.705-.072-3.438-.32-5.123-.01-.065-.031-.022-.031.019Z" fill="#000"/><path d="M13.98 18.022c-.082 1.114-.022 2.246-.008 3.363l.045 3.252.027 1.656c.007.492-.022.989 0 1.48.03.717.129 1.621.656 2.166.215.222.559.38.864.27.244-.087.387-.32.483-.547.274-.664.27-1.45.274-2.156a56.82 56.82 0 0 0-.186-4.815c-.117-1.504-.28-3.005-.432-4.507-.007-.072-.024-.408-.148-.349-.115.055-.074.537-.065.623.299 2.615.528 5.262.614 7.893.021.63.217 3.366-1.091 2.721-.523-.258-.683-.943-.68-1.473a169.5 169.5 0 0 0-.01-2.905l-.043-3.311c-.014-1.117.01-2.247-.1-3.361-.005-.046-.022-.301-.108-.299-.086.003-.088.258-.09.303l-.003-.004ZM33 .989H.854v2.764H33V.989ZM1.309 9.294c-.098.23-.1.499-.134.742-.045.328-.053.667-.07.996-.03.623-.045 1.248-.061 1.871-.036 1.242-.058 2.486-.082 3.727-.047 2.511-.105 5.023-.143 7.534-.012.771-.021 1.54-.028 2.311-.008.771-.05 1.506.028 2.242.015.129.04.56.206.606.164.045.202-.322.217-.413.105-.625.08-1.299.102-1.934.022-.635.034-1.255.048-1.886.029-1.243.05-2.487.074-3.73.048-2.572.11-5.14.136-7.712.007-.711.015-1.422.015-2.134 0-.711.033-1.466-.141-2.148-.024-.094-.105-.227-.167-.08v.008ZM31.963 9.399c-.146 1.292-.1 2.612-.098 3.908.003 1.296-.005 2.58-.01 3.872-.009 2.58.015 5.161.034 7.742l.017 2.144c.002.377.012.754.021 1.131.012.463 0 .965.196 1.397.072.157.165.124.234-.005.186-.351.143-.843.148-1.227.002-.318.01-.635.01-.953 0-.654-.01-1.31-.015-1.964-.01-1.29-.019-2.58-.026-3.87-.02-2.562-.079-5.12-.115-7.68-.021-1.451.012-2.927-.16-4.368-.007-.067-.021-.366-.114-.385-.093-.019-.112.205-.12.263l-.002-.005Z" fill="#000"/><path d="M1.04 29.492c.663.134 1.346.146 2.021.155.676.01 1.385.02 2.08.022l2.02.007c.164 0 .372-.03.534 0 .162.031.205.165.286.284.094.139.189.277.29.408 1.31 1.748 3.053 3.116 5.1 3.896 4 1.523 8.793.826 11.782-2.368.358-.384.687-.795.983-1.23.103-.15.215-.427.375-.505.136-.067.373-.043.523-.055l.578-.043c1.501-.112 3.003-.224 4.505-.34.114-.009.069-.882-.022-.875-1.327.1-2.657.198-3.984.296l-.984.071-.463.034c-.155.012-.203 0-.298.107-.115.131-.198.315-.299.461a9.837 9.837 0 0 1-5.794 4.02c-2.136.528-4.206.401-6.204-.215a11.28 11.28 0 0 1-5.476-3.731c-.127-.158-.251-.317-.37-.48a12.543 12.543 0 0 1-.156-.222c-.066-.098-.152-.315-.25-.382-.089-.062-.399-.012-.502-.012-.179 0-.355.003-.534.005l-1.13.007c-.752.005-1.504.01-2.255.024-.79.014-1.595.01-2.371.17-.081.016-.07.47.012.484l.002.007ZM1.274 9.716c.413.318 1.17.208 1.666.208h1.712c.57.005 1.139-.005 1.71-.017.57-.012 1.214.06 1.766-.09.09-.024.076-.542-.014-.566-.552-.148-1.201-.079-1.772-.09a81.81 81.81 0 0 0-1.711-.02H2.92c-.494.005-1.25-.11-1.656.213-.05.04-.041.32.01.358v.004Z" fill="#000"/><path d="M8.062 9.881c.575-.482 1.065-1.062 1.64-1.547a11.244 11.244 0 0 1 2.528-1.63c.9-.418 1.862-.71 2.836-.895 1.812-.349 3.705-.306 5.467.267 1.817.592 3.416 1.728 4.622 3.206.11.134.214.272.32.41.033.046.069.118.116.146.094.055.356 0 .473 0l2.01.01 4.018.019c.093 0 .09-.876-.021-.876l-3.546-.022c-.592-.002-1.181-.007-1.773-.01-.296 0-.592-.002-.886-.004-.131 0-.239.012-.334-.074-.06-.053-.108-.146-.155-.208-1.08-1.408-2.51-2.545-4.152-3.227-2.798-1.165-6.183-.94-8.916.324-1.662.77-3.359 2.03-4.28 3.641-.041.072-.01.508.038.468l-.005.002Z" fill="#000"/><path d="M29.841 3.194c-.136.943-.126 1.922-.136 2.875-.007.53-.004 1.062-.004 1.592s.021 1.074.105 1.619c.016.11.08.422.226.265.146-.158.1-.602.084-.784a4.163 4.163 0 0 0-.017-.171c-.007-.084-.03-.401-.143-.428-.112-.026-.146.22-.153.292l-.014.157.322.661c.17-.99.098-2.067.086-3.08-.012-1.011-.024-2.012-.15-3.002-.005-.04-.031-.258-.108-.256-.076.003-.088.22-.095.26h-.003ZM4.69 3.4c-.104.46-.057.995-.064 1.465-.007.507-.024 1.013-.033 1.519-.01.546 0 1.095-.014 1.642-.008.287-.02.573-.017.86 0 .162.005.322.033.482.005.021.093.449.055.207.024.141.143.363.194.091.05-.272.095-.51.093-.79-.003-.28-.012-.53-.017-.795-.012-.51 0-1.022-.012-1.533-.012-.51-.026-1.021-.033-1.532-.008-.511.026-1.048-.063-1.547-.021-.112-.074-.277-.119-.072l-.002.003ZM28.394 3.727l.079.257-.034-.647c-.098.958-.069 1.95-.083 2.913-.007.513-.007 1.024-.007 1.537 0 .514-.012 1.03.086 1.53.03.153.138.38.203.096.11-.477.093-.981.093-1.468s0-1.003-.008-1.504c-.016-.986.005-1.998-.085-2.982l-.015.52.077-.262c.057-.146.126-.826-.175-.819-.3.007-.198.676-.133.826l.002.003ZM3.286 3.092c-.113.434-.086.91-.1 1.356-.017.518-.039 1.033-.048 1.551-.01.552-.005 1.101 0 1.652.004.552-.029 1.134.026 1.69.01.1.038.523.212.44.16-.079.105-.666.096-.786l-.005-.05c-.007-.083-.031-.415-.143-.439-.112-.024-.146.23-.15.298l-.005.048.298.635c.06-.568.026-1.155.029-1.726.004-.527.01-1.053 0-1.58-.01-.528-.031-1.053-.048-1.578-.014-.49 0-.988-.1-1.468-.007-.036-.046-.12-.065-.038l.003-.005Z" fill="#000"/></svg>