<svg width="31" height="34" fill="none" xmlns="http://www.w3.org/2000/svg"><path d="M21.687 6.203c1.093.27 2.039.78 2.039.78a4.7 4.7 0 0 1 .301.171c1.369.826 2.338 2.332 2.875 3.956.024.07.044.155 0 .206-.041.054-.158-.01-.122-.07 1.114 3.093 2.078 6.36 3.31 9.788.62 1.728 1.264 3.73.682 5.4-.317.906-.953 1.565-1.576 2.203-.431.44-.868.887-1.364 1.233-.56.394-1.187.653-1.815.892-3.997 1.509-8.247 2.136-12.477 2.232-.572.014-1.148.017-1.699-.155-.08-.024-.187-.038-.223.056-.037.094.145.113.096.032-1.74.21-3.473-.67-5.065-1.366-.927-.408-1.849-.81-2.763-1.209-1.127-.493-2.286-1.018-3.026-2.11-.875-1.29-.997-3.17-.743-4.887.247-1.675.813-3.267 1.242-4.84.839-3.074 1.168-6.13 2.3-8.833-.082.032-.08-.06-.03-.14.722-1.23 1.909-2.146 3.17-2.463.645-.16 1.125-.26 1.164-.265 0 0 10.88-1.308 13.724-.608v-.003Z" fill="#fff"/><path d="M1.695 20.975c.587.145 1.218-.376 1.32-.46 1.42-1.172 1.143-3.906 1.068-4.633-.064-.626-.2-1.3.27-1.704.225-.195.58-.316.908-.302 1.037.044 1.144 1.431 2.072 1.455.656.018.962-.666 1.556-.544.513.105.535.661 1.02.681.22.008.371-.1.935-.49.203-.142.602-.416 1.156-.8-.327-.139-.782-.272-1.227-.137-.453.137-.513.43-.889.481-.374.052-.601-.175-1.346-.704-.401-.284-.807-.576-1.304-.715-.604-.17-1.282-.1-1.935-.006-.555.08-1.141.187-1.587.513-.54.395-.745 1.02-.908 1.606-.458 1.644-.337 2.208-.854 3.385a6.876 6.876 0 0 1-.95 1.54c.022.096.166.698.7.834h-.005ZM18.323 20.43c.173.875.977 1.603 1.859 1.674 1.057.083 1.592-1.532 1.99-1.38.534.202.58 3.448-.744 6.177-2.032 4.191-6.468 5.618-8.428 6.094 2.16.044 4.32-.203 6.474-.452l3.243-.374c1.055-.122 2.117-.244 3.132-.53 1.105-.31 2.14-.813 3.091-1.438.546-.36 1.07-.77 1.438-1.32.597-.889.733-2.08.54-3.207-.188-1.106-.668-2.156-1.232-3.119-.314-.537-.66-1.052-.932-1.6-.434-.871-.671-1.792-.943-2.684a29.636 29.636 0 0 0-2.229-5.386c-.133-.251-.282-.51-.527-.666-.247-.16-.551-.191-.841-.206-.951-.049-1.915.03-2.786.352-.873.325-1.656.916-2.08 1.73-.34.652-.439 1.411-.476 2.166a16.54 16.54 0 0 0 .077 2.611c.035.323.08.655.008.97-.072.317-.293.623-.61.689-.138-.43-.28-.855-.415-1.278" fill="#ECD9D6"/><path d="M14.93 27.944c.845-.226 1.505-1.065 1.81-2.011.306-.946.301-1.96.192-2.933a13.064 13.064 0 0 0-.502-2.413c-.418-1.34-1.05-2.582-1.218-3.933-.165-1.323.287-2.857 1.4-3.331a2.118 2.118 0 0 0-2.296.032c-.875.59-1.287 1.787-1.314 2.927-.03 1.16.266 2.305.479 3.475.17.95.287 1.928.348 2.928.074 1.237-.019 2.388-.484 3.56-.266.666-.481.852.114 1.375.402.35.992.456 1.473.327l-.002-.003Z" fill="#ECD9D6"/><path d="M2.292 20.274c-.398 1.21-.785 1.85-1.188 1.885-.353.032-.649-.25-.827-.599-.615-1.203-.078-2.89.374-4.304a36.661 36.661 0 0 0 1.505-6.865c.091-.79.172-1.626.62-2.27.25-.363.599-.63.95-.853 1.467-.936 3.12-1.27 4.732-1.52A61.94 61.94 0 0 1 18.151 5c2.483.003 5.256.28 7.11 2.279 1.984 2.142 2.3 5.559 3.533 8.588.476 1.17 1.096 2.296 1.564 3.52.476 1.246.793 2.647.568 3.936-.194 1.112-1.094 2.148-2.001 1.608-.492-.29-.78-.935-1-1.537-1.206-3.323-1.413-6.78-2.383-9.854-.105-.334-.228-.676-.448-.93s-.565-.397-.829-.257c-.358.191-.403.756-.672 1.084-.434.528-1.217.265-1.821-.028-.604-.294-1.371-.554-1.813-.038-.406.474-.254 1.278-.073 1.937.193.71.387 1.426.586 2.15.149.551.303 1.133.217 1.7-.105.697-.6 1.267-1.183 1.372-.583.103-1.214-.27-1.51-.895-.358-.756-.216-1.672-.162-2.51.035-.496.032-.993-.002-1.483-.05-.696-.212-1.46-.717-1.823-.725-.519-1.727.191-2.017 1.135-.296.956-.102 2.02.063 3.04.3 1.858.5 3.797.586 5.794.044 1 .05 2.07-.338 2.972-.392.912-1.316 1.543-2.048 1.09-.641-.4-.866-1.401-.968-2.291a21.474 21.474 0 0 1-.016-4.832c-.16.311-.552.086-.717-.205-.492-.878-.416-2.054-.227-3.092.185-1.021.468-2.045.345-3.035-.068-.564-.434-1.192-.908-1.032-.316.108-.507.533-.821.656-.74.29-1.23-1.22-1.968-.944-.33.122-.52.565-.842.727-.382.197-.793-.074-1.055-.408-.395-.502-.489-.667-.808-.941-.447-.385-1.269-.548-1.734-.214-1.065.759-.021 3.999-1.345 8.035h-.005Z" fill="#000"/><path d="M17.672 9.994c-.424.503-1.911 2.272-3.933 1.972-.48-.071-1.916-.286-2.505-1.83-.25-.657-.242-1.283-.228-1.926.04-1.927.664-4.11 1.923-5.637.507-.615 1.276-1.55 2.364-1.573.948-.02 1.627.66 2.006 1.041.293.294 1.437 1.524 1.657 3.645.038.377.117 1.195-.12 2.15-.265 1.074-.776 1.697-1.162 2.158h-.002Z" fill="#fff"/><path d="M1.028 21.015C.384 22.907-.104 24.96.019 26.975c.054.87.229 1.728.703 2.47.444.691 1.089 1.218 1.784 1.637 1.073.646 2.267 1.102 3.452 1.493 1.186.392 2.326.682 3.514.9 3.558.658 7.241.671 10.822.186 2.36-.318 4.627-.868 6.724-2.068 1.312-.752 2.485-1.7 3.316-2.983A4.11 4.11 0 0 0 31 26.262c-.015-.916-.27-1.843-.487-2.725-.088-.35-.172-.69-.319-1.018-.04-.091-.056.039-.066.07a.87.87 0 0 0 .012.355c.172.9.411 1.783.593 2.68.077.38.134.7.044 1.086-.09.386-.27.77-.49 1.112-.765 1.182-2.049 2.12-3.26 2.78-1.822.996-3.814 1.587-5.86 1.867-3.488.477-7.035.596-10.528.093-2.151-.308-4.277-.844-6.297-1.658-1.421-.573-3.049-1.348-3.76-2.813-.357-.736-.351-1.57-.29-2.371.072-.933.316-1.843.506-2.755.115-.56.208-1.123.295-1.688.005-.039-.036-.355-.067-.259l.003-.003Z" fill="#000"/><path d="M15.364 9.736c-.452-.707-.695-1.652-.674-2.59-.173.105-.358-.083-.483-.27-.866-1.297-1.134-3.242-.695-4.876-.095.13-.23.317-.386.552-.464.692-1.066 1.59-1.526 2.854-.272.745-.633 1.737-.598 3.03.011.4.011 1.062.326 1.672.247.482.595.842.97 1.127a3.68 3.68 0 0 0 2.367.763 3.715 3.715 0 0 0 1.244-.264c.285-.115.958-.326 1.091-.728-.23-.211-.606-.246-.868-.437a3.075 3.075 0 0 1-.768-.833Z" fill="#ECD9D6"/><path d="M13.791 1.637c.71-.401 1.422-.769 2.204-.551.782.217 1.513 1.156 2.01 2.058.527.956.947 2.22.772 3.458a5.987 5.987 0 0 1-.952 2.482c-.923 1.377-2.285 1.93-3.596 1.886-1.311-.046-3.206-1.284-3.05-3.58.077-1.139.43-2.25.867-3.197.438-.947 1.044-1.934 1.747-2.51.139-.114-.008-.855-.014-.849-.754.616-1.354 1.388-1.83 2.437a10.63 10.63 0 0 0-.88 3.203c-.114 1.035-.112 2.214.203 3.184.384 1.184 1.327 1.948 2.19 2.216.701.218 1.402.13 2.095-.09.846-.272 1.63-.752 2.256-1.629 1.224-1.716 1.503-4.368.83-6.601C18.249 2.244 17.494.95 16.585.32c-.909-.63-2.008-.272-2.824.582-.083.085-.023.766.03.735Z" fill="#000"/><path d="M15.626 4.94c.074.142.188-.004.227-.076.053-.094.082-.195.103-.296a2.04 2.04 0 0 0-.01-.892c-.05-.205-.148-.425-.335-.565-.074-.057-.17-.12-.275-.11-.116.011-.221.066-.329.105-.01.003-.008.04 0 .044.124.055.219.152.314.239.079.073.168.137.247.21.14.13.25.28.288.455l.005.037c0 .018 0 .018 0 0v.046c0 .011-.005.041-.008.06a.905.905 0 0 1-.069.245c-.042.092-.129.163-.166.255a.296.296 0 0 0 .003.245l.005-.002Z" fill="#000"/><path d="M18 5.984c-.027-.357-.177-.69-.4-1.005a2.5 2.5 0 0 0-.787-.747c-.29-.168-.654-.276-1.022-.214-.407.069-.679.34-.786.627-.006.014-.012.09.015.092.117.012.242-.018.355-.03.153-.013.303-.02.46-.02.33-.002.66.062.944.19.285.13.523.318.72.52.103.106.195.219.272.336.04.058.08.117.116.175.034.055.043.062.107.092.006.002.006-.016.006-.019v.003ZM14 6.906c-.037-.022-.068-.05-.105-.074-.032-.02-.067-.035-.102-.052a3.597 3.597 0 0 1-.163-.089 1.617 1.617 0 0 1-.288-.213c-.085-.08-.142-.163-.203-.25a.958.958 0 0 1-.126-.221c-.006-.02-.013.013-.013.018.004.134.033.273.087.399.048.111.124.21.216.299.09.083.19.156.307.207a.923.923 0 0 0 .172.058c.037.007.072.017.11.01.05-.01.073-.04.106-.071.002-.002.002-.015 0-.017L14 6.906ZM12.946 4.822c-.036-.006-.08-.013-.108-.03-.036-.019-.06-.042-.097-.06-.056-.028-.116-.054-.176-.081a1.428 1.428 0 0 1-.285-.155.467.467 0 0 1-.145-.18c0-.006-.012-.036 0-.006 0-.009-.004-.017-.008-.028l-.012-.036.012.04-.004-.027v-.045a.16.16 0 0 0-.02-.084l.012.108c.012-.064.028-.127.044-.19 0-.007-.008-.054-.016-.047-.044.033-.056.067-.08.103a.337.337 0 0 0-.056.142s-.012.08 0 .034a.31.31 0 0 0-.004.106.54.54 0 0 0 .028.157c.02.067.056.137.108.2.072.088.18.164.333.217.073.025.14.038.23.04a.301.301 0 0 0 .12-.021c.02-.009.036-.017.06-.023.028-.007.06-.009.088-.011.044-.006.036-.12-.004-.13l-.02.007ZM16 8.509c-.045.083-.092.127-.155.133-.06 0-.116.005-.175-.011a.578.578 0 0 1-.34-.232c-.232-.332-.282-.895-.327-1.392 0-.017-.003 0-.003.011.039.585.077 1.237.306 1.69.084.165.227.337.355.281.143-.066.256-.254.339-.469V8.51Z" fill="#000"/></svg>