<svg width="29" height="36" fill="none" xmlns="http://www.w3.org/2000/svg"><path d="M.918 9.838C.466 8.858.034 7.836.002 6.762-.031 5.688.414 4.536 1.364 3.99c.774-.445 1.763-.415 2.604-.103.842.312 1.556.874 2.22 1.467A22.13 22.13 0 0 1 9.13 8.548c-.268-1.134-.536-2.27-.807-3.403-.182-.767-.363-1.556-.238-2.333.126-.778.635-1.55 1.411-1.754.483-.128.996-.023 1.477.116 2.583.741 4.857 2.46 6.24 4.719.247.403.494.848.933 1.044.254.114.54.128.818.14 2.167.088 4.333.18 6.5.269l.158 1.94c.812-.084 1.565.518 1.906 1.243.34.726.359 1.549.373 2.347.032 1.973.065 3.946.1 5.919-1.273.11-2.449.675-3.64 1.126-3.886 1.478-8.118 1.816-12.283 2.005-1.728.08-3.468.137-5.187-.06-.664-.074-1.34-.193-1.921-.517-.928-.518-1.504-1.517-1.693-2.547-.154-.84-.077-1.7.09-2.532.138-.689.37-1.24-.016-1.882A47.077 47.077 0 0 1 .916 9.834l.002.004Z" fill="#fff"/><path d="M3.283 7.133c.738-.613 3.152.936 5.717 3.852a6.434 6.434 0 0 0-2.121 1.042A7.042 7.042 0 0 0 5.089 14c-1.816-3.368-2.54-6.259-1.806-6.867ZM12 24c3.314 0 6-2.462 6-5.5S15.314 13 12 13s-6 2.462-6 5.5S8.686 24 12 24ZM19.102 13.287a41.153 41.153 0 0 1 2.486-.146c1.37-.04 2.746-.014 4.113-.141-.086.646-.018 1.301.052 1.95.082.779.163 1.559.247 2.338-.705.4-1.42.806-2.003 1.385-.381.378-.705.828-1.138 1.139a.966.966 0 0 1-.322.165.986.986 0 0 1-.365.012c-.52-.065-1.001-.314-1.473-.555-.346-.18-.693-.359-1.01-.588-.148-.106-.47-.242-.574-.38-.097-.13-.036-.238-.022-.395.05-.522-.005-1.074-.027-1.598-.012-.28-.164-3.167.038-3.184l-.002-.002Z" fill="#EBD8D5"/><path d="M10.3 3.22c.703-.71 2.57.49 3.293.953.994.639 2.575 1.893 3.993 4.338L19 8.034 18.91 10c-.738-.05-1.37.686-1.585 1.491-.218.803-.126 1.666-.08 2.506A23.402 23.402 0 0 1 17.216 17c-.241-.866-.803-2.485-2.116-3.991a8.673 8.673 0 0 0-2.917-2.209 15.3 15.3 0 0 1-1.57-3.6c-.42-1.444-.963-3.324-.314-3.978v-.003ZM19 10a10.335 10.335 0 0 1 3.396-.714 10.343 10.343 0 0 1 3.604.51L25.894 8l-6.674.278-.22 1.72V10Z" fill="#EBD8D5"/><path d="M18.002 7.73c.004.387.017.756.036 1.104.005.096.067.169.138.166l8.692-.32c.076 0 .136-.09.132-.194l-.114-2.317c-.005-.1-.067-.172-.14-.169l-8.604.418c-.071.003-.127.079-.13.172-.01.36-.015.74-.01 1.138v.003Z" fill="#000"/><path d="M25.047 8.163c-.08.148-.04.297-.017.445.017.109.034.22.046.332.01.112.028.221.034.333.01.176.01.344.096.52a.431.431 0 0 0 .385.207.392.392 0 0 0 .362-.214c.068-.185.051-.361.017-.546-.022-.138-.045-.278-.079-.416a3.306 3.306 0 0 0-.102-.323c-.05-.15-.085-.33-.3-.456-.215-.126-.402.047-.442.12v-.002ZM18.935 10.022c-.121-.072-.27.048-.38.153-.16.155-.305.42-.396.73-.168.568-.166 1.182-.154 1.82.016 1.004.04 2.01.062 3.015.01.503.021 1.005.033 1.508.011.503-.008 1.067.057 1.558.011.086.043.216.095.19.053-.024.068-.211.074-.297.033-.434-.007-.918-.019-1.357l-.034-1.35-.072-2.754c-.017-.6-.081-1.14.033-1.667.075-.35.213-.623.384-.79.11-.11.229-.13.34-.227.068-.059.048-.49-.02-.53l-.003-.002Z" fill="#000"/><path d="M25.163 9.72c.604-.038 1.245.077 1.672.484.24.23.397.61.387.844-.015.412.013.824.03 1.238.047 1.038.095 2.077.15 3.116.054 1.038.076 2.117.165 3.17.01.114.035.432.23.428.193-.005.205-.334.203-.436-.028-1.165-.127-2.334-.194-3.5a420.207 420.207 0 0 0-.214-3.498c-.05-.755-.01-1.493-.673-2.073-.437-.383-1.172-.604-1.776-.436-.196.055-.191.675.018.662h.002ZM19.22 17.971c.1-.315.076-.675.076-1.001 0-.378-.009-.754-.013-1.131-.014-.771-.043-1.544-.056-2.314l-.106.304a96.688 96.688 0 0 0 3.358-.076c1.12-.047 2.206-.146 3.31-.244l-.094-.252c.016.686.05 1.373.05 2.06 0 .334.018.668.02 1.003.002.334-.016.678.045 1.012.036.199.143.199.17-.004.043-.337.007-.676-.01-1.012-.015-.337-.017-.67-.035-1.004-.036-.687-.043-1.373-.065-2.06 0-.043-.011-.256-.094-.252-2.215.149-4.45.225-6.67.225-.106 0-.108.252-.106.304.016.77.014 1.543.03 2.316.006.378.013.753.026 1.131.012.326.005.687.115.997.013.037.035.035.049 0v-.002ZM3.32 18.994c.328-.743.136-1.692.312-2.49a7.498 7.498 0 0 1 1.4-2.964c1.185-1.527 3.006-2.63 5.013-2.688 4.357-.126 7.31 3.763 7.467 7.642.019.457.456.78.482.134.169-4.257-3.248-8.76-7.972-8.625-2.307.066-4.36 1.466-5.574 3.306a8.45 8.45 0 0 0-1.25 3.09c-.125.68-.425 2.025.106 2.6.005.004.01 0 .012-.005h.005Z" fill="#000"/><path d="m28.808 19.276-2.427-2.165a.43.43 0 0 0-.61.031l-1.979 2.168a.432.432 0 0 1-.616.026l-1.984-1.84a.432.432 0 0 0-.557-.026l-2.073 1.584a.43.43 0 0 1-.543-.014l-2.008-1.711a.428.428 0 0 0-.571.01c-.584.53-1.17 1.058-1.752 1.588a.431.431 0 0 1-.588-.004c-.623-.583-1.245-1.166-1.868-1.752a.432.432 0 0 0-.576-.014L8.55 18.935a.432.432 0 0 1-.579-.017l-1.805-1.711a.433.433 0 0 0-.567-.026L3 19.22c.002 1.666.01 3.212.02 4.627.057 7.914.19 9.885 1.57 11.044.524.44 1.526 1.01 3.443.877h.03l16.88.222c.752.038 2.313 0 3.266-1.078.883-.998.806-2.425.774-3.084-.133-2.818-.112-6.863-.019-12.204a.473.473 0 0 0-.15-.351l-.006.002Z" fill="#000"/><path d="M11.002 31c.213-.1.448-.16.662-.257.215-.095.437-.21.647-.329.414-.234.827-.467 1.232-.71.857-.51 1.669-1.04 2.447-1.635.016-.012.013-.08-.011-.067-.861.425-1.675.896-2.492 1.38-.411.243-.818.49-1.23.735-.217.129-.43.265-.633.406-.215.151-.405.326-.624.473V31h.002Z" fill="#fff"/><path d="M16.014 28.131c.158.221.42.325.677.446.256.121.519.243.78.362.503.231 1.002.468 1.498.707.99.477 2.004.907 3.015 1.353.02.008.02-.047.006-.055-.985-.61-1.971-1.195-3.026-1.708a97.866 97.866 0 0 0-1.548-.735c-.259-.119-.517-.236-.78-.346-.19-.08-.41-.21-.616-.13-.034.015-.018.084-.004.104l-.002.002ZM16.859 27.977c.16-.132.14-.324.14-.481 0-.262-.045-.527-.07-.79-.054-.526-.132-1.053-.202-1.577-.137-1.03-.372-2.042-.595-3.068-.025-.107-.136-.057-.132.028.041 1.058.062 2.104.19 3.16.062.522.12 1.043.194 1.565.037.26.062.522.128.779.033.132.05.322.252.402.033.012.074 0 .095-.018Z" fill="#fff"/><path d="M7.539 11.005c-.182.117-.214.418-.258.594a9 9 0 0 0-.185.954 10.035 10.035 0 0 0-.066 2.164 8.373 8.373 0 0 0 .92 3.265c.031.061.057-.051.048-.076a14.68 14.68 0 0 1-.647-3.252c-.05-.653-.038-1.311.037-1.961.035-.306.084-.61.14-.913.042-.234.109-.474.074-.711 0-.018-.026-.088-.063-.064ZM8.004 11.018c.782.92 1.599 1.808 2.273 2.818.675 1.01 1.197 2.069 1.686 3.148.025.054.043-.046.035-.066-.337-1.218-.871-2.313-1.573-3.354-.652-.964-1.437-1.94-2.42-2.564-.006-.002-.006.013-.003.016l.002.002ZM6.996 11c-.354.046-.683.592-.896.91a6.408 6.408 0 0 0-.846 1.92c-.277 1.03-.311 2.071-.18 3.138.006.054.038.033.034-.014a8.823 8.823 0 0 1 .326-2.912c.187-.643.45-1.245.775-1.799.248-.423.58-.77.79-1.224 0-.003.004-.019-.003-.019Z" fill="#000"/><path d="M7.004 11.15c.157-.066.449.035.609.053.297.036.588.069.883.122.826.152 1.633.334 2.41.653 1.858.765 3.195 2.254 4.063 4.009.023.045.033-.04.03-.056-.443-1.512-1.398-2.783-2.72-3.68-1.15-.782-2.575-1.27-3.985-1.25-.266.002-.536.01-.8.053-.134.023-.353.114-.49.08-.005 0-.005.021 0 .018v-.002ZM10.378 10.865c-.077-.579-.34-1.082-.555-1.606a25.874 25.874 0 0 1-.858-2.33 13.448 13.448 0 0 1-.554-2.654c-.07-.732-.062-1.606.236-2.275.704-1.585 2.71-1.016 3.79-.387 1.271.74 2.343 1.938 3.274 3.18a28.23 28.23 0 0 1 1.978 3.05c.12.21.256-.08.285-.203a1.114 1.114 0 0 0-.091-.745c-.56-.99-1.178-1.94-1.85-2.828-1-1.325-2.123-2.633-3.48-3.426-1.174-.684-3.166-1.145-4.033.364-.424.74-.518 1.716-.52 2.59 0 1.022.182 2.028.433 3.002.252.974.598 1.972 1.005 2.9.158.36.322.723.507 1.066.104.194.198.4.396.437.042.008.04-.116.035-.135h.002Z" fill="#000"/><path d="M3.836 15.874c-.088-.468-.306-.897-.532-1.35a86.31 86.31 0 0 1-1.043-2.154C1.507 10.754.775 9.022.493 7.232.383 6.53.351 5.784.628 5.115c.45-1.104 1.592-1.22 2.586-1.066 1.802.282 3.28 1.508 4.535 2.84 1.087 1.155 2.052 2.459 2.909 3.81.132.208.281-.077.313-.198a.989.989 0 0 0-.1-.732 25.752 25.752 0 0 0-2.56-3.38C7.059 4.992 5.519 3.538 3.68 3.135c-.872-.191-1.925-.256-2.671.35-.747.604-.955 1.6-1 2.515-.093 1.877.598 3.736 1.29 5.428.647 1.577 1.4 3.1 2.322 4.514.022.034.064.047.098.026-.039.023.017.015.071.031.056.018.059-.096.052-.13l-.005.006ZM11.007 7.736c.082-.669.349-1.348.632-1.966.138-.3.288-.597.452-.887.075-.132.145-.288.262-.395.213-.198.367-.013.4.193.106.688-.08 1.428-.18 2.109-.105.721-.17 1.442-.241 2.165 0 .021.023.072.035.027.115-.426.232-.85.316-1.286.08-.412.15-.824.208-1.238.059-.414.117-.87.108-1.308-.007-.307 0-.731-.199-.996-.482-.645-1.107.933-1.205 1.17-.16.385-.281.779-.384 1.178-.103.4-.143.818-.211 1.23 0 .006.007.012.007.004Z" fill="#000"/><path d="M3.007 11.483c.082-.802.349-1.617.632-2.359.138-.36.288-.716.452-1.064.075-.159.145-.346.262-.474.213-.237.367-.015.4.232.106.825-.08 1.713-.18 2.53-.105.865-.17 1.73-.241 2.598 0 .025.023.086.035.033.115-.512.232-1.022.316-1.544.08-.494.15-.989.208-1.486.059-.497.117-1.044.108-1.569-.007-.368 0-.878-.199-1.195-.482-.775-1.107 1.12-1.205 1.405-.16.461-.281.933-.384 1.412-.103.48-.143.982-.211 1.476 0 .008.007.015.007.005ZM15.054 11.52c.037-.39.145-.797.2-1.19.063-.468.15-.937.257-1.397.096-.414.18-.867.348-1.263.18-.423.51.067.596.267.087.199.113.393.134.595.176 1.803-.018 3.626-.064 5.43 0 .014.023.059.035.027.194-.504.3-.977.359-1.505.058-.528.078-1.103.08-1.653.004-.606-.02-1.21-.063-1.814-.035-.46-.067-.936-.263-1.372-.102-.226-.423-.824-.808-.593-.133.08-.194.25-.238.376-.098.284-.174.576-.246.865-.133.543-.237 1.09-.307 1.641-.035.279-.06.555-.072.834-.012.257.037.503.04.752 0 .008.009.013.009 0h.003Z" fill="#000"/></svg>