<svg width="34" height="32" fill="none" xmlns="http://www.w3.org/2000/svg"><path d="M2.953 31.67c.998.093 2.004.074 3.005.081 1.001.007 1.923.005 2.883.024 1.922.039 3.842.046 5.765.06 3.883.03 7.767.06 11.65.096 1.081.01 2.161.022 3.244.034 1.083.012 2.245.063 3.362.015.079-.003.077-.727-.017-.734-.999-.07-2.005-.053-3.003-.065-.999-.012-1.923-.024-2.883-.034-1.922-.022-3.842-.04-5.765-.058-3.881-.033-7.767-.091-11.648-.036-1.08.017-2.161.017-3.241.022-1.08.005-2.248-.029-3.362.075-.082.007-.075.51.012.52h-.002Z" fill="#000"/><path d="M4.638 7.26c.02-.447-.433-7.03-.433-7.03l26.078.115-.096 7.296 3.128 7.74a5.349 5.349 0 0 1-.038 1.865 5.333 5.333 0 0 1-.611 1.62l.187 12.748-29.906-.205-.4-12.748a2.546 2.546 0 0 1-1.155-.76c-.724-.847-.599-1.887-.575-2.065 1.276-2.858 2.548-5.717 3.824-8.578l-.003.003Z" fill="#fff"/><path d="M32.502 16.258a2.626 2.626 0 0 0-1.277 1.08c-.462-.753-1.254-1.249-2.156-1.249-.946 0-1.771.549-2.219 1.364-.45-.815-1.275-1.364-2.218-1.364-.943 0-1.788.56-2.236 1.39-.445-.83-1.277-1.39-2.235-1.39-.784 0-1.485.378-1.959.972-.474-.594-1.174-.972-1.958-.972-.955 0-1.788.56-2.236 1.39-.445-.83-1.277-1.39-2.235-1.39-1.056 0-1.963.684-2.363 1.66-.4-.976-1.306-1.66-2.363-1.66-.936 0-1.754.54-2.206 1.34-.452-.803-1.27-1.34-2.207-1.34-.04 0-.081.005-.122.007v5.54c.04 0 .082.007.122.007.936 0 1.755-.54 2.207-1.34.452.803 1.27 1.34 2.206 1.34 1.057 0 1.964-.684 2.363-1.66.4.976 1.307 1.66 2.363 1.66.955 0 1.788-.561 2.236-1.391.445.83 1.277 1.39 2.235 1.39.784 0 1.484-.377 1.959-.971.474.594 1.174.972 1.958.972.955 0 1.788-.561 2.235-1.391.446.83 1.278 1.39 2.236 1.39.957 0 1.77-.548 2.218-1.364.45.816 1.276 1.365 2.219 1.365.943 0 1.694-.498 2.156-1.25.303.497.753.877 1.277 1.081v-5.216Z" fill="#ECD9D6"/><path d="M6.877 18.837c.823.363 1.826.034 2.466-.597.64-.63.98-1.504 1.206-2.375.103.609.438 1.175.921 1.56.696.55 1.617.695 2.493.822.26-.392.453-.83.563-1.287.54.936 1.249 1.983 2.327 2.055.611.04 1.203-.262 1.648-.681a3.507 3.507 0 0 0 1.059-2.01c.308 1.223 1.516 2.157 2.774 2.147.164 0 .332-.02.474-.099a1.18 1.18 0 0 0 .31-.298l.92-1.138a3.174 3.174 0 0 0 1.942 2.057c.652.234 1.46.212 1.946-.281.188-.19.31-.43.431-.667.233-.462.47-.924.703-1.386.175.52.442 1.01.786 1.44.111.136.239.273.407.326.373.116.734-.235.878-.599.323-.803.08-1.71-.166-2.543-.353-1.203-.707-2.406-1.063-3.61-.048-.16-.108-.339-.255-.418a.664.664 0 0 0-.301-.055c-6.62-.142-13.234.317-19.837.78-.876.06-1.751.122-2.622.233-.434.055-.905.147-1.177.488-.152.193-.217.436-.267.676-.335 1.6-.41 4.644 1.432 5.455l.002.005Z" fill="#fff"/><path d="M19.393 15.543c-.06.168-.048.36-.043.537.01.365.06.733.159 1.085.19.671.584 1.304 1.157 1.715 1.314.941 3 .058 3.39-1.395a3.54 3.54 0 0 0 .037-1.687c-.03-.123-.065-.02-.073.046-.134 1.48.41 3.291 2.08 3.549a2.24 2.24 0 0 0 2.312-1.1c.423-.74.5-1.737.25-2.55-.026-.09-.048.043-.053.062-.027.094-.005.224.012.315.267 1.543-1.102 2.784-2.61 2.532-1.201-.202-2.046-1.393-1.906-2.594l-.073.046c.277 1.316-.904 2.685-2.278 2.603-.72-.043-1.307-.49-1.72-1.054-.472-.637-.595-1.326-.636-2.093 0-.003-.005-.034-.01-.02l.005.003Z" fill="#000"/><path d="M10.044 15.543c-.06.168-.048.36-.044.537.01.365.06.733.16 1.085.19.671.584 1.304 1.157 1.715 1.313.941 3 .058 3.39-1.395a3.54 3.54 0 0 0 .036-1.687c-.029-.123-.065-.02-.072.046-.135 1.48.409 3.291 2.079 3.549a2.24 2.24 0 0 0 2.312-1.1c.424-.74.5-1.737.25-2.55-.026-.09-.048.043-.053.062-.026.094-.004.224.012.315.267 1.543-1.102 2.784-2.61 2.532-1.201-.202-2.046-1.393-1.906-2.594l-.072.046c.277 1.316-.905 2.685-2.279 2.603-.72-.043-1.306-.49-1.72-1.054-.472-.637-.595-1.326-.635-2.093 0-.003-.005-.034-.01-.02l.005.003Z" fill="#000"/><path d="M.695 15.543c-.06.168-.048.36-.043.537.01.365.06.733.159 1.085.19.671.584 1.304 1.157 1.715 1.314.941 3 .058 3.39-1.395a3.54 3.54 0 0 0 .036-1.687c-.029-.123-.065-.02-.072.046-.135 1.48.41 3.291 2.08 3.549a2.24 2.24 0 0 0 2.311-1.1c.424-.74.5-1.737.25-2.55-.026-.09-.047.043-.052.062-.027.094-.005.224.012.315.267 1.543-1.102 2.784-2.61 2.532-1.202-.202-2.046-1.393-1.907-2.594l-.072.046c.277 1.316-.905 2.685-2.278 2.603-.72-.043-1.307-.49-1.72-1.054C.863 17.016.74 16.327.7 15.56c0-.003-.005-.034-.01-.02l.005.003Z" fill="#000"/><path d="m.674 16.029.043.01.015-.01c.187-.267.283-.614.404-.914.142-.359.284-.72.428-1.078.294-.73.594-1.454.905-2.176.604-1.41 1.22-2.815 1.884-4.196.067-.14.043-.36.017-.508-.01-.06-.056-.267-.118-.13a125.122 125.122 0 0 0-1.935 4.295 108.297 108.297 0 0 0-1.326 3.295c-.146.399-.315.794-.353 1.22-.003.03-.017.178.031.187l.005.005ZM5.387 16.015c.166-.272.253-.6.36-.896l.383-1.051c.258-.705.518-1.408.778-2.11.524-1.418 1.087-2.82 1.593-4.245a.88.88 0 0 0 .014-.419c-.01-.043-.043-.223-.094-.108-.58 1.384-1.085 2.808-1.605 4.216-.255.693-.505 1.388-.753 2.081-.248.693-.568 1.449-.734 2.197-.012.05.032.373.056.335h.002ZM9.972 15.913c.14-.207.178-.486.243-.724.096-.358.185-.717.279-1.075.183-.705.366-1.413.556-2.116.387-1.438.791-2.872 1.203-4.304a.823.823 0 0 0 .014-.39c-.007-.034-.06-.219-.096-.099a132.956 132.956 0 0 0-1.196 4.173c-.19.702-.378 1.407-.558 2.115-.18.707-.419 1.472-.486 2.223 0 .024.021.229.04.197ZM14.803 15.976c.166-.671.21-1.393.299-2.079.093-.732.19-1.463.284-2.194l.274-2.142c.091-.715.27-1.475.243-2.197 0-.005-.048-.3-.082-.238-.13.238-.118.577-.152.845-.045.356-.093.71-.14 1.066-.095.753-.194 1.503-.29 2.256-.097.754-.188 1.47-.28 2.205-.09.734-.22 1.499-.257 2.25 0 .048.048.444.101.23v-.002ZM19.387 15.89c.108-1.34.022-2.717.014-4.062-.007-1.345-.016-2.791-.026-4.187 0-.04-.012-.351-.089-.34-.087.015-.075.297-.072.342.005 1.377.01 2.753.017 4.127.007 1.374-.063 2.724.055 4.066.01.111.087.241.101.051v.002ZM22.762 7.254c.003.717.145 1.448.24 2.16.102.756.213 1.511.323 2.265.217 1.487.428 2.974.672 4.456.014.086.038.224.12.125.082-.099.034-.383.02-.49-.203-1.495-.436-2.987-.665-4.476-.11-.715-.219-1.432-.337-2.144-.058-.359-.12-.715-.185-1.071-.05-.274-.072-.575-.185-.833-.003-.007-.005.01-.005.01l.002-.002ZM26.567 7.403c.287 1.407.64 2.798.987 4.191.346 1.394.77 2.7 1.01 4.07.109.61.138 1.234.335 1.828.17.51.452 1.006.832 1.39.754.759 2.017 1.004 2.828.19.91-.909 1.025-2.473.868-3.673-.01-.075-.029-.188-.103-.135-.07.05-.043.33-.036.394.123 1.023-.152 2.4-1.097 2.986-.946.588-2.07.068-2.679-.719-.717-.929-.685-2.081-.936-3.176-.271-1.184-.61-2.356-.916-3.533-.34-1.306-.66-2.62-1.069-3.905-.021-.065-.029.072-.026.09l.002.002Z" fill="#000"/><path d="M30.176 7.463c.433 1.465 1.022 2.885 1.59 4.305.568 1.42 1.122 2.716 1.673 4.078a.043.043 0 0 0 .028.03l.041-.008c.032-.007.022-.108.022-.125-.04-.342-.193-.65-.308-.972-.13-.366-.277-.727-.416-1.088-.284-.727-.573-1.453-.864-2.178-.544-1.361-1.03-2.8-1.759-4.076-.005-.01-.007.03-.005.034h-.002ZM4.346 7.133c.062-1.114-.027-2.25-.058-3.364-.031-1.114-.036-2.283-.094-3.421-.002-.053-.002-.351-.094-.35-.091.003-.074.319-.074.355.01 1.14.065 2.28.096 3.421.031 1.14-.003 2.252.115 3.362.022.197.097.195.106-.003h.003Z" fill="#000"/><path d="M4.168.406c1.713.134 3.434.142 5.154.17 1.72.03 3.354.053 5.032.068 3.395.026 6.79.031 10.185-.003 1.918-.019 3.833-.048 5.75-.07.037 0 .03-.452-.011-.45C23.49.2 16.695.13 9.907.055 7.992.033 6.074-.035 4.158.035c-.04 0-.04.368.01.373V.406Z" fill="#000"/><path d="M30.224.182c-.076.202-.062.455-.074.666-.017.299-.031.595-.041.893a50.495 50.495 0 0 0-.029 1.814c0 .607.007 1.223.022 1.831.007.316.017.63.031.946.007.156.015.315.024.472.005.077.01.154.012.23.01.2.012.157.01-.124-.15.077-.104.623-.005.731l.04.043.027.015c.16-.077.14-.337.14-.491 0-.33-.036-.664-.055-.994a51.137 51.137 0 0 1-.078-3.98c.012-.657.082-1.323.02-1.97 0-.012-.017-.147-.041-.085l-.003.003Z" fill="#000"/><path d="M4.165 7.58c.847.114 1.735.037 2.587.032l2.476-.017c1.699-.01 3.4-.014 5.098-.021a900.351 900.351 0 0 1 15.91.081c.02 0 .022-.435-.01-.435a941.33 941.33 0 0 0-20.358-.104c-.943.008-1.89.015-2.832.025-.944.01-1.942-.06-2.88.084-.049.007-.041.351.01.356ZM.794 16.152c2.067-.032 4.112-.393 6.177-.46 2.064-.067 4.319-.151 6.482-.2 4.377-.098 8.756-.06 13.128.116 2.313.094 4.62.238 6.93.358.014 0 .029-.387-.01-.39-4.184-.377-8.397-.485-12.596-.526a194.86 194.86 0 0 0-13.155.315c-1.171.07-2.329.176-3.503.18-.58 0-1.165.06-1.742.109-.578.048-1.148.082-1.716.168-.045.007-.031.332.007.33H.794Z" fill="#000"/><path d="M2.204 12.165c.684-1.533 1.365-3.068 2.048-4.601.041-.092.084-.185.169-.24.064-.044.144-.054.218-.066 1.29-.17 2.6-.183 3.891-.038-.883 2.38-1.761 4.76-2.63 7.144-.156.428-.312.861-.397 1.311-.077.414-.089.84-.187 1.249-.14.58-.46 1.126-.932 1.49-.474.363-1.102.534-1.686.409-.845-.183-1.276-.864-1.451-1.146-.477-.763-.445-1.537-.43-1.84.016-.311.074-.636.85-2.45.297-.693.323-.741.537-1.223ZM10.577 13.238a289.55 289.55 0 0 1 1.692-5.852c.01-.031.02-.065.04-.09.035-.035.09-.042.138-.047.95-.099 1.906-.13 2.86-.097.167.005.35.025.458.15.106.125.094.31.075.474-.222 1.937-.47 3.874-.739 5.806-.06.438-.123.876-.21 1.311-.057.296-.124.59-.146.89-.029.402.029.809-.043 1.204-.13.717-.67 1.299-1.283 1.694-.272.175-.573.324-.895.332-.327.007-.642-.133-.92-.31a3.536 3.536 0 0 1-1.361-1.685c-.294-.758-.214-1.425-.06-2.204.106-.532.245-1.057.39-1.579l.004.003ZM22.708 7.242c.628 2.904 1.03 5.854 1.379 8.806.036.296.07.597.014.89-.08.424-.344.792-.645 1.103a3.77 3.77 0 0 1-1.075.786c-.284.137-.597.236-.912.207-.703-.062-1.194-.707-1.543-1.318a5.059 5.059 0 0 1-.454-.984c-.188-.597-.193-1.235-.198-1.86 0-.361-.005-.722-.007-1.08-.007-1.401-.017-2.804-.014-4.204 0-.655-.085-1.386.017-2.034.079-.505.738-.44 1.128-.46.772-.035 1.547.013 2.308.148h.002ZM28.075 13.021c.137.477.28.953.378 1.44.14.685.192 1.385.363 2.064.171.678.472 1.352 1.008 1.797.255.212.551.363.847.515.366.188.773.38 1.175.289.36-.082.632-.38.837-.69.59-.889.82-2.008.63-3.057-.11-.608-.353-1.186-.594-1.756-.845-1.995-1.69-3.99-2.531-5.984-.017-.039-.034-.08-.065-.106-.041-.034-.097-.041-.15-.046a18.982 18.982 0 0 0-1.85-.094c-.351 0-1.198-.156-1.323.284-.125.44.2 1.148.3 1.571.145.604.292 1.206.443 1.807.169.657.342 1.312.53 1.964l.002.002Z" fill="#000"/><path d="M30.16.23H4.207v7.016H30.16V.23ZM5.734 26.07c.373.15.838.091 1.235.094.397.002.82.002 1.232 0l2.463-.017c1.656-.014 3.311-.024 4.965-.031.923-.005 1.87.046 2.788-.056.02 0 .017-.185-.005-.185-.813-.084-1.645-.04-2.466-.038l-2.464.004c-1.655.005-3.31-.004-4.966-.007-.46 0-.92 0-1.377.007-.228 0-.46 0-.688.008-.243.005-.495 0-.722.096-.016.007-.012.12.003.127l.002-.002Z" fill="#000"/><path d="M5.421 16.97c-.173-.067-.149.486-.151.568-.015.402-.003.806.002 1.208.012.772.029 1.547.058 2.32.057 1.578.134 3.154.233 4.73.005.074.022.411.144.423.111.01.123-.378.123-.428v-.099c.007-.159.034-.483-.074-.625-.087-.113-.138-.041-.16.091l-.011.075.238.25c-.087-1.374-.159-2.75-.212-4.124-.026-.674-.053-1.348-.074-2.021l-.034-1.071c-.005-.159-.007-.318-.014-.477-.005-.103-.013-.206-.02-.312 0-.037-.005-.073-.01-.109-.011-.127-.009-.072.008.169.034-.092.074-.522-.046-.568ZM18.193 18.695c-.14 1.119-.101 2.281-.113 3.41-.012 1.128 0 2.32.026 3.479 0 .084.008.575.152.573.144-.003.125-.52.123-.58-.027-1.11-.036-2.216-.034-3.326.002-1.109.075-2.22.031-3.325-.002-.075.01-.4-.082-.448-.091-.048-.098.171-.103.217ZM8.682 22.538c.679-.633 1.374-1.252 2.06-1.877a48.842 48.842 0 0 1 2.163-1.875c.003 0 0-.014 0-.014a45.55 45.55 0 0 0-2.175 1.723c-.703.599-1.396 1.287-2.05 1.98-.01.012 0 .065.005.063h-.003ZM10.607 24.104c.539-.238.962-.753 1.39-1.148a70.93 70.93 0 0 1 1.545-1.393c.522-.457 1.035-.897 1.547-1.354.26-.234.518-.475.787-.696.289-.236.662-.344.847-.683.005-.01.012-.075-.005-.077-.262-.063-.531.36-.721.51-.255.202-.535.375-.802.565-.556.397-1.085.82-1.605 1.264-.52.442-1.015.885-1.506 1.347-.536.503-1.09.999-1.48 1.627-.002.004-.002.038 0 .036l.003.002ZM2.435 18.478c-.103 1.028-.065 2.07-.06 3.102a186.063 186.063 0 0 0 .12 6.155c.037 1.027.044 2.134.164 3.188.012.109.046.739.25.734.205-.005.212-.638.215-.746.021-1.063-.049-2.13-.087-3.19-.039-1.062-.08-2.055-.113-3.083-.034-1.027-.077-2.047-.113-3.07-.036-1.023-.046-2.07-.164-3.097-.005-.04-.031-.293-.11-.293-.08 0-.094.257-.097.298l-.005.002ZM21.357 18.26c-.106.42-.07.904-.08 1.337-.011.508-.016 1.018-.02 1.526a911.92 911.92 0 0 0-.018 3.623c0 1.023.017 2.043.024 3.066.007 1.023-.05 2.13.046 3.176.007.082.029.433.14.46.11.026.14-.243.146-.31.092-1.098.02-2.231.015-3.333-.005-1.102 0-2.163-.017-3.246-.017-1.083-.034-2.163-.055-3.246-.01-.52-.022-1.042-.041-1.562-.017-.481 0-.989-.096-1.46-.005-.027-.03-.092-.046-.03l.002-.002ZM29.334 17.552c-.138 2.235-.049 4.49-.039 6.728.005 1.119.007 2.24.014 3.359.003.56.012 1.119.022 1.68.007.603-.012 1.222.067 1.82.005.044.034.258.116.256.082-.003.096-.217.101-.262.07-.556.029-1.143.027-1.704-.003-.56-.005-1.119-.01-1.68-.012-1.14-.034-2.278-.048-3.419-.032-2.237.01-4.49-.161-6.723-.01-.12-.075-.274-.09-.057v.002ZM32.488 17.622c-.298.308-.127 1.458-.13 1.826-.005 1.196.01 2.394.029 3.59.04 2.53.168 5.053.233 7.58.024.933.412.943.39-.01-.06-2.527-.055-5.053-.137-7.582a162.335 162.335 0 0 0-.147-3.587c-.02-.369.094-1.524-.219-1.817-.007-.01-.014-.01-.021 0h.002ZM23.07 25.625a.943.943 0 1 0 0-1.887.943.943 0 0 0 0 1.887Z" fill="#000"/><path d="M29.565 28.503c.132.048.279.04.418.04.14 0 .28.005.417.005H32.067a8.031 8.031 0 0 0 .594-.021c.106-.015.111-.012.178-.094.005-.005.005-.034 0-.041-.067-.084-.076-.084-.182-.101a2.194 2.194 0 0 0-.178-.02 8.05 8.05 0 0 0-.417-.018 19.037 19.037 0 0 0-.835-.003c-.279.005-.555.007-.832.02-.26.011-.592-.013-.833.09-.017.008-.014.136.003.143ZM2.716 28.527c.306.06.621.053.932.057.31.005.599.01.9.012.608 0 1.22.005 1.828.005 1.22 0 2.438-.005 3.658-.007 2.427-.005 4.858-.002 7.286-.01.678 0 1.359-.004 2.038-.004h1.02c.349-.005.705.019 1.049-.034.024-.005.02-.258-.007-.262-.308-.044-.621-.027-.932-.027h-.9c-.608.003-1.22.005-1.828.005-1.22 0-2.438.003-3.658.007-2.427.01-4.858.02-7.286.027-.678 0-1.359.007-2.038.012-.339.002-.678.01-1.02.014-.341.005-.705-.005-1.046.065-.02.005-.017.133.002.137l.002.003Z" fill="#000"/></svg>