<svg width="32" height="31" fill="none" xmlns="http://www.w3.org/2000/svg"><path d="M.072 27 0 .439 31.855 0 32 26.104.072 27Z" fill="#fff"/><path d="M28.402.469c1.066-.157 2.134-.314 3.2-.469L32 25.961c-4.678.081-9.353.171-14.03.268-5.33.11-10.666.233-15.97.771C8.968 20.175 12.926 10.303 12.121.62L15.4.53l.417 23.963a35.5 35.5 0 0 0 8.087-9.638A35.32 35.32 0 0 0 28.402.47V.469Z" fill="#EDDAD7"/><path d="M31.16.26c-.167 1.689-.144 3.394-.155 5.088-.011 1.7 0 3.403.008 5.106.02 3.365.048 6.73.082 10.097.017 1.912.009 3.823.065 5.735.006.204.082.712.438.714.356.002.393-.558.393-.73.037-3.401-.048-6.807-.08-10.21-.027-3.366-.064-6.73-.132-10.095-.04-1.903-.048-3.814-.266-5.71C31.505.18 31.454.002 31.33 0c-.125-.002-.161.195-.17.262V.259ZM22.876 5h-4.752a.124.124 0 0 0-.124.124v4.752c0 .069.055.124.124.124h4.752A.124.124 0 0 0 23 9.876V5.124A.124.124 0 0 0 22.876 5ZM29.876 15h-4.752a.124.124 0 0 0-.124.124v4.752c0 .069.055.124.124.124h4.752a.124.124 0 0 0 .124-.124v-4.752a.124.124 0 0 0-.124-.124ZM3.002 27l.111 4C7.41 29.713 11.704 28.424 16 27.136c-4.333-.044-8.665-.09-13-.136h.002ZM28.998 27l-.111 4C24.59 29.713 20.296 28.424 16 27.136c4.333-.044 8.665-.09 13-.136h-.002ZM14 16H3v1h11v-1Z" fill="#000"/><path d="M13.896 15.845c.23-3.405-2.574-6.194-5.691-6.063-2.982.125-5.485 2.89-5.213 6.136" fill="#fff"/><path d="M13.947 15.912c.242-1.21-.161-2.577-.778-3.615-.617-1.039-1.59-1.92-2.722-2.4-2.365-.999-5.038-.124-6.493 1.953a6.142 6.142 0 0 0-1.057 4.154c.007.055.025.237.113.22.087-.015.078-.26.076-.308-.048-1.238.244-2.406.955-3.435a5.689 5.689 0 0 1 2.559-2.04c2.16-.852 4.607-.065 6.023 1.736.389.495.7 1.057.902 1.653.224.659.268 1.329.311 2.017.005.074.079.212.108.067l.003-.002ZM10 8H7v1h3V8ZM.177 26.92c2.06.083 4.133.082 6.197.079l6.194-.006c4.127-.004 8.258-.022 12.385-.04 1.147-.005 2.294-.007 3.441-.015l1.777-.01.86-.006c.13 0 .27.009.401-.003.177-.015.304-.095.44-.165.185-.094.163-.504-.024-.593-.108-.052-.23-.127-.36-.151-.1-.018-.216-.006-.32-.006l-.802.004-1.55.01a9128.859 9128.859 0 0 0-9.288.076c-4.127.035-8.254.078-12.38.122-2.328.025-4.668.04-6.99.164-.222.012-.206.528.022.537l-.003.003Z" fill="#000"/><path d="M15.117.198c-.154.833-.112 1.706-.112 2.544 0 .838.006 1.72.013 2.582.013 1.72.054 3.44.086 5.16.064 3.44.042 6.885.215 10.32.048.977.09 1.953.121 2.932.032.979.013 1.96.116 2.931.01.09.028.31.192.331.163.021.214-.166.22-.248.061-.869.016-1.744.013-2.613-.003-.868.01-1.72.007-2.581-.007-1.74-.026-3.479-.058-5.22-.064-3.44-.1-6.882-.192-10.32-.026-.976-.06-1.955-.096-2.931-.035-.977-.013-1.946-.22-2.892-.059-.265-.26-.251-.305.005ZM25.007 7.574c.064.206.111.246.215.286.104.04.215.046.323.058.206.022.411.028.619.04.42.017.843.028 1.263.034.42.006.824.011 1.235.006h.646c.206 0 .451.028.645-.155.068-.063.059-.629-.007-.692-.196-.177-.442-.148-.647-.148h-.616c-.42-.006-.843 0-1.263 0-.42 0-.822.017-1.235.028a6.17 6.17 0 0 0-.647.04c-.099.012-.196.017-.293.052-.115.04-.172.063-.238.291a.422.422 0 0 0 0 .155v.005ZM25.007 9.574c.064.206.111.246.215.286.104.04.215.046.323.058.206.022.411.028.619.04.42.017.843.028 1.263.034.42.006.824.011 1.235.006h.646c.206 0 .451.028.645-.155.068-.063.059-.629-.007-.692-.196-.177-.442-.148-.647-.148h-.616c-.42-.006-.843 0-1.263 0-.42 0-.822.017-1.235.028a6.17 6.17 0 0 0-.647.04c-.099.012-.196.017-.293.052-.115.04-.172.063-.238.291a.422.422 0 0 0 0 .155v.005ZM18.007 15.574c.064.206.111.246.215.286.104.04.215.046.323.058.206.022.411.028.619.04.42.017.843.028 1.263.034.42.006.824.011 1.235.006h.646c.206 0 .451.028.645-.155.068-.063.059-.629-.007-.692-.196-.177-.442-.149-.647-.149h-.616c-.42-.005-.843 0-1.263 0-.42 0-.822.018-1.235.03-.215.005-.43.01-.647.04-.099.01-.196.016-.293.05-.115.04-.172.063-.238.292a.422.422 0 0 0 0 .155v.005Z" fill="#000"/><path d="M.113.95c2.063.089 4.143.037 6.209.016 2.065-.02 4.136-.043 6.206-.068C16.645.848 20.763.801 24.88.752 27.218.725 29.56.667 31.898.67c.144 0 .134-.675-.02-.671-4.133.107-8.273.105-12.41.157-4.117.052-8.234.099-12.352.157C4.781.347 2.43.337.102.494c-.142.01-.133.45.011.456Z" fill="#000"/><path d="M.4.05C.163.373.214.764.192 1.113c-.029.468-.05.935-.072 1.405-.04.851-.058 1.703-.073 2.557C.02 6.796.023 8.52.02 10.244c0 3.464 0 6.928.007 10.394 0 1.93-.097 3.878.084 5.804.014.156.054.507.365.554.312.046.41-.289.42-.415.163-1.747.087-3.512.087-5.262v-5.224c0-3.446.033-6.891-.025-10.336C.942 4.79.932 3.823.888 2.858.866 2.355.845 1.853.812 1.35.787.922.845.45.58.052.53-.022.446-.013.396.054L.399.05Z" fill="#000"/></svg>