<svg width="36" height="31" fill="none" xmlns="http://www.w3.org/2000/svg"><path d="M12.538 18.695a.606.606 0 0 0 .156.261c.098.082.235.093.362.103l13.928.935c.146.01.3.017.426-.055.144-.084.213-.252.269-.41C29.414 14.794 30.083 9.705 32 5.04l-8.815-.036c-2.567-.01-5.139-.019-7.699.163-1.5.108-2.998.283-4.503.34-.91.034-2.529-.373-2.903.746-.373 1.12.657 2.664 1.031 3.625.542 1.393 1.08 2.785 1.623 4.176l1.802 4.64h.002Z" fill="#fff"/><path d="M21.417 5.029c-.278.278-.254.61-.273.919-.025.413-.05.823-.064 1.236-.039.83-.063 1.658-.073 2.484-.015 1.658-.024 3.31.166 4.965.01.095.049.346.303.366.254.02.337-.18.347-.273.19-1.65.185-3.293.17-4.945a66.761 66.761 0 0 0-.063-2.421c-.02-.413-.034-.827-.063-1.242-.02-.348.024-.741-.264-1.064-.034-.035-.132-.085-.19-.028l.004.003Z" fill="#EBD8D5"/><path d="M9.039 9.768c1.426.237 2.865.232 4.308.232 1.444 0 2.828-.01 4.242-.025a391.142 391.142 0 0 0 10.875-.266c.818-.03 1.651-.025 2.455-.21.113-.027.106-.42-.01-.438-.715-.102-1.434-.052-2.153-.024a482.064 482.064 0 0 1-6.39.194 514.43 514.43 0 0 1-8.542.134c-1.599.01-3.206-.025-4.787.22-.052.007-.047.171.004.181l-.002.002ZM9.043 14.8c.672.195 1.424.157 2.12.172.697.014 1.45.016 2.177.023 1.429.012 2.86 0 4.288-.019 2.811-.038 5.62-.102 8.432-.204.784-.028 1.57-.042 2.356-.059.413-.007.826-.012 1.242-.016.415-.005.833.016 1.239-.107.144-.043.134-.462-.013-.5-.659-.17-1.43-.05-2.11-.03-.724.018-1.448.023-2.17.032-1.425.02-2.853 0-4.279.005-2.814.01-5.628.088-8.44.159-.786.019-1.575.047-2.361.088-.786.04-1.707 0-2.48.25-.063.02-.055.188.004.207h-.005Z" fill="#EBD8D5"/><path d="m33.353 6.26.637-2.349a.288.288 0 0 0-.27-.365H7.906a.279.279 0 0 1-.266-.197L6.567.07V.007h-.02V0l-.019.007H.281C.124.007 0 .137 0 .295v2.14c0 .16.127.287.28.287h4.401c.122 0 .23.08.266.197l6.197 18.934V22h17.962v-.052l4.245-15.69.002.002Zm-6.23 13.026H13.056a.279.279 0 0 1-.266-.198L8.716 6.639a.287.287 0 0 1 .266-.38H30.55c.186 0 .322.182.271.367l-3.428 12.451a.28.28 0 0 1-.27.21Z" fill="#000"/><path d="m23.812 26.567-3.562-8.864c-.606-1.133-.022-2.38.806-2.646.753-.24 1.84.285 2.182 1.373.584 1.32 1.168 2.636 1.754 3.955-.344-.781 0-1.604.544-1.842.611-.268 1.589.15 1.83 1.1-.34-.835.14-1.732.876-1.926.621-.162 1.355.192 1.642.877-.095-.54.174-1.05.588-1.223.532-.22 1.287.118 1.482.84 1.35 3.306 2.697 6.612 4.046 9.915l-7.363 2.594c-1.397.43-2.46.275-3.049.125-3.143-.798-5.4-4.65-4.447-7.1.227-.58.598-.993.895-1.263M15.695 21.003c-1.868-.084-3.716 1.695-3.695 3.582.016 1.54 1.279 3.265 3.197 3.406 1.722.126 3.176-1.08 3.63-2.318.733-1.995-.967-4.573-3.132-4.67Z" fill="#fff"/><path d="M15.935 23.002c-.518.03-.904.47-.933.928-.036.527.402 1.068.993 1.07A1.02 1.02 0 0 0 17 23.966a1.026 1.026 0 0 0-1.062-.965h-.002Z" fill="#EBD8D5"/><path d="M15.543 20.107c-.346-.079-.705-.137-1.046-.017-.366.129-.702.327-1 .576a4.167 4.167 0 0 0-1.306 1.969c-.477 1.548-.052 3.39 1.16 4.507 1.21 1.116 3.138 1.177 4.396-.015 1.171-1.109 1.54-2.8 1.028-4.311-.26-.767-.647-1.478-1.233-2.05a3.085 3.085 0 0 0-.944-.647c-.359-.152-.67-.144-1.058-.056-.04.01-.035.122.003.132.291.08.57.236.845.363.274.128.526.286.76.472.493.388.888.911 1.15 1.475.539 1.17.428 2.44-.465 3.405-.956 1.036-2.5 1.427-3.758.692-1.073-.628-1.844-1.95-1.644-3.195.129-.802.569-1.573 1.15-2.138.266-.261.573-.488.909-.657.336-.168.68-.371 1.053-.459.014-.002.014-.046 0-.051v.005Z" fill="#000"/><path d="M26.824 19.61c-.756.387-1.042 1.787-.356 3.39l-1.286-3.043a1.256 1.256 0 0 1 .1-1.445c.36-.446.983-.612 1.435-.453.35.121.616.401.813.703.174.266.34.56.47.846-.673-.221-1.047-.07-1.179 0l.003.002Z" fill="#EBD8D5"/><path d="M27.368 19.435c.249.644.65 1.537 1.308 2.565a5.56 5.56 0 0 1-.252-1.895c.04-.921.296-1.221.386-1.319.374-.402.919-.54 1.19-.592-.01-.07-.106-.741-.788-1.052-.745-.338-1.701-.025-2.069.442-.174.22-.277.553.225 1.854v-.003Z" fill="#EBD8D5"/><path d="m28.843 22.12.016-.006a.225.225 0 0 0 .122-.295l-1.521-3.657a.225.225 0 0 0-.295-.122l-.015.007a.225.225 0 0 0-.122.294L28.548 22c.049.115.18.169.296.121Z" fill="#000"/><path d="M30.188 18.659c-.105-.274-.2-.559-.187-.85.014-.292.16-.592.43-.728a.947.947 0 0 1 .561-.067c.433.067.821.345 1.008.721-.103-.062-.236-.055-.35-.02-.255.078-.452.278-.573.507-.122.23-.171.483-.206.735-.026.186-.044.376-.063.565-.017.169.016.318.023.478-.086-.04-.126-.18-.166-.258-.06-.122-.119-.245-.177-.37a10.21 10.21 0 0 1-.302-.718l.002.005Z" fill="#EBD8D5"/><path d="m31.165 21.312.02-.009a.223.223 0 0 0 .121-.29l-1.486-3.574a.223.223 0 0 0-.291-.12l-.02.008a.223.223 0 0 0-.121.291l1.486 3.574a.223.223 0 0 0 .291.12Z" fill="#000"/><path d="M22.268 16.067c-.67.485-.256 2.011.242 3.926.347 1.345.869 3.393 1.49 6.007-1.28-3.115-2.56-6.228-3.843-9.343-.062-.152-.329-.86.016-1.612.072-.16.409-.895 1.137-1.026.74-.133 1.332.46 1.55.674.513.514.645 1.115.686 1.367-.407-.14-.934-.247-1.278.005v.002Z" fill="#EBD8D5"/><path d="M26.042 22.889c.05.12.187.177.306.127a.235.235 0 0 0 .126-.307l-1.653-3.976a.235.235 0 0 0-.307-.127.235.235 0 0 0-.125.307l1.653 3.976Z" fill="#000"/><path d="M22.273 22c-.184.598-.494 1.916-.03 3.464.09.299.91 2.89 3.69 4.033 2.29.942 5.03.538 7.067-1.022-1.249.18-3.096.27-5.146-.292-2.955-.808-3.89-2.305-3.93-2.375-.028-.05-.051-.1-.051-.1-.082-.175-.11-.34-.494-1.263A44.213 44.213 0 0 0 22.273 22Z" fill="#EBD8D5"/><path d="M24.006 25.9c-.433-1.357-.97-2.677-1.487-4.003a685.051 685.051 0 0 1-1.524-3.949c-.124-.326-.248-.65-.375-.975-.1-.26-.23-.497-.22-.786.014-.434.277-.87.644-1.093.77-.468 1.767.157 2.086.897.601 1.389 1.217 2.775 1.82 4.162.071.16.188.137.254-.007.08-.177.058-.441-.015-.615-.243-.58.285-1.144.855-1.19.569-.047 1.139.31 1.35.864l.283-.693c-.173-.441.445-.848.805-.897.485-.066 1.032.203 1.176.696.037.13.134.31.277.196.144-.116.134-.431.112-.59-.048-.368.378-.643.697-.652a.993.993 0 0 1 .886.517c.25.492.423 1.048.632 1.563.234.578.465 1.158.699 1.736.908 2.262 1.801 4.53 2.726 6.787l.063-.718c-1.67.607-3.342 1.215-5.016 1.8-.4.14-.803.245-1.21.36-.455.128-.896.29-1.356.39a5.658 5.658 0 0 1-1.915.1c-2.169-.271-4.072-2.128-4.705-4.196-.156-.512-.222-.978-.173-1.426.066-.593.411-1.213.884-1.663.18-.174.172-.522.143-.75-.01-.08-.119-.576-.292-.416-2.113 1.945-1.312 5.264.275 7.273.789.997 1.84 1.815 3.062 2.183 1.434.429 2.821.1 4.157-.495 1.025-.458 2.082-.823 3.138-1.2 1.056-.378 2.083-.765 3.128-1.137.209-.074.116-.58.063-.718-.806-2.07-1.638-4.13-2.459-6.196-.41-1.036-.822-2.07-1.226-3.106-.275-.708-.509-1.573-1.392-1.678-1.023-.12-1.327 1.132-1.222 1.916l.392-.392c-.246-.833-1.069-1.443-1.93-1.061-.916.404-1.028 1.639-.702 2.464.073.187.227.15.3-.007.097-.203.063-.483-.017-.686-.314-.806-1.203-1.374-2.047-.997-.957.429-1.037 1.788-.684 2.636l.238-.62c-.603-1.401-1.163-2.824-1.784-4.216-.367-.823-1.343-1.58-2.273-1.22-1.069.414-1.297 1.906-1.018 2.883.095.326.253.635.38.951.149.372.302.745.453 1.117.302.747.601 1.497.9 2.244.653 1.63 1.249 3.293 2.008 4.873.103.213.176-.176.146-.267l.01.007ZM19.007 9.057c-.032.277.049.554.118.813.075.285.162.568.253.845.08.248.151.528.271.754.101.19.21.357.334.526.018.023.018-.041.016-.049a29.12 29.12 0 0 0-.164-.844c-.059-.282-.15-.529-.237-.788l-.24-.708c-.071-.208-.14-.42-.264-.585-.016-.023-.026-.026-.05-.015l-.018.007c-.01.006-.015.034-.015.044h-.004ZM23.877 10.017v-.011c-.043-.012-.086-.007-.117.027-.24.289-.403.6-.53.926a3.14 3.14 0 0 0-.135.523c-.03.16-.067.319-.095.482 0 .011.015.055.03.027.08-.135.158-.266.262-.392.105-.126.185-.26.268-.394.095-.15.166-.307.252-.461.043-.08.08-.16.117-.243.028-.062.058-.12.068-.186a.496.496 0 0 0-.003-.135c-.025-.085-.025-.08 0 .014.006-.037-.013-.223-.114-.18l-.003.003ZM16.023 13.112c.08.073.16.137.276.197.11.057.236.104.362.15.236.086.494.163.742.239.249.075.482.137.742.194.243.052.525.102.792.108.095.002.064-.114.027-.133a5.835 5.835 0 0 0-.705-.283c-.245-.085-.5-.163-.76-.239-.246-.071-.482-.147-.724-.22-.114-.033-.233-.072-.36-.094-.054-.01-.116-.025-.174-.03-.058-.004-.132.005-.187.01-.074.005-.058.078-.034.1l.003.001ZM15.145 23.674c-.089.041-.11.12-.128.202a.765.765 0 0 0 .002.328c.043.2.155.408.325.55.17.143.388.244.63.246.242.002.465-.086.634-.221.36-.288.485-.76.321-1.16a.995.995 0 0 0-1.105-.6c-.524.104-.878.585-.8 1.04.009.05.046.049.052 0 .041-.337.242-.65.62-.776a.96.96 0 0 1 1.03.312c.225.288.166.616-.082.87a.95.95 0 0 1-1.472-.2.507.507 0 0 1-.07-.253c0-.105.035-.215.055-.32 0-.003 0-.025-.012-.02v.002Z" fill="#000"/></svg>