<svg width="38" height="26" fill="none" xmlns="http://www.w3.org/2000/svg"><path d="M.81 25.153c-1.271-1.367-.884-3.574.048-5.183 2.02-3.491 5.907-5.469 9.546-7.328 4.16-2.127 8.272-4.35 12.328-6.663.2-.114.405-.234.539-.415.178-.241.207-.552.242-.844.096-.803.28-1.594.541-2.36.143-.418.341-.73.7-.992 1.037-.76 2.623-.125 2.885-.015.534.225.882.512.98.594 3.368 2.812 5.846 6.82 5.846 6.82A53.49 53.49 0 0 1 37 13.356c-.148-.01-2.574-.258-3.75 1.661-.759 1.235-.81 2.785-.475 4.187-1.541-.613-3.51.154-4.2 1.632-.336.721-.61 1.737-1.42 1.751-.462.007-.83-.35-1.159-.666a12.154 12.154 0 0 0-2.278-1.717c-.222-.13-.477-.258-.729-.202-.22.048-.385.224-.528.393-.756.89-1.391 1.88-1.876 2.937-.845-.12-1.331-.972-1.712-1.72-.38-.744-.931-1.581-1.784-1.617-.755-.032-1.385.631-1.586 1.345-.2.714-.079 1.469-.01 2.204.07.736.077 1.524-.313 2.156-.084.138-.203.275-.366.297-.143.02-.281-.053-.4-.135-.803-.548-1.213-1.507-1.374-2.453-.158-.943-.106-1.91-.197-2.862-.023-.234-.06-.48-.21-.663-.302-.362-.942-.273-1.253.08-.311.354-.35.865-.28 1.326.072.46.243.904.3 1.364.032.251.024.524-.119.736-.143.212-.46.325-.674.183-.102-.067-.163-.178-.218-.284-.348-.697-.504-1.466-.79-2.19-.287-.721-.746-1.432-1.473-1.748-.726-.316-1.739-.056-2 .675-.122.34-.07.716-.154 1.066-.084.35-.415.704-.768.6-.53-.499-.151-1.519-.71-1.987-.405-.34-1.077-.13-1.393.29-.316.42-.37.967-.417 1.488l-.17 1.974c-.038.418-.08.854-.31 1.209-.23.354-.706.593-1.097.42-.511-.227-.983-.772-.872-1.549" fill="#fff"/><path d="M17.83 11.329c-.563 1.782-2.25 2.398-2.452 2.467-1.483.513-3.192.038-4.378-1.198C13.273 11.4 15.547 10.2 17.82 9c.113.37.338 1.281.007 2.329h.002ZM29.886 15.075c.113-1.479-1.628-2.817-3.888-2.989-2.26-.172-4.184.888-4.296 2.367-.113 1.478 1.628 2.817 3.888 2.988 2.26.172 4.183-.887 4.296-2.366Z" fill="#fff"/><path d="M3.06 20.331c.006-.142.073-.116.163-.184.074-.053.123-.128.199-.182a.83.83 0 0 1 .684-.105c.24.063.502.25.556.495.052.226 0 .49.02.723.027.347.088 1.038.559 1.115.409.065.75-.422.84-.735.152-.513-.039-1.136.263-1.6.233-.362.669-.611 1.103-.693 1.235-.233 1.853 1.171 2.093 2.079.147.552.194 1.11.27 1.672.058.439.161 1.029.652 1.218.463.18.767-.234.88-.605.174-.576.12-1.217.029-1.805-.074-.466-.257-.942.076-1.36.253-.315.792-.52 1.174-.287.226.138.297.376.311.616.018.306.027.613.037.919.022.614.03 1.225.042 1.838.017.83.061 2.407 1.233 2.543 1.171.135 1.203-1.628 1.113-2.345-.12-.937-.258-1.908.465-2.68.535-.571 1.552-.89 2.275-.448.838.514.723 1.692 1.27 2.415.25.33.662.636 1.117.55.456-.086.743-.487.912-.868.221-.501.267-1.042.635-1.476.31-.366.75-.688 1.25-.76.692-.099 1.199.4 1.64.828.441.426.843.951 1.42 1.215.77.352 1.414-.27 1.845-.824.272-.35.353-.74.532-1.129.196-.427.566-.77.998-.98a3.109 3.109 0 0 1 1.912-.28c.37.069.737.204 1.073.365.093.044.133-.47.133-.476.01-.245-.01-.492-.089-.726-.407-1.2-.105-2.48.726-3.463.194-.23.419-.444.657-.633.318-.252.708-.31 1.113-.329.556-.023 1.125-.041 1.674.066.066.011.164-.875-.025-.912-.299-.059-.6-.098-.907-.103-.433-.005-.816.112-1.203.301-.684.331-1.307.642-1.748 1.26-.966 1.353-.9 3.319-.446 4.826l.12-1.08c-1.311-.768-3.245-.301-4.025.984-.223.366-.274.798-.534 1.145-.26.348-.63.747-1.076.85-.664.153-1.182-.423-1.567-.85-.438-.485-.85-1.038-1.475-1.32-.821-.373-1.699.161-2.182.803-.333.44-.409.958-.6 1.457-.17.439-.55.873-1.09.791-1.06-.163-1.06-1.537-1.474-2.237-.454-.767-1.346-.947-2.172-.613-.919.373-1.345 1.227-1.495 2.125a6.8 6.8 0 0 0-.04 1.742c.023.257.062.509.101.763.037.238.05.324-.113.532-.333.434-.9.336-1.284.023-.441-.36-.417-.896-.441-1.402a76.306 76.306 0 0 1-.071-1.838c-.015-.539.017-1.117-.17-1.635-.345-.954-1.512-.653-1.85.135-.218.506-.208 1.101-.154 1.635.029.273.076.542.117.812.034.224.069.408-.105.593-.201.212-.503.189-.723.004-.22-.184-.245-.424-.285-.678-.083-.558-.15-1.141-.345-1.675-.297-.81-1.06-1.334-1.902-1.551-.37-.096-.802-.075-1.138.111-.38.213-.537.572-.59.97-.06.446.022 1.08-.601 1.183-.623.103-.505-.634-.542-1.005-.041-.438-.15-.919-.608-1.124-.39-.175-.921-.056-1.122.329-.125.242-.211.702-.096.965v-.002l.005.002Z" fill="#000"/><path d="M15.076 23.889c.298.063.554.111.858.111.285 0 .571 0 .855-.002.571-.003 1.14-.027 1.71-.049 1.14-.044 2.279-.114 3.417-.165a152.792 152.792 0 0 0 10.292-.802c.961-.106 1.942-.174 2.888-.383.762-.17 1.51-.482 2.05-1.056.355-.378.518-.867.636-1.362.419-1.766.187-3.736-.296-5.466-.357-1.277-.86-2.503-1.454-3.688-1.645-3.28-3.88-6.285-6.625-8.76C28.69 1.622 27.943.95 27.1.464c-.741-.432-1.643-.689-2.422-.19-.547.352-.906.916-1.172 1.49-.37.8-.528 1.644-.518 2.523.005.361.037.722.099 1.076.022.124.049.392.175.213.118-.167.056-.644.024-.829-.103-.586.015-1.216.286-1.822.242-.538.572-1.092 1.07-1.439 1.571-1.1 3.49.846 4.56 1.813 2.575 2.323 4.706 5.069 6.365 8.09 1.3 2.37 2.533 5.137 2.094 7.882-.079.497-.246.936-.562 1.33-.483.611-1.244.91-1.983 1.1-.858.221-1.747.299-2.627.4a172.26 172.26 0 0 1-3.161.335c-2.11.203-4.22.378-6.335.52-2.114.144-4.23.173-6.35.262-.263.013-.53.022-.793.032-.279.01-.52.075-.791.14-.086.022-.074.49.012.507l.005-.008ZM2.078 23.62c.849.152 1.794.109 2.663.134.92.028 1.837.053 2.757.077.92.024 1.794.05 2.69.08.45.015.897.033 1.347.054.213.01.427.028.64.034.257.008.517-.028.766-.018.072.002.092-.647-.02-.653-.234-.012-.466-.063-.707-.077-.242-.014-.47-.016-.705-.022-.426-.011-.853-.023-1.282-.039-.917-.034-1.837-.061-2.755-.089-.917-.027-1.793-.047-2.693-.065l-1.346-.026c-.45-.007-.93-.03-1.375.03-.085.012-.075.562.018.58h.002Z" fill="#000"/><path d="M24.01 6.122c.603.509 1.03 1.193 1.584 1.76a27.2 27.2 0 0 1 1.786 2.004c1.373 1.706 2.532 3.596 3.375 5.66.264.646.504 1.308.713 1.976.09.29.168.585.26.875.07.214.174.394.257.598.01.025.017-.049.015-.054-.074-.615-.157-1.203-.326-1.798a23.007 23.007 0 0 0-.567-1.752 23.37 23.37 0 0 0-1.592-3.377c-.988-1.726-2.185-3.308-3.593-4.66-.307-.296-.63-.596-.998-.797-.147-.079-.304-.13-.446-.216-.164-.097-.312-.224-.461-.34-.012-.008-.029.104-.005.121h-.002ZM20.317 17.68h.037a.11.11 0 0 1 .037.004l-.062-.009s0 .009.05.022c.037.009.05.009.087.013.025 0 .037.004.062.009l-.062-.013s.05.013.087.013h.025c.012 0 .037 0 .05.004l-.063-.013s.013 0 .025.004l-.062-.034s.05.034.062.052l-.05-.057s.013.018.025.026l-.05-.073v.017l-.037-.09v.016-.1s-.012.005-.012.01v-.1.013l.025-.091v.013l.037-.078v.013l.05-.06-.025.021.062-.039s-.062.03-.112.04l.062-.014a.656.656 0 0 1-.26.004l.074.014s-.075-.018-.087-.03l.062.038v-.009l.05.061v-.009l.05.078.037.091v.1s.012-.005.012-.009v.1-.005.091l-.012-.008-.038.073v-.008l-.05.056c.013-.022.038-.04.05-.07.05-.09.063-.186.05-.277v.135c0-.078 0-.156-.025-.23-.012-.039-.025-.082-.074-.117l-.038-.026c-.062-.008-.087-.026-.087-.052-.024-.03-.012-.065-.111-.03a.268.268 0 0 0-.062.043.309.309 0 0 0-.087.148.662.662 0 0 0 0 .311c.012.06.037.135.087.19a.32.32 0 0 0 .149.118.734.734 0 0 0 .434-.005.372.372 0 0 0 .174-.09c0-.005 0-.014.013-.018.025-.026.037-.052.062-.073.05-.1.062-.2.062-.3 0-.129-.05-.263-.186-.384-.025-.026-.075-.052-.112-.074a.369.369 0 0 0-.137-.026.445.445 0 0 0-.149.026c-.012.004-.025.009-.037.017-.075.035-.087.074-.112.108l.037-.051-.037.038a.82.82 0 0 0-.087.135.332.332 0 0 0-.012.19c0 .048.024.1.062.147a.11.11 0 0 0 .037.04s.012.008.025.012c0 .013.037.018.062.022l-.037-.004ZM8.222 16.006l-.024.009v.004a.36.36 0 0 0-.07.046c-.011.013-.046.059-.058.072v.005a.58.58 0 0 0-.047.095c0 .027-.023.082-.023.109v.122c0 .078 0 .16.035.237a.54.54 0 0 0 .07.136c0 .013.023.031.035.045a.494.494 0 0 0 .082.055.595.595 0 0 0 .175.05c.034.009.093.013.14.004a.726.726 0 0 0 .233-.068l-.339-.558v.127c0 .072 0 .159.035.231a.335.335 0 0 0 .105.168.658.658 0 0 0 .07.05c.035.018.07.023.105.01.059-.01.094-.028.105-.055a.564.564 0 0 0 .082-.118.392.392 0 0 0 .047-.155v-.122c0-.077 0-.154-.024-.227l-.046-.09a.33.33 0 0 0-.117-.119l.07.046s.035.045.058.068c.012.027.024.059.047.09 0 .037.023.073.023.11v.235-.009a.83.83 0 0 0 0-.24.438.438 0 0 0-.186-.318.152.152 0 0 0-.14 0 .612.612 0 0 1-.117.045l.07-.018s-.058.014-.105.01a.388.388 0 0 1-.082-.01l.07.018s-.07-.022-.093-.036l.07.045-.023-.018.058.073v-.01l.047.092.023.108v.246l-.023.109-.047.09v-.004l-.058.072v-.009l-.07.046.035-.014c.046-.023.081-.05.093-.082a.314.314 0 0 0 .07-.127.433.433 0 0 0 .035-.168v-.181l-.023-.11a.392.392 0 0 0-.094-.163l-.07-.045s-.093-.023-.14 0l-.07-.005Z" fill="#000"/><path d="M29.886 15.075c.113-1.479-1.628-2.817-3.888-2.989-2.26-.172-4.184.888-4.296 2.367-.113 1.478 1.628 2.817 3.888 2.988 2.26.172 4.183-.887 4.296-2.366ZM17.83 10.329c-.563 1.782-2.25 2.398-2.452 2.467-1.483.513-3.192.038-4.378-1.198C13.273 10.4 15.547 9.2 17.82 8c.113.37.338 1.281.007 2.329h.002ZM2.66 20.236c.124-.326.32-.688.674-.752.355-.064.687.22.82.539.135.318.132.671.199 1.01.067.337.234.693.566.827.399-.31.676-.761.767-1.244.051-.275.043-.559.144-.82.28-.743 1.353-.988 2.099-.64.746.348 1.188 1.1 1.425 1.857.237.757.319 1.553.587 2.3a.738.738 0 0 0 .164.292c.185.171.515.127.7-.042.185-.169.257-.426.275-.673.034-.468-.092-.931-.167-1.395-.075-.463-.087-.962.15-1.374.236-.412.797-.684 1.24-.48.493.225.578.85.599 1.374l.097 2.644c.003.098 0 .21-.074.28-.07.06-.175.063-.273.06l-8.63-.227a15.131 15.131 0 0 1-.943-.045c-.21-.017-.864-.007-1.008-.178-.162-.196 0-.831.028-1.066.096-.765.28-1.522.556-2.247h.005Z" fill="#000"/><path d="M32.472 18.953c-.164-.596-.416-1.882.134-3.306.21-.547.766-1.98 2.169-2.465.218-.074 1.12-.386 1.795.03.425.261.55.683.838 1.972.416 1.859.597 2.789.592 3.196-.01 1.086-.357 2.211-1.176 2.966-.77.71-1.86 1.016-2.927 1.133-1.066.116-2.146.072-3.208.21-.623.078-1.237.22-1.855.332-.731.133-1.472.226-2.213.306a68.48 68.48 0 0 1-9.09.372c-.812-.02-1.665-.049-2.39.301-.185-.606-.165-1.312-.07-1.936.115-.748.415-1.533 1.086-1.939.748-.454 1.855-.244 2.366.448.289.391.389.88.624 1.302.234.422.706.806 1.193.685.533-.13.721-.736.934-1.218.173-.392.418-.753.721-1.065.257-.266.584-.503.963-.524.445-.024.837.254 1.186.514.477.36.954.718 1.428 1.077.425.321.96.66 1.467.48.22-.08.394-.247.548-.415.303-.328.574-.685.811-1.062.194-.308.365-.632.626-.888.37-.363.886-.555 1.39-.715.312-.1.632-.191.962-.189.33.005.673.119.873.368a75.126 75.126 0 0 0-.535-.361" fill="#000"/><path d="M13 16.679c.153-.065.288-.163.425-.254.382-.25.799-.452 1.215-.65L18.357 14c.215.364.428.73.643 1.095a45.33 45.33 0 0 1-3.305 1.795c-.466.228-.936.45-1.37.728-.15.095-.33.296-.497.359-.199.075-.252-.045-.35-.206a5.504 5.504 0 0 1-.478-1.09v-.002Z" fill="#ECD9D6"/><path d="M13.006 16.632c-.024-.064.034.1.047.132.053.133.121.26.182.389.119.255.232.516.327.78 0 0 .026.075.05.066a59.577 59.577 0 0 0 2.79-1.305c.862-.425 1.743-.85 2.565-1.325.076-.045 0-.377-.024-.369-1.212.46-2.374 1.041-3.526 1.591-.548.263-1.102.525-1.623.82-.153.087-.182.121-.25-.032-.056-.122-.111-.244-.17-.363-.097-.203-.181-.435-.342-.61-.018-.02-.04.196-.026.228v-.002Z" fill="#000"/><path d="M21.374 11 23 10.84c-.033-.445-.065-.893-.094-1.338-.083-1.17-.167-2.345-.427-3.502.01.047-1.362.294-1.452.498-.076.171.032.493.04.674.01.257.021.51.04.767.058 1.023.148 2.043.271 3.061h-.004Z" fill="#ECD9D6"/><path d="M3.181 19.528c-.594.877-.587 2.01-.685 3.03-.05.518-.118 1.038-.344 1.512-.214.45-.75 1.05-1.273.642-.373-.292-.495-.917-.553-1.361-.06-.472.005-.95.113-1.41a7.805 7.805 0 0 1 1.496-3.054c1.55-1.935 3.726-3.174 5.817-4.416a271.172 271.172 0 0 1 7.094-4.088 486.47 486.47 0 0 1 3.978-2.175c1.33-.719 2.726-1.409 4.1-2.1.11-.055.07-.456.067-.556 0-.039-.056-.573-.094-.551-1.292.726-2.579 1.463-3.887 2.158-1.31.695-2.589 1.38-3.878 2.08-2.543 1.383-5.076 2.773-7.556 4.267-2.194 1.32-4.45 2.676-6.026 4.756a7.465 7.465 0 0 0-1.414 3.2c-.207 1.17-.221 2.64.27 3.787.211.495.68.967 1.238.646.558-.32.792-1.04.929-1.628.308-1.332.074-2.749.702-4 .067-.136.046-.36.027-.503-.005-.027-.06-.316-.118-.231l-.003-.005Z" fill="#000"/><path d="M21.038 6.042c-.052.347-.036.713-.034 1.065 0 .404.014.808.03 1.21.033.817.088 1.634.19 2.443.007.048.02.182.072.194.111.03.223.048.336.046.083 0 .227.005.296-.06.053-.051.067-.218.071-.307.006-.126-.026-.217-.067-.336-.006-.025-.018-.04-.036-.048a1.52 1.52 0 0 1-.616-.094l.08.291c-.062-.733-.129-1.466-.174-2.202-.024-.382-.04-.76-.052-1.143-.012-.34-.008-.69-.049-1.028-.006-.049-.032-.12-.047-.03Z" fill="#000"/></svg>