<svg width="33" height="32" fill="none" xmlns="http://www.w3.org/2000/svg"><path d="M2.571 12.024c-.219-1.056-.438-2.913.28-4.895C3.956 4.09 6.53 2.789 9.165 1.455c0 0 4.15-1.907 8.168-1.141.05.01.104.023.125.07.021.048-.04.114-.073.076.978.205 2.044.37 2.991.695 3.967 1.365 7.145 4.972 8.102 9.196.714.334 1.428.672 2.14 1.006.462.217.98.502 1.09 1.016.093.436-.166.891-.522 1.141s-.794.34-1.218.41c-.382.064-.884.283-.795.675.653.287 1.2.827 1.509 1.49.096.207.172.438.139.666-.064.458-.512.729-.91.934l-.917.474c-.085.044-.177.091-.224.179-.054.096-.042.214-.03.325a7.797 7.797 0 0 1-.488 3.569c.15-.02.308.068.46.052.134.6.049 1.249-.23 1.793.168-.016.288.16.357.319.584 1.353.063 3.024-.962 4.056-1.026 1.033-2.454 1.523-3.868 1.747-1.412.222-2.852.21-4.27.405-.711.1-1.418.25-2.135.305-1.211.094-2.117-.045-2.595-.107-3.5-.443-6.01-.504-8.538-1.402-.467-.165-1.266-.479-1.864-1.261-.359-.47-.51-.934-.66-1.407a7.655 7.655 0 0 1-.342-2.631 2.439 2.439 0 0 1-.25-.745 2.59 2.59 0 0 1 .106-1.252c-.9-.85-1.098-1.558-1.103-2.055-.007-.754.426-1.247.127-1.709-.276-.427-.992-.537-1.04-.545-.377-.054-.53.057-.777-.087-.25-.146-.448-.469-.41-.756.042-.316.356-.486.636-.682.37-.259.863-.695 1.344-1.454a2.6 2.6 0 0 1-.863-.332c-.335-.203-.728-.439-.757-.785-.028-.36.356-.658.828-1.023a4.88 4.88 0 0 1 1.122-.65l.004-.006Z" fill="#fff"/><path d="M20.803 9.886c-.361 3.459-2.445 5.641-3.102 6.278.527.37.817 1.016.744 1.666a1.758 1.758 0 0 1-1.183 1.483c.057.066.823.933 1.964.761.97-.146 1.463-.933 1.534-1.051.045.37.076 1.037-.174 1.808a4.127 4.127 0 0 1-1.21 1.832c1.014-.319 2.054.103 2.468.888.526.99.034 2.513-1.275 3.036.457-.064.856.24.922.627.05.288-.092.599-.354.785a1.62 1.62 0 0 1 1.26 1.412c.086.884-.623 1.44-.654 1.464 1.221-.108 3.684-.446 5.73-1.652 1.09-.644 1.507-1.207 1.698-1.764.24-.697.146-1.433.115-1.668a4.291 4.291 0 0 0-.415-1.363c.043-.493.083-.983.125-1.476a22.943 22.943 0 0 0 .274-4.525c1.105-.24 1.871-.825 1.916-1.464.024-.319-.139-.585-.311-.868-.465-.763-1.127-1.164-1.546-1.362.252-.22.638-.495 1.16-.655.697-.213 1.079-.043 1.355-.359.28-.32.252-.917.042-1.308-.203-.38-.537-.5-1.223-.785a45.858 45.858 0 0 1-1.976-.874 13.726 13.726 0 0 0-1.433-3.541 14.348 14.348 0 0 0-2.81-3.401C22.407 2.01 19.483.465 16.754.552c.283.226 4.618 3.826 4.045 9.334h.005Z" fill="#ECD9D6"/><path d="M2.321 11.228c-.32-1.349.066-2.74.672-3.956.49-.983 1.193-1.852 1.997-2.595C6.76 3.04 9.032 1.981 11.36 1.415c2.485-.606 5.115-.658 7.593.014 2.477.672 4.665 1.992 6.454 3.767.69.686 1.32 1.438 1.843 2.26.297.467.582.946.813 1.448.231.502.5 1.124.5 1.701 0 1.332-1.341 2.162-2.348 2.749-1.145.667-2.38 1.171-3.646 1.553-1.82.55-3.722.868-5.62.957-1.157.055-2.324 0-3.481-.077-1.995-.135-4.005-.399-5.931-.943-1.754-.495-3.477-1.259-4.674-2.676-.239-.282-.444-.596-.557-.952-.016-.05-.047.2-.028.264.29.9.714 1.652 1.426 2.287.712.634 1.577 1.063 2.459 1.393 1.975.737 4.082 1.006 6.17 1.174 1.41.113 2.839.2 4.25.207 1.8.01 3.614-.212 5.363-.627 1.313-.311 2.603-.747 3.812-1.35 1.131-.566 2.397-1.26 2.812-2.542.43-1.325.097-2.843-.49-4.064a12.916 12.916 0 0 0-1.615-2.536 14.684 14.684 0 0 0-5.975-4.356c-2.544-1-5.33-1.19-8.012-.719-4.654.818-9.896 3.87-10.424 9.04-.073.71-.038 1.433.217 2.105.028.075.052-.217.042-.262l.007-.002Z" fill="#000"/><path d="M2.566 11.8c-.426.154-.813.37-1.174.646-.285.22-.62.477-.754.823-.262.679.064 1.443.743 1.693.403.148.843.179 1.26.28.418.101.826.233 1.205.434.757.403 1.125 1.027 1.537 1.744.413.717.924 1.238 1.79 1.179.485-.033.935-.234 1.369-.441.372-.18.896-.54 1.33-.45.407.085.716.657.963.961.288.354.594.7.988.941.75.46 1.445.283 2.157-.137s1.362-.806 2.201-.509c.84.297 1.464 1.028 2.313 1.339.415.153.877.198 1.285-.002.28-.14.506-.359.716-.587.417-.453.948-1.146 1.662-.948.196.054.375.175.559.255.235.103.487.177.744.205.392.042.811-.02 1.144-.24.49-.326.57-.922.697-1.45.066-.27.158-.533.363-.726.31-.29.774-.34 1.177-.276.693.108 1.603.728 2.062-.127.288-.533.227-1.186.533-1.714.214-.373.617-.46 1.023-.434.377.024.738.14 1.077-.097.604-.42.672-1.331.424-1.973a1.264 1.264 0 0 0-.716-.737c-.44-.175-.908-.28-1.348-.462-.441-.182-.858-.255-1.252-.51-.014-.009-.033.133-.005.156.354.302.686.639 1.073.898.341.231.759.373 1.15.495.391.123.809.25 1.007.67.179.377-.203.754-.507.94-.358.22-.743.186-1.143.165-.295-.014-.587.04-.8.26-.365.379-.337 1.027-.492 1.503-.087.267-.24.517-.523.608-.43.14-.873-.122-1.276-.235-.643-.182-1.407-.078-1.74.56-.24.463-.214 1.014-.454 1.474-.37.714-1.302.773-1.99.552-.375-.12-.714-.37-1.105-.439-.278-.05-.526.083-.743.248-.485.372-.808.964-1.367 1.242-.818.405-1.707-.137-2.374-.587-.62-.417-1.34-.92-2.128-.787-.703.118-1.235.648-1.888.888-.795.293-1.525-.08-2.082-.657-.304-.316-.558-.674-.836-1.012-.279-.337-.53-.537-.972-.405-.844.252-1.567.863-2.489.823-.813-.033-1.25-.641-1.61-1.292-.36-.65-.7-1.228-1.36-1.582-.695-.372-1.469-.443-2.235-.558-.332-.05-.928-.182-1.03-.575-.077-.302.559-.752.773-.92a6.338 6.338 0 0 1 1.087-.667c.085-.042.007-.453-.012-.448l-.007.003Z" fill="#000"/><path d="M2.116 14.848c-.547.41-1.03.91-1.501 1.403-.175.181-.43.372-.502.62-.054.181-.052.445.02.625.09.221.338.275.543.348.36.13.724.257 1.084.385.651.226 1.304.45 1.96.669 2.705.905 5.437 1.742 8.179 2.53 1.362.39 2.727.772 4.094 1.15.684.188 1.367.372 2.053.553.304.08.616.175.931.173.316-.003.642-.118.94-.25 2.617-1.148 5.194-2.393 7.763-3.642.714-.347 1.429-.695 2.138-1.056.467-.238 1.228-.483 1.393-1.05.356-1.218-.93-2.366-1.88-2.873.016.01-.116.521.013.597.427.245.818.544 1.15.907.15.16.286.333.408.514.083.12.182.257.222.399-.014-.048.099-.2-.03.037a.829.829 0 0 1-.116.156c-.342.375-.938.554-1.384.768-.556.269-1.112.543-1.669.814a303.323 303.323 0 0 1-6.508 3.071c-.552.252-1.098.52-1.66.75-.56.228-1.01.202-1.567.056a358.82 358.82 0 0 1-3.489-.933 219.6 219.6 0 0 1-6.897-2.004 195.31 195.31 0 0 1-3.833-1.226 163.69 163.69 0 0 1-1.904-.645c-.325-.114-.653-.227-.978-.342-.144-.052-.29-.104-.434-.154-.07-.026-.149-.047-.217-.077-.047-.021-.226-.153-.217-.06l-.026.361c.054-.2.293-.39.43-.542.162-.179.33-.358.497-.535.341-.358.695-.705 1.027-1.072.062-.069.012-.46-.037-.422l.004-.003Z" fill="#000"/><path d="M2.109 18.245c-.057.224-.717 3.647 2.468 4.726 3.187 1.08 9.363 4.906 16.59 3.51 7.227-1.395 8.276-4.005 8.353-4.547.078-.54.267-2.951-.45-3.524-3.21 1.495-6.42 2.99-9.634 4.484l-6.953-1.273-7.713-2.704-2.664-.672h.003Z" fill="#000"/><path d="M3.443 21.97c-.443.935-.148 2.184.47 2.977.617.792 1.451 1.258 2.3 1.661 1.919.913 4.045 1.365 6.124 1.735 2.706.481 5.461.771 8.21.519a20.025 20.025 0 0 0 3.63-.695c.884-.253 1.749-.583 2.548-1.04.8-.457 1.346-.966 1.735-1.794.417-.886.66-2.428-.207-3.14-.012-.01-.012.076-.008.085.156.333.281.68.363 1.037.02.083.055.377.048.22.004.077.007-.024 0 .08-.057.63-.33 1.242-.686 1.756-.337.485-.83.858-1.34 1.148-1.69.96-3.686 1.348-5.6 1.513-2.694.233-5.356.07-8.024-.346-1.848-.288-3.698-.663-5.464-1.285-1.009-.356-2.027-.792-2.873-1.457a4.064 4.064 0 0 1-.929-.988c-.351-.551-.37-1.093-.243-1.734.007-.04-.016-.328-.052-.25l-.002-.003Z" fill="#000"/><path d="M3.586 24.046c-.177 1.207-.031 2.463.518 3.564.582 1.167 1.577 1.947 2.751 2.466 1.367.603 2.843.985 4.3 1.294 1.456.309 2.908.497 4.382.58 1.998.11 4.021.042 6.003-.248 1.665-.243 3.374-.542 4.932-1.185 1.053-.436 2.081-1.087 2.6-2.14.36-.734.431-1.578.365-2.381a6.055 6.055 0 0 0-.224-1.214c-.094-.328-.181-.649-.4-.915-.06-.073-.09.177-.093.181-.016.151-.018.328.026.474.177.594.477 1.21.472 1.841-.005.528-.24 1.054-.55 1.474-.591.803-1.501 1.298-2.416 1.652-1.461.566-3.03.863-4.575 1.11-1.7.273-3.432.375-5.153.347-2.753-.043-5.506-.425-8.127-1.283-1.243-.407-2.518-.881-3.442-1.845-.924-.965-1.339-2.343-1.315-3.687 0-.045-.03-.226-.052-.087l-.002.002ZM18.133 8.56a.718.718 0 0 0-.168.28c-.028.082-.061.181-.016.23.066.079.273-.016.337-.044a1.12 1.12 0 0 0 .344-.245s.28-.295.712-.696c.365-.339.53-.407.563-.634.02-.125-.005-.294-.096-.341-.123-.062-.323.13-.446.247-.386.375-.797.776-1.23 1.205v-.003ZM17.089 4.27a.697.697 0 0 0-.311.07c-.076.038-.168.083-.172.149-.007.103.202.19.266.219.198.082.372.085.41.085 0 0 .398.002.976.042.49.035.653.109.83-.026.099-.075.2-.21.167-.309-.042-.134-.313-.15-.48-.158-.531-.026-1.092-.05-1.69-.073h.004ZM22.782 5.599a.613.613 0 0 0-.28 0c-.074.016-.16.037-.177.094-.024.087.139.205.19.243a.918.918 0 0 0 .34.155s.344.083.837.234c.417.127.542.226.721.146.1-.045.212-.142.203-.234-.012-.124-.243-.193-.387-.233-.452-.13-.933-.264-1.445-.403l-.002-.002ZM15.63 2.485a.584.584 0 0 0-.187.18c-.037.058-.082.126-.059.174.036.073.215.047.27.037a.851.851 0 0 0 .313-.115s.273-.165.686-.382c.349-.184.49-.2.558-.366.04-.091.055-.228-.007-.282-.082-.073-.273.03-.391.094-.372.205-.768.424-1.186.66h.003ZM21.308 3.602a.6.6 0 0 0 .08.25c.036.059.078.132.128.13.08-.003.13-.182.146-.238.047-.17.033-.312.03-.345 0 0-.03-.327-.047-.806-.014-.405.031-.544-.087-.68-.066-.076-.177-.147-.25-.114-.099.047-.09.271-.08.408.024.436.052.9.083 1.395h-.003ZM14.262 5.394a.767.767 0 0 0-.184-.269c-.063-.059-.139-.127-.198-.106-.094.033-.092.269-.09.342.003.221.07.389.086.426 0 0 .153.382.341.953.16.483.156.667.345.785.103.066.264.108.339.04.101-.095.012-.359-.047-.521-.182-.516-.38-1.063-.592-1.646v-.004ZM11.149 8.913a.796.796 0 0 0 .116-.309c.011-.087.025-.19-.026-.23-.08-.062-.267.07-.323.11-.177.125-.274.276-.295.309 0 0-.222.344-.573.822-.297.406-.448.505-.438.733.005.128.059.29.155.316.132.036.295-.19.392-.33.313-.445.64-.917.99-1.423l.002.002ZM8.12 6.058a.68.68 0 0 0 .281-.155c.064-.057.14-.127.127-.191-.02-.101-.245-.127-.313-.137a1.042 1.042 0 0 0-.417.033s-.384.109-.953.231c-.48.104-.655.078-.792.257-.075.1-.136.26-.08.344.078.118.342.057.505.017a172.15 172.15 0 0 0 1.645-.4l-.002.001ZM11.274 4.47c.031.059.088.146.184.217.06.044.132.096.182.07.078-.04.054-.247.047-.31-.021-.196-.094-.336-.11-.369 0 0-.168-.32-.383-.803-.181-.408-.195-.573-.37-.656-.096-.047-.238-.066-.297.005-.08.094.024.32.087.457.205.436.425.898.66 1.389ZM13.155 2.145a.519.519 0 0 0 .062.224c.028.055.063.118.108.116.07 0 .123-.163.137-.212.047-.151.04-.278.04-.307 0 0-.017-.294-.014-.721 0-.363.044-.488-.055-.608-.054-.069-.153-.132-.219-.104-.09.04-.087.24-.087.365.007.392.014.807.026 1.247h.002Z" fill="#000"/></svg>