<svg width="32" height="35" fill="none" xmlns="http://www.w3.org/2000/svg"><path d="M4.418 6.893c.02.356.038.722-.062 1.066-.134.462-.465.842-.766 1.222-3.404 4.322-3.459 10.825-.129 15.2.301.395.63.78.8 1.242.157.42.175.88.187 1.327l.157 4.977c.005.168.012.346.097.495.189.337.664.385 1.062.387l15.778.174c2.815.03 5.645.062 8.435-.308.271-.036.572-.092.736-.306.11-.142.135-.327.154-.503.349-3.117-.07-6.258-.338-9.38-.365-4.24-.455-8.5-.27-12.752.027-.63.059-1.275-.14-1.876-.162-.488-.465-.921-.773-1.34a38.708 38.708 0 0 0-3.992-4.603c-.415-.41-.853-.818-1.397-1.044C23.402.64 22.783.618 22.179.6c-3.36-.1-6.72-.204-10.079-.305C10.397.246 8.69.192 6.987.142 6.328.122 5.172-.14 4.56.1 4 .32 4.1.758 4.12 1.277c.075 1.874.199 3.745.298 5.616Z" fill="#fff"/><path d="M14.35.002a21 21 0 0 1 6.012 3.334 21.14 21.14 0 0 1 2.915 2.819l.034 1.638 1.306.11c.757 1.421 2.916 5.91 1.59 11.223-1.398 5.606-5.811 8.503-7.719 9.85C14.362 31.891 10.234 32.718 8 33c7.334-.33 14.668-.659 22-.99l-.636-24.288c-.246.106-.523.1-.791.093l-5.152-.122c0-.252 0-.588-.005-.982 0 0-.002-.23-.007-.463a85.338 85.338 0 0 0-.073-2.258 88.21 88.21 0 0 0-.258-3.696L14.348 0l.002.002Z" fill="#EDDAD7"/><path d="M11 8.054 12.31 16l8.69-.803c-.065-.51-.526-3.67-3.702-5.71C14.582 7.741 11.693 7.98 11 8.054Z" fill="#000"/><path d="M21 16.33c.058 4.164-2.855 7.716-6.725 8.507-4.575.936-9.043-2.287-10.058-6.543C3.18 13.951 5.941 9.354 10.624 8c.405 3.074.813 6.148 1.218 9.221l9.157-.893v.002Z" fill="#EDDAD7"/><path d="M11.019 8.064c-.044.604 0 1.23.03 1.832.03.648.074 1.296.122 1.944.091 1.257.206 2.508.337 3.754.074.703.152 1.406.239 2.104.014.108.056.362.164.289.1-.07.095-.396.081-.52-.284-2.466-.514-4.94-.72-7.422-.029-.336-.057-.674-.089-1.01-.032-.336-.055-.671-.12-.997-.014-.07-.043-.031-.046.024l.002.002Z" fill="#000"/><path d="M12.062 17.988c.29.042.593-.038.882-.077.289-.039.587-.095.879-.147.585-.098 1.172-.2 1.758-.302l3.518-.61c.323-.056.646-.109.97-.168l.514-.095c.078-.014.166-.014.242-.045.088-.035.117-.102.162-.214a.269.269 0 0 0-.003-.176c-.098-.189-.166-.161-.318-.136l-.456.073c-.293.046-.585.098-.879.147l-1.757.302c-1.173.2-2.346.4-3.519.607-.323.056-.646.108-.97.168-.322.06-.707.098-1.03.256-.073.035-.076.41.007.424v-.007Z" fill="#000"/><path d="M10.637 8c-2.425.664-4.49 2.265-5.649 4.4-1.158 2.135-1.312 4.802-.389 7.1.915 2.272 2.883 4.174 5.287 5.016a8.352 8.352 0 0 0 3.778.424 8.13 8.13 0 0 0 3.449-1.259 8.532 8.532 0 0 0 3.818-6.227c.036-.325.058-.65.069-.977 0-.089.015-.385-.114-.421-.13-.036-.134.284-.134.337 0 1.129-.334 2.301-.86 3.317a8.417 8.417 0 0 1-2.152 2.671 8.116 8.116 0 0 1-6.776 1.644c-2.375-.505-4.469-2.062-5.64-4.08a7.706 7.706 0 0 1-.705-1.6 6.994 6.994 0 0 1-.293-1.608 7.493 7.493 0 0 1 .526-3.194c.857-2.178 2.642-3.96 4.885-4.881.296-.12.597-.226.903-.318.108-.034.07-.366-.008-.342L10.637 8Z" fill="#000"/><path d="M31.998 32.697 23 24.237c2.551-3.41 3.407-8.027 1.71-12.252-2.662-6.633-10.52-9.6-16.756-7.11C.93 7.68-2.177 16.678 1.662 23.178c3.253 5.503 10.629 7.756 16.565 4.97a12.568 12.568 0 0 0 2.558-1.6L29.772 35 32 32.7l-.002-.003Zm-14.994-7.136c-4.598 2.158-10.312.414-12.832-3.85-2.975-5.033-.57-12.003 4.875-14.177 4.83-1.93 10.918.37 12.98 5.508 1.948 4.85-.441 10.37-5.025 12.521l.003-.002Z" fill="#000"/><path d="M4.168.075c-.194.618-.154 1.307-.165 1.947-.013.707.017 1.415.028 2.124.01.709.03 1.376.037 2.063.011.785-.037 1.61.141 2.377.04.17.19.465.425.406.248-.061.3-.45.327-.632.103-.702-.024-1.467-.07-2.173-.046-.707-.084-1.416-.128-2.122-.043-.706-.073-1.432-.14-2.146C4.566 1.31 4.558.637 4.314.068c-.035-.086-.113-.096-.146.002v.005ZM5.153 33.787c1.68.303 3.375.199 5.063.183 1.687-.016 3.292-.032 4.939-.052 3.331-.032 6.665-.036 10-.072l2.77-.031c.923-.012 1.927-.104 2.891-.024.254.02.245-1.819-.026-1.79-.844.083-1.685.023-2.53.031-.843.008-1.687.02-2.528.028-1.646.016-3.293.036-4.94.052-3.33.036-6.665.108-9.996.148-1.884.02-3.786-.08-5.658.299-.195.04-.178 1.188.02 1.224l-.005.004Z" fill="#000"/><path d="M30.925 32.726c.139-.756.048-1.598.018-2.366-.03-.769-.067-1.554-.096-2.331a360.826 360.826 0 0 1-.278-14.57c.001-1.806-.016-3.618.038-5.421.008-.24.02-.955-.245-1.032-.265-.077-.29.645-.29.828-.01 1.66-.06 3.324-.068 4.988-.008 1.663-.004 3.358.01 5.036.032 3.212.107 6.424.226 9.63.033.891.063 1.78.11 2.67.021.44.044.88.072 1.32.027.44.066.946.204 1.37.098.306.26.09.299-.122ZM23.006.296c.066.403.36.68.64.972.297.31.595.618.872.945.556.656 1.173 1.27 1.754 1.907 1.131 1.246 2.17 2.57 3.312 3.807.185.201.336-.06.38-.225.068-.263.045-.597-.12-.825-.953-1.307-2.077-2.494-3.198-3.674-.542-.568-1.081-1.142-1.658-1.68-.295-.274-.604-.535-.903-.81-.3-.274-.54-.518-.884-.703-.05-.026-.082.005-.116.035a.253.253 0 0 0-.08.25v.001Z" fill="#000"/><path d="M4.125.62c.64.079 1.31.051 1.956.049.647-.002 1.262 0 1.892.004 1.282.006 2.564.006 3.846.02a366.304 366.304 0 0 1 9.883.233l1.036.04c.381.016.777.06 1.156.014.155-.018.133-.59-.02-.622-.615-.127-1.318-.091-1.95-.117A353.577 353.577 0 0 0 16.19.068 309.416 309.416 0 0 0 8.5.002c-.733.002-1.464.014-2.197.026-.733.012-1.481-.01-2.195.1-.152.023-.14.471.015.491h.002Z" fill="#000"/><path d="M23.084.048c-.135.561-.068 1.204-.063 1.778.005.636.017 1.274.025 1.91.013 1.293.049 2.587.087 3.88 0 .087.028.342.165.34 2.183-.015 4.366.032 6.549.044.21 0 .203-.663-.018-.665-2.183-.025-4.366-.015-6.549-.065l.165.34c-.02-1.294-.04-2.588-.083-3.882-.02-.635-.036-1.273-.059-1.91-.02-.573.018-1.216-.142-1.773-.018-.061-.062-.059-.074 0l-.003.003ZM4.265 24.032c-.23.249-.201.565-.22.845-.025.381-.025.764-.033 1.145-.007.774-.003 1.548-.01 2.321-.008.774.014 1.507.029 2.261.007.376.014.755.029 1.13.015.377.004.818.289 1.141.073.081.252.199.366.062.281-.33.285-.728.285-1.1 0-.37-.015-.754-.022-1.13-.022-.773-.037-1.547-.08-2.318-.044-.771-.077-1.507-.117-2.259-.022-.395-.04-.793-.088-1.188-.037-.307-.022-.642-.275-.913-.04-.04-.12-.038-.157.003h.004Z" fill="#000"/></svg>