<svg id="Group_10250" data-name="Group 10250" xmlns="http://www.w3.org/2000/svg" xmlns:xlink="http://www.w3.org/1999/xlink" width="484.22" height="4.639" viewBox="0 0 484.22 4.639">
  <defs>
    <linearGradient id="linear-gradient" y1="0.5" x2="0.985" y2="0.5" gradientUnits="objectBoundingBox">
      <stop offset="0" stop-color="#636363"/>
      <stop offset="0.281" stop-color="#8e8e8e"/>
      <stop offset="0.801" stop-color="#bababa"/>
      <stop offset="1" stop-color="#6c6c6c"/>
    </linearGradient>
  </defs>
  <path id="Path_11454" data-name="Path 11454" d="M508.491,26.777H35.189c-2.922,0-5.289-.387-5.289-.865V23.255c0-.478,2.368-.865,5.289-.865h473.29c2.922,0,5.289.387,5.289.865v2.657C513.78,26.39,511.413,26.777,508.491,26.777Z" transform="translate(-29.724 -22.264)" fill="url(#linear-gradient)"/>
  <g id="Group_10229" data-name="Group 10229">
    <path id="Path_11455" data-name="Path 11455" d="M508.042,26.659H35.249c-3.154,0-5.719-.43-5.719-.959V22.979c0-.529,2.565-.959,5.719-.959H508.031c3.154,0,5.719.43,5.719.959V25.7C513.761,26.229,511.2,26.659,508.042,26.659ZM35.249,22.168c-2.671,0-4.837.365-4.837.811V25.7c0,.448,2.177.811,4.837.811H508.031c2.671,0,4.837-.365,4.837-.811V22.979c0-.448-2.177-.811-4.837-.811Z" transform="translate(-29.53 -22.02)" fill="url(#linear-gradient)"/>
  </g>
</svg>
