<svg xmlns="http://www.w3.org/2000/svg" width="48" height="48" viewBox="0 0 48 48">
  <g id="Group_8656" data-name="Group 8656" transform="translate(-332 -453)">
    <g id="Rectangle_1179" data-name="Rectangle 1179" transform="translate(332 453)" fill="#f9fafb" stroke="#d1d5db" stroke-width="1">
      <rect width="48" height="48" rx="4" stroke="none"/>
      <rect x="0.5" y="0.5" width="47" height="47" rx="3.5" fill="none"/>
    </g>
    <path id="Path_808" data-name="Path 808" d="M71.642,40.872A6.835,6.835,0,0,1,74.9,35.137a7,7,0,0,0-5.515-2.981c-2.32-.244-4.57,1.388-5.752,1.388-1.205,0-3.025-1.364-4.987-1.324a7.343,7.343,0,0,0-6.18,3.768c-2.673,4.626-.679,11.423,1.881,15.162,1.281,1.832,2.778,3.876,4.737,3.8,1.917-.078,2.632-1.22,4.945-1.22,2.292,0,2.964,1.22,4.962,1.174,2.057-.032,3.352-1.839,4.588-3.687a15.113,15.113,0,0,0,2.1-4.272A6.613,6.613,0,0,1,71.642,40.872ZM67.867,29.7a6.726,6.726,0,0,0,1.54-4.821,6.856,6.856,0,0,0-4.432,2.292A6.4,6.4,0,0,0,63.4,31.81,5.663,5.663,0,0,0,67.867,29.7Z" transform="translate(292.805 435.125)" fill="#111827"/>
  </g>
</svg>
