<svg width="20" height="20" viewBox="0 0 20 20" fill="none" xmlns="http://www.w3.org/2000/svg">
<path fill-rule="evenodd" clip-rule="evenodd" d="M3.3335 10.0001C3.3335 9.53984 3.70659 9.16675 4.16683 9.16675H15.8335C16.2937 9.16675 16.6668 9.53984 16.6668 10.0001C16.6668 10.4603 16.2937 10.8334 15.8335 10.8334H4.16683C3.70659 10.8334 3.3335 10.4603 3.3335 10.0001Z" fill="#C52031"/>
<path fill-rule="evenodd" clip-rule="evenodd" d="M16.4226 9.41083C16.748 9.73626 16.748 10.2639 16.4226 10.5893L11.4226 15.5893C11.0972 15.9148 10.5695 15.9148 10.2441 15.5893C9.91864 15.2639 9.91864 14.7363 10.2441 14.4108L15.2441 9.41083C15.5695 9.08539 16.0972 9.08539 16.4226 9.41083Z" fill="#C52031"/>
<path fill-rule="evenodd" clip-rule="evenodd" d="M10.2441 4.41083C10.5695 4.08539 11.0972 4.08539 11.4226 4.41083L16.4226 9.41083C16.748 9.73626 16.748 10.2639 16.4226 10.5893C16.0972 10.9148 15.5695 10.9148 15.2441 10.5893L10.2441 5.58934C9.91864 5.2639 9.91864 4.73626 10.2441 4.41083Z" fill="#C52031"/>
</svg>
