<svg version="1.1" id="Layer_1" xmlns="http://www.w3.org/2000/svg" xmlns:xlink="http://www.w3.org/1999/xlink" x="0px" y="0px" viewBox="0 0 100 100" style="enable-background:new 0 0 100 100;" xml:space="preserve" class="" width="20" height="18"><style type="text/css">.st0{fill:#c52031;}.st1{fill:#2F66D4;}</style><g><path class="st0" d="M50,40.6c-5.2,0-9.4,4.2-9.4,9.4s4.2,9.4,9.4,9.4s9.4-4.2,9.4-9.4S55.2,40.6,50,40.6z"></path><path class="st1" d="M50,10.2c-21.9,0-39.8,17.8-39.8,39.8S28.1,89.8,50,89.8S89.8,71.9,89.8,50S71.9,10.2,50,10.2z M50,79.1c-16,0-29.1-13-29.1-29.1S34,20.9,50,20.9S79.1,34,79.1,50S66,79.1,50,79.1z"></path></g>
                                </svg>